G04*
G04 #@! TF.GenerationSoftware,Altium Limited,Altium Designer,22.2.1 (43)*
G04*
G04 Layer_Color=32896*
%FSLAX25Y25*%
%MOIN*%
G70*
G04*
G04 #@! TF.SameCoordinates,4EB9BB6F-69CC-4AE6-9B36-E95FEA1B1F0F*
G04*
G04*
G04 #@! TF.FilePolarity,Positive*
G04*
G01*
G75*
%ADD13C,0.00394*%
%ADD168C,0.03937*%
%ADD169C,0.01968*%
D13*
X290945Y37894D02*
Y38878D01*
X289370Y37894D02*
Y38878D01*
X290945Y35925D02*
Y36909D01*
X289370Y35925D02*
Y36909D01*
X290945Y33957D02*
Y34941D01*
X289370Y33957D02*
Y34941D01*
X290945Y31988D02*
Y32972D01*
X289370Y31988D02*
Y32972D01*
X290945Y30020D02*
Y31004D01*
X289370Y30020D02*
Y31004D01*
X290945Y28051D02*
Y29035D01*
X289370Y28051D02*
Y29035D01*
X290945Y26083D02*
Y27067D01*
X289370Y26083D02*
Y27067D01*
X290945Y67421D02*
Y68405D01*
X289370Y67421D02*
Y68405D01*
X290945Y65453D02*
Y66437D01*
X289370Y65453D02*
Y66437D01*
X290945Y63484D02*
Y64468D01*
X289370Y63484D02*
Y64468D01*
X290945Y61516D02*
Y62500D01*
X289370Y61516D02*
Y62500D01*
X290945Y59547D02*
Y60532D01*
X289370Y59547D02*
Y60532D01*
X290945Y57579D02*
Y58563D01*
X289370Y57579D02*
Y58563D01*
X290945Y55610D02*
Y56595D01*
X289370Y55610D02*
Y56595D01*
X290945Y96949D02*
Y97933D01*
X289370Y96949D02*
Y97933D01*
X290945Y94980D02*
Y95965D01*
X289370Y94980D02*
Y95965D01*
X290945Y93012D02*
Y93996D01*
X289370Y93012D02*
Y93996D01*
X290945Y91043D02*
Y92028D01*
X289370Y91043D02*
Y92028D01*
X290945Y89075D02*
Y90059D01*
X289370Y89075D02*
Y90059D01*
X290945Y87106D02*
Y88090D01*
X289370Y87106D02*
Y88090D01*
X290945Y85138D02*
Y86122D01*
X289370Y85138D02*
Y86122D01*
Y114665D02*
Y115650D01*
X290945Y114665D02*
Y115650D01*
X289370Y116634D02*
Y117618D01*
X290945Y116634D02*
Y117618D01*
X289370Y118602D02*
Y119587D01*
X290945Y118602D02*
Y119587D01*
X289370Y120571D02*
Y121555D01*
X290945Y120571D02*
Y121555D01*
X289370Y122539D02*
Y123524D01*
X290945Y122539D02*
Y123524D01*
X289370Y124508D02*
Y125492D01*
X290945Y124508D02*
Y125492D01*
X289370Y126476D02*
Y127461D01*
X290945Y126476D02*
Y127461D01*
X289370Y-98D02*
Y886D01*
X290945Y-98D02*
Y886D01*
X289370Y1870D02*
Y2854D01*
X290945Y1870D02*
Y2854D01*
X289370Y3839D02*
Y4823D01*
X290945Y3839D02*
Y4823D01*
X289370Y5807D02*
Y6791D01*
X290945Y5807D02*
Y6791D01*
Y7677D02*
Y8661D01*
X289370Y7677D02*
Y8661D01*
D168*
X9843Y24016D02*
X10236Y24409D01*
Y94095D01*
X6693Y24016D02*
Y94095D01*
X3543Y24409D02*
Y94095D01*
X0Y24016D02*
Y94095D01*
X291339Y141732D02*
X293701D01*
X291339D02*
Y366142D01*
X0D02*
X291339D01*
X0Y94095D02*
Y366142D01*
Y94095D02*
X13386D01*
Y24016D02*
Y94095D01*
X0Y24016D02*
X13386D01*
X0Y0D02*
Y24016D01*
Y0D02*
X374016D01*
Y141732D01*
X293701D02*
X374016D01*
D169*
X290158Y142717D02*
X292126Y144291D01*
X290158Y10827D02*
Y14764D01*
Y24606D01*
Y40354D02*
Y44291D01*
Y54134D01*
Y69882D02*
Y73819D01*
Y83661D01*
Y99410D02*
Y103347D01*
Y113189D01*
Y128937D02*
Y132874D01*
Y142717D01*
X292323D01*
M02*
