G04*
G04 #@! TF.GenerationSoftware,Altium Limited,Altium Designer,22.2.1 (43)*
G04*
G04 Layer_Color=2752767*
%FSLAX25Y25*%
%MOIN*%
G70*
G04*
G04 #@! TF.SameCoordinates,4EB9BB6F-69CC-4AE6-9B36-E95FEA1B1F0F*
G04*
G04*
G04 #@! TF.FilePolarity,Positive*
G04*
G01*
G75*
%ADD170C,0.00200*%
D170*
X270263Y154318D02*
X270663Y155118D01*
X270263Y155918D01*
X271063Y155518D01*
X271863Y155918D01*
X271463Y155118D01*
X271863Y154318D01*
X271063Y154718D01*
X270263Y154318D01*
X270663Y154718D02*
X270863Y155118D01*
X270663Y155518D01*
X271063Y155318D01*
X271463Y155518D01*
X271263Y155118D01*
X271463Y154718D01*
X271063Y154918D01*
X270663Y154718D01*
X270263Y149594D02*
X270663Y150394D01*
X270263Y151194D01*
X271063Y150794D01*
X271863Y151194D01*
X271463Y150394D01*
X271863Y149594D01*
X271063Y149994D01*
X270263Y149594D01*
X270663Y149994D02*
X270863Y150394D01*
X270663Y150794D01*
X271063Y150594D01*
X271463Y150794D01*
X271263Y150394D01*
X271463Y149994D01*
X271063Y150194D01*
X270663Y149994D01*
X263373Y139357D02*
X263773Y140157D01*
X263373Y140957D01*
X264173Y140558D01*
X264973Y140957D01*
X264573Y140157D01*
X264973Y139357D01*
X264173Y139758D01*
X263373Y139357D01*
X263773Y139758D02*
X263973Y140157D01*
X263773Y140558D01*
X264173Y140357D01*
X264573Y140558D01*
X264373Y140157D01*
X264573Y139758D01*
X264173Y139957D01*
X263773Y139758D01*
M02*
