G04*
G04 #@! TF.GenerationSoftware,Altium Limited,Altium Designer,22.2.1 (43)*
G04*
G04 Layer_Physical_Order=1*
G04 Layer_Color=255*
%FSLAX25Y25*%
%MOIN*%
G70*
G04*
G04 #@! TF.SameCoordinates,4EB9BB6F-69CC-4AE6-9B36-E95FEA1B1F0F*
G04*
G04*
G04 #@! TF.FilePolarity,Positive*
G04*
G01*
G75*
%ADD18C,0.01000*%
%ADD58C,0.08268*%
%ADD67C,0.02362*%
%ADD69C,0.02000*%
%ADD70R,0.03800X0.03100*%
%ADD71R,0.04331X0.03150*%
%ADD72R,0.02756X0.05118*%
%ADD73O,0.06890X0.04921*%
%ADD74R,0.04134X0.02165*%
%ADD75R,0.03100X0.03800*%
%ADD76R,0.07874X0.04331*%
%ADD77R,0.05906X0.01968*%
%ADD78R,0.05118X0.02756*%
%ADD79R,0.02362X0.04724*%
%ADD80R,0.08268X0.06299*%
%ADD81R,0.01575X0.05315*%
%ADD82R,0.07087X0.07480*%
%ADD83R,0.03937X0.01968*%
%ADD84R,0.06299X0.06299*%
%ADD85R,0.02165X0.04134*%
%ADD86R,0.04724X0.06299*%
%ADD87R,0.12992X0.06299*%
%ADD88R,0.12992X0.17323*%
%ADD89R,0.15354X0.24410*%
%ADD90R,0.03937X0.03150*%
%ADD91R,0.02756X0.05906*%
%ADD92R,0.05906X0.03543*%
%ADD93R,0.03543X0.05906*%
%ADD94R,0.03543X0.03543*%
%ADD95R,0.03543X0.03543*%
%ADD96R,0.05118X0.13386*%
%ADD97R,0.08858X0.08346*%
%ADD98R,0.24410X0.15354*%
%ADD99R,0.17323X0.12992*%
G04:AMPARAMS|DCode=100|XSize=62.99mil|YSize=49.21mil|CornerRadius=0mil|HoleSize=0mil|Usage=FLASHONLY|Rotation=225.000|XOffset=0mil|YOffset=0mil|HoleType=Round|Shape=Rectangle|*
%AMROTATEDRECTD100*
4,1,4,0.00487,0.03967,0.03967,0.00487,-0.00487,-0.03967,-0.03967,-0.00487,0.00487,0.03967,0.0*
%
%ADD100ROTATEDRECTD100*%

%ADD101R,0.06102X0.04724*%
%ADD102R,0.01181X0.04724*%
%ADD103R,0.04724X0.01181*%
%ADD104R,0.11811X0.07874*%
%ADD105C,0.02500*%
%ADD106C,0.01500*%
%ADD107C,0.01470*%
%ADD108C,0.01100*%
%ADD109C,0.03000*%
%ADD110C,0.01200*%
%ADD111C,0.03500*%
%ADD112C,0.07000*%
%ADD113C,0.06000*%
%ADD114C,0.03937*%
%ADD115O,0.07874X0.05118*%
%ADD116C,0.07874*%
%ADD117O,0.14173X0.07087*%
%ADD118O,0.15748X0.07874*%
%ADD119O,0.07874X0.15748*%
%ADD120O,0.07087X0.14173*%
%ADD121C,0.11811*%
%ADD122C,0.01968*%
%ADD123C,0.01772*%
G36*
X197047Y251378D02*
Y237008D01*
X196653Y236614D01*
X187992D01*
X186221Y238386D01*
Y251378D01*
X187795Y252953D01*
X195472D01*
X197047Y251378D01*
D02*
G37*
G36*
X278346Y250984D02*
Y246260D01*
X272047Y239961D01*
Y237008D01*
X271063Y236024D01*
X266732D01*
X265748Y237008D01*
Y243110D01*
X268307Y245669D01*
Y251181D01*
X270472Y253346D01*
X275984D01*
X278346Y250984D01*
D02*
G37*
G36*
X245866Y240354D02*
Y237402D01*
X243504Y235039D01*
X233071Y235039D01*
X230906Y237205D01*
Y240158D01*
X232283Y241535D01*
X244685D01*
X245866Y240354D01*
D02*
G37*
G36*
X227362Y251969D02*
Y246063D01*
X225000Y243701D01*
X218701D01*
X215748Y240748D01*
Y232677D01*
X207087D01*
X203346Y236417D01*
Y240748D01*
X216535Y253937D01*
X225394D01*
X227362Y251969D01*
D02*
G37*
G36*
X248031D02*
Y246654D01*
X254921Y239764D01*
X260236D01*
X260630Y239370D01*
Y236614D01*
X260039Y236024D01*
X255906Y236024D01*
X252362Y232480D01*
X247638D01*
Y240354D01*
X244291Y243701D01*
X240354Y243701D01*
X237992Y246063D01*
Y252165D01*
X240158Y254331D01*
X245669D01*
X248031Y251969D01*
D02*
G37*
G36*
X228937Y234055D02*
Y229528D01*
X225197D01*
X222638Y226969D01*
X222638Y224016D01*
X222244Y223622D01*
X217913D01*
X217520Y224016D01*
Y233071D01*
X218898Y234449D01*
X228543D01*
X228937Y234055D01*
D02*
G37*
G36*
X135039Y204331D02*
X145276Y204331D01*
X146457Y203150D01*
X146457Y196063D01*
X145221Y194828D01*
X130369D01*
X107480Y217717D01*
X89370Y217717D01*
X86614Y220472D01*
X86614Y229528D01*
X89370Y232283D01*
X107087Y232283D01*
X135039Y204331D01*
D02*
G37*
G36*
X110236Y204724D02*
Y194882D01*
X108661Y193307D01*
X90158D01*
X88583Y194882D01*
Y204724D01*
X90158Y206299D01*
X108661D01*
X110236Y204724D01*
D02*
G37*
G36*
X39764Y290158D02*
Y233465D01*
X68504Y204724D01*
X83465D01*
X84646Y203543D01*
Y189764D01*
X83071Y188189D01*
X70079D01*
X23622Y234646D01*
Y242913D01*
X29528Y248819D01*
X29528Y277165D01*
X23622Y283071D01*
Y290158D01*
X27165Y293701D01*
X36220D01*
X39764Y290158D01*
D02*
G37*
G36*
X160630Y217323D02*
Y183858D01*
X153543Y176772D01*
X145063Y176772D01*
Y178340D01*
X140512D01*
X135961D01*
Y176772D01*
X134252D01*
X133071Y177953D01*
X133071Y184252D01*
X134646Y185827D01*
X149213D01*
X151575Y188189D01*
Y208661D01*
X144488Y215748D01*
X129527D01*
X124016Y221260D01*
X124016Y227559D01*
X129528Y233071D01*
X144882D01*
X160630Y217323D01*
D02*
G37*
G36*
X200000Y184646D02*
X208661Y175984D01*
Y163194D01*
X207283D01*
Y168701D01*
X204724Y171260D01*
X201181D01*
X200787Y171653D01*
Y176378D01*
X198819Y178347D01*
X177953D01*
X163386Y163779D01*
X163386Y155118D01*
X162205Y153937D01*
X155905D01*
X153150Y151181D01*
Y122835D01*
X145276D01*
Y160039D01*
X146582Y161346D01*
X147043Y161100D01*
X146989Y160827D01*
X147158Y159976D01*
X147640Y159254D01*
X147859Y159108D01*
Y158608D01*
X147640Y158462D01*
X147158Y157741D01*
X147138Y157640D01*
X149213D01*
Y156890D01*
X149963D01*
Y154815D01*
X150064Y154835D01*
X150785Y155317D01*
X150931Y155536D01*
X151431D01*
X151577Y155317D01*
X152299Y154835D01*
X152400Y154815D01*
Y156890D01*
X153150D01*
Y157640D01*
X155224D01*
X155204Y157741D01*
X154722Y158462D01*
X154504Y158608D01*
Y159108D01*
X154722Y159254D01*
X155204Y159976D01*
X155224Y160077D01*
X153150D01*
Y161577D01*
X155224D01*
X155204Y161678D01*
X154722Y162399D01*
X154504Y162545D01*
Y163045D01*
X154722Y163191D01*
X154868Y163410D01*
X155368D01*
X155514Y163191D01*
X156236Y162709D01*
X156337Y162689D01*
Y164764D01*
Y166838D01*
X156236Y166818D01*
X155514Y166336D01*
X155368Y166118D01*
X154868D01*
X154722Y166336D01*
X154001Y166818D01*
X153150Y166988D01*
X152877Y166933D01*
X152630Y167394D01*
X169882Y184646D01*
X200000Y184646D01*
D02*
G37*
G36*
X112598Y163779D02*
Y160630D01*
X114173Y159055D01*
X126378D01*
X134252Y151181D01*
Y139370D01*
X133858Y138976D01*
X127953D01*
X126378Y140551D01*
Y145669D01*
X119291Y152756D01*
X113558D01*
X113558Y152756D01*
X113389Y152731D01*
X113106Y152546D01*
X112971Y152237D01*
X113027Y151903D01*
X113124Y151763D01*
X117100Y147467D01*
X128346Y136221D01*
X128347Y136221D01*
Y104331D01*
X122441Y98425D01*
X103543D01*
X103150Y98819D01*
Y112598D01*
X103937Y113386D01*
X117323D01*
X120079Y116142D01*
Y135039D01*
X118504Y136614D01*
X109055D01*
X96457Y149213D01*
Y163386D01*
X97638Y164567D01*
X111811Y164567D01*
X112598Y163779D01*
D02*
G37*
G36*
X81496Y132677D02*
X82677Y131496D01*
X95276Y131496D01*
Y127953D01*
X87795D01*
Y128347D01*
X82677Y128346D01*
X82677Y124409D01*
X81496Y123228D01*
X68110D01*
X67323Y124016D01*
Y131890D01*
X68110Y132677D01*
X81496Y132677D01*
D02*
G37*
G36*
X117717Y125591D02*
Y116142D01*
X116142Y114567D01*
X103937D01*
X103150Y115354D01*
Y124016D01*
X105512Y126378D01*
X116929D01*
X117717Y125591D01*
D02*
G37*
G36*
X101969Y124016D02*
Y99213D01*
X101575Y98819D01*
X82284D01*
X79921Y101181D01*
Y111811D01*
X81496Y113386D01*
X85039D01*
X87008Y115354D01*
X87008Y125591D01*
X87795Y126378D01*
X99606D01*
X101969Y124016D01*
D02*
G37*
G36*
X19685Y281496D02*
X24606Y276575D01*
X24606Y264961D01*
X22638Y262992D01*
Y233465D01*
X69095Y187008D01*
X134432D01*
X134482Y186508D01*
X134372Y186486D01*
X134141Y186331D01*
X132566Y184757D01*
X132412Y184525D01*
X132357Y184252D01*
X132357Y177953D01*
X132412Y177680D01*
X132566Y177448D01*
X133747Y176267D01*
X133979Y176112D01*
X134252Y176058D01*
X135961D01*
X136234Y176112D01*
X136261Y176130D01*
X136761Y176028D01*
Y176028D01*
X136761Y176028D01*
X144263D01*
X144263Y176028D01*
X144763Y176130D01*
X144790Y176112D01*
X145063Y176058D01*
X153543Y176058D01*
X153816Y176112D01*
X154048Y176267D01*
X161135Y183354D01*
X161289Y183585D01*
X161344Y183858D01*
Y199729D01*
X184449Y222835D01*
X224762D01*
Y177353D01*
X224262Y177201D01*
X223941Y177682D01*
X223417Y178032D01*
X223254Y178163D01*
X223273Y178647D01*
X223516Y179011D01*
X223677Y179823D01*
X223516Y180635D01*
X223056Y181323D01*
X222367Y181783D01*
X221555Y181945D01*
X220743Y181783D01*
X220055Y181323D01*
X219595Y180635D01*
X219433Y179823D01*
X219438Y179797D01*
X217834Y178193D01*
X217372Y178384D01*
Y182636D01*
X218195D01*
Y187836D01*
X213695D01*
Y182636D01*
X214517D01*
Y168613D01*
X213486D01*
Y171262D01*
X213783Y171706D01*
X213929Y172441D01*
X213783Y173176D01*
X213366Y173799D01*
X212743Y174216D01*
X212008Y174362D01*
X211273Y174216D01*
X210649Y173799D01*
X210233Y173176D01*
X210087Y172441D01*
X210233Y171706D01*
X210529Y171262D01*
Y168913D01*
X209375D01*
Y175984D01*
X209321Y176257D01*
X209166Y176489D01*
X200505Y185150D01*
X200273Y185305D01*
X200000Y185359D01*
X169882Y185359D01*
X169609Y185305D01*
X169377Y185150D01*
X152126Y167899D01*
X152106Y167869D01*
X152079Y167847D01*
X152029Y167754D01*
X151971Y167667D01*
X151964Y167632D01*
X151947Y167601D01*
X151937Y167497D01*
X151917Y167394D01*
X151924Y167359D01*
X151920Y167324D01*
X151951Y167224D01*
X151971Y167121D01*
X151991Y167092D01*
X152001Y167058D01*
X152221Y166646D01*
X151649Y166264D01*
X151189Y165576D01*
X151028Y164764D01*
X151189Y163952D01*
X151649Y163263D01*
X151900Y163096D01*
Y162495D01*
X151649Y162327D01*
X151482Y162077D01*
X150880D01*
X150713Y162327D01*
X150025Y162787D01*
X149213Y162949D01*
X148401Y162787D01*
X147712Y162327D01*
X147330Y161756D01*
X146919Y161976D01*
X146885Y161986D01*
X146855Y162005D01*
X146753Y162026D01*
X146652Y162056D01*
X146617Y162053D01*
X146582Y162060D01*
X146479Y162039D01*
X146375Y162029D01*
X146344Y162012D01*
X146309Y162005D01*
X146222Y161947D01*
X146130Y161898D01*
X146107Y161870D01*
X146078Y161851D01*
X144771Y160544D01*
X144616Y160312D01*
X144562Y160039D01*
Y138226D01*
X144071Y138205D01*
X144062Y138205D01*
X142443D01*
Y134646D01*
Y131087D01*
X144062D01*
X144071Y131087D01*
X144562Y131065D01*
Y122835D01*
X144616Y122562D01*
X144771Y122330D01*
X145002Y122175D01*
X145276Y122121D01*
X153150D01*
X153423Y122175D01*
X153654Y122330D01*
X153809Y122562D01*
X153863Y122835D01*
Y150885D01*
X156201Y153223D01*
X162205D01*
X162478Y153278D01*
X162709Y153432D01*
X163891Y154613D01*
X164045Y154845D01*
X164100Y155118D01*
X164100Y163484D01*
X167161Y166545D01*
X167572Y166249D01*
X167572Y165863D01*
Y164530D01*
X169722D01*
Y166330D01*
X168065D01*
X167652Y166330D01*
X167356Y166740D01*
X178248Y177633D01*
X198523D01*
X199128Y177028D01*
X198937Y176566D01*
X197994D01*
Y174016D01*
Y171466D01*
X200111D01*
X200128Y171380D01*
X200283Y171149D01*
X200676Y170755D01*
X200908Y170600D01*
X201181Y170546D01*
X204429D01*
X206570Y168405D01*
Y163194D01*
X206624Y162920D01*
X206779Y162689D01*
X206780Y162688D01*
Y162489D01*
X207238D01*
X207283Y162480D01*
X208449D01*
Y162189D01*
X209289D01*
Y162489D01*
X209362D01*
Y163125D01*
X209375Y163194D01*
Y165551D01*
X210529D01*
X210642Y164985D01*
X210717Y164873D01*
Y162489D01*
X210789D01*
Y162189D01*
X211630D01*
Y162489D01*
X230289D01*
Y155709D01*
X230402Y155143D01*
X230722Y154663D01*
X231202Y154343D01*
X231768Y154230D01*
X232568D01*
Y152450D01*
Y148513D01*
Y144576D01*
Y140639D01*
Y136702D01*
X238692D01*
Y140502D01*
X245812D01*
X247165Y139148D01*
X247165Y139148D01*
X247628Y138839D01*
X248175Y138730D01*
X248175Y138730D01*
X248975D01*
Y137908D01*
X254175D01*
Y142408D01*
X248975D01*
Y142083D01*
X248475Y141876D01*
X247412Y142938D01*
X246949Y143248D01*
X246403Y143357D01*
X246403Y143357D01*
X238692D01*
Y148552D01*
X238779Y149016D01*
X248031D01*
X250197Y146850D01*
X272638D01*
X274606Y148819D01*
Y156890D01*
X272835Y158661D01*
X251757D01*
X251719Y158699D01*
D01*
X248819D01*
Y159449D01*
X248069D01*
Y161999D01*
X245919D01*
Y159062D01*
X245543Y158691D01*
X245461Y158693D01*
X245119Y159034D01*
Y161699D01*
X244202D01*
Y164126D01*
X244480Y164542D01*
X244642Y165354D01*
X244480Y166166D01*
X244020Y166855D01*
X243332Y167315D01*
X242520Y167476D01*
X241708Y167315D01*
X241019Y166855D01*
X240559Y166166D01*
X240398Y165354D01*
X240559Y164542D01*
X240837Y164127D01*
Y161699D01*
X239919D01*
Y161124D01*
X235630D01*
X235064Y161012D01*
X234951Y160936D01*
X233246D01*
Y168299D01*
X235691Y170744D01*
X236012Y171223D01*
X236124Y171789D01*
Y184191D01*
X239851D01*
Y182804D01*
X249125D01*
Y188535D01*
X239851D01*
Y187148D01*
X235290D01*
X234724Y187035D01*
X234656Y186989D01*
X234156Y187257D01*
Y194191D01*
X239851D01*
Y192804D01*
X249125D01*
Y198535D01*
X239851D01*
Y197148D01*
X233321D01*
X232756Y197035D01*
X232687Y196989D01*
X232187Y197257D01*
Y204230D01*
X238853D01*
X239051Y204191D01*
X239851D01*
Y202804D01*
X249125D01*
Y208535D01*
X239851D01*
Y207148D01*
X239210D01*
X239012Y207187D01*
X231353D01*
X230787Y207074D01*
X230522Y206897D01*
X230022Y207158D01*
Y218088D01*
X230731Y218797D01*
X239551D01*
Y216419D01*
X243738D01*
Y218835D01*
X243266D01*
X243200Y218923D01*
X243079Y219335D01*
X244707Y220963D01*
X245027Y221442D01*
X245140Y222008D01*
Y222835D01*
X280118D01*
X285433Y217520D01*
Y92705D01*
X284971Y92513D01*
X270730Y106754D01*
X270251Y107074D01*
X269685Y107187D01*
X248916D01*
X240384Y115719D01*
X240469Y116341D01*
X240870Y116610D01*
X241330Y117298D01*
X241492Y118110D01*
X241330Y118922D01*
X240870Y119611D01*
X240182Y120071D01*
X240141Y120079D01*
X236780Y123440D01*
Y124128D01*
X237442D01*
Y128628D01*
X232242D01*
Y127856D01*
X231715D01*
X231203Y128368D01*
Y132087D01*
X231090Y132652D01*
X231015Y132765D01*
Y135149D01*
X229346D01*
Y135449D01*
X228506D01*
Y135149D01*
X228434D01*
Y132765D01*
X228358Y132652D01*
X228246Y132087D01*
X227266D01*
X227153Y132652D01*
X227078Y132765D01*
Y135149D01*
X227006D01*
Y135449D01*
X226165D01*
Y135149D01*
X206780D01*
Y132765D01*
X206705Y132652D01*
X206592Y132087D01*
Y130927D01*
X203128Y127463D01*
X199153D01*
X199138Y127485D01*
X198450Y127945D01*
X197638Y128106D01*
X196826Y127945D01*
X196137Y127485D01*
X195677Y126796D01*
X195570Y126254D01*
X195070Y126304D01*
Y129868D01*
X193270D01*
Y126968D01*
Y124068D01*
X195070D01*
Y125665D01*
X195570Y125714D01*
X195677Y125172D01*
X196137Y124484D01*
X196826Y124024D01*
X197638Y123862D01*
X198450Y124024D01*
X199138Y124484D01*
X199153Y124506D01*
X203740D01*
X204306Y124618D01*
X204786Y124939D01*
X208150Y128303D01*
X208612Y128112D01*
Y120330D01*
X208046Y119764D01*
X207736Y119301D01*
X207628Y118755D01*
X207628Y118755D01*
Y117955D01*
X206805D01*
Y112755D01*
X211305D01*
Y117955D01*
X210981D01*
X210774Y118455D01*
X211049Y118730D01*
X211049Y118730D01*
X211218Y118983D01*
X211242Y119009D01*
X211810Y119098D01*
X212455Y118454D01*
X212247Y117954D01*
X211923D01*
Y112754D01*
X216423D01*
Y117954D01*
X215601D01*
Y118754D01*
X215492Y119301D01*
X215183Y119764D01*
X215182Y119764D01*
X213435Y121511D01*
Y129024D01*
X214517D01*
Y122101D01*
X214517Y122101D01*
X214626Y121555D01*
X214936Y121091D01*
X217573Y118454D01*
X217366Y117954D01*
X217041D01*
Y112754D01*
X221541D01*
Y117954D01*
X220719D01*
Y118754D01*
X220719Y118754D01*
X220610Y119301D01*
X220301Y119764D01*
X220301Y119764D01*
X217407Y122658D01*
X217447Y123038D01*
X217921Y123223D01*
X222691Y118454D01*
X222484Y117954D01*
X222160D01*
Y112754D01*
X226307D01*
X226610Y112511D01*
X226657Y112042D01*
X226298Y111654D01*
X222160D01*
Y106454D01*
X226659D01*
Y107576D01*
X228325D01*
X235333Y100569D01*
Y100018D01*
X234833Y99811D01*
X232184Y102459D01*
X231688Y102791D01*
X231102Y102907D01*
X221696D01*
X220821Y103783D01*
Y106454D01*
X221541D01*
Y111654D01*
X217041D01*
Y106454D01*
X217762D01*
Y103150D01*
X217843Y102744D01*
X217382Y102498D01*
X215703Y104177D01*
Y106454D01*
X216423D01*
Y111654D01*
X211923D01*
Y106454D01*
X212644D01*
Y103543D01*
X212676Y103383D01*
X212215Y103137D01*
X210584Y104767D01*
Y106455D01*
X211305D01*
Y111655D01*
X206805D01*
Y106455D01*
X207526D01*
Y104134D01*
X207642Y103549D01*
X207974Y103052D01*
X208531Y102496D01*
X208250Y102069D01*
X207895Y102069D01*
X203852D01*
Y101122D01*
X201971D01*
X201599Y101370D01*
X200787Y101531D01*
X199975Y101370D01*
X199287Y100910D01*
X198827Y100222D01*
X198665Y99410D01*
X198827Y98598D01*
X199287Y97909D01*
X199975Y97449D01*
X200787Y97288D01*
X201599Y97449D01*
X202060Y97757D01*
X203852D01*
Y96869D01*
X208352D01*
Y101581D01*
X208352Y101967D01*
X208779Y102248D01*
X215279Y95747D01*
X215115Y95204D01*
X214739Y95130D01*
X214051Y94670D01*
X214036Y94648D01*
X208352D01*
Y95769D01*
X203852D01*
Y94648D01*
X203052D01*
X203052Y94648D01*
X197157D01*
Y94854D01*
X189851D01*
Y91485D01*
X197157D01*
Y91691D01*
X203052D01*
X203052Y91691D01*
X203852D01*
Y90569D01*
X208352D01*
Y91691D01*
X214036D01*
X214051Y91669D01*
X214739Y91209D01*
X215551Y91047D01*
X216363Y91209D01*
X217052Y91669D01*
X217512Y92357D01*
X217586Y92733D01*
X218129Y92897D01*
X218643Y92383D01*
X219139Y92052D01*
X219724Y91935D01*
X223316D01*
Y91780D01*
X230621D01*
Y95149D01*
X223316D01*
Y94994D01*
X220358D01*
X218846Y96506D01*
X219092Y96967D01*
X219252Y96935D01*
X223316D01*
Y96780D01*
X230621D01*
Y99043D01*
X231083Y99234D01*
X232526Y97792D01*
Y91578D01*
X231114Y90167D01*
X230621Y90149D01*
Y90149D01*
X223316D01*
Y86780D01*
X230621D01*
Y86935D01*
X231575D01*
X232160Y87052D01*
X232656Y87383D01*
X234833Y89560D01*
X235333Y89352D01*
Y82305D01*
X230687Y77659D01*
X208477D01*
X208352Y78108D01*
X208352Y78159D01*
Y79026D01*
X210249D01*
X210665Y78747D01*
X211477Y78586D01*
X212289Y78747D01*
X212978Y79207D01*
X213438Y79896D01*
X213599Y80708D01*
X213438Y81520D01*
X212978Y82208D01*
X212289Y82668D01*
X211477Y82830D01*
X210665Y82668D01*
X210249Y82390D01*
X208352D01*
Y83308D01*
X203852D01*
Y78159D01*
X203852Y78108D01*
X203728Y77659D01*
X153347D01*
X152781Y77547D01*
X152301Y77227D01*
X113817Y38742D01*
X110236Y42323D01*
Y91535D01*
X104560Y97211D01*
X104767Y97711D01*
X122441D01*
X122714Y97766D01*
X122946Y97921D01*
X128851Y103826D01*
X129006Y104058D01*
X129060Y104331D01*
Y136221D01*
X129560Y136221D01*
X135039Y136221D01*
Y139296D01*
X135039Y139296D01*
X134966Y139766D01*
Y151181D01*
X134911Y151454D01*
X134757Y151686D01*
X126883Y159560D01*
X126651Y159714D01*
X126566Y159731D01*
Y161825D01*
X124016D01*
Y162575D01*
X123266D01*
Y165475D01*
X121669D01*
Y165543D01*
X118860D01*
Y163165D01*
Y160787D01*
X121466D01*
Y159769D01*
X114469D01*
X113312Y160925D01*
Y163779D01*
X113258Y164053D01*
X113103Y164284D01*
X113103Y164284D01*
X112316Y165072D01*
X112084Y165226D01*
X111811Y165281D01*
X97638Y165281D01*
X97365Y165226D01*
X97133Y165072D01*
X95952Y163891D01*
X95797Y163659D01*
X95743Y163386D01*
Y149213D01*
X95797Y148940D01*
X95952Y148708D01*
X108551Y136109D01*
X108782Y135955D01*
X109055Y135900D01*
X109497D01*
Y132922D01*
X116802D01*
Y135900D01*
X118208D01*
X119365Y134744D01*
Y116437D01*
X118908Y115980D01*
X118591Y116087D01*
X118430Y116210D01*
Y125591D01*
X118376Y125864D01*
X118221Y126095D01*
X117434Y126883D01*
X117202Y127037D01*
X116929Y127092D01*
X105512D01*
X105239Y127037D01*
X105007Y126883D01*
X102902Y124778D01*
X102559Y124572D01*
X102216Y124778D01*
X100111Y126883D01*
X99879Y127037D01*
X99606Y127092D01*
X96098D01*
X96062Y127131D01*
X95876Y127592D01*
X95935Y127680D01*
X95989Y127953D01*
Y131496D01*
X95935Y131769D01*
X95780Y132001D01*
X95549Y132155D01*
X95536Y132158D01*
X95449Y132622D01*
X95449Y132685D01*
Y133856D01*
X91496D01*
X87543D01*
Y132710D01*
X87543Y132622D01*
X87331Y132210D01*
X82973D01*
X82001Y133182D01*
X81769Y133336D01*
X81496Y133391D01*
X68110Y133391D01*
X67837Y133336D01*
X67606Y133182D01*
X66818Y132394D01*
X66663Y132163D01*
X66609Y131890D01*
Y124016D01*
X66663Y123743D01*
X66818Y123511D01*
X67267Y123062D01*
X67331Y122741D01*
X67791Y122053D01*
X68479Y121593D01*
X69291Y121431D01*
X70103Y121593D01*
X70792Y122053D01*
X70813Y122085D01*
X71313D01*
X71334Y122053D01*
X72023Y121593D01*
X72835Y121431D01*
X73647Y121593D01*
X74335Y122053D01*
X74527Y122339D01*
X75080D01*
X75271Y122053D01*
X75960Y121593D01*
X76772Y121431D01*
X77584Y121593D01*
X78272Y122053D01*
X78581Y122515D01*
X81496D01*
X81769Y122569D01*
X81769Y122569D01*
X81769Y122569D01*
X81886Y122647D01*
X82001Y122724D01*
X82001Y122724D01*
X82001Y122724D01*
X83182Y123905D01*
X83337Y124136D01*
X83391Y124410D01*
X83390Y127279D01*
X83744Y127632D01*
X86842Y127633D01*
X86883Y127617D01*
X87291Y127184D01*
X87291Y126883D01*
X86503Y126095D01*
X86348Y125864D01*
X86294Y125591D01*
X86294Y115650D01*
X84744Y114100D01*
X81496D01*
X81223Y114045D01*
X80991Y113891D01*
X79417Y112316D01*
X79262Y112084D01*
X79208Y111811D01*
Y101181D01*
X79262Y100908D01*
X79417Y100676D01*
X81779Y98314D01*
X82010Y98159D01*
X82284Y98105D01*
X101575D01*
X101848Y98159D01*
X102079Y98314D01*
X102079Y98314D01*
X102645Y98314D01*
X103018Y97941D01*
X103013Y97853D01*
X102856Y97441D01*
X56006D01*
Y98114D01*
X55893Y98680D01*
X55573Y99159D01*
X49935Y104797D01*
X49456Y105118D01*
X48890Y105230D01*
X44331D01*
X43922Y105504D01*
X43110Y105665D01*
X42298Y105504D01*
X41610Y105044D01*
X41150Y104355D01*
X40988Y103543D01*
X41150Y102731D01*
X41610Y102043D01*
X42298Y101583D01*
X43110Y101421D01*
X43922Y101583D01*
X44611Y102043D01*
X44765Y102273D01*
X45597D01*
X45833Y101832D01*
X45677Y101599D01*
X45516Y100787D01*
X45677Y99975D01*
X46137Y99287D01*
X46826Y98827D01*
X47638Y98665D01*
X47654Y98669D01*
X48049Y98273D01*
Y97441D01*
X37299D01*
Y97614D01*
X31756D01*
Y97441D01*
X18701D01*
X2953Y113189D01*
Y276575D01*
X7874Y281496D01*
X19685Y281496D01*
D02*
G37*
G36*
X371850Y136221D02*
Y33071D01*
X349213Y33071D01*
X340945Y24803D01*
Y2559D01*
X297290D01*
X293504Y7269D01*
X293504Y22361D01*
X293966Y22553D01*
X294480Y22039D01*
X295025Y21674D01*
X295669Y21546D01*
X296342D01*
X296376Y21512D01*
X296388Y21484D01*
X296942Y20761D01*
X297250Y20526D01*
Y20026D01*
X296942Y19790D01*
X296388Y19067D01*
X296039Y18226D01*
X295920Y17323D01*
X296039Y16420D01*
X296388Y15578D01*
X296942Y14856D01*
X297665Y14301D01*
X298506Y13953D01*
X299409Y13834D01*
X302165D01*
X303068Y13953D01*
X303910Y14301D01*
X304632Y14856D01*
X305187Y15578D01*
X305535Y16420D01*
X305654Y17323D01*
X305535Y18226D01*
X305187Y19067D01*
X304716Y19680D01*
X304782Y20091D01*
X304859Y20246D01*
X305032Y20361D01*
X306016Y21346D01*
X306171Y21577D01*
X306225Y21850D01*
Y24606D01*
X306171Y24879D01*
X306016Y25111D01*
X305032Y26095D01*
X304859Y26211D01*
X304782Y26366D01*
X304716Y26776D01*
X305187Y27389D01*
X305535Y28231D01*
X305654Y29134D01*
X305535Y30037D01*
X305187Y30878D01*
X304632Y31601D01*
X304325Y31837D01*
Y32337D01*
X304632Y32572D01*
X305187Y33295D01*
X305199Y33323D01*
X305873Y33998D01*
X306374Y34097D01*
X306879Y34435D01*
X306956Y34452D01*
X307473Y34308D01*
X307600Y34001D01*
X308213Y33387D01*
X308699Y33186D01*
Y35236D01*
X309449D01*
Y35986D01*
X311499D01*
X311298Y36472D01*
X310684Y37085D01*
X310377Y37212D01*
X310260Y37802D01*
X323532Y51074D01*
X326927D01*
Y50506D01*
X332127D01*
Y55006D01*
X326927D01*
Y54438D01*
X322835D01*
X322191Y54310D01*
X321645Y53945D01*
X319424Y51725D01*
X318924Y51932D01*
Y58651D01*
X323417Y63144D01*
X326091D01*
Y59536D01*
X331822D01*
Y60129D01*
X333532D01*
Y55796D01*
X334715D01*
Y55006D01*
X333227D01*
Y50506D01*
X338427D01*
Y55006D01*
X338080D01*
Y55796D01*
X339263D01*
Y60129D01*
X339567D01*
X340211Y60257D01*
X340757Y60622D01*
X345481Y65346D01*
X345846Y65892D01*
X345974Y66535D01*
Y79528D01*
X345846Y80171D01*
X345481Y80717D01*
X345481Y80717D01*
X341544Y84654D01*
X340998Y85019D01*
X340354Y85147D01*
X338495D01*
Y86724D01*
X334869D01*
Y119685D01*
X334702Y120524D01*
X334227Y121235D01*
X331078Y124385D01*
X330366Y124860D01*
X329528Y125027D01*
X327596D01*
X327413Y125210D01*
X326736Y125601D01*
X326341Y125707D01*
Y122835D01*
Y119962D01*
X326736Y120068D01*
X327413Y120459D01*
X327596Y120642D01*
X328620D01*
X330485Y118777D01*
Y86724D01*
X326859D01*
Y80206D01*
X327255D01*
Y74494D01*
X326927D01*
Y70728D01*
X321183D01*
X320345Y70561D01*
X319633Y70086D01*
X311048Y61501D01*
X310573Y60790D01*
X310406Y59951D01*
Y52877D01*
X306572Y49042D01*
X304843D01*
X304632Y49317D01*
X303910Y49872D01*
X303068Y50220D01*
X302165Y50339D01*
X299409D01*
X298854Y50266D01*
X298620Y50740D01*
X301316Y53436D01*
X305826D01*
X305908Y53354D01*
X306673Y53037D01*
X307501D01*
X308265Y53354D01*
X308851Y53939D01*
X309168Y54704D01*
Y55532D01*
X308851Y56297D01*
X308265Y56882D01*
X307501Y57199D01*
X306673D01*
X305908Y56882D01*
X305826Y56800D01*
X300619D01*
X299975Y56672D01*
X299430Y56308D01*
X293966Y50844D01*
X293504Y51035D01*
X293504Y135236D01*
X297835Y139567D01*
X368504D01*
X371850Y136221D01*
D02*
G37*
G36*
X74803Y62008D02*
Y44094D01*
X74016Y43307D01*
X50591D01*
X36039Y28756D01*
X35278D01*
Y24803D01*
Y20850D01*
X35827D01*
Y3937D01*
X34646Y2756D01*
X26575D01*
X24409Y4921D01*
Y39961D01*
X46457Y62008D01*
X55118D01*
X55118Y46661D01*
X55118Y46661D01*
Y62008D01*
X57087Y63976D01*
X72835D01*
X74803Y62008D01*
D02*
G37*
G36*
X303543Y49213D02*
X305906Y46850D01*
X303543Y44488D01*
X297047D01*
X296063Y45472D01*
Y48228D01*
X297047Y49213D01*
X303543Y49213D01*
D02*
G37*
G36*
X265552Y52953D02*
Y51772D01*
X267520Y49803D01*
X276576D01*
X277954Y48425D01*
Y45669D01*
X276772Y44488D01*
X246261D01*
X244292Y46457D01*
X244292Y53347D01*
X246261Y55315D01*
X263190D01*
X265552Y52953D01*
D02*
G37*
G36*
X246727Y102519D02*
X247207Y102198D01*
X247773Y102086D01*
X268461D01*
X281592Y88955D01*
Y43816D01*
X279051Y41275D01*
X278523Y41454D01*
X278468Y41874D01*
X278110Y42740D01*
X277539Y43483D01*
X277447Y43554D01*
X277464Y44171D01*
X278458Y45165D01*
X278613Y45396D01*
X278667Y45669D01*
Y48425D01*
X278613Y48698D01*
X278458Y48930D01*
X277080Y50308D01*
X276849Y50463D01*
X276576Y50517D01*
X267816D01*
X266266Y52067D01*
Y52953D01*
X266211Y53226D01*
X266057Y53457D01*
X263694Y55820D01*
X263463Y55974D01*
X263190Y56029D01*
X246261D01*
X245988Y55974D01*
X245756Y55820D01*
X243788Y53851D01*
X243633Y53620D01*
X243578Y53347D01*
X243578Y46457D01*
X243633Y46183D01*
X243787Y45952D01*
X245756Y43984D01*
X245988Y43829D01*
X246261Y43775D01*
X269300D01*
X269546Y43275D01*
X269136Y42740D01*
X268777Y41874D01*
X268754Y41695D01*
X273623D01*
Y40195D01*
X268754D01*
X268777Y40016D01*
X269136Y39150D01*
X269707Y38407D01*
X270003Y38179D01*
X270003Y37679D01*
X269778Y37506D01*
X269223Y36784D01*
X268875Y35942D01*
X268756Y35039D01*
X268875Y34136D01*
X269223Y33295D01*
X269778Y32572D01*
X270085Y32337D01*
Y31837D01*
X269778Y31601D01*
X269223Y30878D01*
X268875Y30037D01*
X268756Y29134D01*
X268875Y28231D01*
X269223Y27389D01*
X269778Y26667D01*
X270085Y26431D01*
Y25931D01*
X269778Y25695D01*
X269223Y24973D01*
X268875Y24131D01*
X268756Y23228D01*
X268875Y22325D01*
X269223Y21484D01*
X269778Y20761D01*
X270085Y20526D01*
Y20026D01*
X269778Y19790D01*
X269223Y19067D01*
X268875Y18226D01*
X268756Y17323D01*
X268875Y16420D01*
X269223Y15578D01*
X269778Y14856D01*
X270500Y14301D01*
X271342Y13953D01*
X272245Y13834D01*
X275001D01*
X275904Y13953D01*
X276745Y14301D01*
X277468Y14856D01*
X278022Y15578D01*
X278371Y16420D01*
X278490Y17323D01*
X278371Y18226D01*
X278022Y19067D01*
X277468Y19790D01*
X277161Y20026D01*
Y20526D01*
X277468Y20761D01*
X278022Y21484D01*
X278371Y22325D01*
X278490Y23228D01*
X278371Y24131D01*
X278233Y24464D01*
X284971Y31202D01*
X285433Y31011D01*
Y10827D01*
X278543Y3937D01*
X237708D01*
Y12137D01*
X229221D01*
Y3937D01*
X207787D01*
Y12137D01*
X199300D01*
Y3937D01*
X126969D01*
X123031Y7874D01*
Y29528D01*
X122305Y30254D01*
X122626Y30733D01*
X122738Y31299D01*
Y39348D01*
X155927Y72537D01*
X232283D01*
X232849Y72650D01*
X233329Y72970D01*
X240022Y79663D01*
X240342Y80143D01*
X240455Y80709D01*
Y108138D01*
X240917Y108329D01*
X246727Y102519D01*
D02*
G37*
G36*
X303543Y43307D02*
X305906Y40945D01*
X303543Y38583D01*
X297047D01*
X296063Y39567D01*
Y42323D01*
X297047Y43307D01*
X303543Y43307D01*
D02*
G37*
G36*
Y37402D02*
X305906Y35039D01*
X303543Y32677D01*
X297047D01*
X296063Y33661D01*
Y36417D01*
X297047Y37402D01*
X303543Y37402D01*
D02*
G37*
G36*
X305512Y24606D02*
Y21850D01*
X304528Y20866D01*
X298031Y20866D01*
X295669Y23228D01*
X298031Y25591D01*
X304528D01*
X305512Y24606D01*
D02*
G37*
G36*
X353530Y27279D02*
X354055Y27087D01*
X354449Y26654D01*
X354685Y26221D01*
X354764Y25945D01*
X354882Y25236D01*
X354764Y23779D01*
X354488Y22402D01*
X354173Y21299D01*
X353543Y18858D01*
X353071Y16575D01*
X352737Y14362D01*
X352730Y14130D01*
X352913Y12992D01*
X353307Y12480D01*
X353819D01*
X353819Y12480D01*
X355276Y14252D01*
X357402Y17559D01*
X359095Y20866D01*
X360472Y23661D01*
X360984Y24291D01*
X361614Y24567D01*
X362323D01*
X362835Y24370D01*
X363347Y23858D01*
X363740Y22835D01*
X363858Y22323D01*
X363976Y20748D01*
X364055Y17244D01*
X364291Y15354D01*
X364803Y15000D01*
X365787Y15354D01*
X367598Y16850D01*
X367717Y16890D01*
X368071Y16654D01*
X368307Y16220D01*
X368386Y15394D01*
X368150Y14567D01*
X367244Y13150D01*
X365315Y12087D01*
X364882Y11969D01*
X362992D01*
X361968Y12362D01*
X361024Y13347D01*
X360591Y14488D01*
X360364Y17927D01*
X360228Y17811D01*
X360229Y17811D01*
X358583Y14410D01*
X357047Y12008D01*
X355276Y10000D01*
X354055Y9213D01*
X353425Y8937D01*
X352559Y8779D01*
X351575D01*
X350590Y9094D01*
X349488Y10000D01*
X348976Y10787D01*
X348425Y12638D01*
X348543Y14488D01*
X348740Y15669D01*
X348858Y16220D01*
X349095Y17677D01*
X347913Y17047D01*
X346693D01*
X346102Y17520D01*
X345748Y18189D01*
Y18661D01*
X345866Y18779D01*
X346969Y19567D01*
X348268Y20945D01*
X349567Y22677D01*
X350866Y24803D01*
X351575Y26417D01*
X352244Y27087D01*
X353150Y27283D01*
X353530Y27279D01*
D02*
G37*
G36*
X46850Y27559D02*
X46850Y19291D01*
X50000Y16142D01*
X52559D01*
X53150Y15551D01*
Y12598D01*
X52362Y11811D01*
X48622D01*
X47835Y12598D01*
Y14370D01*
X46850Y15354D01*
X43307D01*
X42520Y16142D01*
X42520Y27559D01*
X42913Y27953D01*
X46457D01*
X46850Y27559D01*
D02*
G37*
G36*
X41535Y14567D02*
X42126Y13976D01*
X45669Y13976D01*
X46654Y12992D01*
X46654Y7874D01*
X47244Y7283D01*
X54331D01*
X55709Y5906D01*
Y4134D01*
X54331Y2756D01*
X45866D01*
X37402Y2756D01*
Y27559D01*
X37795Y27953D01*
X41535D01*
Y14567D01*
D02*
G37*
%LPC*%
G36*
X95238Y229713D02*
Y225553D01*
X99398D01*
X99089Y226709D01*
X98439Y227835D01*
X97520Y228754D01*
X96394Y229404D01*
X95238Y229713D01*
D02*
G37*
G36*
X93738D02*
X92583Y229404D01*
X91457Y228754D01*
X90538Y227835D01*
X89888Y226709D01*
X89578Y225553D01*
X93738D01*
Y229713D01*
D02*
G37*
G36*
X99398Y224053D02*
X95238D01*
Y219893D01*
X96394Y220203D01*
X97520Y220853D01*
X98439Y221772D01*
X99089Y222898D01*
X99398Y224053D01*
D02*
G37*
G36*
X93738D02*
X89578D01*
X89888Y222898D01*
X90538Y221772D01*
X91457Y220853D01*
X92583Y220203D01*
X93738Y219893D01*
Y224053D01*
D02*
G37*
G36*
X144563Y202964D02*
X141262D01*
Y200352D01*
X144563D01*
Y202964D01*
D02*
G37*
G36*
X139762D02*
X136461D01*
Y200352D01*
X139762D01*
Y202964D01*
D02*
G37*
G36*
X144563Y198852D02*
X141262D01*
Y196240D01*
X144563D01*
Y198852D01*
D02*
G37*
G36*
X139762D02*
X136461D01*
Y196240D01*
X139762D01*
Y198852D01*
D02*
G37*
G36*
X32019Y291424D02*
X30719D01*
X29463Y291088D01*
X28427Y290490D01*
X31369Y287548D01*
X34311Y290490D01*
X33275Y291088D01*
X32019Y291424D01*
D02*
G37*
G36*
X27367Y289429D02*
X26769Y288393D01*
X26432Y287137D01*
Y285837D01*
X26769Y284582D01*
X27367Y283546D01*
X30308Y286487D01*
X27367Y289429D01*
D02*
G37*
G36*
X35372Y289429D02*
X32430Y286487D01*
X35372Y283545D01*
X35970Y284582D01*
X36306Y285837D01*
Y287137D01*
X35970Y288393D01*
X35372Y289429D01*
D02*
G37*
G36*
X31369Y285427D02*
X28427Y282485D01*
X29463Y281887D01*
X30719Y281550D01*
X32019D01*
X33275Y281887D01*
X34311Y282485D01*
X31369Y285427D01*
D02*
G37*
G36*
X32019Y244180D02*
X30719D01*
X29463Y243844D01*
X28427Y243246D01*
X31369Y240304D01*
X34311Y243246D01*
X33275Y243844D01*
X32019Y244180D01*
D02*
G37*
G36*
X27367Y242185D02*
X26769Y241149D01*
X26432Y239893D01*
Y238593D01*
X26769Y237337D01*
X27367Y236301D01*
X30308Y239243D01*
X27367Y242185D01*
D02*
G37*
G36*
X35372Y242185D02*
X32430Y239243D01*
X35372Y236301D01*
X35970Y237337D01*
X36306Y238593D01*
Y239893D01*
X35970Y241149D01*
X35372Y242185D01*
D02*
G37*
G36*
X31369Y238182D02*
X28427Y235241D01*
X29463Y234643D01*
X30719Y234306D01*
X32019D01*
X33275Y234643D01*
X34311Y235241D01*
X31369Y238182D01*
D02*
G37*
G36*
X134608Y229713D02*
Y225553D01*
X138768D01*
X138459Y226709D01*
X137809Y227835D01*
X136890Y228754D01*
X135764Y229404D01*
X134608Y229713D01*
D02*
G37*
G36*
X133108D02*
X131953Y229404D01*
X130827Y228754D01*
X129908Y227835D01*
X129258Y226709D01*
X128948Y225553D01*
X133108D01*
Y229713D01*
D02*
G37*
G36*
X138768Y224053D02*
X134608D01*
Y219893D01*
X135764Y220203D01*
X136890Y220853D01*
X137809Y221772D01*
X138459Y222898D01*
X138768Y224053D01*
D02*
G37*
G36*
X133108D02*
X128948D01*
X129258Y222898D01*
X129908Y221772D01*
X130827Y220853D01*
X131953Y220203D01*
X133108Y219893D01*
Y224053D01*
D02*
G37*
G36*
X145063Y182953D02*
X141262D01*
Y179841D01*
X145063D01*
Y182953D01*
D02*
G37*
G36*
X139762D02*
X135961D01*
Y179841D01*
X139762D01*
Y182953D01*
D02*
G37*
G36*
X192929Y183874D02*
X190120D01*
Y182246D01*
X192929D01*
Y183874D01*
D02*
G37*
G36*
X181533Y183874D02*
X178724D01*
Y182246D01*
X181533D01*
Y183874D01*
D02*
G37*
G36*
X192929Y180746D02*
X190120D01*
Y179118D01*
X192929D01*
Y180746D01*
D02*
G37*
G36*
X188620Y183874D02*
X185811D01*
Y183874D01*
X183033D01*
Y181496D01*
Y179118D01*
X185842D01*
Y179118D01*
X188620D01*
Y181496D01*
X189370D01*
D01*
X188620D01*
Y183874D01*
D02*
G37*
G36*
X181533Y180746D02*
X178724D01*
Y179118D01*
X181533D01*
Y180746D01*
D02*
G37*
G36*
X157837Y166838D02*
Y165514D01*
X159161D01*
X159141Y165615D01*
X158659Y166336D01*
X157938Y166818D01*
X157837Y166838D01*
D02*
G37*
G36*
X159161Y164014D02*
X157837D01*
Y162689D01*
X157938Y162709D01*
X158659Y163191D01*
X159141Y163913D01*
X159161Y164014D01*
D02*
G37*
G36*
X155224Y156140D02*
X153900D01*
Y154815D01*
X154001Y154835D01*
X154722Y155317D01*
X155204Y156039D01*
X155224Y156140D01*
D02*
G37*
G36*
X148463D02*
X147138D01*
X147158Y156039D01*
X147640Y155317D01*
X148362Y154835D01*
X148463Y154815D01*
Y156140D01*
D02*
G37*
G36*
X151551Y138205D02*
X149923D01*
Y135396D01*
X151551D01*
Y138205D01*
D02*
G37*
G36*
X148423D02*
X146795D01*
Y135396D01*
X148423D01*
Y138205D01*
D02*
G37*
G36*
X151551Y133896D02*
X149923D01*
Y131087D01*
X151551D01*
Y133896D01*
D02*
G37*
G36*
X148423D02*
X146795D01*
Y131087D01*
X148423D01*
Y133896D01*
D02*
G37*
G36*
X151295Y129839D02*
X149963D01*
Y127522D01*
X151295D01*
Y129839D01*
D02*
G37*
G36*
X148463D02*
X147130D01*
Y127522D01*
X148463D01*
Y129839D01*
D02*
G37*
G36*
X151295Y126022D02*
X149963D01*
Y123705D01*
X151295D01*
Y126022D01*
D02*
G37*
G36*
X148463D02*
X147130D01*
Y123705D01*
X148463D01*
Y126022D01*
D02*
G37*
G36*
X117102Y141590D02*
X113900D01*
Y140356D01*
X117102D01*
Y141590D01*
D02*
G37*
G36*
X112400D02*
X109197D01*
Y140356D01*
X112400D01*
Y141590D01*
D02*
G37*
G36*
X117102Y138856D02*
X113900D01*
Y137622D01*
X117102D01*
Y138856D01*
D02*
G37*
G36*
X112400D02*
X109197D01*
Y137622D01*
X112400D01*
Y138856D01*
D02*
G37*
G36*
X116892Y112311D02*
Y110986D01*
X118216D01*
X118196Y111087D01*
X117714Y111809D01*
X116993Y112291D01*
X116892Y112311D01*
D02*
G37*
G36*
X115392D02*
X115291Y112291D01*
X114569Y111809D01*
X114087Y111087D01*
X114067Y110986D01*
X115392D01*
Y112311D01*
D02*
G37*
G36*
X118216Y109486D02*
X116892D01*
Y108162D01*
X116993Y108182D01*
X117714Y108664D01*
X118196Y109385D01*
X118216Y109486D01*
D02*
G37*
G36*
X115392D02*
X114067D01*
X114087Y109385D01*
X114569Y108664D01*
X115291Y108182D01*
X115392Y108162D01*
Y109486D01*
D02*
G37*
G36*
X122797Y108374D02*
Y107049D01*
X124122D01*
X124102Y107150D01*
X123620Y107872D01*
X122898Y108354D01*
X122797Y108374D01*
D02*
G37*
G36*
X121297D02*
X121196Y108354D01*
X120475Y107872D01*
X119993Y107150D01*
X119973Y107049D01*
X121297D01*
Y108374D01*
D02*
G37*
G36*
X124122Y105549D02*
X122797D01*
Y104225D01*
X122898Y104245D01*
X123620Y104727D01*
X124102Y105448D01*
X124122Y105549D01*
D02*
G37*
G36*
X121297D02*
X119973D01*
X119993Y105448D01*
X120475Y104727D01*
X121196Y104245D01*
X121297Y104225D01*
Y105549D01*
D02*
G37*
G36*
X116892Y104437D02*
Y103112D01*
X118216D01*
X118196Y103213D01*
X117714Y103935D01*
X116993Y104417D01*
X116892Y104437D01*
D02*
G37*
G36*
X115392D02*
X115291Y104417D01*
X114569Y103935D01*
X114087Y103213D01*
X114067Y103112D01*
X115392D01*
Y104437D01*
D02*
G37*
G36*
X118216Y101612D02*
X116892D01*
Y100288D01*
X116993Y100308D01*
X117714Y100790D01*
X118196Y101511D01*
X118216Y101612D01*
D02*
G37*
G36*
X115392D02*
X114067D01*
X114087Y101511D01*
X114569Y100790D01*
X115291Y100308D01*
X115392Y100288D01*
Y101612D01*
D02*
G37*
G36*
X17450Y277547D02*
X16161Y277378D01*
X14960Y276880D01*
X14529Y276549D01*
X17450Y273628D01*
X20371Y276550D01*
X19940Y276880D01*
X18739Y277378D01*
X17450Y277547D01*
D02*
G37*
G36*
X13468Y275489D02*
X13137Y275058D01*
X12640Y273857D01*
X12470Y272568D01*
X12640Y271279D01*
X13137Y270078D01*
X13468Y269647D01*
X16389Y272568D01*
X13468Y275489D01*
D02*
G37*
G36*
X21431Y275489D02*
X18510Y272568D01*
X21431Y269647D01*
X21762Y270078D01*
X22260Y271279D01*
X22429Y272568D01*
X22260Y273857D01*
X21762Y275058D01*
X21431Y275489D01*
D02*
G37*
G36*
X17450Y271507D02*
X14529Y268586D01*
X14960Y268255D01*
X16161Y267758D01*
X17450Y267588D01*
X18739Y267758D01*
X19940Y268255D01*
X20371Y268586D01*
X17450Y271507D01*
D02*
G37*
G36*
X17450Y230303D02*
X16161Y230134D01*
X14960Y229636D01*
X14529Y229305D01*
X17450Y226384D01*
X20371Y229305D01*
X19940Y229636D01*
X18739Y230134D01*
X17450Y230303D01*
D02*
G37*
G36*
X21431Y228245D02*
X18510Y225324D01*
X21431Y222403D01*
X21762Y222834D01*
X22260Y224035D01*
X22429Y225324D01*
X22260Y226613D01*
X21762Y227814D01*
X21431Y228245D01*
D02*
G37*
G36*
X13468D02*
X13137Y227814D01*
X12640Y226613D01*
X12470Y225324D01*
X12640Y224035D01*
X13137Y222834D01*
X13468Y222403D01*
X16389Y225324D01*
X13468Y228245D01*
D02*
G37*
G36*
X17450Y224263D02*
X14529Y221342D01*
X14960Y221011D01*
X16161Y220514D01*
X17450Y220344D01*
X18739Y220514D01*
X19940Y221011D01*
X20371Y221342D01*
X17450Y224263D01*
D02*
G37*
G36*
X208033Y221169D02*
Y219845D01*
X209358D01*
X209338Y219946D01*
X208856Y220667D01*
X208135Y221149D01*
X208033Y221169D01*
D02*
G37*
G36*
X206534D02*
X206432Y221149D01*
X205711Y220667D01*
X205229Y219946D01*
X205209Y219845D01*
X206534D01*
Y221169D01*
D02*
G37*
G36*
X190317D02*
Y219845D01*
X191642D01*
X191621Y219946D01*
X191139Y220667D01*
X190418Y221149D01*
X190317Y221169D01*
D02*
G37*
G36*
X188817D02*
X188716Y221149D01*
X187994Y220667D01*
X187512Y219946D01*
X187492Y219845D01*
X188817D01*
Y221169D01*
D02*
G37*
G36*
X209358Y218344D02*
X208033D01*
Y217020D01*
X208135Y217040D01*
X208856Y217522D01*
X209338Y218244D01*
X209358Y218344D01*
D02*
G37*
G36*
X206534D02*
X205209D01*
X205229Y218244D01*
X205711Y217522D01*
X206432Y217040D01*
X206534Y217020D01*
Y218344D01*
D02*
G37*
G36*
X191642D02*
X190317D01*
Y217020D01*
X190418Y217040D01*
X191139Y217522D01*
X191621Y218244D01*
X191642Y218344D01*
D02*
G37*
G36*
X188817D02*
X187492D01*
X187512Y218244D01*
X187994Y217522D01*
X188716Y217040D01*
X188817Y217020D01*
Y218344D01*
D02*
G37*
G36*
X249425Y218835D02*
X245238D01*
Y216419D01*
X249425D01*
Y218835D01*
D02*
G37*
G36*
X235396Y215854D02*
Y214529D01*
X236720D01*
X236700Y214631D01*
X236218Y215352D01*
X235497Y215834D01*
X235396Y215854D01*
D02*
G37*
G36*
X233896D02*
X233795Y215834D01*
X233073Y215352D01*
X232591Y214631D01*
X232571Y214529D01*
X233896D01*
Y215854D01*
D02*
G37*
G36*
X273191Y215264D02*
Y213939D01*
X274516D01*
X274496Y214040D01*
X274013Y214761D01*
X273292Y215244D01*
X273191Y215264D01*
D02*
G37*
G36*
X271691D02*
X271590Y215244D01*
X270868Y214761D01*
X270386Y214040D01*
X270366Y213939D01*
X271691D01*
Y215264D01*
D02*
G37*
G36*
X249425Y214919D02*
X245238D01*
Y212504D01*
X249425D01*
Y214919D01*
D02*
G37*
G36*
X243738D02*
X239551D01*
Y212504D01*
X243738D01*
Y214919D01*
D02*
G37*
G36*
X236720Y213030D02*
X235396D01*
Y211705D01*
X235497Y211725D01*
X236218Y212207D01*
X236700Y212929D01*
X236720Y213030D01*
D02*
G37*
G36*
X233896D02*
X232571D01*
X232591Y212929D01*
X233073Y212207D01*
X233795Y211725D01*
X233896Y211705D01*
Y213030D01*
D02*
G37*
G36*
X274516Y212439D02*
X273191D01*
Y211114D01*
X273292Y211134D01*
X274013Y211616D01*
X274496Y212338D01*
X274516Y212439D01*
D02*
G37*
G36*
X271691D02*
X270366D01*
X270386Y212338D01*
X270868Y211616D01*
X271590Y211134D01*
X271691Y211114D01*
Y212439D01*
D02*
G37*
G36*
X208033Y209358D02*
Y208033D01*
X209358D01*
X209338Y208135D01*
X208856Y208856D01*
X208135Y209338D01*
X208033Y209358D01*
D02*
G37*
G36*
X206534D02*
X206432Y209338D01*
X205711Y208856D01*
X205229Y208135D01*
X205209Y208033D01*
X206534D01*
Y209358D01*
D02*
G37*
G36*
X209358Y206534D02*
X208033D01*
Y205209D01*
X208135Y205229D01*
X208856Y205711D01*
X209338Y206432D01*
X209358Y206534D01*
D02*
G37*
G36*
X206534D02*
X205209D01*
X205229Y206432D01*
X205711Y205711D01*
X206432Y205229D01*
X206534Y205209D01*
Y206534D01*
D02*
G37*
G36*
X216695Y201484D02*
Y200159D01*
X218020D01*
X217999Y200260D01*
X217517Y200982D01*
X216796Y201464D01*
X216695Y201484D01*
D02*
G37*
G36*
X215195D02*
X215094Y201464D01*
X214372Y200982D01*
X213890Y200260D01*
X213870Y200159D01*
X215195D01*
Y201484D01*
D02*
G37*
G36*
X39583Y207693D02*
X27128D01*
Y199766D01*
X39583D01*
Y207693D01*
D02*
G37*
G36*
X25628D02*
X13173D01*
Y199766D01*
X25628D01*
Y207693D01*
D02*
G37*
G36*
X218020Y198659D02*
X216695D01*
Y197335D01*
X216796Y197355D01*
X217517Y197837D01*
X217999Y198558D01*
X218020Y198659D01*
D02*
G37*
G36*
X215195D02*
X213870D01*
X213890Y198558D01*
X214372Y197837D01*
X215094Y197355D01*
X215195Y197335D01*
Y198659D01*
D02*
G37*
G36*
X273191Y197547D02*
Y196222D01*
X274516D01*
X274496Y196324D01*
X274013Y197045D01*
X273292Y197527D01*
X273191Y197547D01*
D02*
G37*
G36*
X271691D02*
X271590Y197527D01*
X270868Y197045D01*
X270386Y196324D01*
X270366Y196222D01*
X271691D01*
Y197547D01*
D02*
G37*
G36*
X274516Y194722D02*
X273191D01*
Y193398D01*
X273292Y193418D01*
X274013Y193900D01*
X274496Y194621D01*
X274516Y194722D01*
D02*
G37*
G36*
X271691D02*
X270366D01*
X270386Y194621D01*
X270868Y193900D01*
X271590Y193418D01*
X271691Y193398D01*
Y194722D01*
D02*
G37*
G36*
X218495Y194436D02*
X216695D01*
Y192286D01*
X218495D01*
Y194436D01*
D02*
G37*
G36*
X215195D02*
X213395D01*
Y192286D01*
X215195D01*
Y194436D01*
D02*
G37*
G36*
X39583Y198266D02*
X27128D01*
Y190339D01*
X39583D01*
Y198266D01*
D02*
G37*
G36*
X25628D02*
X13173D01*
Y190339D01*
X25628D01*
Y198266D01*
D02*
G37*
G36*
X190317Y191642D02*
Y190317D01*
X191642D01*
X191621Y190418D01*
X191139Y191139D01*
X190418Y191621D01*
X190317Y191642D01*
D02*
G37*
G36*
X188817D02*
X188716Y191621D01*
X187994Y191139D01*
X187512Y190418D01*
X187492Y190317D01*
X188817D01*
Y191642D01*
D02*
G37*
G36*
X178506D02*
Y190317D01*
X179831D01*
X179811Y190418D01*
X179328Y191139D01*
X178607Y191621D01*
X178506Y191642D01*
D02*
G37*
G36*
X177006D02*
X176905Y191621D01*
X176183Y191139D01*
X175701Y190418D01*
X175681Y190317D01*
X177006D01*
Y191642D01*
D02*
G37*
G36*
X218495Y190786D02*
X216695D01*
Y188636D01*
X218495D01*
Y190786D01*
D02*
G37*
G36*
X215195D02*
X213395D01*
Y188636D01*
X215195D01*
Y190786D01*
D02*
G37*
G36*
X191642Y188817D02*
X190317D01*
Y187492D01*
X190418Y187512D01*
X191139Y187994D01*
X191621Y188716D01*
X191642Y188817D01*
D02*
G37*
G36*
X188817D02*
X187492D01*
X187512Y188716D01*
X187994Y187994D01*
X188716Y187512D01*
X188817Y187492D01*
Y188817D01*
D02*
G37*
G36*
X179831D02*
X178506D01*
Y187492D01*
X178607Y187512D01*
X179328Y187994D01*
X179811Y188716D01*
X179831Y188817D01*
D02*
G37*
G36*
X177006D02*
X175681D01*
X175701Y188716D01*
X176183Y187994D01*
X176905Y187512D01*
X177006Y187492D01*
Y188817D01*
D02*
G37*
G36*
X109917Y182453D02*
X106616D01*
Y179841D01*
X109917D01*
Y182453D01*
D02*
G37*
G36*
X105116D02*
X101815D01*
Y179841D01*
X105116D01*
Y182453D01*
D02*
G37*
G36*
X109917Y178340D02*
X106616D01*
Y175728D01*
X109917D01*
Y178340D01*
D02*
G37*
G36*
X105116D02*
X101815D01*
Y175728D01*
X105116D01*
Y178340D01*
D02*
G37*
G36*
X196494Y176566D02*
X194344D01*
Y174766D01*
X196494D01*
Y176566D01*
D02*
G37*
G36*
X192929Y176394D02*
X190120D01*
Y174766D01*
X192929D01*
Y176394D01*
D02*
G37*
G36*
X181533Y176394D02*
X178724D01*
Y174766D01*
X181533D01*
Y176394D01*
D02*
G37*
G36*
X29884Y182440D02*
Y174372D01*
X34113D01*
Y177559D01*
X33944Y178848D01*
X33446Y180049D01*
X32655Y181080D01*
X31624Y181871D01*
X30423Y182369D01*
X29884Y182440D01*
D02*
G37*
G36*
X28384D02*
X27845Y182369D01*
X26644Y181871D01*
X25613Y181080D01*
X24821Y180049D01*
X24324Y178848D01*
X24154Y177559D01*
Y174372D01*
X28384D01*
Y182440D01*
D02*
G37*
G36*
X125159Y174516D02*
Y173191D01*
X126484D01*
X126464Y173292D01*
X125982Y174013D01*
X125260Y174495D01*
X125159Y174516D01*
D02*
G37*
G36*
X123659D02*
X123558Y174495D01*
X122837Y174013D01*
X122355Y173292D01*
X122335Y173191D01*
X123659D01*
Y174516D01*
D02*
G37*
G36*
X117285D02*
Y173191D01*
X118610D01*
X118590Y173292D01*
X118108Y174013D01*
X117386Y174495D01*
X117285Y174516D01*
D02*
G37*
G36*
X115785D02*
X115684Y174495D01*
X114963Y174013D01*
X114481Y173292D01*
X114461Y173191D01*
X115785D01*
Y174516D01*
D02*
G37*
G36*
X81852D02*
Y173191D01*
X83177D01*
X83157Y173292D01*
X82675Y174013D01*
X81953Y174495D01*
X81852Y174516D01*
D02*
G37*
G36*
X80352D02*
X80251Y174495D01*
X79530Y174013D01*
X79048Y173292D01*
X79028Y173191D01*
X80352D01*
Y174516D01*
D02*
G37*
G36*
X249125Y178535D02*
X239851D01*
Y172804D01*
X249125D01*
Y172996D01*
X264685D01*
X265377Y173088D01*
X266021Y173354D01*
X266575Y173779D01*
X267000Y174333D01*
X267267Y174978D01*
X267358Y175669D01*
X267267Y176361D01*
X267000Y177006D01*
X266575Y177559D01*
X266021Y177984D01*
X265377Y178251D01*
X264685Y178342D01*
X249125D01*
Y178535D01*
D02*
G37*
G36*
X192929Y173266D02*
X190120D01*
Y171638D01*
X192929D01*
Y173266D01*
D02*
G37*
G36*
X188620Y176394D02*
X185811D01*
Y176394D01*
X183033D01*
Y174016D01*
Y171638D01*
X185842D01*
Y171638D01*
X188620D01*
Y174016D01*
X189370D01*
D01*
X188620D01*
Y176394D01*
D02*
G37*
G36*
X181533Y173266D02*
X178724D01*
Y171638D01*
X181533D01*
Y173266D01*
D02*
G37*
G36*
X196494Y173266D02*
X194344D01*
Y171466D01*
X196494D01*
Y173266D01*
D02*
G37*
G36*
X126484Y171691D02*
X125159D01*
Y170366D01*
X125260Y170386D01*
X125982Y170869D01*
X126464Y171590D01*
X126484Y171691D01*
D02*
G37*
G36*
X123659D02*
X122335D01*
X122355Y171590D01*
X122837Y170869D01*
X123558Y170386D01*
X123659Y170366D01*
Y171691D01*
D02*
G37*
G36*
X118610D02*
X117285D01*
Y170366D01*
X117386Y170386D01*
X118108Y170869D01*
X118590Y171590D01*
X118610Y171691D01*
D02*
G37*
G36*
X115785D02*
X114461D01*
X114481Y171590D01*
X114963Y170869D01*
X115684Y170386D01*
X115785Y170366D01*
Y171691D01*
D02*
G37*
G36*
X83177D02*
X81852D01*
Y170366D01*
X81953Y170386D01*
X82675Y170869D01*
X83157Y171590D01*
X83177Y171691D01*
D02*
G37*
G36*
X80352D02*
X79028D01*
X79048Y171590D01*
X79530Y170869D01*
X80251Y170386D01*
X80352Y170366D01*
Y171691D01*
D02*
G37*
G36*
X147614Y172630D02*
X140868D01*
Y169230D01*
X147614D01*
Y172630D01*
D02*
G37*
G36*
X139368D02*
X132622D01*
Y169230D01*
X139368D01*
Y172630D01*
D02*
G37*
G36*
X190120Y170185D02*
Y168860D01*
X191445D01*
X191425Y168961D01*
X190943Y169683D01*
X190221Y170165D01*
X190120Y170185D01*
D02*
G37*
G36*
X188620D02*
X188519Y170165D01*
X187798Y169683D01*
X187315Y168961D01*
X187295Y168860D01*
X188620D01*
Y170185D01*
D02*
G37*
G36*
X183034D02*
Y168860D01*
X184358D01*
X184338Y168961D01*
X183856Y169683D01*
X183134Y170165D01*
X183034Y170185D01*
D02*
G37*
G36*
X181534D02*
X181432Y170165D01*
X180711Y169683D01*
X180229Y168961D01*
X180209Y168860D01*
X181534D01*
Y170185D01*
D02*
G37*
G36*
X11417Y178699D02*
X10103Y178526D01*
X8879Y178019D01*
X7827Y177212D01*
X7020Y176161D01*
X6513Y174936D01*
X6340Y173622D01*
X6513Y172308D01*
X7020Y171083D01*
X7827Y170032D01*
X8879Y169225D01*
X10103Y168718D01*
X11417Y168545D01*
X12731Y168718D01*
X13956Y169225D01*
X15008Y170032D01*
X15814Y171083D01*
X16322Y172308D01*
X16495Y173622D01*
X16322Y174936D01*
X15814Y176161D01*
X15008Y177212D01*
X13956Y178019D01*
X12731Y178526D01*
X11417Y178699D01*
D02*
G37*
G36*
X249569Y169397D02*
Y168073D01*
X250893D01*
X250873Y168174D01*
X250391Y168895D01*
X249670Y169377D01*
X249569Y169397D01*
D02*
G37*
G36*
X248069D02*
X247968Y169377D01*
X247246Y168895D01*
X246764Y168174D01*
X246744Y168073D01*
X248069D01*
Y169397D01*
D02*
G37*
G36*
X191445Y167360D02*
X190120D01*
Y166036D01*
X190221Y166056D01*
X190943Y166538D01*
X191425Y167259D01*
X191445Y167360D01*
D02*
G37*
G36*
X188620D02*
X187295D01*
X187315Y167259D01*
X187798Y166538D01*
X188519Y166056D01*
X188620Y166036D01*
Y167360D01*
D02*
G37*
G36*
X184358D02*
X183034D01*
Y166036D01*
X183134Y166056D01*
X183856Y166538D01*
X184338Y167259D01*
X184358Y167360D01*
D02*
G37*
G36*
X181534D02*
X180209D01*
X180229Y167259D01*
X180711Y166538D01*
X181432Y166056D01*
X181534Y166036D01*
Y167360D01*
D02*
G37*
G36*
X250893Y166573D02*
X249569D01*
Y165248D01*
X249670Y165268D01*
X250391Y165750D01*
X250873Y166472D01*
X250893Y166573D01*
D02*
G37*
G36*
X248069D02*
X246744D01*
X246764Y166472D01*
X247246Y165750D01*
X247968Y165268D01*
X248069Y165248D01*
Y166573D01*
D02*
G37*
G36*
X34113Y172872D02*
X29884D01*
Y164804D01*
X30423Y164875D01*
X31624Y165373D01*
X32655Y166164D01*
X33446Y167195D01*
X33944Y168396D01*
X34113Y169685D01*
Y172872D01*
D02*
G37*
G36*
X28384D02*
X24154D01*
Y169685D01*
X24324Y168396D01*
X24821Y167195D01*
X25613Y166164D01*
X26644Y165373D01*
X27845Y164875D01*
X28384Y164804D01*
Y172872D01*
D02*
G37*
G36*
X171222Y166330D02*
Y164530D01*
X173372D01*
Y166330D01*
X171222D01*
D02*
G37*
G36*
X147614Y167730D02*
X140868D01*
Y164331D01*
X147614D01*
Y167730D01*
D02*
G37*
G36*
X139368D02*
X132622D01*
Y164331D01*
X139368D01*
Y167730D01*
D02*
G37*
G36*
X117360Y165543D02*
X114551D01*
Y163915D01*
X117360D01*
Y165543D01*
D02*
G37*
G36*
X126566Y165475D02*
X124766D01*
Y163325D01*
X126566D01*
Y165475D01*
D02*
G37*
G36*
X173372Y163030D02*
X171222D01*
Y161230D01*
X173372D01*
Y163030D01*
D02*
G37*
G36*
X169722D02*
X167572D01*
Y161230D01*
X169722D01*
Y163030D01*
D02*
G37*
G36*
X117360Y162415D02*
X114551D01*
Y160787D01*
X117360D01*
Y162415D01*
D02*
G37*
G36*
X251719Y161999D02*
X249569D01*
Y160199D01*
X251719D01*
Y161999D01*
D02*
G37*
G36*
X87968Y163181D02*
X81813D01*
Y158994D01*
X87968D01*
Y163181D01*
D02*
G37*
G36*
X80313D02*
X74158D01*
Y158994D01*
X80313D01*
Y163181D01*
D02*
G37*
G36*
X169844Y158571D02*
Y157246D01*
X171169D01*
X171149Y157347D01*
X170667Y158069D01*
X169946Y158551D01*
X169844Y158571D01*
D02*
G37*
G36*
X168344D02*
X168244Y158551D01*
X167522Y158069D01*
X167040Y157347D01*
X167020Y157246D01*
X168344D01*
Y158571D01*
D02*
G37*
G36*
X50394Y191659D02*
X50121Y191604D01*
X49889Y191450D01*
X46346Y187906D01*
X46191Y187675D01*
X46137Y187402D01*
Y167323D01*
X46191Y167050D01*
X46346Y166818D01*
X56188Y156976D01*
X56420Y156821D01*
X56693Y156767D01*
X68110Y156767D01*
X68383Y156821D01*
X68615Y156976D01*
X68615Y156976D01*
X72158Y160519D01*
X72158Y160519D01*
X72313Y160750D01*
X72367Y161024D01*
Y172539D01*
X76674Y176845D01*
X82284D01*
X82557Y176900D01*
X82788Y177054D01*
X83575Y177842D01*
X83730Y178073D01*
X83785Y178347D01*
Y183071D01*
X83730Y183344D01*
X83575Y183575D01*
X82788Y184363D01*
X82557Y184518D01*
X82284Y184572D01*
X69981Y184572D01*
X63103Y191449D01*
X63103Y191449D01*
X62871Y191604D01*
X62598Y191659D01*
X50394Y191659D01*
D02*
G37*
G36*
X45669Y159704D02*
X42482D01*
Y155474D01*
X50550D01*
X50479Y156013D01*
X49982Y157214D01*
X49190Y158246D01*
X48159Y159037D01*
X46958Y159534D01*
X45669Y159704D01*
D02*
G37*
G36*
X179372Y166030D02*
X174172D01*
Y161530D01*
X179372D01*
Y162318D01*
X180143D01*
X181485Y160977D01*
X179808Y159300D01*
X184278Y154830D01*
X189722Y160275D01*
X188532Y161464D01*
X188976Y161907D01*
X194270D01*
X195569Y160608D01*
Y155505D01*
X195107Y155314D01*
X194354Y156067D01*
X191420Y153132D01*
X188486Y150198D01*
X190344Y148340D01*
X187332Y145328D01*
X184068D01*
X181076Y148319D01*
X177111Y144354D01*
X175122D01*
X174885Y144307D01*
X174639Y144767D01*
X176381Y146510D01*
X174465Y148426D01*
X172061Y146022D01*
X173778Y144305D01*
X173964Y144066D01*
X173825Y143669D01*
X173433Y143276D01*
X173112Y142797D01*
X172999Y142231D01*
Y141620D01*
X168266D01*
Y137120D01*
X173467D01*
Y137892D01*
X174267D01*
X174832Y138004D01*
X175312Y138325D01*
X175523Y138536D01*
X175844Y139016D01*
X175956Y139581D01*
Y141397D01*
X177111D01*
X180102Y138405D01*
X184068Y142371D01*
X186549D01*
X186741Y141909D01*
X182360Y137529D01*
X182051Y137066D01*
X181942Y136519D01*
X181942Y136519D01*
Y135321D01*
X180668D01*
Y130821D01*
X181841D01*
Y129824D01*
X181841Y129822D01*
X181841Y129822D01*
Y129022D01*
X180668D01*
Y124522D01*
X185868D01*
Y129022D01*
X184695D01*
Y129820D01*
X184696Y129822D01*
X184696Y129822D01*
Y130821D01*
X185869D01*
Y135321D01*
X184797D01*
Y135928D01*
X185890Y137021D01*
X186369Y136876D01*
X186425Y136590D01*
X186885Y135901D01*
X187574Y135441D01*
X188386Y135280D01*
X188704Y135343D01*
X190270Y133777D01*
Y130668D01*
X194770D01*
Y135868D01*
X193998D01*
Y137502D01*
X198603Y142107D01*
X199103Y141900D01*
Y138792D01*
X196627Y136316D01*
X196307Y135837D01*
X196194Y135271D01*
Y133428D01*
X196137Y133390D01*
X195677Y132702D01*
X195516Y131890D01*
X195677Y131078D01*
X196137Y130389D01*
X196826Y129929D01*
X197638Y129768D01*
X198450Y129929D01*
X199138Y130389D01*
X199598Y131078D01*
X199760Y131890D01*
X199598Y132702D01*
X199151Y133371D01*
Y134659D01*
X201006Y136514D01*
X202165D01*
X202731Y136626D01*
X202844Y136702D01*
X205228D01*
Y140639D01*
Y144276D01*
X205528D01*
Y145116D01*
X205228D01*
Y145188D01*
X202844D01*
X202731Y145264D01*
X202165Y145376D01*
Y146407D01*
X202712Y146516D01*
X202754Y146544D01*
X205228D01*
Y146616D01*
X205528D01*
Y147457D01*
X205228D01*
Y152450D01*
Y156387D01*
Y160936D01*
X199103D01*
Y158355D01*
Y154287D01*
X198603Y154020D01*
X198526Y154071D01*
Y161221D01*
X198413Y161786D01*
X198093Y162266D01*
X195927Y164431D01*
X195448Y164752D01*
X194882Y164864D01*
X188364D01*
X187798Y164752D01*
X187318Y164431D01*
X186442Y163555D01*
X185252Y164744D01*
X183576Y163068D01*
X181801Y164842D01*
X181321Y165163D01*
X180755Y165275D01*
X179372D01*
Y166030D01*
D02*
G37*
G36*
X191377Y159044D02*
X188973Y156640D01*
X190890Y154723D01*
X193293Y157127D01*
X191377Y159044D01*
D02*
G37*
G36*
X211970Y156012D02*
Y154687D01*
X213295D01*
X213275Y154788D01*
X212793Y155509D01*
X212071Y155992D01*
X211970Y156012D01*
D02*
G37*
G36*
X210471D02*
X210369Y155992D01*
X209648Y155509D01*
X209166Y154788D01*
X209146Y154687D01*
X210471D01*
Y156012D01*
D02*
G37*
G36*
X171169Y155746D02*
X169844D01*
Y154421D01*
X169946Y154441D01*
X170667Y154924D01*
X171149Y155645D01*
X171169Y155746D01*
D02*
G37*
G36*
X168344D02*
X167020D01*
X167040Y155645D01*
X167522Y154924D01*
X168244Y154441D01*
X168344Y154421D01*
Y155746D01*
D02*
G37*
G36*
X87968Y157494D02*
X81813D01*
Y153307D01*
X87968D01*
Y157494D01*
D02*
G37*
G36*
X80313D02*
X74158D01*
Y153307D01*
X80313D01*
Y157494D01*
D02*
G37*
G36*
X213295Y153187D02*
X211970D01*
Y151862D01*
X212071Y151883D01*
X212793Y152365D01*
X213275Y153086D01*
X213295Y153187D01*
D02*
G37*
G36*
X210471D02*
X209146D01*
X209166Y153086D01*
X209648Y152365D01*
X210369Y151883D01*
X210471Y151862D01*
Y153187D01*
D02*
G37*
G36*
X187912Y155579D02*
X185508Y153175D01*
X187425Y151259D01*
X189829Y153663D01*
X187912Y155579D01*
D02*
G37*
G36*
X174952Y154868D02*
X172548Y152464D01*
X174465Y150548D01*
X176869Y152951D01*
X174952Y154868D01*
D02*
G37*
G36*
X162614Y151787D02*
X159805D01*
Y150160D01*
X162614D01*
Y151787D01*
D02*
G37*
G36*
X158305D02*
X155496D01*
Y150160D01*
X158305D01*
Y151787D01*
D02*
G37*
G36*
X50550Y153974D02*
X42482D01*
Y149745D01*
X45669D01*
X46958Y149915D01*
X48159Y150412D01*
X49190Y151203D01*
X49982Y152235D01*
X50479Y153436D01*
X50550Y153974D01*
D02*
G37*
G36*
X40982Y159704D02*
X37795D01*
X36507Y159534D01*
X35306Y159037D01*
X34274Y158246D01*
X33483Y157214D01*
X33355Y156905D01*
X27128D01*
Y148978D01*
X39583D01*
Y149745D01*
X40982D01*
Y154724D01*
Y159704D01*
D02*
G37*
G36*
X25628Y156905D02*
X13173D01*
Y148978D01*
X25628D01*
Y156905D01*
D02*
G37*
G36*
X67679Y149516D02*
Y148191D01*
X69004D01*
X68984Y148292D01*
X68502Y149013D01*
X67780Y149495D01*
X67679Y149516D01*
D02*
G37*
G36*
X66179D02*
X66078Y149495D01*
X65357Y149013D01*
X64875Y148292D01*
X64855Y148191D01*
X66179D01*
Y149516D01*
D02*
G37*
G36*
X177929Y151891D02*
X175525Y149487D01*
X177442Y147570D01*
X179846Y149974D01*
X177929Y151891D01*
D02*
G37*
G36*
X171487Y151404D02*
X169083Y149000D01*
X171000Y147083D01*
X173404Y149487D01*
X171487Y151404D01*
D02*
G37*
G36*
X162614Y148660D02*
X159805D01*
Y147031D01*
X162614D01*
Y148660D01*
D02*
G37*
G36*
X158305D02*
X155496D01*
Y147031D01*
X158305D01*
Y148660D01*
D02*
G37*
G36*
X79490Y147547D02*
Y146222D01*
X80815D01*
X80795Y146324D01*
X80313Y147045D01*
X79591Y147527D01*
X79490Y147547D01*
D02*
G37*
G36*
X77990D02*
X77889Y147527D01*
X77168Y147045D01*
X76686Y146324D01*
X76666Y146222D01*
X77990D01*
Y147547D01*
D02*
G37*
G36*
X69004Y146691D02*
X67679D01*
Y145366D01*
X67780Y145386D01*
X68502Y145869D01*
X68984Y146590D01*
X69004Y146691D01*
D02*
G37*
G36*
X66179D02*
X64855D01*
X64875Y146590D01*
X65357Y145869D01*
X66078Y145386D01*
X66179Y145366D01*
Y146691D01*
D02*
G37*
G36*
X211970Y146169D02*
Y144844D01*
X213295D01*
X213275Y144946D01*
X212793Y145667D01*
X212071Y146149D01*
X211970Y146169D01*
D02*
G37*
G36*
X210471D02*
X210369Y146149D01*
X209648Y145667D01*
X209166Y144946D01*
X209146Y144844D01*
X210471D01*
Y146169D01*
D02*
G37*
G36*
X143480Y147433D02*
X140868D01*
Y144033D01*
X143480D01*
Y147433D01*
D02*
G37*
G36*
X139368D02*
X136756D01*
Y144033D01*
X139368D01*
Y147433D01*
D02*
G37*
G36*
X80815Y144722D02*
X79490D01*
Y143398D01*
X79591Y143418D01*
X80313Y143900D01*
X80795Y144621D01*
X80815Y144722D01*
D02*
G37*
G36*
X77990D02*
X76666D01*
X76686Y144621D01*
X77168Y143900D01*
X77889Y143418D01*
X77990Y143398D01*
Y144722D01*
D02*
G37*
G36*
X49175Y144594D02*
Y143270D01*
X50500D01*
X50480Y143371D01*
X49998Y144092D01*
X49276Y144574D01*
X49175Y144594D01*
D02*
G37*
G36*
X47675D02*
X47574Y144574D01*
X46853Y144092D01*
X46371Y143371D01*
X46351Y143270D01*
X47675D01*
Y144594D01*
D02*
G37*
G36*
X227718Y144201D02*
Y142876D01*
X229043D01*
X229023Y142977D01*
X228541Y143699D01*
X227819Y144181D01*
X227718Y144201D01*
D02*
G37*
G36*
X226219D02*
X226117Y144181D01*
X225396Y143699D01*
X224914Y142977D01*
X224894Y142876D01*
X226219D01*
Y144201D01*
D02*
G37*
G36*
X213295Y143344D02*
X211970D01*
Y142020D01*
X212071Y142040D01*
X212793Y142522D01*
X213275Y143244D01*
X213295Y143344D01*
D02*
G37*
G36*
X210471D02*
X209146D01*
X209166Y143244D01*
X209648Y142522D01*
X210369Y142040D01*
X210471Y142020D01*
Y143344D01*
D02*
G37*
G36*
X50500Y141770D02*
X49175D01*
Y140445D01*
X49276Y140465D01*
X49998Y140947D01*
X50480Y141669D01*
X50500Y141770D01*
D02*
G37*
G36*
X47675D02*
X46351D01*
X46371Y141669D01*
X46853Y140947D01*
X47574Y140465D01*
X47675Y140445D01*
Y141770D01*
D02*
G37*
G36*
X167466Y141920D02*
X165316D01*
Y140120D01*
X167466D01*
Y141920D01*
D02*
G37*
G36*
X163816D02*
X161667D01*
Y140120D01*
X163816D01*
Y141920D01*
D02*
G37*
G36*
X229043Y141376D02*
X227718D01*
Y140051D01*
X227819Y140071D01*
X228541Y140553D01*
X229023Y141275D01*
X229043Y141376D01*
D02*
G37*
G36*
X226219D02*
X224894D01*
X224914Y141275D01*
X225396Y140553D01*
X226117Y140071D01*
X226219Y140051D01*
Y141376D01*
D02*
G37*
G36*
X39583Y147478D02*
X27128D01*
Y139551D01*
X39583D01*
Y147478D01*
D02*
G37*
G36*
X25628D02*
X13173D01*
Y139551D01*
X25628D01*
Y147478D01*
D02*
G37*
G36*
X143480Y142533D02*
X140868D01*
Y139134D01*
X143480D01*
Y142533D01*
D02*
G37*
G36*
X139368D02*
X136756D01*
Y139134D01*
X139368D01*
Y142533D01*
D02*
G37*
G36*
X82260Y139976D02*
X79451D01*
Y138348D01*
X82260D01*
Y139976D01*
D02*
G37*
G36*
X70903D02*
X68094D01*
Y138348D01*
X70903D01*
Y139976D01*
D02*
G37*
G36*
X260475Y142408D02*
X255275D01*
Y137908D01*
X260475D01*
Y138475D01*
X263299D01*
X263438Y138383D01*
X264173Y138236D01*
X264908Y138383D01*
X265532Y138799D01*
X265948Y139422D01*
X266094Y140157D01*
X265948Y140893D01*
X265532Y141516D01*
X264908Y141932D01*
X264173Y142079D01*
X263438Y141932D01*
X263299Y141840D01*
X260475D01*
Y142408D01*
D02*
G37*
G36*
X95149Y141290D02*
X87843D01*
Y137922D01*
X95149D01*
Y141290D01*
D02*
G37*
G36*
X167466Y138620D02*
X165316D01*
Y136820D01*
X167466D01*
Y138620D01*
D02*
G37*
G36*
X163816D02*
X161667D01*
Y136820D01*
X163816D01*
Y138620D01*
D02*
G37*
G36*
X50055Y137024D02*
X47246D01*
Y135396D01*
X50055D01*
Y137024D01*
D02*
G37*
G36*
X45746D02*
X42937D01*
Y135396D01*
X45746D01*
Y137024D01*
D02*
G37*
G36*
X140943Y138205D02*
X139315D01*
Y135396D01*
X140943D01*
Y138205D01*
D02*
G37*
G36*
X95449Y136591D02*
X92246D01*
Y135356D01*
X95449D01*
Y136591D01*
D02*
G37*
G36*
X90746D02*
X87543D01*
Y135356D01*
X90746D01*
Y136591D01*
D02*
G37*
G36*
X82260Y136848D02*
X79451D01*
Y135221D01*
X82260D01*
Y136848D01*
D02*
G37*
G36*
X77951Y139976D02*
X72404D01*
Y137598D01*
Y135221D01*
X77951D01*
Y137598D01*
Y139976D01*
D02*
G37*
G36*
X70903Y136848D02*
X68094D01*
Y135221D01*
X70903D01*
Y136848D01*
D02*
G37*
G36*
X179868Y135621D02*
X177718D01*
Y133821D01*
X179868D01*
Y135621D01*
D02*
G37*
G36*
X176218D02*
X174068D01*
Y133821D01*
X176218D01*
Y135621D01*
D02*
G37*
G36*
X50055Y133896D02*
X47246D01*
Y132268D01*
X50055D01*
Y133896D01*
D02*
G37*
G36*
X45746D02*
X42937D01*
Y132268D01*
X45746D01*
Y133896D01*
D02*
G37*
G36*
X140943Y133896D02*
X139315D01*
Y131087D01*
X140943D01*
Y133896D01*
D02*
G37*
G36*
X179868Y132321D02*
X177718D01*
Y130521D01*
X179868D01*
Y132321D01*
D02*
G37*
G36*
X176218D02*
X174068D01*
Y130521D01*
X176218D01*
Y132321D01*
D02*
G37*
G36*
X160592Y131012D02*
Y129687D01*
X161917D01*
X161897Y129788D01*
X161415Y130509D01*
X160694Y130992D01*
X160592Y131012D01*
D02*
G37*
G36*
X159092D02*
X158992Y130992D01*
X158270Y130509D01*
X157788Y129788D01*
X157768Y129687D01*
X159092D01*
Y131012D01*
D02*
G37*
G36*
X116802Y131290D02*
X109497D01*
Y127922D01*
X116802D01*
Y131290D01*
D02*
G37*
G36*
X191770Y129868D02*
X189970D01*
Y127718D01*
X191770D01*
Y129868D01*
D02*
G37*
G36*
X179868Y129322D02*
X177718D01*
Y127522D01*
X179868D01*
Y129322D01*
D02*
G37*
G36*
X176218D02*
X174068D01*
Y127522D01*
X176218D01*
Y129322D01*
D02*
G37*
G36*
X249766Y128453D02*
Y127128D01*
X251090D01*
X251070Y127229D01*
X250588Y127950D01*
X249867Y128433D01*
X249766Y128453D01*
D02*
G37*
G36*
X248266D02*
X248165Y128433D01*
X247443Y127950D01*
X246961Y127229D01*
X246941Y127128D01*
X248266D01*
Y128453D01*
D02*
G37*
G36*
X244042Y128928D02*
X241893D01*
Y127128D01*
X244042D01*
Y128928D01*
D02*
G37*
G36*
X240392D02*
X238243D01*
Y127128D01*
X240392D01*
Y128928D01*
D02*
G37*
G36*
X161917Y128187D02*
X160592D01*
Y126862D01*
X160694Y126883D01*
X161415Y127365D01*
X161897Y128086D01*
X161917Y128187D01*
D02*
G37*
G36*
X159092D02*
X157768D01*
X157788Y128086D01*
X158270Y127365D01*
X158992Y126883D01*
X159092Y126862D01*
Y128187D01*
D02*
G37*
G36*
X22658Y132044D02*
X21395Y131878D01*
X20218Y131391D01*
X19208Y130615D01*
X18432Y129605D01*
X17945Y128428D01*
X17779Y127165D01*
X17945Y125903D01*
X18432Y124726D01*
X19208Y123716D01*
X20218Y122940D01*
X21395Y122453D01*
X22658Y122287D01*
X23920Y122453D01*
X25097Y122940D01*
X26107Y123716D01*
X26883Y124726D01*
X27091Y125228D01*
X43237D01*
Y125087D01*
X49755D01*
Y125228D01*
X53150D01*
X53891Y125376D01*
X54519Y125795D01*
X54939Y126424D01*
X55087Y127165D01*
X54939Y127907D01*
X54519Y128535D01*
X53891Y128955D01*
X53150Y129103D01*
X49755D01*
Y129243D01*
X43237D01*
Y129103D01*
X27091D01*
X26883Y129605D01*
X26107Y130615D01*
X25097Y131391D01*
X23920Y131878D01*
X22658Y132044D01*
D02*
G37*
G36*
X251090Y125628D02*
X249766D01*
Y124303D01*
X249867Y124323D01*
X250588Y124805D01*
X251070Y125527D01*
X251090Y125628D01*
D02*
G37*
G36*
X248266D02*
X246941D01*
X246961Y125527D01*
X247443Y124805D01*
X248165Y124323D01*
X248266Y124303D01*
Y125628D01*
D02*
G37*
G36*
X179868Y126022D02*
X177718D01*
Y124222D01*
X179868D01*
Y126022D01*
D02*
G37*
G36*
X176218D02*
X174068D01*
Y124222D01*
X176218D01*
Y126022D01*
D02*
G37*
G36*
X191770Y126218D02*
X189970D01*
Y124068D01*
X191770D01*
Y126218D01*
D02*
G37*
G36*
X244042Y125628D02*
X241893D01*
Y123828D01*
X244042D01*
Y125628D01*
D02*
G37*
G36*
X240392D02*
X238243D01*
Y123828D01*
X240392D01*
Y125628D01*
D02*
G37*
G36*
X140908Y124712D02*
Y123388D01*
X142232D01*
X142212Y123489D01*
X141730Y124210D01*
X141008Y124692D01*
X140908Y124712D01*
D02*
G37*
G36*
X139408D02*
X139306Y124692D01*
X138585Y124210D01*
X138103Y123489D01*
X138083Y123388D01*
X139408D01*
Y124712D01*
D02*
G37*
G36*
X142232Y121888D02*
X140908D01*
Y120563D01*
X141008Y120583D01*
X141730Y121065D01*
X142212Y121787D01*
X142232Y121888D01*
D02*
G37*
G36*
X139408D02*
X138083D01*
X138103Y121787D01*
X138585Y121065D01*
X139306Y120583D01*
X139408Y120563D01*
Y121888D01*
D02*
G37*
G36*
X177325Y119791D02*
Y118466D01*
X178649D01*
X178629Y118568D01*
X178147Y119289D01*
X177426Y119771D01*
X177325Y119791D01*
D02*
G37*
G36*
X175825D02*
X175724Y119771D01*
X175002Y119289D01*
X174520Y118568D01*
X174500Y118466D01*
X175825D01*
Y119791D01*
D02*
G37*
G36*
X185697Y120094D02*
X182888D01*
Y118466D01*
X185697D01*
Y120094D01*
D02*
G37*
G36*
X194451D02*
Y118466D01*
X197260D01*
Y120094D01*
X194451D01*
D02*
G37*
G36*
X178649Y116966D02*
X177325D01*
Y115642D01*
X177426Y115662D01*
X178147Y116144D01*
X178629Y116866D01*
X178649Y116966D01*
D02*
G37*
G36*
X175825D02*
X174500D01*
X174520Y116866D01*
X175002Y116144D01*
X175724Y115662D01*
X175825Y115642D01*
Y116966D01*
D02*
G37*
G36*
X197260Y116966D02*
X194451D01*
Y115338D01*
X197260D01*
Y116966D01*
D02*
G37*
G36*
X185697Y116966D02*
X182888D01*
Y115338D01*
X185697D01*
Y116966D01*
D02*
G37*
G36*
X190142Y120094D02*
X189642Y120094D01*
X187197D01*
Y117716D01*
Y115338D01*
X189642D01*
X190006Y115338D01*
X190506Y115338D01*
X192951D01*
Y117716D01*
Y120094D01*
X190506D01*
X190142Y120094D01*
D02*
G37*
G36*
X57102Y116945D02*
X54687D01*
Y115120D01*
X57102D01*
Y116945D01*
D02*
G37*
G36*
X53187D02*
X50772D01*
Y115120D01*
X53187D01*
Y116945D01*
D02*
G37*
G36*
X57102Y113620D02*
X54687D01*
Y111795D01*
X57102D01*
Y113620D01*
D02*
G37*
G36*
X53187D02*
X50772D01*
Y111795D01*
X53187D01*
Y113620D01*
D02*
G37*
G36*
X60236Y140508D02*
X59424Y140346D01*
X58736Y139886D01*
X58276Y139198D01*
X58114Y138386D01*
X58276Y137574D01*
X58554Y137158D01*
Y115987D01*
X57986D01*
Y110787D01*
X62486D01*
Y115987D01*
X61919D01*
Y137158D01*
X62197Y137574D01*
X62358Y138386D01*
X62197Y139198D01*
X61737Y139886D01*
X61048Y140346D01*
X60236Y140508D01*
D02*
G37*
G36*
X49361Y112905D02*
X43631D01*
Y112567D01*
X42831D01*
X42089Y112420D01*
X41461Y112000D01*
X38879Y109417D01*
X27091D01*
X26883Y109920D01*
X26107Y110930D01*
X25097Y111705D01*
X23920Y112193D01*
X22658Y112359D01*
X21395Y112193D01*
X20218Y111705D01*
X19208Y110930D01*
X18432Y109920D01*
X17945Y108743D01*
X17779Y107480D01*
X17945Y106218D01*
X18432Y105041D01*
X19208Y104031D01*
X20218Y103255D01*
X21395Y102768D01*
X22658Y102602D01*
X23920Y102768D01*
X25097Y103255D01*
X26107Y104031D01*
X26883Y105041D01*
X27091Y105543D01*
X39681D01*
X40422Y105691D01*
X41051Y106111D01*
X43162Y108222D01*
X43631Y108355D01*
Y108355D01*
X43631Y108355D01*
X49361D01*
Y112905D01*
D02*
G37*
G36*
X62486Y109687D02*
X57986D01*
Y109024D01*
X56802D01*
Y109165D01*
X51072D01*
Y104615D01*
X56802D01*
Y105149D01*
X57986D01*
Y104487D01*
X62486D01*
Y109687D01*
D02*
G37*
G36*
X74445Y111449D02*
X69766D01*
Y107026D01*
X74445D01*
Y111449D01*
D02*
G37*
G36*
X68266D02*
X63587D01*
Y107026D01*
X68266D01*
Y111449D01*
D02*
G37*
G36*
X150995Y118515D02*
X147430D01*
Y116500D01*
X147423Y116489D01*
X147275Y115748D01*
Y111039D01*
X142189Y105952D01*
X141687Y106160D01*
X140424Y106327D01*
X139162Y106160D01*
X137985Y105673D01*
X136975Y104898D01*
X136199Y103887D01*
X135712Y102711D01*
X135546Y101448D01*
X135712Y100185D01*
X136199Y99009D01*
X136975Y97998D01*
X137985Y97223D01*
X139162Y96735D01*
X140424Y96569D01*
X141687Y96735D01*
X142189Y96943D01*
X147333Y91799D01*
X147961Y91379D01*
X148703Y91232D01*
X171850D01*
X172592Y91379D01*
X172750Y91485D01*
X175503D01*
Y94854D01*
X172750D01*
X172592Y94959D01*
X171850Y95107D01*
X149505D01*
X144929Y99683D01*
X145137Y100185D01*
X145303Y101448D01*
X145137Y102711D01*
X144929Y103213D01*
X150582Y108866D01*
X151002Y109495D01*
X151150Y110236D01*
Y115748D01*
X151002Y116489D01*
X150995Y116500D01*
Y118515D01*
D02*
G37*
G36*
X175503Y104853D02*
X168198D01*
Y104852D01*
X163725D01*
X163724Y104852D01*
X163625Y104832D01*
X162905D01*
Y104834D01*
X157568D01*
Y101465D01*
X162905D01*
Y101467D01*
X163705D01*
X163804Y101487D01*
X168198D01*
Y101485D01*
X175503D01*
Y104853D01*
D02*
G37*
G36*
X74445Y105526D02*
X69766D01*
Y101102D01*
X74445D01*
Y105526D01*
D02*
G37*
G36*
X68266D02*
X63587D01*
Y101102D01*
X68266D01*
Y105526D01*
D02*
G37*
G36*
X196850Y113312D02*
X179921D01*
X179648Y113258D01*
X179417Y113103D01*
X178629Y112316D01*
X178474Y112084D01*
X178420Y111811D01*
Y105118D01*
X178474Y104845D01*
X178629Y104613D01*
X182566Y100676D01*
X182798Y100522D01*
X183071Y100467D01*
X196850Y100467D01*
X197124Y100522D01*
X197355Y100676D01*
X198143Y101464D01*
X198297Y101695D01*
X198352Y101969D01*
X198352Y111811D01*
X198297Y112084D01*
X198143Y112316D01*
X198142Y112316D01*
X197355Y113103D01*
X197124Y113258D01*
X196850Y113312D01*
D02*
G37*
G36*
X197157Y99853D02*
X189851D01*
Y96485D01*
X197157D01*
Y99853D01*
D02*
G37*
G36*
X162905Y100503D02*
X157568D01*
Y97135D01*
X162905D01*
X163302Y96888D01*
X163710Y96615D01*
X164354Y96487D01*
X168198D01*
Y96485D01*
X175503D01*
Y99853D01*
X168198D01*
Y99852D01*
X165051D01*
X164894Y100008D01*
X164348Y100373D01*
X163705Y100501D01*
X162905D01*
Y100503D01*
D02*
G37*
G36*
X175803Y90153D02*
X172600D01*
Y88919D01*
X175803D01*
Y90153D01*
D02*
G37*
G36*
X171100D02*
X167898D01*
Y88919D01*
X171100D01*
Y90153D01*
D02*
G37*
G36*
X126505Y92508D02*
X125216Y92338D01*
X124015Y91841D01*
X123584Y91510D01*
X126505Y88589D01*
X129426Y91510D01*
X128995Y91841D01*
X127794Y92338D01*
X126505Y92508D01*
D02*
G37*
G36*
X175803Y87419D02*
X172600D01*
Y86185D01*
X175803D01*
Y87419D01*
D02*
G37*
G36*
X171100D02*
X167898D01*
Y86185D01*
X171100D01*
Y87419D01*
D02*
G37*
G36*
X197157Y89854D02*
X189851D01*
Y86485D01*
X197157D01*
Y86691D01*
X203852D01*
Y84408D01*
X208352D01*
Y85530D01*
X209962D01*
X209977Y85508D01*
X210665Y85048D01*
X211477Y84886D01*
X212289Y85048D01*
X212978Y85508D01*
X213438Y86196D01*
X213599Y87008D01*
X213438Y87820D01*
X212978Y88508D01*
X212289Y88968D01*
X211477Y89130D01*
X210665Y88968D01*
X209977Y88508D01*
X209962Y88486D01*
X208352D01*
Y89608D01*
X205303D01*
X205102Y89648D01*
X197157D01*
Y89854D01*
D02*
G37*
G36*
X122523Y90449D02*
X122192Y90018D01*
X121695Y88817D01*
X121525Y87529D01*
X121695Y86240D01*
X122192Y85039D01*
X122523Y84607D01*
X125444Y87529D01*
X122523Y90449D01*
D02*
G37*
G36*
X130487Y90449D02*
X127566Y87529D01*
X130487Y84607D01*
X130817Y85039D01*
X131315Y86240D01*
X131484Y87529D01*
X131315Y88817D01*
X130817Y90018D01*
X130487Y90449D01*
D02*
G37*
G36*
X230921Y85449D02*
X227718D01*
Y84215D01*
X230921D01*
Y85449D01*
D02*
G37*
G36*
X226219D02*
X223016D01*
Y84215D01*
X226219D01*
Y85449D01*
D02*
G37*
G36*
X219845Y85539D02*
Y84215D01*
X221169D01*
X221149Y84316D01*
X220667Y85037D01*
X219946Y85519D01*
X219845Y85539D01*
D02*
G37*
G36*
X218344D02*
X218244Y85519D01*
X217522Y85037D01*
X217040Y84316D01*
X217020Y84215D01*
X218344D01*
Y85539D01*
D02*
G37*
G36*
X126505Y86468D02*
X123584Y83547D01*
X124015Y83216D01*
X125216Y82718D01*
X126505Y82549D01*
X127794Y82718D01*
X128995Y83216D01*
X129426Y83547D01*
X126505Y86468D01*
D02*
G37*
G36*
X230921Y82715D02*
X227718D01*
Y81480D01*
X230921D01*
Y82715D01*
D02*
G37*
G36*
X226219D02*
X223016D01*
Y81480D01*
X226219D01*
Y82715D01*
D02*
G37*
G36*
X221169D02*
X219845D01*
Y81390D01*
X219946Y81410D01*
X220667Y81892D01*
X221149Y82613D01*
X221169Y82715D01*
D02*
G37*
G36*
X218344D02*
X217020D01*
X217040Y82613D01*
X217522Y81892D01*
X218244Y81410D01*
X218344Y81390D01*
Y82715D01*
D02*
G37*
G36*
X117089Y67626D02*
Y66301D01*
X118413D01*
X118393Y66402D01*
X117911Y67124D01*
X117190Y67606D01*
X117089Y67626D01*
D02*
G37*
G36*
X115589D02*
X115488Y67606D01*
X114766Y67124D01*
X114284Y66402D01*
X114264Y66301D01*
X115589D01*
Y67626D01*
D02*
G37*
G36*
X118413Y64801D02*
X117089D01*
Y63477D01*
X117190Y63497D01*
X117911Y63979D01*
X118393Y64700D01*
X118413Y64801D01*
D02*
G37*
G36*
X115589D02*
X114264D01*
X114284Y64700D01*
X114766Y63979D01*
X115488Y63497D01*
X115589Y63477D01*
Y64801D01*
D02*
G37*
G36*
X117089Y57783D02*
Y56459D01*
X118413D01*
X118393Y56560D01*
X117911Y57281D01*
X117190Y57763D01*
X117089Y57783D01*
D02*
G37*
G36*
X115589D02*
X115488Y57763D01*
X114766Y57281D01*
X114284Y56560D01*
X114264Y56459D01*
X115589D01*
Y57783D01*
D02*
G37*
G36*
X118413Y54959D02*
X117089D01*
Y53634D01*
X117190Y53654D01*
X117911Y54136D01*
X118393Y54858D01*
X118413Y54959D01*
D02*
G37*
G36*
X115589D02*
X114264D01*
X114284Y54858D01*
X114766Y54136D01*
X115488Y53654D01*
X115589Y53634D01*
Y54959D01*
D02*
G37*
%LPD*%
G36*
X62598Y190945D02*
X69685Y183858D01*
X82284Y183858D01*
X83071Y183071D01*
Y178347D01*
X82284Y177559D01*
X76378D01*
X71653Y172835D01*
Y161024D01*
X68110Y157480D01*
X56693Y157480D01*
X46850Y167323D01*
Y187402D01*
X50394Y190945D01*
X62598Y190945D01*
D02*
G37*
G36*
X197638Y111811D02*
X197638Y101969D01*
X196850Y101181D01*
X183071Y101181D01*
X179134Y105118D01*
Y111811D01*
X179921Y112598D01*
X196850D01*
X197638Y111811D01*
D02*
G37*
%LPC*%
G36*
X324841Y125707D02*
X324445Y125601D01*
X323768Y125210D01*
X323215Y124657D01*
X322824Y123980D01*
X322718Y123585D01*
X324841D01*
Y125707D01*
D02*
G37*
G36*
X340141Y125703D02*
X339386D01*
X338657Y125508D01*
X338002Y125130D01*
X337468Y124596D01*
X337091Y123942D01*
X336895Y123212D01*
Y122457D01*
X337091Y121727D01*
X337468Y121073D01*
X338002Y120539D01*
X338657Y120162D01*
X339386Y119966D01*
X340141D01*
X340871Y120162D01*
X341525Y120539D01*
X342059Y121073D01*
X342437Y121727D01*
X342632Y122457D01*
Y123212D01*
X342437Y123942D01*
X342059Y124596D01*
X341525Y125130D01*
X340871Y125508D01*
X340141Y125703D01*
D02*
G37*
G36*
X324841Y122085D02*
X322718D01*
X322824Y121689D01*
X323215Y121012D01*
X323768Y120459D01*
X324445Y120068D01*
X324841Y119962D01*
Y122085D01*
D02*
G37*
G36*
X340141Y111530D02*
X339386D01*
X338657Y111334D01*
X338002Y110957D01*
X337468Y110423D01*
X337091Y109769D01*
X336895Y109039D01*
Y108284D01*
X337091Y107554D01*
X337468Y106900D01*
X338002Y106366D01*
X338657Y105988D01*
X339386Y105793D01*
X340141D01*
X340871Y105988D01*
X341525Y106366D01*
X342059Y106900D01*
X342437Y107554D01*
X342632Y108284D01*
Y109039D01*
X342437Y109769D01*
X342059Y110423D01*
X341525Y110957D01*
X340871Y111334D01*
X340141Y111530D01*
D02*
G37*
G36*
X323585Y37286D02*
Y35986D01*
X324885D01*
X324684Y36472D01*
X324070Y37085D01*
X323585Y37286D01*
D02*
G37*
G36*
X322085D02*
X321599Y37085D01*
X320986Y36472D01*
X320784Y35986D01*
X322085D01*
Y37286D01*
D02*
G37*
G36*
X316695D02*
Y35986D01*
X317995D01*
X317794Y36472D01*
X317180Y37085D01*
X316695Y37286D01*
D02*
G37*
G36*
X315195D02*
X314709Y37085D01*
X314096Y36472D01*
X313895Y35986D01*
X315195D01*
Y37286D01*
D02*
G37*
G36*
X324885Y34486D02*
X323585D01*
Y33186D01*
X324070Y33387D01*
X324684Y34001D01*
X324885Y34486D01*
D02*
G37*
G36*
X322085D02*
X320784D01*
X320986Y34001D01*
X321599Y33387D01*
X322085Y33186D01*
Y34486D01*
D02*
G37*
G36*
X311499D02*
X310199D01*
Y33186D01*
X310684Y33387D01*
X311298Y34001D01*
X311499Y34486D01*
D02*
G37*
G36*
X317995D02*
X313895D01*
X314008Y34214D01*
Y13991D01*
X311558Y11542D01*
X310969Y11298D01*
X310356Y10684D01*
X310155Y10199D01*
X312205D01*
Y9449D01*
X312955D01*
Y7399D01*
X313440Y7600D01*
X314054Y8213D01*
X314298Y8802D01*
X317315Y11819D01*
X317735Y12448D01*
X317882Y13189D01*
Y34214D01*
X317995Y34486D01*
D02*
G37*
G36*
X311455Y8699D02*
X310155D01*
X310356Y8213D01*
X310969Y7600D01*
X311455Y7399D01*
Y8699D01*
D02*
G37*
G36*
X73165Y61590D02*
X71144D01*
Y59569D01*
X73165D01*
Y61590D01*
D02*
G37*
G36*
X58699D02*
X56677D01*
Y59569D01*
X58699D01*
Y61590D01*
D02*
G37*
G36*
X69644D02*
X65671D01*
Y58819D01*
X64171D01*
Y61590D01*
X60199D01*
Y58819D01*
X59449D01*
Y58069D01*
X56677D01*
Y56047D01*
Y54096D01*
X59449D01*
Y52596D01*
X56677D01*
Y50575D01*
Y48624D01*
X59449D01*
Y47874D01*
X60199D01*
Y45102D01*
X64171D01*
Y47874D01*
X65671D01*
Y45102D01*
X69644D01*
Y47874D01*
X70394D01*
Y48624D01*
X73165D01*
Y50575D01*
Y52596D01*
X70394D01*
Y54096D01*
X73165D01*
Y56047D01*
Y58069D01*
X70394D01*
Y58819D01*
X69644D01*
Y61590D01*
D02*
G37*
G36*
X73165Y47124D02*
X71144D01*
Y45102D01*
X73165D01*
Y47124D01*
D02*
G37*
G36*
X58699D02*
X56677D01*
Y45102D01*
X58699D01*
Y47124D01*
D02*
G37*
G36*
X28900Y31799D02*
Y30474D01*
X30224D01*
X30204Y30575D01*
X29722Y31297D01*
X29001Y31779D01*
X28900Y31799D01*
D02*
G37*
G36*
X27400D02*
X27299Y31779D01*
X26577Y31297D01*
X26095Y30575D01*
X26075Y30474D01*
X27400D01*
Y31799D01*
D02*
G37*
G36*
X30224Y28974D02*
X28900D01*
Y27650D01*
X29001Y27670D01*
X29722Y28152D01*
X30204Y28873D01*
X30224Y28974D01*
D02*
G37*
G36*
X27400D02*
X26075D01*
X26095Y28873D01*
X26577Y28152D01*
X27299Y27670D01*
X27400Y27650D01*
Y28974D01*
D02*
G37*
G36*
X33778Y28756D02*
X31756D01*
Y25553D01*
X33778D01*
Y28756D01*
D02*
G37*
G36*
X28900Y24319D02*
Y22994D01*
X30224D01*
X30204Y23095D01*
X29722Y23817D01*
X29001Y24299D01*
X28900Y24319D01*
D02*
G37*
G36*
X27400D02*
X27299Y24299D01*
X26577Y23817D01*
X26095Y23095D01*
X26075Y22994D01*
X27400D01*
Y24319D01*
D02*
G37*
G36*
X33778Y24053D02*
X31756D01*
Y20850D01*
X33778D01*
Y24053D01*
D02*
G37*
G36*
X30224Y21494D02*
X28900D01*
Y20169D01*
X29001Y20189D01*
X29722Y20672D01*
X30204Y21393D01*
X30224Y21494D01*
D02*
G37*
G36*
X27400D02*
X26075D01*
X26095Y21393D01*
X26577Y20672D01*
X27299Y20189D01*
X27400Y20169D01*
Y21494D01*
D02*
G37*
G36*
X28900Y16838D02*
Y15514D01*
X30224D01*
X30204Y15615D01*
X29722Y16336D01*
X29001Y16818D01*
X28900Y16838D01*
D02*
G37*
G36*
X27400D02*
X27299Y16818D01*
X26577Y16336D01*
X26095Y15615D01*
X26075Y15514D01*
X27400D01*
Y16838D01*
D02*
G37*
G36*
X30224Y14014D02*
X28900D01*
Y12689D01*
X29001Y12709D01*
X29722Y13191D01*
X30204Y13913D01*
X30224Y14014D01*
D02*
G37*
G36*
X27400D02*
X26075D01*
X26095Y13913D01*
X26577Y13191D01*
X27299Y12709D01*
X27400Y12689D01*
Y14014D01*
D02*
G37*
G36*
X28900Y9555D02*
Y8230D01*
X30224D01*
X30204Y8331D01*
X29722Y9053D01*
X29001Y9535D01*
X28900Y9555D01*
D02*
G37*
G36*
X27400D02*
X27299Y9535D01*
X26577Y9053D01*
X26095Y8331D01*
X26075Y8230D01*
X27400D01*
Y9555D01*
D02*
G37*
G36*
X30224Y6730D02*
X28900D01*
Y5406D01*
X29001Y5426D01*
X29722Y5908D01*
X30204Y6629D01*
X30224Y6730D01*
D02*
G37*
G36*
X27400D02*
X26075D01*
X26095Y6629D01*
X26577Y5908D01*
X27299Y5426D01*
X27400Y5406D01*
Y6730D01*
D02*
G37*
G36*
X259755Y100503D02*
Y100503D01*
X259444Y100503D01*
X253237D01*
Y100402D01*
X248622D01*
X247881Y100254D01*
X247723Y100149D01*
X244969D01*
Y96780D01*
X247723D01*
X247881Y96675D01*
X248622Y96527D01*
X253237D01*
Y96347D01*
X259755D01*
Y96347D01*
X259930D01*
Y96347D01*
X266448D01*
X266448Y96347D01*
Y96347D01*
X266837Y96097D01*
X268171Y94762D01*
X268179Y94722D01*
X268639Y94033D01*
X269328Y93573D01*
X270140Y93412D01*
X270952Y93573D01*
X271640Y94033D01*
X272100Y94722D01*
X272262Y95534D01*
X272100Y96346D01*
X271640Y97034D01*
X270952Y97494D01*
X270911Y97502D01*
X268618Y99795D01*
X267989Y100215D01*
X267248Y100362D01*
X266448D01*
Y100503D01*
X260241D01*
X259930Y100503D01*
Y100503D01*
X259755D01*
D02*
G37*
G36*
X252275Y95149D02*
X244969D01*
Y91780D01*
X252275D01*
Y95149D01*
D02*
G37*
G36*
X255746Y93323D02*
X252937D01*
Y91695D01*
X255746D01*
Y93323D01*
D02*
G37*
G36*
X266748D02*
X263939D01*
Y91695D01*
X266748D01*
Y93323D01*
D02*
G37*
G36*
Y90195D02*
X263939D01*
Y88567D01*
X266748D01*
Y90195D01*
D02*
G37*
G36*
X262439Y93323D02*
X257246D01*
Y90945D01*
Y88567D01*
X262439D01*
Y90945D01*
Y93323D01*
D02*
G37*
G36*
X255746Y90195D02*
X252937D01*
Y88567D01*
X255746D01*
Y90195D01*
D02*
G37*
G36*
X274766Y89673D02*
Y88348D01*
X276090D01*
X276070Y88450D01*
X275588Y89171D01*
X274867Y89653D01*
X274766Y89673D01*
D02*
G37*
G36*
X273266D02*
X273165Y89653D01*
X272443Y89171D01*
X271961Y88450D01*
X271941Y88348D01*
X273266D01*
Y89673D01*
D02*
G37*
G36*
X252275Y90149D02*
X244969D01*
Y86780D01*
X252275D01*
Y90149D01*
D02*
G37*
G36*
X276090Y86848D02*
X274766D01*
Y85524D01*
X274867Y85544D01*
X275588Y86026D01*
X276070Y86747D01*
X276090Y86848D01*
D02*
G37*
G36*
X273266D02*
X271941D01*
X271961Y86747D01*
X272443Y86026D01*
X273165Y85544D01*
X273266Y85524D01*
Y86848D01*
D02*
G37*
G36*
X258899Y85715D02*
X253699D01*
Y84994D01*
X252275D01*
Y85149D01*
X244969D01*
Y81780D01*
X252275D01*
Y81935D01*
X253699D01*
Y81215D01*
X258899D01*
Y85715D01*
D02*
G37*
G36*
X274766Y79831D02*
Y78506D01*
X276090D01*
X276070Y78607D01*
X275588Y79328D01*
X274867Y79811D01*
X274766Y79831D01*
D02*
G37*
G36*
X273266D02*
X273165Y79811D01*
X272443Y79328D01*
X271961Y78607D01*
X271941Y78506D01*
X273266D01*
Y79831D01*
D02*
G37*
G36*
X276090Y77006D02*
X274766D01*
Y75681D01*
X274867Y75701D01*
X275588Y76183D01*
X276070Y76905D01*
X276090Y77006D01*
D02*
G37*
G36*
X273266D02*
X271941D01*
X271961Y76905D01*
X272443Y76183D01*
X273165Y75701D01*
X273266Y75681D01*
Y77006D01*
D02*
G37*
G36*
X265199Y85715D02*
X259999D01*
Y81215D01*
X261121D01*
Y80222D01*
X251078Y70179D01*
X202951D01*
X202507Y70476D01*
X201772Y70622D01*
X201036Y70476D01*
X200413Y70059D01*
X199997Y69436D01*
X199850Y68701D01*
X199997Y67966D01*
X200413Y67342D01*
X201036Y66926D01*
X201772Y66780D01*
X202507Y66926D01*
X202951Y67222D01*
X208908D01*
X209144Y66781D01*
X209052Y66643D01*
X208906Y65908D01*
X209052Y65173D01*
X209307Y64791D01*
X209427Y64424D01*
X209307Y64056D01*
X209052Y63675D01*
X208906Y62940D01*
X209052Y62204D01*
X209468Y61581D01*
X210092Y61165D01*
X210827Y61018D01*
X211562Y61165D01*
X212097Y61522D01*
X213680D01*
X216882Y58320D01*
Y48570D01*
X214865Y46553D01*
X214503Y46012D01*
X214376Y45374D01*
Y42826D01*
X214162D01*
Y36702D01*
X214376D01*
Y33771D01*
X214162D01*
Y27646D01*
X214642D01*
Y26846D01*
X214768Y26209D01*
X215130Y25668D01*
X216882Y23916D01*
Y22452D01*
X215173D01*
Y22752D01*
X214136D01*
Y19094D01*
Y15437D01*
X215173D01*
Y15737D01*
X225110D01*
Y18883D01*
X225151Y19094D01*
Y22618D01*
X230609Y28076D01*
X230941Y28572D01*
X231057Y29158D01*
Y30304D01*
X232295D01*
Y33869D01*
X226761D01*
Y30304D01*
X227998D01*
Y29791D01*
X225905Y27698D01*
X225405Y27905D01*
Y33771D01*
X225190D01*
Y36702D01*
X225405D01*
Y42826D01*
X225190D01*
Y45374D01*
X225064Y46012D01*
X224702Y46553D01*
X222685Y48570D01*
Y60033D01*
X222558Y60671D01*
X222197Y61212D01*
X217295Y66114D01*
X217295Y66114D01*
X216687Y66722D01*
X216834Y67176D01*
X216870Y67222D01*
X251690D01*
X252256Y67335D01*
X252736Y67655D01*
X263645Y78564D01*
X263965Y79044D01*
X264078Y79610D01*
Y81215D01*
X265199D01*
Y85715D01*
D02*
G37*
G36*
X170809Y71559D02*
X156417D01*
Y59002D01*
X153180D01*
X152020Y58849D01*
X150939Y58402D01*
X150011Y57689D01*
X149298Y56761D01*
X148851Y55680D01*
X148698Y54520D01*
X148851Y53360D01*
X149298Y52280D01*
X150011Y51351D01*
X150939Y50639D01*
X152020Y50191D01*
X153180Y50039D01*
X160266D01*
X161426Y50191D01*
X162507Y50639D01*
X163435Y51351D01*
X164147Y52280D01*
X164378Y52836D01*
X170809D01*
Y71559D01*
D02*
G37*
G36*
X180701Y51133D02*
Y43066D01*
X184931D01*
Y46253D01*
X184761Y47541D01*
X184264Y48742D01*
X183472Y49774D01*
X182441Y50565D01*
X181240Y51063D01*
X180701Y51133D01*
D02*
G37*
G36*
X179201D02*
X178662Y51063D01*
X177461Y50565D01*
X176430Y49774D01*
X175639Y48742D01*
X175141Y47541D01*
X174972Y46253D01*
Y43066D01*
X179201D01*
Y51133D01*
D02*
G37*
G36*
X265765Y42535D02*
X262955D01*
Y40907D01*
X265765D01*
Y42535D01*
D02*
G37*
G36*
X235789Y42232D02*
Y40907D01*
X237114D01*
X237094Y41008D01*
X236612Y41730D01*
X235890Y42212D01*
X235789Y42232D01*
D02*
G37*
G36*
X234289D02*
X234188Y42212D01*
X233467Y41730D01*
X232985Y41008D01*
X232965Y40907D01*
X234289D01*
Y42232D01*
D02*
G37*
G36*
X248070Y42535D02*
X245261D01*
Y40907D01*
X248070D01*
Y42535D01*
D02*
G37*
G36*
X237114Y39408D02*
X235789D01*
Y38083D01*
X235890Y38103D01*
X236612Y38585D01*
X237094Y39307D01*
X237114Y39408D01*
D02*
G37*
G36*
X234289D02*
X232965D01*
X232985Y39307D01*
X233467Y38585D01*
X234188Y38103D01*
X234289Y38083D01*
Y39408D01*
D02*
G37*
G36*
X265765Y39408D02*
X262955D01*
Y37780D01*
X265765D01*
Y39408D01*
D02*
G37*
G36*
X261455Y42535D02*
X256263D01*
Y40157D01*
Y37780D01*
X261455D01*
Y40157D01*
Y42535D01*
D02*
G37*
G36*
X254763D02*
X249570D01*
Y40157D01*
Y37780D01*
X254763D01*
Y40157D01*
Y42535D01*
D02*
G37*
G36*
X248070Y39408D02*
X245261D01*
Y37780D01*
X248070D01*
Y39408D01*
D02*
G37*
G36*
X164991Y34697D02*
X161804D01*
Y30467D01*
X169871D01*
X169800Y31006D01*
X169303Y32207D01*
X168512Y33238D01*
X167480Y34030D01*
X166279Y34527D01*
X164991Y34697D01*
D02*
G37*
G36*
X160304D02*
X157117D01*
X155828Y34527D01*
X154627Y34030D01*
X153595Y33238D01*
X152804Y32207D01*
X152307Y31006D01*
X152236Y30467D01*
X160304D01*
Y34697D01*
D02*
G37*
G36*
X248425Y34209D02*
X247613Y34047D01*
X247579Y34024D01*
X240551D01*
X239810Y33876D01*
X239799Y33869D01*
X237784D01*
Y30304D01*
X239799D01*
X239810Y30297D01*
X240551Y30149D01*
X247579D01*
X247613Y30126D01*
X248425Y29965D01*
X249237Y30126D01*
X249272Y30149D01*
X253040D01*
Y30009D01*
X259558D01*
Y34165D01*
X253040D01*
Y34024D01*
X249272D01*
X249237Y34047D01*
X248425Y34209D01*
D02*
G37*
G36*
X195124Y40166D02*
X187197D01*
Y27711D01*
X195124D01*
Y40166D01*
D02*
G37*
G36*
X184931Y41566D02*
X179951D01*
X174972D01*
Y38379D01*
X175141Y37090D01*
X175639Y35889D01*
X176430Y34857D01*
X177461Y34066D01*
X177770Y33938D01*
Y27711D01*
X185697D01*
Y40166D01*
X184931D01*
Y41566D01*
D02*
G37*
G36*
X144337Y40166D02*
X136410D01*
Y27711D01*
X144337D01*
Y40166D01*
D02*
G37*
G36*
X134910D02*
X126983D01*
Y27711D01*
X134910D01*
Y40166D01*
D02*
G37*
G36*
X259858Y26984D02*
X257049D01*
Y25356D01*
X259858D01*
Y26984D01*
D02*
G37*
G36*
X255549D02*
X252740D01*
Y25356D01*
X255549D01*
Y26984D01*
D02*
G37*
G36*
X169871Y28967D02*
X161804D01*
Y24737D01*
X164991D01*
X166279Y24907D01*
X167480Y25405D01*
X168512Y26196D01*
X169303Y27227D01*
X169800Y28428D01*
X169871Y28967D01*
D02*
G37*
G36*
X160304D02*
X152236D01*
X152307Y28428D01*
X152804Y27227D01*
X153595Y26196D01*
X154627Y25405D01*
X155828Y24907D01*
X157117Y24737D01*
X160304D01*
Y28967D01*
D02*
G37*
G36*
X259858Y23856D02*
X257049D01*
Y22228D01*
X259858D01*
Y23856D01*
D02*
G37*
G36*
X255549D02*
X252740D01*
Y22228D01*
X255549D01*
Y23856D01*
D02*
G37*
G36*
X235542Y22452D02*
X225875D01*
Y14753D01*
X235542D01*
Y22452D01*
D02*
G37*
G36*
X212636Y22752D02*
X211598D01*
Y22536D01*
X211133Y22452D01*
X211098Y22452D01*
X201465D01*
Y14753D01*
X211133D01*
Y15353D01*
X211598Y15437D01*
X211633Y15437D01*
X212636D01*
Y19094D01*
Y22752D01*
D02*
G37*
G36*
X195124Y26211D02*
X187197D01*
Y13757D01*
X195124D01*
Y26211D01*
D02*
G37*
G36*
X185697D02*
X177770D01*
Y13757D01*
X185697D01*
Y26211D01*
D02*
G37*
G36*
X144337Y26211D02*
X136410D01*
Y13757D01*
X144337D01*
Y26211D01*
D02*
G37*
G36*
X134910D02*
X126983D01*
Y13757D01*
X134910D01*
Y26211D01*
D02*
G37*
G36*
X161054Y17078D02*
X159739Y16905D01*
X158515Y16398D01*
X157463Y15591D01*
X156657Y14539D01*
X156149Y13315D01*
X155976Y12001D01*
X156149Y10687D01*
X156657Y9462D01*
X157463Y8410D01*
X158515Y7604D01*
X159739Y7096D01*
X161054Y6923D01*
X162368Y7096D01*
X163592Y7604D01*
X164644Y8410D01*
X165451Y9462D01*
X165958Y10687D01*
X166131Y12001D01*
X165958Y13315D01*
X165451Y14539D01*
X164644Y15591D01*
X163592Y16398D01*
X162368Y16905D01*
X161054Y17078D01*
D02*
G37*
%LPD*%
D18*
X219783Y39764D02*
Y43626D01*
X183370Y136519D02*
X194685Y147835D01*
X183370Y133172D02*
Y136519D01*
X194685Y147835D02*
X202165D01*
X183268Y129822D02*
X183268Y129822D01*
X183268Y126772D02*
Y129822D01*
X183268Y129822D02*
Y133071D01*
X219783Y26847D02*
Y30709D01*
X217913Y125250D02*
Y132087D01*
Y125250D02*
X224410Y118754D01*
Y115354D02*
Y118754D01*
X246403Y141929D02*
X248175Y140157D01*
X235630Y141929D02*
X246403D01*
X248175Y140157D02*
X251575D01*
X215945Y122101D02*
X219291Y118754D01*
X215945Y122101D02*
Y132087D01*
X219291Y115354D02*
Y118754D01*
X212008Y120920D02*
Y132087D01*
Y120920D02*
X214173Y118754D01*
Y115354D02*
Y118754D01*
X209055Y118755D02*
X210039Y119739D01*
X209055Y115355D02*
Y118755D01*
X210039Y119739D02*
Y132087D01*
X215945Y165551D02*
Y185236D01*
D58*
X161054Y12001D02*
D03*
X11417Y173622D02*
D03*
X242874Y318465D02*
D03*
Y248465D02*
D03*
Y288465D02*
D03*
X272874Y248465D02*
D03*
X272795Y308465D02*
D03*
X191693Y318465D02*
D03*
Y248465D02*
D03*
Y288465D02*
D03*
X221693Y248465D02*
D03*
X221614Y308465D02*
D03*
D67*
X312205Y9449D02*
D03*
X322835Y35236D02*
D03*
X309449D02*
D03*
X315945D02*
D03*
X307087Y55118D02*
D03*
X276378Y226378D02*
D03*
X232283Y238779D02*
D03*
X234646Y213779D02*
D03*
X122047Y106299D02*
D03*
X48425Y142520D02*
D03*
X66929Y147441D02*
D03*
X78740Y145472D02*
D03*
X81102Y172441D02*
D03*
X116535D02*
D03*
X124409D02*
D03*
X169095Y156496D02*
D03*
X159843Y128937D02*
D03*
X140157Y122638D02*
D03*
X116339Y65551D02*
D03*
Y55709D02*
D03*
X235039Y40157D02*
D03*
X274016Y77756D02*
D03*
Y87598D02*
D03*
X219094Y83465D02*
D03*
X176575Y117717D02*
D03*
X226969Y142126D02*
D03*
X211221Y144095D02*
D03*
Y153937D02*
D03*
X249016Y126378D02*
D03*
X248819Y167323D02*
D03*
X272441Y195472D02*
D03*
Y213189D02*
D03*
X182283Y168110D02*
D03*
X189370D02*
D03*
X215945Y199409D02*
D03*
X177756Y189567D02*
D03*
X189567D02*
D03*
X207283Y207283D02*
D03*
Y219094D02*
D03*
X189567D02*
D03*
X232033Y246850D02*
D03*
X67913Y17874D02*
D03*
X28150Y29724D02*
D03*
Y14764D02*
D03*
Y22244D02*
D03*
Y7480D02*
D03*
X232283Y225394D02*
D03*
X157087Y164764D02*
D03*
X153150D02*
D03*
Y160827D02*
D03*
X149213D02*
D03*
Y156890D02*
D03*
X153150D02*
D03*
X270140Y95534D02*
D03*
X242520Y165354D02*
D03*
X197638Y131890D02*
D03*
X188386Y137402D02*
D03*
X69291Y123553D02*
D03*
X72835D02*
D03*
X76772D02*
D03*
X43110Y103543D02*
D03*
X47638Y100787D02*
D03*
X197638Y125984D02*
D03*
X60236Y138386D02*
D03*
X239370Y118110D02*
D03*
X200787Y99410D02*
D03*
X228868Y112402D02*
D03*
X52559Y5118D02*
D03*
X44685D02*
D03*
X48622D02*
D03*
X222441Y176181D02*
D03*
X248820Y52362D02*
D03*
X80709Y125197D02*
D03*
X221555Y179823D02*
D03*
X215551Y93169D02*
D03*
X211477Y87008D02*
D03*
X211477Y80708D02*
D03*
X264685Y175669D02*
D03*
X262206Y52362D02*
D03*
X255513D02*
D03*
X180709Y106299D02*
D03*
Y110236D02*
D03*
X248425Y32087D02*
D03*
X116142Y102362D02*
D03*
Y110236D02*
D03*
X52362Y188976D02*
D03*
X65748Y159843D02*
D03*
X57874D02*
D03*
X56299Y188976D02*
D03*
X61811Y159843D02*
D03*
X60236Y188976D02*
D03*
D69*
X54134Y107087D02*
G03*
X53937Y106890I0J-197D01*
G01*
X312205Y9449D02*
X315945Y13189D01*
Y35236D01*
X242519Y230709D02*
X246949D01*
X251280Y226378D02*
X276378D01*
X246949Y230709D02*
X251280Y226378D01*
X236614Y230709D02*
X242519D01*
X57933Y17874D02*
X67913D01*
X248622Y98465D02*
X259091D01*
X267248Y98425D02*
X270140Y95534D01*
X263189Y98425D02*
X267248D01*
X259091Y98465D02*
X259130Y98425D01*
X263189D01*
X81102Y6290D02*
Y10236D01*
X52559Y5118D02*
X79931D01*
X81102Y6290D01*
X234842Y122638D02*
X239370Y118110D01*
X234842Y122638D02*
Y126378D01*
X248425Y32087D02*
X256299D01*
X240551D02*
X248425D01*
X148703Y93169D02*
X171850D01*
X140424Y101448D02*
X148703Y93169D01*
X140424Y101448D02*
X149213Y110236D01*
Y115748D01*
X54134Y107087D02*
X60236D01*
X39681Y107480D02*
X42831Y110630D01*
X22658Y107480D02*
X39681D01*
X42831Y110630D02*
X46496D01*
X22658Y127165D02*
X46496D01*
X53150D01*
D70*
X335827Y52756D02*
D03*
X329527D02*
D03*
X335827Y72244D02*
D03*
X329527D02*
D03*
X226241Y225394D02*
D03*
X219941D02*
D03*
X237361D02*
D03*
X243661D02*
D03*
X262599Y83465D02*
D03*
X256299D02*
D03*
X234842Y126378D02*
D03*
X241143D02*
D03*
X251575Y140157D02*
D03*
X257875D02*
D03*
X254924Y150456D02*
D03*
X261224D02*
D03*
Y155056D02*
D03*
X254924D02*
D03*
X242519Y159449D02*
D03*
X248819D02*
D03*
X183268Y126772D02*
D03*
X176968D02*
D03*
X183268Y133071D02*
D03*
X176969D02*
D03*
X67716Y10394D02*
D03*
X74016D02*
D03*
X105473Y118087D02*
D03*
X99173D02*
D03*
X170867Y139370D02*
D03*
X164567D02*
D03*
X176772Y163779D02*
D03*
X170472D02*
D03*
X203544Y174016D02*
D03*
X197244D02*
D03*
D71*
X328957Y61811D02*
D03*
X336398Y65551D02*
D03*
Y58071D02*
D03*
X220905Y230709D02*
D03*
X213465Y234449D02*
D03*
X220905Y238189D02*
D03*
X242519Y238189D02*
D03*
X249960Y234449D02*
D03*
X242519Y230709D02*
D03*
X50492Y14134D02*
D03*
X57933Y10394D02*
D03*
Y17874D02*
D03*
X46496Y110630D02*
D03*
X53937Y106890D02*
D03*
Y114370D02*
D03*
D72*
X336417Y83465D02*
D03*
X328937D02*
D03*
X149173Y134646D02*
D03*
X141693D02*
D03*
X39567Y5512D02*
D03*
X32087D02*
D03*
X39567Y11811D02*
D03*
X32087D02*
D03*
X39567Y18110D02*
D03*
X32087D02*
D03*
D73*
X300787Y46850D02*
D03*
X273623D02*
D03*
D74*
X205768Y237849D02*
D03*
X194744D02*
D03*
X257834D02*
D03*
X268858D02*
D03*
X240551Y32087D02*
D03*
X229528D02*
D03*
D75*
X226772Y231889D02*
D03*
Y238189D02*
D03*
X236614Y237009D02*
D03*
Y230709D02*
D03*
X206102Y87008D02*
D03*
Y80708D02*
D03*
Y93169D02*
D03*
Y99469D02*
D03*
X224410Y115354D02*
D03*
Y109054D02*
D03*
X219291Y115354D02*
D03*
Y109054D02*
D03*
X214173Y115354D02*
D03*
Y109054D02*
D03*
X209055Y115355D02*
D03*
Y109055D02*
D03*
X192520Y133268D02*
D03*
Y126968D02*
D03*
X124016Y156275D02*
D03*
Y162575D02*
D03*
X115236Y28741D02*
D03*
Y22441D02*
D03*
X81102Y16536D02*
D03*
Y10236D02*
D03*
X44528Y17874D02*
D03*
Y11574D02*
D03*
X60236Y113387D02*
D03*
Y107087D02*
D03*
X215945Y185236D02*
D03*
Y191536D02*
D03*
D76*
X244488Y175669D02*
D03*
Y185669D02*
D03*
Y195669D02*
D03*
Y205669D02*
D03*
Y215669D02*
D03*
D77*
X226969Y98465D02*
D03*
Y93465D02*
D03*
Y88465D02*
D03*
X248622Y83465D02*
D03*
Y88465D02*
D03*
Y93465D02*
D03*
Y98465D02*
D03*
X226969Y83465D02*
D03*
X171850Y103169D02*
D03*
Y98169D02*
D03*
Y93169D02*
D03*
X193504Y88169D02*
D03*
Y93169D02*
D03*
Y98169D02*
D03*
Y103169D02*
D03*
X171850Y88169D02*
D03*
X113150Y124606D02*
D03*
Y129606D02*
D03*
Y134606D02*
D03*
X91496Y139606D02*
D03*
Y129606D02*
D03*
Y124606D02*
D03*
X113150Y139606D02*
D03*
X91496Y134606D02*
D03*
D78*
X263189Y98425D02*
D03*
Y90945D02*
D03*
X256496Y98425D02*
D03*
Y90945D02*
D03*
X262206Y47638D02*
D03*
Y40157D02*
D03*
X255513Y47638D02*
D03*
Y40157D02*
D03*
X248820Y47638D02*
D03*
Y40157D02*
D03*
X256299Y32087D02*
D03*
Y24606D02*
D03*
X193701Y110235D02*
D03*
Y117716D02*
D03*
X186447Y110235D02*
D03*
Y117716D02*
D03*
X118110Y155685D02*
D03*
Y163165D02*
D03*
X78701Y130118D02*
D03*
Y137598D02*
D03*
X71653Y130118D02*
D03*
Y137598D02*
D03*
X46496Y127165D02*
D03*
Y134646D02*
D03*
X159055Y156890D02*
D03*
Y149409D02*
D03*
X182283Y181496D02*
D03*
Y174016D02*
D03*
X189370Y181496D02*
D03*
Y174016D02*
D03*
D79*
X219783Y30709D02*
D03*
X223524D02*
D03*
Y39764D02*
D03*
X216043D02*
D03*
Y30709D02*
D03*
X219783Y39764D02*
D03*
D80*
X230709Y18602D02*
D03*
X206299D02*
D03*
D81*
X223622Y19094D02*
D03*
X221063D02*
D03*
X215945D02*
D03*
X218504D02*
D03*
X213386D02*
D03*
D82*
X233465Y7697D02*
D03*
X203543D02*
D03*
D83*
X160236Y103150D02*
D03*
Y98819D02*
D03*
D84*
X94095Y199602D02*
D03*
X79921D02*
D03*
D85*
Y191732D02*
D03*
Y180709D02*
D03*
X149213Y126772D02*
D03*
Y115748D02*
D03*
D86*
X149173Y143283D02*
D03*
X131063D02*
D03*
X140118D02*
D03*
D87*
Y168480D02*
D03*
D88*
X163613Y62198D02*
D03*
D89*
X135660Y26961D02*
D03*
X186447D02*
D03*
D90*
X115433Y3740D02*
D03*
X86693D02*
D03*
X115433Y12008D02*
D03*
X86693D02*
D03*
D91*
X104016Y14764D02*
D03*
X92205D02*
D03*
X109921D02*
D03*
D92*
X104449Y61732D02*
D03*
Y81732D02*
D03*
Y76732D02*
D03*
Y71732D02*
D03*
Y66732D02*
D03*
Y56732D02*
D03*
Y51732D02*
D03*
Y46732D02*
D03*
Y41732D02*
D03*
Y36732D02*
D03*
D03*
D93*
X39528Y24803D02*
D03*
X44528D02*
D03*
X49528D02*
D03*
X54528D02*
D03*
X59528D02*
D03*
X64528D02*
D03*
X69528D02*
D03*
X74528D02*
D03*
X79528D02*
D03*
X84528D02*
D03*
X89528D02*
D03*
X94528D02*
D03*
X99528D02*
D03*
X39528Y93661D02*
D03*
X44528D02*
D03*
X49528D02*
D03*
X54528D02*
D03*
X59528D02*
D03*
X64528D02*
D03*
X69528D02*
D03*
X74528D02*
D03*
X79528D02*
D03*
X84528D02*
D03*
X89528D02*
D03*
X94528D02*
D03*
X99528D02*
D03*
X34528Y24803D02*
D03*
D03*
Y93661D02*
D03*
D94*
X59449Y47874D02*
D03*
Y53346D02*
D03*
X70394Y47874D02*
D03*
Y53346D02*
D03*
X59449Y58819D02*
D03*
X70394D02*
D03*
D95*
X64921Y47874D02*
D03*
Y53346D02*
D03*
Y58819D02*
D03*
D96*
X98189Y106276D02*
D03*
X106457D02*
D03*
D97*
X86221Y106275D02*
D03*
X69016D02*
D03*
D98*
X26378Y148228D02*
D03*
Y199016D02*
D03*
D99*
X61614Y171063D02*
D03*
D100*
X180589Y143362D02*
D03*
X184765Y159787D02*
D03*
X174465Y149487D02*
D03*
X190890Y153663D02*
D03*
D101*
X105866Y199602D02*
D03*
X140512D02*
D03*
Y179090D02*
D03*
X105866D02*
D03*
D102*
X229724Y132087D02*
D03*
X225787D02*
D03*
X223819D02*
D03*
X221850D02*
D03*
X219882D02*
D03*
X217913D02*
D03*
X215945D02*
D03*
X213976D02*
D03*
X212008D02*
D03*
X210039D02*
D03*
X208071D02*
D03*
X229724Y165551D02*
D03*
X227756D02*
D03*
X225787D02*
D03*
X223819D02*
D03*
X221850D02*
D03*
X219882D02*
D03*
X217913D02*
D03*
X215945D02*
D03*
X213976D02*
D03*
X212008D02*
D03*
X208071D02*
D03*
X227756Y132087D02*
D03*
X210039Y165551D02*
D03*
D103*
X202165Y137992D02*
D03*
Y139961D02*
D03*
Y141929D02*
D03*
Y143898D02*
D03*
Y147835D02*
D03*
Y149803D02*
D03*
Y151772D02*
D03*
Y153740D02*
D03*
Y155709D02*
D03*
Y157677D02*
D03*
Y159646D02*
D03*
D03*
X235630Y137992D02*
D03*
Y139961D02*
D03*
Y141929D02*
D03*
Y143898D02*
D03*
Y145866D02*
D03*
Y147835D02*
D03*
Y149803D02*
D03*
Y151772D02*
D03*
Y153740D02*
D03*
Y155709D02*
D03*
Y159646D02*
D03*
X202165Y145866D02*
D03*
X235630Y157677D02*
D03*
D104*
X81063Y158244D02*
D03*
X104685D02*
D03*
D105*
X335209Y69076D02*
X335827Y69694D01*
Y72244D01*
X336078Y65231D02*
X336398Y65551D01*
X336988D01*
X334449Y76575D02*
X339480D01*
X336988Y65551D02*
X337313Y65876D01*
Y66466D01*
X340945Y70098D01*
X339480Y76575D02*
X340945Y75110D01*
Y70098D02*
Y75110D01*
X312598Y59951D02*
X321183Y68536D01*
X316732Y59559D02*
X322509Y65336D01*
X321183Y68536D02*
X332884D01*
X322509Y65336D02*
X331930D01*
X332034Y65231D01*
X333425Y69076D02*
X335209D01*
X332884Y68536D02*
X333425Y69076D01*
X332677Y78347D02*
X334449Y76575D01*
X332034Y65231D02*
X336078D01*
X332677Y78347D02*
Y119685D01*
X329528Y122835D02*
X332677Y119685D01*
X325591Y122835D02*
X325591Y122835D01*
X329528D01*
X300787Y40945D02*
X301363Y41521D01*
X304593D01*
X300787Y46850D02*
X307480D01*
X304593Y41521D02*
X304629Y41557D01*
X306911D01*
X307480Y46850D02*
X312598Y51968D01*
X306911Y41557D02*
X316732Y51378D01*
X312598Y51968D02*
Y59951D01*
X316732Y51378D02*
Y59559D01*
D106*
X339567Y61811D02*
X344291Y66535D01*
Y79528D01*
X328937Y72834D02*
X329527Y72244D01*
X328937Y72834D02*
Y83465D01*
X336417D02*
X340354D01*
X344291Y79528D01*
X294413Y24485D02*
Y48912D01*
Y24485D02*
X295669Y23228D01*
X300787D01*
Y35039D02*
X301400Y35652D01*
X305730D01*
X294413Y48912D02*
X300619Y55118D01*
X307087D01*
X305730Y35652D02*
X322835Y52756D01*
X329527D01*
X328957Y61811D02*
X339567D01*
X335827Y52756D02*
X336398Y53326D01*
Y58071D01*
X242519Y159449D02*
Y165354D01*
X242520Y165354D01*
X242519Y159449D02*
X242519Y159449D01*
X60236Y113387D02*
Y138386D01*
X200817Y99439D02*
X206072D01*
X200787Y99410D02*
X200817Y99439D01*
X206072D02*
X206102Y99469D01*
X57933Y10394D02*
X67716D01*
X163724Y103169D02*
X171850D01*
X163705Y103150D02*
X163724Y103169D01*
X160236Y103150D02*
X163705D01*
Y98819D02*
X164354Y98169D01*
X160236Y98819D02*
X163705D01*
X164354Y98169D02*
X171850D01*
X257875Y140157D02*
X264173D01*
X206102Y80708D02*
X211477D01*
D107*
X210827Y65908D02*
X211076Y65659D01*
X210827Y62940D02*
X211076Y63189D01*
X214370D01*
X216116Y64935D02*
Y64935D01*
Y64935D02*
X221018Y60033D01*
X214370Y63189D02*
X218549Y59010D01*
X215393Y65659D02*
X216116Y64935D01*
X211076Y65659D02*
X215393D01*
X221018Y47879D02*
Y60033D01*
X221018Y24606D02*
X223258Y26846D01*
X221018Y19139D02*
Y24606D01*
X216308Y26846D02*
X218549Y24606D01*
X216308Y26846D02*
Y30444D01*
X223258Y30444D02*
X223524Y30709D01*
X218549Y19139D02*
Y24606D01*
X216043Y30709D02*
X216308Y30444D01*
X223258Y26846D02*
Y30444D01*
X223524Y30709D02*
Y39764D01*
X216043Y30709D02*
Y39764D01*
X218504Y19094D02*
X218549Y19139D01*
X221018D02*
X221063Y19094D01*
X269936Y153991D02*
X271063Y155118D01*
X266355Y153991D02*
X266355Y153991D01*
X269936D01*
X263250Y153991D02*
X266355D01*
X261224Y155056D02*
X262039Y154241D01*
X263000D02*
X263250Y153991D01*
X262039Y154241D02*
X263000D01*
X218549Y47879D02*
Y59010D01*
X216043Y45374D02*
X218549Y47879D01*
X216043Y39764D02*
Y45374D01*
X267378Y151521D02*
X269936D01*
X267378Y151521D02*
X267378Y151521D01*
X269936D02*
X271063Y150394D01*
X263250Y151521D02*
X267378D01*
X263000Y151271D02*
X263250Y151521D01*
X262039Y151271D02*
X263000D01*
X261224Y150456D02*
X262039Y151271D01*
X223524Y39764D02*
Y45374D01*
X221018Y47879D02*
X223524Y45374D01*
D108*
X251690Y68701D02*
X262599Y79610D01*
X201772Y68701D02*
X251690D01*
X212008Y172244D02*
Y172441D01*
Y172244D02*
X212008Y172244D01*
X240020Y156649D02*
X245669D01*
X248469Y159449D02*
X248819D01*
X245669Y156649D02*
X248469Y159449D01*
X238992Y157677D02*
X240020Y156649D01*
X235630Y157677D02*
X238992D01*
X74016Y10394D02*
Y14765D01*
X79134Y19882D01*
X64921Y58819D02*
X70394D01*
Y53346D02*
Y58819D01*
X64921Y53346D02*
X70394D01*
X59449D02*
X64921D01*
Y58819D01*
X59449D02*
X64921D01*
X59449Y53346D02*
Y58819D01*
X70394Y47874D02*
Y53346D01*
X64921Y47874D02*
Y53346D01*
Y47874D02*
X70394D01*
X59449D02*
Y53346D01*
Y47874D02*
X64921D01*
X241929Y220276D02*
X243661Y222008D01*
X230118Y220276D02*
X241929D01*
X228543Y218701D02*
X230118Y220276D01*
X243661Y222008D02*
Y225394D01*
X228543Y174409D02*
Y218701D01*
X274906Y35039D02*
X283071Y43204D01*
Y89567D01*
X269074Y103564D02*
X283071Y89567D01*
X247773Y103564D02*
X269074D01*
X285236Y33558D02*
Y90158D01*
X269685Y105709D02*
X285236Y90158D01*
X248303Y105709D02*
X269685D01*
X188386Y137402D02*
X188736D01*
X192520Y133618D01*
Y133268D02*
Y133618D01*
Y138114D01*
X197638Y131890D02*
X197672Y131924D01*
Y135271D01*
X192520Y138114D02*
X198303Y143898D01*
X202165D01*
X193898Y149803D02*
X202165D01*
X181076Y143850D02*
X187944D01*
X193898Y149803D01*
X87555Y16536D02*
X89327Y14764D01*
X81102Y16536D02*
X87555D01*
X89327Y14764D02*
X92205D01*
X43110Y103543D02*
X43319Y103752D01*
X48890D01*
X47638Y100775D02*
Y100787D01*
Y100775D02*
X49528Y98886D01*
Y93661D02*
Y98886D01*
X48890Y103752D02*
X54528Y98114D01*
Y93661D02*
Y98114D01*
X197638Y125984D02*
X203740D01*
X208071Y130315D01*
Y132087D01*
X197672Y135271D02*
X200353Y137952D01*
X200394Y137992D02*
X202165D01*
X200353Y137952D02*
X200394Y137992D01*
X200353Y137952D02*
Y137952D01*
X274906Y23228D02*
X285236Y33558D01*
X273623Y23228D02*
X274906D01*
X273623Y35039D02*
X274906D01*
X225787Y128224D02*
X248303Y105709D01*
X223819Y127518D02*
X247773Y103564D01*
X223819Y127518D02*
Y132087D01*
X225787Y128224D02*
Y132087D01*
X231102Y126378D02*
X234842D01*
X229724Y127756D02*
Y132087D01*
Y127756D02*
X231102Y126378D01*
X238976Y80709D02*
Y109646D01*
X221850Y126772D02*
X238976Y109646D01*
X228868Y112402D02*
Y116998D01*
X219882Y125984D02*
Y132087D01*
Y125984D02*
X228868Y116998D01*
X221850Y126772D02*
Y132087D01*
X228938Y109054D02*
X236811Y101181D01*
X224410Y109054D02*
X228938D01*
X236811Y81693D02*
Y101181D01*
X153347Y76181D02*
X231299D01*
X110236Y28346D02*
Y33071D01*
X153347Y76181D01*
X232283Y74016D02*
X238976Y80709D01*
X231299Y76181D02*
X236811Y81693D01*
X121260Y39961D02*
X155315Y74016D01*
X232283D01*
X262599Y79610D02*
Y83465D01*
X121260Y31299D02*
Y39961D01*
X79134Y19882D02*
X101772D01*
X110236Y28346D01*
X104016Y14764D02*
Y19370D01*
X107086Y22441D02*
X115236D01*
X104016Y19370D02*
X107086Y22441D01*
X118701Y28741D02*
X121260Y31299D01*
X115236Y28741D02*
X118701D01*
X231768Y155709D02*
Y168911D01*
Y155709D02*
X235630D01*
X176789Y163797D02*
X180755D01*
X176772Y163779D02*
X176789Y163797D01*
X180755D02*
X184765Y159787D01*
X197047Y153027D02*
X198303Y151772D01*
X197047Y153027D02*
Y161221D01*
X194882Y163386D02*
X197047Y161221D01*
X188364Y163386D02*
X194882D01*
X184765Y159787D02*
X188364Y163386D01*
X198303Y151772D02*
X202165D01*
X174478Y139581D02*
Y142231D01*
X175122Y142875D01*
X174267Y139370D02*
X174478Y139581D01*
X170867Y139370D02*
X174267D01*
X175122Y142875D02*
X180102D01*
X180589Y143362D01*
X181076Y143850D01*
X212008Y165551D02*
Y172244D01*
X235290Y185669D02*
X244488D01*
X234646Y171789D02*
Y185025D01*
X235290Y185669D01*
X231768Y168911D02*
X234646Y171789D01*
X232677Y195025D02*
X233321Y195669D01*
X232677Y172366D02*
Y195025D01*
X233321Y195669D02*
X244488D01*
X230709Y172943D02*
Y205064D01*
X227756Y165551D02*
Y169991D01*
X230709Y172943D01*
X229724Y169413D02*
X232677Y172366D01*
X229724Y165551D02*
Y169413D01*
X230709Y205064D02*
X231353Y205709D01*
X239012D01*
X239051Y205669D01*
X244488D01*
X223819Y165551D02*
Y169685D01*
X228543Y174409D01*
X221850Y170276D02*
X226241Y174666D01*
Y225394D01*
X221850Y165551D02*
Y170276D01*
X219882Y173622D02*
X222441Y176181D01*
X235630Y159646D02*
X242322D01*
X217913Y176181D02*
X221555Y179823D01*
X219882Y165551D02*
Y173622D01*
X217913Y165551D02*
Y176181D01*
X206102Y93169D02*
X215551D01*
X206102Y87008D02*
X211024D01*
X206102D02*
Y87169D01*
X205102Y88169D02*
X206102Y87169D01*
X193504Y88169D02*
X205102D01*
X193504Y93169D02*
X203052D01*
X203052Y93169D01*
X206102D01*
D109*
X226772Y241589D02*
X232033Y246850D01*
X226772Y238189D02*
Y241589D01*
X220905Y238189D02*
X226772D01*
X34528Y72165D02*
Y93661D01*
Y72165D02*
X47788Y58905D01*
X70394Y47874D02*
X76142Y42126D01*
X99996Y36732D02*
X104449D01*
X94602Y42126D02*
X99996Y36732D01*
X76142Y42126D02*
X94602D01*
X233961Y225394D02*
X237361D01*
X232283Y225394D02*
X233961D01*
X233961Y225394D01*
D110*
X219724Y93465D02*
X226969D01*
X209055Y104134D02*
X219724Y93465D01*
X209055Y104134D02*
Y109055D01*
X231102Y101378D02*
X234055Y98425D01*
X219291Y103150D02*
X221063Y101378D01*
X231102D01*
X248622Y83465D02*
X256299D01*
X219291Y103150D02*
Y109054D01*
X231575Y88465D02*
X234055Y90945D01*
X226969Y88465D02*
X231575D01*
X234055Y90945D02*
Y98425D01*
X219252Y98465D02*
X226969D01*
X214173Y103543D02*
Y109054D01*
Y103543D02*
X219252Y98465D01*
X229528Y29158D02*
Y32087D01*
X223622Y23252D02*
X229528Y29158D01*
X235630Y151772D02*
X239567D01*
X253284Y151746D02*
X254574Y150456D01*
X239567Y151746D02*
X253284D01*
X254574Y150456D02*
X254924D01*
X235630Y153740D02*
X239567D01*
X239567Y153740D01*
Y153766D02*
X253284D01*
X254574Y155056D01*
X254924D01*
X223622Y19094D02*
Y23252D01*
D111*
X244488Y175669D02*
X264685D01*
D112*
X267874Y323281D02*
Y338583D01*
X242874Y298281D02*
X267874Y323281D01*
X242874Y288465D02*
Y298281D01*
X216693Y323281D02*
Y338583D01*
X191693Y298281D02*
X216693Y323281D01*
X191693Y288465D02*
Y298281D01*
D113*
X153543Y323228D02*
X173228Y342913D01*
X153543Y303543D02*
Y323228D01*
X47087Y303543D02*
X74803D01*
X27559Y323071D02*
X47087Y303543D01*
X27638Y342992D02*
X55039D01*
X55118Y342913D01*
X27559Y343071D02*
X27638Y342992D01*
D114*
X339764Y122835D02*
D03*
X325591D02*
D03*
X339764Y108661D02*
D03*
D115*
X300787Y46850D02*
D03*
Y40945D02*
D03*
Y35039D02*
D03*
Y29134D02*
D03*
Y23228D02*
D03*
Y17323D02*
D03*
X273623Y40945D02*
D03*
Y17323D02*
D03*
Y23228D02*
D03*
Y29134D02*
D03*
Y35039D02*
D03*
Y46850D02*
D03*
D116*
X140424Y101448D02*
D03*
X126505Y87529D02*
D03*
X22658Y107480D02*
D03*
Y127165D02*
D03*
X31369Y239243D02*
D03*
X17450Y225324D02*
D03*
X31369Y286487D02*
D03*
X17450Y272568D02*
D03*
X55118Y342913D02*
D03*
X173228D02*
D03*
X94488Y224803D02*
D03*
X133858D02*
D03*
X74803Y303543D02*
D03*
X153543D02*
D03*
D117*
X156723Y54520D02*
D03*
D118*
X161054Y29717D02*
D03*
X41732Y154724D02*
D03*
D119*
X179951Y42316D02*
D03*
X29134Y173622D02*
D03*
D120*
X53937Y177953D02*
D03*
D121*
X27559Y323071D02*
D03*
Y343071D02*
D03*
X196693Y338583D02*
D03*
X216693D02*
D03*
X247874D02*
D03*
X267874D02*
D03*
D122*
X210827Y65908D02*
D03*
Y62940D02*
D03*
X201772Y68701D02*
D03*
X53150Y127165D02*
D03*
X212008Y172441D02*
D03*
X264173Y140157D02*
D03*
D123*
X219783Y43626D02*
D03*
Y26847D02*
D03*
X271063Y155118D02*
D03*
Y150394D02*
D03*
M02*
