M48
;Layer_Color=9474304
;FILE_FORMAT=2:5
INCH,LZ
;TYPE=PLATED
T1F00S00C0.01181
T2F00S00C0.01378
T3F00S00C0.01968
T4F00S00C0.03150
T5F00S00C0.03543
T6F00S00C0.03937
T8F00S00C0.04331
T10F00S00C0.05118
T11F00S00C0.06890
;TYPE=NON_PLATED
T12F00S00C0.08268
%
T01
X0219783Y0026847
Y0043626
X0210827Y006294
Y0065908
X0201772Y0068701
X0212008Y0172441
X005315Y0127165
T02
X002815Y000748
Y0014764
Y0022244
X0044685Y0005118
X0048622
X0052559
X0067913Y0017874
X0312205Y0009449
X0309449Y0035236
X0315945
X0322835
X0307087Y0055118
X0262206Y0052362
X0255513
X024882
X0248425Y0032087
X0235039Y0040157
X0219094Y0083465
X0215551Y0093169
X0228868Y0112402
X023937Y011811
X0249016Y0126378
X0226969Y0142126
X0222441Y0176181
X0221555Y0179823
X024252Y0165354
X0248819Y0167323
X0264685Y0175669
X027014Y0095534
X0274016Y0087598
Y0077756
X0211477Y0080708
X0211477Y0087008
X0200787Y009941
X0180709Y0106299
Y0110236
X0176575Y0117717
X0159843Y0128937
X0140157Y0122638
X0122047Y0106299
X0116142Y0102362
Y0110236
X0116339Y0065551
Y0055709
X0080709Y0125197
X0076772Y0123553
X0072835
X0069291
X0060236Y0138386
X0066929Y0147441
X0065748Y0159843
X0061811
X0057874
X007874Y0145472
X0081102Y0172441
X0116535
X0124409
X015315Y0164764
X0157087
X015315Y0160827
X0149213
Y015689
X015315
X0169095Y0156496
X0182283Y016811
X018937
X0188386Y0137402
X0197638Y013189
Y0125984
X0211221Y0144095
Y0153937
X0048425Y014252
X0047638Y0100787
X004311Y0103543
X002815Y0029724
X0052362Y0188976
X0056299
X0060236
X0177756Y0189567
X0189567
Y0219094
X0207283
Y0207283
X0215945Y0199409
X0234646Y0213779
X0232283Y0225394
Y0238779
X0232033Y024685
X0276378Y0226378
X0272441Y0213189
Y0195472
T03
X0325591Y0122835
X0339764
Y0108661
T04
X0022658Y010748
Y0127165
T05
X0095157Y0007874
X0106968
X0273623Y0017323
Y0023228
X0300787
Y0017323
Y0029134
Y0035039
Y0040945
Y004685
X0273623
Y0040945
Y0035039
Y0029134
T06
X0126505Y0087529
X0140424Y0101448
X0031369Y0239243
X001745Y0225324
Y0272568
X0031369Y0286487
X0074803Y0303543
X0153543
X0133858Y0224803
X0094488
T08
X0173228Y0342913
X0055118
T10
X0191693Y0248465
Y0288465
Y0318465
X0221614Y0308465
X0242874Y0318465
Y0288465
Y0248465
X0221693
X0272874
X0272795Y0308465
T11
X0027559Y0323071
X0196693Y0338583
X0216693
X0247874
X0267874
X0027559Y0343071
T12
X0161054Y0012001
X0011417Y0173622
M30
