G04*
G04 #@! TF.GenerationSoftware,Altium Limited,Altium Designer,22.2.1 (43)*
G04*
G04 Layer_Color=65535*
%FSLAX25Y25*%
%MOIN*%
G70*
G04*
G04 #@! TF.SameCoordinates,4EB9BB6F-69CC-4AE6-9B36-E95FEA1B1F0F*
G04*
G04*
G04 #@! TF.FilePolarity,Positive*
G04*
G01*
G75*
%ADD10C,0.00787*%
%ADD11C,0.01181*%
%ADD12C,0.01673*%
%ADD13C,0.00394*%
%ADD14C,0.00984*%
%ADD15C,0.00027*%
%ADD16C,0.00047*%
%ADD17C,0.01575*%
%ADD18C,0.01000*%
%ADD19C,0.00591*%
%ADD20R,0.02362X0.14961*%
D10*
X330670Y97638D02*
G03*
X334685Y97638I2008J0D01*
G01*
X350787Y115748D02*
G03*
X350787Y115748I-18110J0D01*
G01*
X235827Y101201D02*
G03*
X239764Y101201I1969J0D01*
G01*
X226279Y41929D02*
G03*
X226279Y41929I-197J0D01*
G01*
X180709Y105905D02*
G03*
X184646Y105905I1969J0D01*
G01*
X154134Y94488D02*
G03*
X154134Y94488I-20669J0D01*
G01*
X104291Y121870D02*
G03*
X100354Y121870I-1969J0D01*
G01*
X42342Y117323D02*
G03*
X42342Y117323I-19685J0D01*
G01*
X45079Y232283D02*
G03*
X45079Y232283I-20669J0D01*
G01*
Y279527D02*
G03*
X45079Y279527I-20669J0D01*
G01*
X329134Y64173D02*
Y67967D01*
X333071D01*
X329134Y55655D02*
Y59449D01*
Y55655D02*
X333071D01*
X197500Y235093D02*
X202618D01*
X197500Y240605D02*
X202618D01*
X213642Y228292D02*
X217579D01*
X213642D02*
Y232087D01*
Y240605D02*
X217579D01*
X213642Y236811D02*
Y240605D01*
X245846D02*
X249783D01*
Y236811D02*
Y240605D01*
X245846Y228292D02*
X249783D01*
Y232087D01*
X260983Y240605D02*
X266102D01*
X260983Y235093D02*
X266102D01*
X242520Y169291D02*
Y172441D01*
Y169291D02*
X290158D01*
Y222047D01*
X242520D02*
X290158D01*
X242520Y218898D02*
Y222047D01*
X244488Y81122D02*
Y101201D01*
X231102Y81122D02*
X244488D01*
X231102D02*
Y101201D01*
X239764D02*
X244488D01*
X231102D02*
X235827D01*
X232677Y29331D02*
X237795D01*
X232677Y34843D02*
X237795D01*
X237698Y591D02*
Y22244D01*
X199310D02*
X237698D01*
X199310Y591D02*
X237698D01*
X199310D02*
Y22244D01*
X189370Y85827D02*
Y105905D01*
X175984Y85827D02*
X189370D01*
X175984D02*
Y105905D01*
X184646D02*
X189370D01*
X175984D02*
X180709D01*
X82677Y183465D02*
Y188583D01*
X77165Y183465D02*
Y188583D01*
X126732Y148008D02*
Y163756D01*
Y148008D02*
X153504D01*
Y163756D01*
X126732D02*
X153504D01*
X151969Y118504D02*
Y123622D01*
X146457Y118504D02*
Y123622D01*
X145157Y94488D02*
X147941Y97272D01*
X145157Y97272D02*
X147941Y94488D01*
X130345Y40249D02*
Y68989D01*
X155936D01*
X192156Y40249D02*
Y68989D01*
X171290D02*
X192156D01*
X85315Y14173D02*
Y18504D01*
X116811D01*
Y14173D02*
Y18504D01*
Y5906D02*
Y9843D01*
X85315Y5906D02*
Y9843D01*
X50669Y16496D02*
Y20290D01*
X54606D01*
X50669Y7977D02*
Y11772D01*
Y7977D02*
X54606D01*
X95630Y121870D02*
Y141949D01*
X109016D01*
Y121870D02*
Y141949D01*
X95630Y121870D02*
X100354D01*
X104291D02*
X109016D01*
X88642Y98795D02*
Y101157D01*
X66594Y98795D02*
X88642D01*
X66594D02*
Y101157D01*
X88642Y111394D02*
Y113756D01*
X66594D02*
X88642D01*
X66594Y111394D02*
Y113756D01*
X46673Y112992D02*
Y116786D01*
X50610D01*
X46673Y104473D02*
Y108268D01*
Y104473D02*
X50610D01*
X21476Y100787D02*
X23839D01*
X22658Y99606D02*
Y101969D01*
X39665Y204331D02*
X68405D01*
Y178740D02*
Y204331D01*
X39665Y142520D02*
X68405D01*
Y163386D01*
X36102Y232283D02*
X38886Y235067D01*
X36102Y235067D02*
X38886Y232283D01*
X36102Y279527D02*
X38886Y282311D01*
X36102Y282311D02*
X38886Y279527D01*
X1575Y356693D02*
X35433D01*
X1575Y309055D02*
Y356693D01*
Y309055D02*
X35433D01*
Y356693D01*
X277559Y243701D02*
Y316142D01*
X270156Y323545D02*
X277559Y316142D01*
X267499Y323545D02*
X270156D01*
X237418D02*
X247421D01*
X237402Y323528D02*
X237418Y323545D01*
X237402Y243701D02*
Y323528D01*
X247421Y323545D02*
X267499D01*
X237402Y243701D02*
X277559D01*
X226378D02*
Y316142D01*
X218975Y323545D02*
X226378Y316142D01*
X216318Y323545D02*
X218975D01*
X186237D02*
X196240D01*
X186221Y323528D02*
X186237Y323545D01*
X186221Y243701D02*
Y323528D01*
X196240Y323545D02*
X216318D01*
X186221Y243701D02*
X226378D01*
X230315Y330709D02*
Y364567D01*
X182677D02*
X230315D01*
X182677Y330709D02*
Y364567D01*
Y330709D02*
X230315D01*
X281496D02*
Y364567D01*
X233858D02*
X281496D01*
X233858Y330709D02*
Y364567D01*
Y330709D02*
X281496D01*
X185183Y144615D02*
X189637Y149069D01*
X175717Y154080D02*
X180172Y158535D01*
X110984Y199583D02*
X114921D01*
X112953Y197614D02*
Y201551D01*
Y177142D02*
Y181079D01*
X109803Y173598D02*
X136575D01*
Y205095D01*
X109803D02*
X136575D01*
X109803Y173598D02*
Y205095D01*
X211024Y160630D02*
X230709D01*
X207087Y156693D02*
X211024Y160630D01*
X207087Y137008D02*
Y156693D01*
Y137008D02*
X230709D01*
Y160630D01*
X100276Y172186D02*
X106302Y166160D01*
X78302Y172186D02*
X100276D01*
X78302Y162969D02*
Y172186D01*
X100276Y144302D02*
X106302Y150328D01*
X78302Y144302D02*
X100276D01*
X78302D02*
Y153520D01*
X107835Y144858D02*
Y148401D01*
X106063Y146630D02*
X109606D01*
X62992Y320866D02*
X61942D01*
X62467D01*
Y324015D01*
X62992D01*
X61942D01*
X60368D02*
Y320866D01*
X58269Y324015D01*
Y320866D01*
X57219Y324015D02*
Y320866D01*
X55645D01*
X55120Y321391D01*
Y322441D01*
X55645Y322966D01*
X57219D01*
X54071Y320866D02*
Y323490D01*
X53546Y324015D01*
X52496D01*
X51972Y323490D01*
Y320866D01*
X50922D02*
X48823D01*
X49872D01*
Y324015D01*
X279398Y60433D02*
X283334D01*
X282022Y61745D01*
X283334Y63057D01*
X279398D01*
X283334Y64369D02*
Y65681D01*
Y65025D01*
X280710D01*
Y64369D01*
Y67649D02*
X283334D01*
X282022D01*
X281366Y68305D01*
X280710Y68960D01*
Y69617D01*
X283334Y73552D02*
Y72240D01*
X282678Y71584D01*
X281366D01*
X280710Y72240D01*
Y73552D01*
X281366Y74208D01*
X282022D01*
Y71584D01*
X283334Y75520D02*
Y76832D01*
Y76176D01*
X279398D01*
Y75520D01*
X283334Y80768D02*
Y79456D01*
X282678Y78800D01*
X281366D01*
X280710Y79456D01*
Y80768D01*
X281366Y81424D01*
X282022D01*
Y78800D01*
X283334Y82736D02*
Y84703D01*
X282678Y85359D01*
X282022Y84703D01*
Y83391D01*
X281366Y82736D01*
X280710Y83391D01*
Y85359D01*
X283334Y86671D02*
Y88639D01*
X282678Y89295D01*
X282022Y88639D01*
Y87327D01*
X281366Y86671D01*
X280710Y87327D01*
Y89295D01*
X283990Y90607D02*
Y93231D01*
X280054Y97167D02*
X279398Y96511D01*
Y95199D01*
X280054Y94543D01*
X280710D01*
X281366Y95199D01*
Y96511D01*
X282022Y97167D01*
X282678D01*
X283334Y96511D01*
Y95199D01*
X282678Y94543D01*
X283334Y100446D02*
Y99134D01*
X282678Y98479D01*
X281366D01*
X280710Y99134D01*
Y100446D01*
X281366Y101102D01*
X282022D01*
Y98479D01*
X280710Y105038D02*
Y103070D01*
X281366Y102414D01*
X282678D01*
X283334Y103070D01*
Y105038D01*
X280710Y106350D02*
X282678D01*
X283334Y107006D01*
Y108974D01*
X280710D01*
Y110286D02*
X283334D01*
X282022D01*
X281366Y110942D01*
X280710Y111598D01*
Y112254D01*
X283334Y114222D02*
Y115533D01*
Y114877D01*
X280710D01*
Y114222D01*
X280054Y118157D02*
X280710D01*
Y117501D01*
Y118813D01*
Y118157D01*
X282678D01*
X283334Y118813D01*
X280710Y120781D02*
X282678D01*
X283334Y121437D01*
Y123405D01*
X283990D01*
X284646Y122749D01*
Y122093D01*
X283334Y123405D02*
X280710D01*
X283990Y124717D02*
Y127341D01*
X279398Y128653D02*
X283334D01*
Y130620D01*
X282678Y131276D01*
X280054D01*
X279398Y130620D01*
Y128653D01*
X283334Y134556D02*
Y133244D01*
X282678Y132588D01*
X281366D01*
X280710Y133244D01*
Y134556D01*
X281366Y135212D01*
X282022D01*
Y132588D01*
X280054Y137180D02*
X280710D01*
Y136524D01*
Y137836D01*
Y137180D01*
X282678D01*
X283334Y137836D01*
Y139804D02*
X282678D01*
Y140460D01*
X283334D01*
Y139804D01*
X283990Y143084D02*
Y145707D01*
X279398Y147019D02*
X282022D01*
X283334Y148331D01*
X282022Y149643D01*
X279398D01*
X283334Y150955D02*
Y152267D01*
Y151611D01*
X279398D01*
X280054Y150955D01*
X363847Y44291D02*
X367783D01*
X366471Y45603D01*
X367783Y46915D01*
X363847D01*
X367783Y48227D02*
Y49539D01*
Y48883D01*
X365159D01*
Y48227D01*
Y51507D02*
X367783D01*
X366471D01*
X365815Y52163D01*
X365159Y52819D01*
Y53475D01*
X367783Y57411D02*
Y56099D01*
X367127Y55443D01*
X365815D01*
X365159Y56099D01*
Y57411D01*
X365815Y58066D01*
X366471D01*
Y55443D01*
X367783Y59378D02*
Y60690D01*
Y60034D01*
X363847D01*
Y59378D01*
X367783Y64626D02*
Y63314D01*
X367127Y62658D01*
X365815D01*
X365159Y63314D01*
Y64626D01*
X365815Y65282D01*
X366471D01*
Y62658D01*
X367783Y66594D02*
Y68562D01*
X367127Y69218D01*
X366471Y68562D01*
Y67250D01*
X365815Y66594D01*
X365159Y67250D01*
Y69218D01*
X367783Y70530D02*
Y72497D01*
X367127Y73153D01*
X366471Y72497D01*
Y71186D01*
X365815Y70530D01*
X365159Y71186D01*
Y73153D01*
X368439Y74465D02*
Y77089D01*
X364503Y81025D02*
X363847Y80369D01*
Y79057D01*
X364503Y78401D01*
X365159D01*
X365815Y79057D01*
Y80369D01*
X366471Y81025D01*
X367127D01*
X367783Y80369D01*
Y79057D01*
X367127Y78401D01*
X367783Y84305D02*
Y82993D01*
X367127Y82337D01*
X365815D01*
X365159Y82993D01*
Y84305D01*
X365815Y84961D01*
X366471D01*
Y82337D01*
X365159Y88896D02*
Y86928D01*
X365815Y86273D01*
X367127D01*
X367783Y86928D01*
Y88896D01*
X365159Y90208D02*
X367127D01*
X367783Y90864D01*
Y92832D01*
X365159D01*
Y94144D02*
X367783D01*
X366471D01*
X365815Y94800D01*
X365159Y95456D01*
Y96112D01*
X367783Y98080D02*
Y99392D01*
Y98736D01*
X365159D01*
Y98080D01*
X364503Y102015D02*
X365159D01*
Y101360D01*
Y102672D01*
Y102015D01*
X367127D01*
X367783Y102672D01*
X365159Y104639D02*
X367127D01*
X367783Y105295D01*
Y107263D01*
X368439D01*
X369094Y106607D01*
Y105951D01*
X367783Y107263D02*
X365159D01*
X368439Y108575D02*
Y111199D01*
X363847Y112511D02*
X367783D01*
Y114479D01*
X367127Y115135D01*
X364503D01*
X363847Y114479D01*
Y112511D01*
X367783Y118414D02*
Y117103D01*
X367127Y116447D01*
X365815D01*
X365159Y117103D01*
Y118414D01*
X365815Y119070D01*
X366471D01*
Y116447D01*
X364503Y121038D02*
X365159D01*
Y120382D01*
Y121694D01*
Y121038D01*
X367127D01*
X367783Y121694D01*
Y123662D02*
X367127D01*
Y124318D01*
X367783D01*
Y123662D01*
X368439Y126942D02*
Y129566D01*
X363847Y130878D02*
X366471D01*
X367783Y132190D01*
X366471Y133501D01*
X363847D01*
X367783Y134813D02*
Y136125D01*
Y135469D01*
X363847D01*
X364503Y134813D01*
X245537Y14107D02*
X244881Y14762D01*
X243569D01*
X242913Y14107D01*
Y13451D01*
X243569Y12795D01*
X244881D01*
X245537Y12139D01*
Y11483D01*
X244881Y10827D01*
X243569D01*
X242913Y11483D01*
X249473Y14762D02*
X246849D01*
Y10827D01*
X249473D01*
X246849Y12795D02*
X248161D01*
X250785Y10827D02*
Y14762D01*
X253409Y10827D01*
Y14762D01*
X257344Y14107D02*
X256688Y14762D01*
X255377D01*
X254721Y14107D01*
Y13451D01*
X255377Y12795D01*
X256688D01*
X257344Y12139D01*
Y11483D01*
X256688Y10827D01*
X255377D01*
X254721Y11483D01*
X260624Y14762D02*
X259312D01*
X258656Y14107D01*
Y11483D01*
X259312Y10827D01*
X260624D01*
X261280Y11483D01*
Y14107D01*
X260624Y14762D01*
X262592Y10827D02*
Y14762D01*
X264560D01*
X265216Y14107D01*
Y12795D01*
X264560Y12139D01*
X262592D01*
X263904D02*
X265216Y10827D01*
X273031Y224213D02*
Y228148D01*
X274999D01*
X275655Y227492D01*
Y226181D01*
X274999Y225524D01*
X273031D01*
X276967Y224213D02*
Y228148D01*
X278935D01*
X279591Y227492D01*
Y226181D01*
X278935Y225524D01*
X276967D01*
X278279D02*
X279591Y224213D01*
X283527Y227492D02*
X282871Y228148D01*
X281559D01*
X280903Y227492D01*
Y224869D01*
X281559Y224213D01*
X282871D01*
X283527Y224869D01*
Y226181D01*
X282215D01*
X284839Y224213D02*
Y224869D01*
X285495D01*
Y224213D01*
X284839D01*
X38976Y352165D02*
Y354789D01*
X40288Y356101D01*
X41600Y354789D01*
Y352165D01*
Y354133D01*
X38976D01*
X45536Y355445D02*
X44880Y356101D01*
X43568D01*
X42912Y355445D01*
Y352821D01*
X43568Y352165D01*
X44880D01*
X45536Y352821D01*
X135695Y66141D02*
X133071D01*
Y64173D01*
X134383Y64828D01*
X135039D01*
X135695Y64173D01*
Y62861D01*
X135039Y62205D01*
X133727D01*
X133071Y62861D01*
X137007Y66141D02*
Y63517D01*
X138319Y62205D01*
X139630Y63517D01*
Y66141D01*
X55905Y197638D02*
X57217D01*
X56561D01*
Y201573D01*
X55905Y200918D01*
X61809Y197638D02*
X59185D01*
X61809Y200262D01*
Y200918D01*
X61153Y201573D01*
X59841D01*
X59185Y200918D01*
X63121Y201573D02*
Y198950D01*
X64433Y197638D01*
X65745Y198950D01*
Y201573D01*
X163385Y207479D02*
X162336D01*
X161811Y206955D01*
Y204855D01*
X162336Y204331D01*
X163385D01*
X163910Y204855D01*
Y206955D01*
X163385Y207479D01*
X164960D02*
Y204855D01*
X165484Y204331D01*
X166534D01*
X167059Y204855D01*
Y207479D01*
X168108D02*
X170207D01*
X169158D01*
Y204331D01*
X171257D02*
Y207479D01*
X172831D01*
X173356Y206955D01*
Y205905D01*
X172831Y205380D01*
X171257D01*
X174405Y207479D02*
Y204855D01*
X174930Y204331D01*
X175980D01*
X176504Y204855D01*
Y207479D01*
X177554D02*
X179653D01*
X178603D01*
Y204331D01*
D11*
X275590Y321260D02*
G03*
X275590Y321260I-394J0D01*
G01*
X224410D02*
G03*
X224410Y321260I-394J0D01*
G01*
X2559Y22836D02*
Y95645D01*
X31123D01*
X2559Y22836D02*
X31123D01*
D12*
X203937Y164567D02*
G03*
X203937Y164567I-787J0D01*
G01*
D13*
X327165Y50787D02*
Y54724D01*
Y50787D02*
X338189D01*
Y54724D01*
X327165D02*
X338189D01*
X327165Y70276D02*
Y74213D01*
Y70276D02*
X338189D01*
Y74213D01*
X327165D02*
X338189D01*
X334252Y81102D02*
Y85827D01*
X331496Y81496D02*
X334252Y83465D01*
X331496Y81496D02*
Y85433D01*
X334252Y83465D01*
X195138Y239818D02*
X195925Y239424D01*
X195138Y239818D02*
X195925Y240212D01*
X228740Y229527D02*
Y240551D01*
X224803Y229527D02*
X228740D01*
X224803D02*
Y240551D01*
X228740D01*
X234646Y228347D02*
Y239370D01*
X238583D01*
Y228347D02*
Y239370D01*
X234646Y228347D02*
X238583D01*
X217579Y223425D02*
X228602D01*
X217579D02*
Y227362D01*
X228602D01*
Y223425D02*
Y227362D01*
X246023Y223425D02*
Y227362D01*
X235000D02*
X246023D01*
X235000Y223425D02*
Y227362D01*
Y223425D02*
X246023D01*
X267676Y236275D02*
X268464Y235881D01*
X267676Y235487D02*
X268464Y235881D01*
X261221Y95866D02*
X265158D01*
X261221Y93504D02*
X265158D01*
X254528Y95866D02*
X258465D01*
X254528Y93504D02*
X258465D01*
X253937Y81496D02*
X264961D01*
X253937D02*
Y85433D01*
X264961D01*
Y81496D02*
Y85433D01*
X260237Y42717D02*
X264174D01*
X260237Y45079D02*
X264174D01*
X253544Y42717D02*
X257481D01*
X253544Y45079D02*
X257481D01*
X246851Y42717D02*
X250788D01*
X246851Y45079D02*
X250788D01*
X254331Y27165D02*
X258268D01*
X254331Y29528D02*
X258268D01*
X239370Y29724D02*
X240158Y30118D01*
X239370Y30512D02*
X240158Y30118D01*
X213878Y40846D02*
X214469D01*
X213878Y29626D02*
Y40846D01*
Y29626D02*
X214469D01*
X225098D02*
X225689D01*
Y40846D01*
X225098D02*
X225689D01*
X191732Y112794D02*
X195669D01*
X191732Y115157D02*
X195669D01*
X184479Y112794D02*
X188416D01*
X184479Y115157D02*
X188416D01*
X208071Y78346D02*
Y89370D01*
X204134Y78346D02*
X208071D01*
X204134D02*
Y89370D01*
X208071D01*
X204134Y90807D02*
Y101831D01*
X208071D01*
Y90807D02*
Y101831D01*
X204134Y90807D02*
X208071D01*
X226378Y106693D02*
Y117716D01*
X222441Y106693D02*
X226378D01*
X222441D02*
Y117716D01*
X226378D01*
X221260Y106693D02*
Y117716D01*
X217323Y106693D02*
X221260D01*
X217323D02*
Y117716D01*
X221260D01*
X216142Y106693D02*
Y117716D01*
X212205Y106693D02*
X216142D01*
X212205D02*
Y117716D01*
X216142D01*
X211024Y106693D02*
Y117717D01*
X207087Y106693D02*
X211024D01*
X207087D02*
Y117717D01*
X211024D01*
X232481Y124409D02*
X243504D01*
X232481D02*
Y128347D01*
X243504D01*
Y124409D02*
Y128347D01*
X249213Y142126D02*
X260237D01*
Y138189D02*
Y142126D01*
X249213Y138189D02*
X260237D01*
X249213D02*
Y142126D01*
X252562Y152424D02*
X263586D01*
Y148487D02*
Y152424D01*
X252562Y148487D02*
X263586D01*
X252562D02*
Y152424D01*
Y153087D02*
Y157024D01*
Y153087D02*
X263586D01*
Y157024D01*
X252562D02*
X263586D01*
X240158Y157480D02*
X251181D01*
X240158D02*
Y161417D01*
X251181D01*
Y157480D02*
Y161417D01*
X190551Y124606D02*
X194488D01*
Y135629D01*
X190551D02*
X194488D01*
X190551Y124606D02*
Y135629D01*
X174606Y128740D02*
X185630D01*
Y124803D02*
Y128740D01*
X174606Y124803D02*
X185630D01*
X174606D02*
Y128740D01*
X174607Y131102D02*
Y135039D01*
Y131102D02*
X185630D01*
Y135039D01*
X174607D02*
X185630D01*
X83646Y202931D02*
X90370D01*
X83646Y196274D02*
X90370D01*
X77953Y181102D02*
X78347Y181890D01*
X77559D02*
X77953Y181102D01*
X116142Y160606D02*
X120079D01*
X116142Y158244D02*
X120079D01*
X125984Y153913D02*
Y164937D01*
X122047Y153913D02*
X125984D01*
X122047D02*
Y164937D01*
X125984D01*
X144252Y132677D02*
Y136614D01*
X146614Y132677D02*
Y136614D01*
X147244Y116142D02*
X147638Y116929D01*
X146850D02*
X147244Y116142D01*
X117205Y20079D02*
Y31102D01*
X113268Y20079D02*
X117205D01*
X113268D02*
Y31102D01*
X117205D01*
X83071Y7874D02*
Y18898D01*
X79134Y7874D02*
X83071D01*
X79134D02*
Y18898D01*
X83071D01*
X76378Y8425D02*
Y12362D01*
X65355D02*
X76378D01*
X65355Y8425D02*
Y12362D01*
Y8425D02*
X76378D01*
X42559Y9212D02*
X46496D01*
Y20236D01*
X42559D02*
X46496D01*
X42559Y9212D02*
Y20236D01*
X34646Y3543D02*
Y7480D01*
X37008Y3543D02*
Y7480D01*
X34646Y9843D02*
Y13780D01*
X37008Y9843D02*
Y13780D01*
X34646Y16142D02*
Y20079D01*
X37008Y16142D02*
Y20079D01*
X96811Y116118D02*
X107835D01*
X96811D02*
Y120055D01*
X107835D01*
Y116118D02*
Y120055D01*
X62205Y104725D02*
Y115748D01*
X58268Y104725D02*
X62205D01*
X58268D02*
Y115748D01*
X62205D01*
X76732Y132677D02*
X80669D01*
X76732Y135039D02*
X80669D01*
X69685Y132677D02*
X73622D01*
X69685Y135039D02*
X73622D01*
X44528Y132087D02*
X48465D01*
X44528Y129724D02*
X48465D01*
X162205Y137402D02*
Y141339D01*
Y137402D02*
X173228D01*
Y141339D01*
X162205D02*
X173228D01*
X157087Y151969D02*
X161024D01*
X157087Y154331D02*
X161024D01*
X168110Y161811D02*
Y165748D01*
Y161811D02*
X179133D01*
Y165748D01*
X168110D02*
X179133D01*
X180315Y178937D02*
X184252D01*
X180315Y176575D02*
X184252D01*
X187402Y178937D02*
X191339D01*
X187402Y176575D02*
X191339D01*
X194882Y172047D02*
Y175984D01*
Y172047D02*
X205906D01*
Y175984D01*
X194882D02*
X205906D01*
X217913Y182874D02*
Y193898D01*
X213976Y182874D02*
X217913D01*
X213976D02*
Y193898D01*
X217913D01*
D14*
X267717Y53347D02*
X282284D01*
X267717Y10827D02*
Y53347D01*
Y10827D02*
X282284D01*
Y53347D01*
D15*
X3831Y7559D02*
Y7806D01*
Y15751D02*
Y15998D01*
X3859Y7450D02*
Y7916D01*
Y15642D02*
Y16107D01*
X3886Y7395D02*
Y7970D01*
Y15587D02*
Y16162D01*
X3914Y7340D02*
Y8025D01*
Y15532D02*
Y16217D01*
X3941Y7313D02*
Y8053D01*
Y15505D02*
Y16244D01*
X3968Y7286D02*
Y8107D01*
Y15450D02*
Y16272D01*
X3996Y7231D02*
Y8135D01*
Y15422D02*
Y16326D01*
X4023Y7203D02*
Y8162D01*
Y15395D02*
Y16354D01*
X4051Y7176D02*
Y8190D01*
Y15368D02*
Y16381D01*
X4078Y7148D02*
Y8190D01*
Y15368D02*
Y16409D01*
X4105Y7121D02*
Y8217D01*
Y15340D02*
Y16436D01*
X4133Y7094D02*
Y8244D01*
Y15313D02*
Y16463D01*
X4160Y7094D02*
Y8244D01*
Y15313D02*
Y16463D01*
X4188Y7066D02*
Y8272D01*
Y15285D02*
Y16491D01*
X4215Y7039D02*
Y8272D01*
Y15285D02*
Y16518D01*
X4242Y7012D02*
Y8299D01*
Y15258D02*
Y16546D01*
X4270Y6984D02*
Y8299D01*
Y15258D02*
Y16573D01*
X4297Y6957D02*
Y8299D01*
Y15258D02*
Y16600D01*
X4325Y6929D02*
Y8299D01*
Y15258D02*
Y16628D01*
X4352Y6902D02*
Y8326D01*
Y15231D02*
Y16655D01*
X4379Y6875D02*
Y8326D01*
Y15231D02*
Y16683D01*
X4407Y6875D02*
Y8326D01*
Y15231D02*
Y16683D01*
X4434Y6847D02*
Y8326D01*
Y15231D02*
Y16710D01*
X4462Y6820D02*
Y8326D01*
Y15231D02*
Y16737D01*
X4489Y6792D02*
Y8326D01*
Y15231D02*
Y16765D01*
X4516Y6765D02*
Y8326D01*
Y15231D02*
Y16792D01*
X4544Y6737D02*
Y8326D01*
Y15231D02*
Y16820D01*
X4571Y6737D02*
Y8326D01*
Y15231D02*
Y16820D01*
X4599Y6710D02*
Y8299D01*
Y15258D02*
Y16847D01*
X4626Y6683D02*
Y8299D01*
Y15258D02*
Y16874D01*
X4653Y6655D02*
Y8299D01*
Y15258D02*
Y16902D01*
X4681Y6655D02*
Y8299D01*
Y15258D02*
Y16902D01*
X4708Y6628D02*
Y8272D01*
Y15285D02*
Y16929D01*
X4735Y6600D02*
Y8272D01*
Y15285D02*
Y16957D01*
X4763Y6573D02*
Y8244D01*
Y15313D02*
Y16984D01*
X4790Y6573D02*
Y8244D01*
Y15313D02*
Y16984D01*
X4818Y6546D02*
Y8217D01*
Y15340D02*
Y17011D01*
X4845Y6518D02*
Y8190D01*
Y15368D02*
Y17039D01*
X4873Y6518D02*
Y8190D01*
Y15368D02*
Y17039D01*
X4900Y6491D02*
Y8162D01*
Y15395D02*
Y17066D01*
X4927Y6464D02*
Y8135D01*
Y15422D02*
Y17094D01*
X4955Y6436D02*
Y8107D01*
Y15450D02*
Y17121D01*
X4982Y6436D02*
Y8080D01*
Y15477D02*
Y17121D01*
X5009Y6409D02*
Y8053D01*
Y15505D02*
Y17148D01*
X5037Y6381D02*
Y8025D01*
Y15532D02*
Y17176D01*
X5064Y6381D02*
Y7998D01*
Y15559D02*
Y17176D01*
X5092Y6354D02*
Y7970D01*
Y15587D02*
Y17203D01*
X5119Y6354D02*
Y7943D01*
Y15614D02*
Y17203D01*
X5147Y6327D02*
Y7916D01*
Y15642D02*
Y17231D01*
X5174Y6299D02*
Y7888D01*
Y15669D02*
Y17258D01*
X5201Y6299D02*
Y7888D01*
Y15669D02*
Y17258D01*
X5229Y6272D02*
Y7861D01*
Y15696D02*
Y17285D01*
X5256Y6244D02*
Y7833D01*
Y15724D02*
Y17313D01*
X5283Y6244D02*
Y7806D01*
Y15751D02*
Y17313D01*
X5311Y6217D02*
Y7779D01*
Y15778D02*
Y17340D01*
X5338Y6217D02*
Y7751D01*
Y15806D02*
Y17340D01*
X5366Y6190D02*
Y7751D01*
Y15806D02*
Y17368D01*
X5393Y6190D02*
Y7724D01*
Y15833D02*
Y17368D01*
X5421Y6162D02*
Y7696D01*
Y15861D02*
Y17395D01*
X5448Y6135D02*
Y7669D01*
Y15888D02*
Y17422D01*
X5475Y6135D02*
Y7669D01*
Y15888D02*
Y17422D01*
X5503Y6107D02*
Y7642D01*
Y15915D02*
Y17450D01*
X5530Y6107D02*
Y7614D01*
Y15943D02*
Y17450D01*
X5557Y6080D02*
Y7587D01*
Y15970D02*
Y17477D01*
X5585Y6080D02*
Y7587D01*
Y15970D02*
Y17477D01*
X5612Y6053D02*
Y7559D01*
Y15998D02*
Y17504D01*
X5640Y6053D02*
Y7532D01*
Y9477D02*
Y9532D01*
Y14025D02*
Y14080D01*
Y16025D02*
Y17504D01*
X5667Y6025D02*
Y7532D01*
Y9313D02*
Y9696D01*
Y13861D02*
Y14244D01*
Y16025D02*
Y17532D01*
X5694Y6025D02*
Y7505D01*
Y9231D02*
Y9779D01*
Y13779D02*
Y14326D01*
Y16052D02*
Y17532D01*
X5722Y5998D02*
Y7477D01*
Y9176D02*
Y9833D01*
Y13724D02*
Y14381D01*
Y16080D02*
Y17559D01*
X5749Y5998D02*
Y7477D01*
Y9148D02*
Y9861D01*
Y13696D02*
Y14409D01*
Y16080D02*
Y17559D01*
X5777Y5970D02*
Y7450D01*
Y9094D02*
Y9916D01*
Y13642D02*
Y14463D01*
Y16107D02*
Y17587D01*
X5804Y5970D02*
Y7422D01*
Y9066D02*
Y9943D01*
Y13614D02*
Y14491D01*
Y16135D02*
Y17587D01*
X5831Y5943D02*
Y7422D01*
Y9039D02*
Y9970D01*
Y13587D02*
Y14518D01*
Y16135D02*
Y17614D01*
X5859Y5943D02*
Y7395D01*
Y9012D02*
Y9998D01*
Y13559D02*
Y14546D01*
Y16162D02*
Y17614D01*
X5886Y5916D02*
Y7368D01*
Y8984D02*
Y9998D01*
Y13559D02*
Y14573D01*
Y16189D02*
Y17641D01*
X5914Y5916D02*
Y7368D01*
Y8957D02*
Y10025D01*
Y13532D02*
Y14600D01*
Y16189D02*
Y17641D01*
X5941Y5916D02*
Y7340D01*
Y8929D02*
Y10052D01*
Y13505D02*
Y14628D01*
Y16217D02*
Y17669D01*
X5968Y5888D02*
Y7340D01*
Y8902D02*
Y10052D01*
Y13505D02*
Y14655D01*
Y16217D02*
Y17669D01*
X5996Y5888D02*
Y7313D01*
Y8902D02*
Y10080D01*
Y13477D02*
Y14655D01*
Y16244D02*
Y17669D01*
X6023Y5861D02*
Y7286D01*
Y8874D02*
Y10080D01*
Y13477D02*
Y14683D01*
Y16244D02*
Y17696D01*
X6051Y5861D02*
Y7286D01*
Y8847D02*
Y10107D01*
Y13450D02*
Y14710D01*
Y16272D02*
Y17696D01*
X6078Y5833D02*
Y7258D01*
Y8820D02*
Y10107D01*
Y13450D02*
Y14737D01*
Y16299D02*
Y17724D01*
X6105Y5833D02*
Y7258D01*
Y8792D02*
Y10135D01*
Y13422D02*
Y14765D01*
Y16299D02*
Y17724D01*
X6133Y5806D02*
Y7231D01*
Y8765D02*
Y10135D01*
Y13422D02*
Y14792D01*
Y16326D02*
Y17751D01*
X6160Y5806D02*
Y7231D01*
Y8765D02*
Y10135D01*
Y13422D02*
Y14792D01*
Y16326D02*
Y17751D01*
X6188Y5806D02*
Y7203D01*
Y8738D02*
Y10135D01*
Y13422D02*
Y14820D01*
Y16354D02*
Y17751D01*
X6215Y5779D02*
Y7203D01*
Y8710D02*
Y10135D01*
Y13422D02*
Y14847D01*
Y16354D02*
Y17778D01*
X6242Y5779D02*
Y7176D01*
Y8683D02*
Y10135D01*
Y13422D02*
Y14874D01*
Y16381D02*
Y17778D01*
X6270Y5779D02*
Y7176D01*
Y8655D02*
Y10135D01*
Y13422D02*
Y14902D01*
Y16381D02*
Y17778D01*
X6297Y5751D02*
Y7148D01*
Y8655D02*
Y10135D01*
Y13422D02*
Y14902D01*
Y16409D02*
Y17806D01*
X6325Y5751D02*
Y7148D01*
Y8628D02*
Y10135D01*
Y13422D02*
Y14929D01*
Y16409D02*
Y17806D01*
X6352Y5724D02*
Y7121D01*
Y8601D02*
Y10135D01*
Y13422D02*
Y14957D01*
Y16436D02*
Y17833D01*
X6379Y5724D02*
Y7121D01*
Y8601D02*
Y10135D01*
Y13422D02*
Y14957D01*
Y16436D02*
Y17833D01*
X6407Y5724D02*
Y7094D01*
Y8573D02*
Y10135D01*
Y13422D02*
Y14984D01*
Y16463D02*
Y17833D01*
X6434Y5696D02*
Y7094D01*
Y8546D02*
Y10135D01*
Y13422D02*
Y15011D01*
Y16463D02*
Y17861D01*
X6461Y5696D02*
Y7066D01*
Y8546D02*
Y10135D01*
Y13422D02*
Y15011D01*
Y16491D02*
Y17861D01*
X6489Y5696D02*
Y7066D01*
Y8518D02*
Y10107D01*
Y13450D02*
Y15039D01*
Y16491D02*
Y17861D01*
X6516Y5669D02*
Y7066D01*
Y8491D02*
Y10107D01*
Y13450D02*
Y15066D01*
Y16491D02*
Y17888D01*
X6544Y5669D02*
Y7039D01*
Y8491D02*
Y10080D01*
Y13477D02*
Y15066D01*
Y16518D02*
Y17888D01*
X6571Y5669D02*
Y7039D01*
Y8463D02*
Y10080D01*
Y13477D02*
Y15094D01*
Y16518D02*
Y17888D01*
X6599Y5642D02*
Y7012D01*
Y8463D02*
Y10052D01*
Y13505D02*
Y15094D01*
Y16546D02*
Y17916D01*
X6626Y5642D02*
Y7012D01*
Y8436D02*
Y10052D01*
Y13505D02*
Y15121D01*
Y16546D02*
Y17916D01*
X6653Y5642D02*
Y6984D01*
Y8409D02*
Y10025D01*
Y13532D02*
Y15148D01*
Y16573D02*
Y17916D01*
X6681Y5614D02*
Y6984D01*
Y8409D02*
Y9998D01*
Y13559D02*
Y15148D01*
Y16573D02*
Y17943D01*
X6708Y5614D02*
Y6984D01*
Y8381D02*
Y9998D01*
Y13559D02*
Y15176D01*
Y16573D02*
Y17943D01*
X6735Y5614D02*
Y6957D01*
Y8381D02*
Y9970D01*
Y13587D02*
Y15176D01*
Y16600D02*
Y17943D01*
X6763Y5614D02*
Y6957D01*
Y8354D02*
Y9943D01*
Y13614D02*
Y15203D01*
Y16600D02*
Y17943D01*
X6790Y5587D02*
Y6957D01*
Y8354D02*
Y9916D01*
Y13642D02*
Y15203D01*
Y16600D02*
Y17970D01*
X6818Y5587D02*
Y6929D01*
Y8326D02*
Y9888D01*
Y13669D02*
Y15231D01*
Y16628D02*
Y17970D01*
X6845Y5587D02*
Y6929D01*
Y8326D02*
Y9861D01*
Y13696D02*
Y15231D01*
Y16628D02*
Y17970D01*
X6872Y5559D02*
Y6929D01*
Y8299D02*
Y9833D01*
Y13724D02*
Y15258D01*
Y16628D02*
Y17998D01*
X6900Y5559D02*
Y6902D01*
Y8299D02*
Y9806D01*
Y13751D02*
Y15258D01*
Y16655D02*
Y17998D01*
X6927Y5559D02*
Y6902D01*
Y8272D02*
Y9779D01*
Y13779D02*
Y15285D01*
Y16655D02*
Y17998D01*
X6955Y5559D02*
Y6902D01*
Y8272D02*
Y9779D01*
Y13806D02*
Y15285D01*
Y16655D02*
Y17998D01*
X6982Y5532D02*
Y6875D01*
Y8244D02*
Y9751D01*
Y13806D02*
Y15313D01*
Y16683D02*
Y18025D01*
X7010Y5532D02*
Y6875D01*
Y8244D02*
Y9724D01*
Y13833D02*
Y15313D01*
Y16683D02*
Y18025D01*
X7037Y5532D02*
Y6875D01*
Y8217D02*
Y9696D01*
Y13861D02*
Y15313D01*
Y16683D02*
Y18025D01*
X7064Y5532D02*
Y6847D01*
Y8217D02*
Y9696D01*
Y13888D02*
Y15340D01*
Y16710D02*
Y18025D01*
X7092Y5505D02*
Y6847D01*
Y8217D02*
Y9669D01*
Y13888D02*
Y15340D01*
Y16710D02*
Y18052D01*
X7119Y5505D02*
Y6847D01*
Y8190D02*
Y9642D01*
Y13916D02*
Y15368D01*
Y16710D02*
Y18052D01*
X7147Y5505D02*
Y6820D01*
Y8190D02*
Y9614D01*
Y13943D02*
Y15368D01*
Y16737D02*
Y18052D01*
X7174Y5505D02*
Y6820D01*
Y8162D02*
Y9614D01*
Y13943D02*
Y15368D01*
Y16737D02*
Y18052D01*
X7201Y5505D02*
Y6820D01*
Y8162D02*
Y9587D01*
Y13970D02*
Y15395D01*
Y16737D02*
Y18052D01*
X7229Y5477D02*
Y6820D01*
Y8162D02*
Y9587D01*
Y13970D02*
Y15395D01*
Y16737D02*
Y18080D01*
X7256Y5477D02*
Y6792D01*
Y8135D02*
Y9559D01*
Y13998D02*
Y15422D01*
Y16765D02*
Y18080D01*
X7283Y5477D02*
Y6792D01*
Y8135D02*
Y9532D01*
Y11614D02*
Y11943D01*
Y14025D02*
Y15422D01*
Y16765D02*
Y18080D01*
X7311Y5477D02*
Y6792D01*
Y8135D02*
Y9532D01*
Y11450D02*
Y12107D01*
Y14025D02*
Y15422D01*
Y16765D02*
Y18080D01*
X7338Y5477D02*
Y6792D01*
Y8107D02*
Y9505D01*
Y11368D02*
Y12190D01*
Y14052D02*
Y15450D01*
Y16765D02*
Y18107D01*
X7366Y5450D02*
Y6765D01*
Y8107D02*
Y9505D01*
Y11285D02*
Y12272D01*
Y14052D02*
Y15450D01*
Y16792D02*
Y18107D01*
X7393Y5450D02*
Y6765D01*
Y8107D02*
Y9477D01*
Y11231D02*
Y12326D01*
Y14080D02*
Y15450D01*
Y16792D02*
Y18107D01*
X7420Y5450D02*
Y6765D01*
Y8080D02*
Y9477D01*
Y11176D02*
Y12381D01*
Y14080D02*
Y15477D01*
Y16792D02*
Y18107D01*
X7448Y5450D02*
Y6765D01*
Y8080D02*
Y9450D01*
Y11121D02*
Y12436D01*
Y14107D02*
Y15477D01*
Y16792D02*
Y18107D01*
X7475Y5450D02*
Y6737D01*
Y8080D02*
Y9450D01*
Y11094D02*
Y12464D01*
Y14107D02*
Y15477D01*
Y16820D02*
Y18107D01*
X7503Y5423D02*
Y6737D01*
Y8053D02*
Y9422D01*
Y11039D02*
Y12518D01*
Y14135D02*
Y15477D01*
Y16820D02*
Y18135D01*
X7530Y5423D02*
Y6737D01*
Y8053D02*
Y9422D01*
Y11011D02*
Y12546D01*
Y14135D02*
Y15505D01*
Y16820D02*
Y18135D01*
X7557Y5423D02*
Y6737D01*
Y8053D02*
Y9422D01*
Y10957D02*
Y12600D01*
Y14162D02*
Y15505D01*
Y16820D02*
Y18135D01*
X7585Y5423D02*
Y6737D01*
Y8053D02*
Y9395D01*
Y10929D02*
Y12628D01*
Y14162D02*
Y15505D01*
Y16820D02*
Y18135D01*
X7612Y5423D02*
Y6710D01*
Y8025D02*
Y9395D01*
Y10902D02*
Y12655D01*
Y14162D02*
Y15532D01*
Y16847D02*
Y18135D01*
X7640Y5423D02*
Y6710D01*
Y8025D02*
Y9368D01*
Y10875D02*
Y12683D01*
Y14189D02*
Y15532D01*
Y16847D02*
Y18135D01*
X7667Y5423D02*
Y6710D01*
Y8025D02*
Y9368D01*
Y10847D02*
Y12710D01*
Y14189D02*
Y15532D01*
Y16847D02*
Y18162D01*
X7694Y5395D02*
Y6710D01*
Y8025D02*
Y9368D01*
Y10820D02*
Y12737D01*
Y14189D02*
Y15532D01*
Y16847D02*
Y18162D01*
X7722Y5395D02*
Y6710D01*
Y7998D02*
Y9340D01*
Y10792D02*
Y12765D01*
Y14217D02*
Y15532D01*
Y16847D02*
Y18162D01*
X7749Y5395D02*
Y6710D01*
Y7998D02*
Y9340D01*
Y10792D02*
Y12765D01*
Y14217D02*
Y15559D01*
Y16847D02*
Y18162D01*
X7777Y5395D02*
Y6683D01*
Y7998D02*
Y9340D01*
Y10765D02*
Y12792D01*
Y14217D02*
Y15559D01*
Y16874D02*
Y18162D01*
X7804Y5395D02*
Y6683D01*
Y7998D02*
Y9313D01*
Y10738D02*
Y12820D01*
Y14244D02*
Y15559D01*
Y16874D02*
Y18162D01*
X7831Y5395D02*
Y6683D01*
Y7998D02*
Y9313D01*
Y10710D02*
Y12847D01*
Y14244D02*
Y15559D01*
Y16874D02*
Y18162D01*
X7859Y5395D02*
Y6683D01*
Y7970D02*
Y9313D01*
Y10710D02*
Y12847D01*
Y14244D02*
Y15559D01*
Y16874D02*
Y18162D01*
X7886Y5395D02*
Y6683D01*
Y7970D02*
Y9285D01*
Y10683D02*
Y12874D01*
Y14272D02*
Y15587D01*
Y16874D02*
Y18162D01*
X7914Y5368D02*
Y6683D01*
Y7970D02*
Y9285D01*
Y10655D02*
Y12902D01*
Y14272D02*
Y15587D01*
Y16874D02*
Y18189D01*
X7941Y5368D02*
Y6683D01*
Y7970D02*
Y9285D01*
Y10655D02*
Y12902D01*
Y14272D02*
Y15587D01*
Y16874D02*
Y18189D01*
X7968Y5368D02*
Y6655D01*
Y7970D02*
Y9285D01*
Y10628D02*
Y12929D01*
Y14272D02*
Y15587D01*
Y16874D02*
Y18189D01*
X7996Y5368D02*
Y6655D01*
Y7970D02*
Y9258D01*
Y10628D02*
Y12929D01*
Y14299D02*
Y15587D01*
Y16902D02*
Y18189D01*
X8023Y5368D02*
Y6655D01*
Y7943D02*
Y9258D01*
Y10600D02*
Y12957D01*
Y14299D02*
Y15587D01*
Y16902D02*
Y18189D01*
X8051Y5368D02*
Y6655D01*
Y7943D02*
Y9258D01*
Y10600D02*
Y12957D01*
Y14299D02*
Y15614D01*
Y16902D02*
Y18189D01*
X8078Y5368D02*
Y6655D01*
Y7943D02*
Y9258D01*
Y10573D02*
Y12984D01*
Y14299D02*
Y15614D01*
Y16902D02*
Y18189D01*
X8105Y5368D02*
Y6655D01*
Y7943D02*
Y9258D01*
Y10573D02*
Y12984D01*
Y14299D02*
Y15614D01*
Y16902D02*
Y18189D01*
X8133Y5368D02*
Y6655D01*
Y7943D02*
Y9231D01*
Y10573D02*
Y12984D01*
Y14326D02*
Y15614D01*
Y16902D02*
Y18189D01*
X8160Y5368D02*
Y6655D01*
Y7943D02*
Y9231D01*
Y10546D02*
Y13011D01*
Y14326D02*
Y15614D01*
Y16902D02*
Y18189D01*
X8188Y5368D02*
Y6655D01*
Y7943D02*
Y9231D01*
Y10546D02*
Y13011D01*
Y14326D02*
Y15614D01*
Y16902D02*
Y18189D01*
X8215Y5368D02*
Y6655D01*
Y7943D02*
Y9231D01*
Y10546D02*
Y13011D01*
Y14326D02*
Y15614D01*
Y16902D02*
Y18189D01*
X8242Y5368D02*
Y6655D01*
Y7943D02*
Y9231D01*
Y10546D02*
Y13011D01*
Y14326D02*
Y15614D01*
Y16902D02*
Y18189D01*
X8270Y5368D02*
Y6655D01*
Y7943D02*
Y9231D01*
Y10518D02*
Y13039D01*
Y14326D02*
Y15614D01*
Y16902D02*
Y18217D01*
X8297Y5368D02*
Y6628D01*
Y7916D02*
Y9231D01*
Y10518D02*
Y13039D01*
Y14326D02*
Y15614D01*
Y16929D02*
Y18217D01*
X8325Y5340D02*
Y6628D01*
Y7916D02*
Y9231D01*
Y10518D02*
Y13039D01*
Y14326D02*
Y15642D01*
Y16929D02*
Y18217D01*
X8352Y5340D02*
Y6628D01*
Y7916D02*
Y9231D01*
Y10518D02*
Y13039D01*
Y14354D02*
Y15642D01*
Y16929D02*
Y18217D01*
X8379Y5340D02*
Y6628D01*
Y7916D02*
Y9203D01*
Y10518D02*
Y13039D01*
Y14354D02*
Y15642D01*
Y16929D02*
Y18217D01*
X8407Y5340D02*
Y6628D01*
Y7916D02*
Y9203D01*
Y10491D02*
Y13066D01*
Y14354D02*
Y15642D01*
Y16929D02*
Y18217D01*
X8434Y5340D02*
Y6628D01*
Y7916D02*
Y9203D01*
Y10491D02*
Y13066D01*
Y14354D02*
Y15642D01*
Y16929D02*
Y18217D01*
X8461Y5340D02*
Y6628D01*
Y7916D02*
Y9203D01*
Y10491D02*
Y13066D01*
Y14354D02*
Y15642D01*
Y16929D02*
Y18217D01*
X8489Y5340D02*
Y6628D01*
Y7916D02*
Y9203D01*
Y10491D02*
Y13066D01*
Y14354D02*
Y15642D01*
Y16929D02*
Y18217D01*
X8516Y5340D02*
Y6628D01*
Y7916D02*
Y9203D01*
Y10491D02*
Y13066D01*
Y14354D02*
Y15642D01*
Y16929D02*
Y18217D01*
X8544Y5340D02*
Y6628D01*
Y7916D02*
Y9203D01*
Y10491D02*
Y13066D01*
Y14354D02*
Y15642D01*
Y16929D02*
Y18217D01*
X8571Y5340D02*
Y6628D01*
Y7916D02*
Y9203D01*
Y10491D02*
Y13066D01*
Y14354D02*
Y15642D01*
Y16929D02*
Y18217D01*
X8598Y5340D02*
Y6628D01*
Y7916D02*
Y9203D01*
Y10491D02*
Y13066D01*
Y14354D02*
Y15642D01*
Y16929D02*
Y18217D01*
X8626Y5340D02*
Y6628D01*
Y7916D02*
Y9203D01*
Y10491D02*
Y13066D01*
Y14354D02*
Y15642D01*
Y16929D02*
Y18217D01*
X8653Y5340D02*
Y6628D01*
Y7916D02*
Y9203D01*
Y10491D02*
Y13066D01*
Y14354D02*
Y15642D01*
Y16929D02*
Y18217D01*
X8681Y5340D02*
Y6628D01*
Y7916D02*
Y9203D01*
Y10491D02*
Y13066D01*
Y14354D02*
Y15642D01*
Y16929D02*
Y18217D01*
X8708Y5340D02*
Y6628D01*
Y7916D02*
Y9203D01*
Y10491D02*
Y13066D01*
Y14354D02*
Y15642D01*
Y16929D02*
Y18217D01*
X8736Y5340D02*
Y6628D01*
Y7916D02*
Y9203D01*
Y10518D02*
Y13039D01*
Y14354D02*
Y15642D01*
Y16929D02*
Y18217D01*
X8763Y5340D02*
Y6628D01*
Y7916D02*
Y9231D01*
Y10518D02*
Y13039D01*
Y14354D02*
Y15642D01*
Y16929D02*
Y18217D01*
X8790Y5340D02*
Y6628D01*
Y7916D02*
Y9231D01*
Y10518D02*
Y13039D01*
Y14326D02*
Y15642D01*
Y16929D02*
Y18217D01*
X8818Y5368D02*
Y6628D01*
Y7916D02*
Y9231D01*
Y10518D02*
Y13039D01*
Y14326D02*
Y15614D01*
Y16929D02*
Y18217D01*
X8845Y5368D02*
Y6655D01*
Y7943D02*
Y9231D01*
Y10518D02*
Y13039D01*
Y14326D02*
Y15614D01*
Y16902D02*
Y18217D01*
X8873Y5368D02*
Y6655D01*
Y7943D02*
Y9231D01*
Y10546D02*
Y13011D01*
Y14326D02*
Y15614D01*
Y16902D02*
Y18189D01*
X8900Y5368D02*
Y6655D01*
Y7943D02*
Y9231D01*
Y10546D02*
Y13011D01*
Y14326D02*
Y15614D01*
Y16902D02*
Y18189D01*
X8927Y5368D02*
Y6655D01*
Y7943D02*
Y9231D01*
Y10546D02*
Y13011D01*
Y14326D02*
Y15614D01*
Y16902D02*
Y18189D01*
X8955Y5368D02*
Y6655D01*
Y7943D02*
Y9231D01*
Y10546D02*
Y13011D01*
Y14326D02*
Y15614D01*
Y16902D02*
Y18189D01*
X8982Y5368D02*
Y6655D01*
Y7943D02*
Y9258D01*
Y10573D02*
Y12984D01*
Y14326D02*
Y15614D01*
Y16902D02*
Y18189D01*
X9009Y5368D02*
Y6655D01*
Y7943D02*
Y9258D01*
Y10573D02*
Y12984D01*
Y14299D02*
Y15614D01*
Y16902D02*
Y18189D01*
X9037Y5368D02*
Y6655D01*
Y7943D02*
Y9258D01*
Y10573D02*
Y12984D01*
Y14299D02*
Y15614D01*
Y16902D02*
Y18189D01*
X9064Y5368D02*
Y6655D01*
Y7943D02*
Y9258D01*
Y10600D02*
Y12957D01*
Y14299D02*
Y15614D01*
Y16902D02*
Y18189D01*
X9092Y5368D02*
Y6655D01*
Y7943D02*
Y9258D01*
Y10600D02*
Y12957D01*
Y14299D02*
Y15587D01*
Y16902D02*
Y18189D01*
X9119Y5368D02*
Y6655D01*
Y7970D02*
Y9258D01*
Y10628D02*
Y12929D01*
Y14299D02*
Y15587D01*
Y16902D02*
Y18189D01*
X9146Y5368D02*
Y6683D01*
Y7970D02*
Y9285D01*
Y10628D02*
Y12929D01*
Y14272D02*
Y15587D01*
Y16874D02*
Y18189D01*
X9174Y5368D02*
Y6683D01*
Y7970D02*
Y9285D01*
Y10655D02*
Y12902D01*
Y14272D02*
Y15587D01*
Y16874D02*
Y18189D01*
X9201Y5368D02*
Y6683D01*
Y7970D02*
Y9285D01*
Y10655D02*
Y12902D01*
Y14272D02*
Y15587D01*
Y16874D02*
Y18189D01*
X9229Y5395D02*
Y6683D01*
Y7970D02*
Y9285D01*
Y10683D02*
Y12874D01*
Y14272D02*
Y15587D01*
Y16874D02*
Y18162D01*
X9256Y5395D02*
Y6683D01*
Y7970D02*
Y9313D01*
Y10710D02*
Y12847D01*
Y14244D02*
Y15587D01*
Y16874D02*
Y18162D01*
X9283Y5395D02*
Y6683D01*
Y7998D02*
Y9313D01*
Y10710D02*
Y12847D01*
Y14244D02*
Y15559D01*
Y16874D02*
Y18162D01*
X9311Y5395D02*
Y6683D01*
Y7998D02*
Y9313D01*
Y10738D02*
Y12820D01*
Y14244D02*
Y15559D01*
Y16874D02*
Y18162D01*
X9338Y5395D02*
Y6683D01*
Y7998D02*
Y9340D01*
Y10765D02*
Y12792D01*
Y14217D02*
Y15559D01*
Y16874D02*
Y18162D01*
X9366Y5395D02*
Y6710D01*
Y7998D02*
Y9340D01*
Y10765D02*
Y12792D01*
Y14217D02*
Y15559D01*
Y16847D02*
Y18162D01*
X9393Y5395D02*
Y6710D01*
Y7998D02*
Y9340D01*
Y10792D02*
Y12765D01*
Y14217D02*
Y15532D01*
Y16847D02*
Y18162D01*
X9420Y5395D02*
Y6710D01*
Y8025D02*
Y9368D01*
Y10820D02*
Y12737D01*
Y14189D02*
Y15532D01*
Y16847D02*
Y18162D01*
X9448Y5423D02*
Y6710D01*
Y8025D02*
Y9368D01*
Y10847D02*
Y12710D01*
Y14189D02*
Y15532D01*
Y16847D02*
Y18135D01*
X9475Y5423D02*
Y6710D01*
Y8025D02*
Y9368D01*
Y10875D02*
Y12683D01*
Y14189D02*
Y15532D01*
Y16847D02*
Y18135D01*
X9503Y5423D02*
Y6710D01*
Y8025D02*
Y9395D01*
Y10902D02*
Y12655D01*
Y14162D02*
Y15532D01*
Y16847D02*
Y18135D01*
X9530Y5423D02*
Y6737D01*
Y8053D02*
Y9395D01*
Y10929D02*
Y12628D01*
Y14162D02*
Y15505D01*
Y16820D02*
Y18135D01*
X9557Y5423D02*
Y6737D01*
Y8053D02*
Y9422D01*
Y10984D02*
Y12573D01*
Y14135D02*
Y15505D01*
Y16820D02*
Y18135D01*
X9585Y5423D02*
Y6737D01*
Y8053D02*
Y9422D01*
Y11011D02*
Y12546D01*
Y14135D02*
Y15505D01*
Y16820D02*
Y18135D01*
X9612Y5450D02*
Y6737D01*
Y8053D02*
Y9422D01*
Y11039D02*
Y12518D01*
Y14135D02*
Y15477D01*
Y16820D02*
Y18135D01*
X9640Y5450D02*
Y6737D01*
Y8080D02*
Y9450D01*
Y11094D02*
Y12464D01*
Y14107D02*
Y15477D01*
Y16820D02*
Y18107D01*
X9667Y5450D02*
Y6765D01*
Y8080D02*
Y9450D01*
Y11121D02*
Y12436D01*
Y14107D02*
Y15477D01*
Y16792D02*
Y18107D01*
X9694Y5450D02*
Y6765D01*
Y8080D02*
Y9477D01*
Y11148D02*
Y12409D01*
Y14080D02*
Y15477D01*
Y16792D02*
Y18107D01*
X9722Y5450D02*
Y6765D01*
Y8107D02*
Y9477D01*
Y11148D02*
Y12409D01*
Y14080D02*
Y15450D01*
Y16792D02*
Y18107D01*
X9749Y5450D02*
Y6765D01*
Y8107D02*
Y9505D01*
Y11148D02*
Y12409D01*
Y14052D02*
Y15450D01*
Y16792D02*
Y18107D01*
X9777Y5477D02*
Y6792D01*
Y8107D02*
Y9505D01*
Y11148D02*
Y12409D01*
Y14052D02*
Y15450D01*
Y16765D02*
Y18107D01*
X9804Y5477D02*
Y6792D01*
Y8135D02*
Y9532D01*
Y11148D02*
Y12409D01*
Y14025D02*
Y15422D01*
Y16765D02*
Y18080D01*
X9831Y5477D02*
Y6792D01*
Y8135D02*
Y9559D01*
Y11148D02*
Y12409D01*
Y14025D02*
Y15422D01*
Y16765D02*
Y18080D01*
X9859Y5477D02*
Y6792D01*
Y8135D02*
Y9559D01*
Y11148D02*
Y12409D01*
Y13998D02*
Y15422D01*
Y16765D02*
Y18080D01*
X9886Y5477D02*
Y6820D01*
Y8162D02*
Y9587D01*
Y11148D02*
Y12409D01*
Y13970D02*
Y15395D01*
Y16737D02*
Y18080D01*
X9914Y5505D02*
Y6820D01*
Y8162D02*
Y9587D01*
Y11148D02*
Y12409D01*
Y13970D02*
Y15395D01*
Y16737D02*
Y18052D01*
X9941Y5505D02*
Y6820D01*
Y8162D02*
Y9614D01*
Y11148D02*
Y12409D01*
Y13943D02*
Y15395D01*
Y16737D02*
Y18052D01*
X9968Y5505D02*
Y6820D01*
Y8190D02*
Y9642D01*
Y11148D02*
Y12409D01*
Y13943D02*
Y15368D01*
Y16737D02*
Y18052D01*
X9996Y5505D02*
Y6847D01*
Y8190D02*
Y9642D01*
Y11148D02*
Y12409D01*
Y13916D02*
Y15368D01*
Y16710D02*
Y18052D01*
X10023Y5505D02*
Y6847D01*
Y8217D02*
Y9669D01*
Y11148D02*
Y12409D01*
Y13888D02*
Y15340D01*
Y16710D02*
Y18052D01*
X10051Y5532D02*
Y6847D01*
Y8217D02*
Y9696D01*
Y11148D02*
Y12409D01*
Y13861D02*
Y15340D01*
Y16710D02*
Y18025D01*
X10078Y5532D02*
Y6875D01*
Y8217D02*
Y9696D01*
Y11148D02*
Y12409D01*
Y13861D02*
Y15313D01*
Y16683D02*
Y18025D01*
X10105Y5532D02*
Y6875D01*
Y8244D02*
Y9724D01*
Y11148D02*
Y12409D01*
Y13833D02*
Y15313D01*
Y16683D02*
Y18025D01*
X10133Y5532D02*
Y6875D01*
Y8244D02*
Y9751D01*
Y11148D02*
Y12409D01*
Y13806D02*
Y15313D01*
Y16683D02*
Y18025D01*
X10160Y5559D02*
Y6902D01*
Y8272D02*
Y9779D01*
Y11148D02*
Y12409D01*
Y13779D02*
Y15285D01*
Y16655D02*
Y17998D01*
X10187Y5559D02*
Y6902D01*
Y8272D02*
Y9779D01*
Y11148D02*
Y12409D01*
Y13779D02*
Y15285D01*
Y16655D02*
Y17998D01*
X10215Y5559D02*
Y6902D01*
Y8299D02*
Y9806D01*
Y11148D02*
Y12409D01*
Y13751D02*
Y15258D01*
Y16655D02*
Y17998D01*
X10242Y5559D02*
Y6929D01*
Y8299D02*
Y9833D01*
Y11148D02*
Y12409D01*
Y13724D02*
Y15258D01*
Y16628D02*
Y17998D01*
X10270Y5587D02*
Y6929D01*
Y8326D02*
Y9861D01*
Y11148D02*
Y12409D01*
Y13696D02*
Y15231D01*
Y16628D02*
Y17970D01*
X10297Y5587D02*
Y6929D01*
Y8326D02*
Y9888D01*
Y11148D02*
Y12409D01*
Y13669D02*
Y15231D01*
Y16628D02*
Y17970D01*
X10324Y5587D02*
Y6957D01*
Y8354D02*
Y9916D01*
Y11148D02*
Y12409D01*
Y13642D02*
Y15203D01*
Y16600D02*
Y17970D01*
X10352Y5614D02*
Y6957D01*
Y8354D02*
Y9943D01*
Y11148D02*
Y12409D01*
Y13614D02*
Y15203D01*
Y16600D02*
Y17943D01*
X10379Y5614D02*
Y6957D01*
Y8381D02*
Y9970D01*
Y11148D02*
Y12409D01*
Y13587D02*
Y15176D01*
Y16600D02*
Y17943D01*
X10407Y5614D02*
Y6984D01*
Y8381D02*
Y9998D01*
Y11148D02*
Y12409D01*
Y13559D02*
Y15176D01*
Y16573D02*
Y17943D01*
X10434Y5614D02*
Y6984D01*
Y8409D02*
Y10025D01*
Y11148D02*
Y12409D01*
Y13559D02*
Y15148D01*
Y16573D02*
Y17943D01*
X10462Y5642D02*
Y7012D01*
Y8409D02*
Y10025D01*
Y11148D02*
Y12409D01*
Y13532D02*
Y15148D01*
Y16546D02*
Y17916D01*
X10489Y5642D02*
Y7012D01*
Y8436D02*
Y10052D01*
Y11148D02*
Y12409D01*
Y13505D02*
Y15121D01*
Y16546D02*
Y17916D01*
X10516Y5642D02*
Y7012D01*
Y8463D02*
Y10080D01*
Y11148D02*
Y12409D01*
Y13505D02*
Y15094D01*
Y16546D02*
Y17916D01*
X10544Y5669D02*
Y7039D01*
Y8463D02*
Y10080D01*
Y11148D02*
Y12409D01*
Y13477D02*
Y15094D01*
Y16518D02*
Y17888D01*
X10571Y5669D02*
Y7039D01*
Y8491D02*
Y10107D01*
Y11148D02*
Y12409D01*
Y13477D02*
Y15066D01*
Y16518D02*
Y17888D01*
X10599Y5669D02*
Y7066D01*
Y8491D02*
Y10107D01*
Y11148D02*
Y12409D01*
Y13450D02*
Y15066D01*
Y16491D02*
Y17888D01*
X10626Y5696D02*
Y7066D01*
Y8518D02*
Y10107D01*
Y11148D02*
Y12409D01*
Y13450D02*
Y15039D01*
Y16491D02*
Y17861D01*
X10653Y5696D02*
Y7066D01*
Y8546D02*
Y10135D01*
Y11148D02*
Y12409D01*
Y13422D02*
Y15011D01*
Y16491D02*
Y17861D01*
X10681Y5696D02*
Y7094D01*
Y8546D02*
Y10135D01*
Y11148D02*
Y12409D01*
Y13422D02*
Y15011D01*
Y16463D02*
Y17861D01*
X10708Y5724D02*
Y7094D01*
Y8573D02*
Y10135D01*
Y11148D02*
Y12409D01*
Y13422D02*
Y14984D01*
Y16463D02*
Y17833D01*
X10735Y5724D02*
Y7121D01*
Y8601D02*
Y10135D01*
Y11148D02*
Y12409D01*
Y13422D02*
Y14957D01*
Y16436D02*
Y17833D01*
X10763Y5724D02*
Y7121D01*
Y8601D02*
Y10135D01*
Y11148D02*
Y12409D01*
Y13422D02*
Y14957D01*
Y16436D02*
Y17833D01*
X10790Y5751D02*
Y7148D01*
Y8628D02*
Y10135D01*
Y11148D02*
Y12409D01*
Y13422D02*
Y14929D01*
Y16409D02*
Y17806D01*
X10818Y5751D02*
Y7148D01*
Y8655D02*
Y10162D01*
Y11148D02*
Y12409D01*
Y13422D02*
Y14902D01*
Y16409D02*
Y17806D01*
X10845Y5779D02*
Y7176D01*
Y8683D02*
Y10162D01*
Y11148D02*
Y12409D01*
Y13422D02*
Y14874D01*
Y16381D02*
Y17778D01*
X10872Y5779D02*
Y7176D01*
Y8683D02*
Y10135D01*
Y11148D02*
Y12409D01*
Y13422D02*
Y14874D01*
Y16381D02*
Y17778D01*
X10900Y5779D02*
Y7203D01*
Y8710D02*
Y10135D01*
Y11148D02*
Y12409D01*
Y13422D02*
Y14847D01*
Y16354D02*
Y17778D01*
X10927Y5806D02*
Y7203D01*
Y8738D02*
Y10135D01*
Y11148D02*
Y12409D01*
Y13422D02*
Y14820D01*
Y16354D02*
Y17751D01*
X10955Y5806D02*
Y7231D01*
Y8765D02*
Y10135D01*
Y11148D02*
Y12409D01*
Y13422D02*
Y14792D01*
Y16326D02*
Y17751D01*
X10982Y5833D02*
Y7231D01*
Y8765D02*
Y10135D01*
Y11148D02*
Y12409D01*
Y13422D02*
Y14792D01*
Y16326D02*
Y17751D01*
X11009Y5833D02*
Y7258D01*
Y8792D02*
Y10135D01*
Y11148D02*
Y12409D01*
Y13422D02*
Y14765D01*
Y16299D02*
Y17724D01*
X11037Y5833D02*
Y7258D01*
Y8820D02*
Y10107D01*
Y11148D02*
Y12409D01*
Y13450D02*
Y14737D01*
Y16299D02*
Y17724D01*
X11064Y5861D02*
Y7286D01*
Y8847D02*
Y10107D01*
Y11148D02*
Y12409D01*
Y13450D02*
Y14710D01*
Y16272D02*
Y17696D01*
X11092Y5861D02*
Y7313D01*
Y8874D02*
Y10080D01*
Y11148D02*
Y12409D01*
Y13477D02*
Y14683D01*
Y16244D02*
Y17696D01*
X11119Y5888D02*
Y7313D01*
Y8902D02*
Y10080D01*
Y11148D02*
Y12409D01*
Y13477D02*
Y14655D01*
Y16244D02*
Y17669D01*
X11146Y5888D02*
Y7340D01*
Y8929D02*
Y10052D01*
Y11148D02*
Y12409D01*
Y13505D02*
Y14655D01*
Y16217D02*
Y17669D01*
X11174Y5916D02*
Y7340D01*
Y8957D02*
Y10052D01*
Y11148D02*
Y12409D01*
Y13505D02*
Y14628D01*
Y16217D02*
Y17669D01*
X11201Y5916D02*
Y7368D01*
Y8957D02*
Y10025D01*
Y11148D02*
Y12409D01*
Y13532D02*
Y14600D01*
Y16189D02*
Y17641D01*
X11229Y5916D02*
Y7368D01*
Y8984D02*
Y9998D01*
Y11148D02*
Y12409D01*
Y13559D02*
Y14573D01*
Y16189D02*
Y17641D01*
X11256Y5943D02*
Y7395D01*
Y9012D02*
Y9998D01*
Y11148D02*
Y12409D01*
Y13559D02*
Y14546D01*
Y16162D02*
Y17614D01*
X11283Y5943D02*
Y7422D01*
Y9039D02*
Y9970D01*
Y11148D02*
Y12409D01*
Y13587D02*
Y14518D01*
Y16135D02*
Y17614D01*
X11311Y5970D02*
Y7422D01*
Y9066D02*
Y9943D01*
Y11148D02*
Y12409D01*
Y13614D02*
Y14491D01*
Y16135D02*
Y17587D01*
X11338Y5970D02*
Y7450D01*
Y9121D02*
Y9888D01*
Y11148D02*
Y12409D01*
Y13669D02*
Y14436D01*
Y16107D02*
Y17587D01*
X11366Y5998D02*
Y7477D01*
Y9148D02*
Y9861D01*
Y11148D02*
Y12409D01*
Y13696D02*
Y14409D01*
Y16080D02*
Y17559D01*
X11393Y5998D02*
Y7477D01*
Y9203D02*
Y9806D01*
Y11148D02*
Y12409D01*
Y13751D02*
Y14354D01*
Y16080D02*
Y17559D01*
X11420Y6025D02*
Y7505D01*
Y9258D02*
Y9751D01*
Y11148D02*
Y12409D01*
Y13806D02*
Y14299D01*
Y16052D02*
Y17532D01*
X11448Y6025D02*
Y7532D01*
Y9340D02*
Y9669D01*
Y11148D02*
Y12409D01*
Y13888D02*
Y14217D01*
Y16025D02*
Y17532D01*
X11475Y6053D02*
Y7532D01*
Y11148D02*
Y12409D01*
Y16025D02*
Y17504D01*
X11503Y6053D02*
Y7559D01*
Y11148D02*
Y12409D01*
Y15998D02*
Y17504D01*
X11530Y6080D02*
Y7587D01*
Y11148D02*
Y12409D01*
Y15970D02*
Y17477D01*
X11557Y6080D02*
Y7587D01*
Y11148D02*
Y12409D01*
Y15970D02*
Y17477D01*
X11585Y6107D02*
Y7614D01*
Y11148D02*
Y12409D01*
Y15943D02*
Y17450D01*
X11612Y6107D02*
Y7642D01*
Y11148D02*
Y12409D01*
Y15915D02*
Y17450D01*
X11640Y6135D02*
Y7669D01*
Y11148D02*
Y12409D01*
Y15888D02*
Y17422D01*
X11667Y6135D02*
Y7669D01*
Y11148D02*
Y12409D01*
Y15888D02*
Y17422D01*
X11694Y6162D02*
Y7696D01*
Y11148D02*
Y12409D01*
Y15861D02*
Y17395D01*
X11722Y6190D02*
Y7724D01*
Y11148D02*
Y12409D01*
Y15833D02*
Y17368D01*
X11749Y6190D02*
Y7751D01*
Y11148D02*
Y12409D01*
Y15806D02*
Y17368D01*
X11777Y6217D02*
Y7751D01*
Y11148D02*
Y12409D01*
Y15806D02*
Y17340D01*
X11804Y6217D02*
Y7779D01*
Y11148D02*
Y12409D01*
Y15778D02*
Y17340D01*
X11831Y6244D02*
Y7806D01*
Y11148D02*
Y12409D01*
Y15751D02*
Y17313D01*
X11859Y6244D02*
Y7833D01*
Y11148D02*
Y12409D01*
Y15724D02*
Y17313D01*
X11886Y6272D02*
Y7861D01*
Y11148D02*
Y12409D01*
Y15696D02*
Y17285D01*
X11913Y6299D02*
Y7888D01*
Y11148D02*
Y12409D01*
Y15669D02*
Y17258D01*
X11941Y6299D02*
Y7916D01*
Y11148D02*
Y12409D01*
Y15642D02*
Y17258D01*
X11968Y6327D02*
Y7916D01*
Y11148D02*
Y12409D01*
Y15642D02*
Y17231D01*
X11996Y6354D02*
Y7943D01*
Y11148D02*
Y12409D01*
Y15614D02*
Y17203D01*
X12023Y6354D02*
Y7970D01*
Y11148D02*
Y12409D01*
Y15587D02*
Y17203D01*
X12050Y6381D02*
Y7998D01*
Y11148D02*
Y12409D01*
Y15559D02*
Y17176D01*
X12078Y6381D02*
Y8025D01*
Y11148D02*
Y12409D01*
Y15532D02*
Y17176D01*
X12105Y6409D02*
Y8053D01*
Y11148D02*
Y12409D01*
Y15505D02*
Y17148D01*
X12133Y6436D02*
Y8080D01*
Y11148D02*
Y12409D01*
Y15477D02*
Y17121D01*
X12160Y6436D02*
Y8107D01*
Y11148D02*
Y12409D01*
Y15450D02*
Y17121D01*
X12188Y6464D02*
Y8135D01*
Y11148D02*
Y12409D01*
Y15422D02*
Y17094D01*
X12215Y6491D02*
Y8162D01*
Y11148D02*
Y12409D01*
Y15395D02*
Y17066D01*
X12242Y6518D02*
Y8190D01*
Y11148D02*
Y12409D01*
Y15368D02*
Y17039D01*
X12270Y6518D02*
Y8190D01*
Y11148D02*
Y12409D01*
Y15368D02*
Y17039D01*
X12297Y6546D02*
Y8217D01*
Y11148D02*
Y12409D01*
Y15340D02*
Y17011D01*
X12325Y6573D02*
Y8244D01*
Y11148D02*
Y12409D01*
Y15313D02*
Y16984D01*
X12352Y6573D02*
Y8244D01*
Y11148D02*
Y12409D01*
Y15313D02*
Y16984D01*
X12379Y6600D02*
Y8272D01*
Y11148D02*
Y12409D01*
Y15285D02*
Y16957D01*
X12407Y6628D02*
Y8272D01*
Y11148D02*
Y12409D01*
Y15285D02*
Y16929D01*
X12434Y6655D02*
Y8299D01*
Y11148D02*
Y12409D01*
Y15258D02*
Y16902D01*
X12461Y6655D02*
Y8299D01*
Y11148D02*
Y12409D01*
Y15258D02*
Y16902D01*
X12489Y6683D02*
Y8299D01*
Y11148D02*
Y12409D01*
Y15258D02*
Y16874D01*
X12516Y6710D02*
Y8299D01*
Y11148D02*
Y12409D01*
Y15231D02*
Y16847D01*
X12544Y6737D02*
Y8326D01*
Y11148D02*
Y12409D01*
Y15231D02*
Y16820D01*
X12571Y6765D02*
Y8326D01*
Y11148D02*
Y12409D01*
Y15231D02*
Y16792D01*
X12598Y6765D02*
Y8326D01*
Y11148D02*
Y12409D01*
Y15231D02*
Y16792D01*
X12626Y6792D02*
Y8326D01*
Y11148D02*
Y12409D01*
Y15231D02*
Y16765D01*
X12653Y6820D02*
Y8326D01*
Y11148D02*
Y12409D01*
Y15231D02*
Y16737D01*
X12681Y6847D02*
Y8326D01*
Y11148D02*
Y12409D01*
Y15231D02*
Y16710D01*
X12708Y6875D02*
Y8326D01*
Y11148D02*
Y12409D01*
Y15231D02*
Y16683D01*
X12735Y6875D02*
Y8326D01*
Y11148D02*
Y12409D01*
Y15231D02*
Y16683D01*
X12763Y6902D02*
Y8326D01*
Y11148D02*
Y12409D01*
Y15231D02*
Y16655D01*
X12790Y6929D02*
Y8299D01*
Y11148D02*
Y12409D01*
Y15258D02*
Y16628D01*
X12818Y6957D02*
Y8299D01*
Y11148D02*
Y12409D01*
Y15258D02*
Y16600D01*
X12845Y6984D02*
Y8299D01*
Y11148D02*
Y12409D01*
Y15258D02*
Y16573D01*
X12872Y7012D02*
Y8299D01*
Y11148D02*
Y12409D01*
Y15258D02*
Y16546D01*
X12900Y7039D02*
Y8272D01*
Y11148D02*
Y12409D01*
Y15285D02*
Y16518D01*
X12927Y7066D02*
Y8272D01*
Y11148D02*
Y12409D01*
Y15285D02*
Y16491D01*
X12955Y7094D02*
Y8244D01*
Y11148D02*
Y12409D01*
Y15313D02*
Y16463D01*
X12982Y7121D02*
Y8244D01*
Y11148D02*
Y12409D01*
Y15313D02*
Y16436D01*
X13009Y7121D02*
Y8217D01*
Y11148D02*
Y12409D01*
Y15340D02*
Y16436D01*
X13037Y7148D02*
Y8190D01*
Y11148D02*
Y12409D01*
Y15368D02*
Y16409D01*
X13064Y7176D02*
Y8190D01*
Y11148D02*
Y12409D01*
Y15368D02*
Y16381D01*
X13092Y7203D02*
Y8162D01*
Y11148D02*
Y12409D01*
Y15395D02*
Y16354D01*
X13119Y7231D02*
Y8135D01*
Y11148D02*
Y12409D01*
Y15422D02*
Y16326D01*
X13146Y7286D02*
Y8080D01*
Y11148D02*
Y12409D01*
Y15477D02*
Y16272D01*
X13174Y7313D02*
Y8053D01*
Y11148D02*
Y12409D01*
Y15505D02*
Y16244D01*
X13201Y7340D02*
Y7998D01*
Y11148D02*
Y12409D01*
Y15559D02*
Y16217D01*
X13229Y7395D02*
Y7970D01*
Y11148D02*
Y12409D01*
Y15614D02*
Y16162D01*
X13256Y7450D02*
Y7888D01*
Y11148D02*
Y12409D01*
Y15696D02*
Y16080D01*
X13283Y7532D02*
Y7806D01*
Y11148D02*
Y12409D01*
Y15861D02*
Y15943D01*
X13311Y11148D02*
Y12409D01*
X13338Y11148D02*
Y12409D01*
X13366Y11148D02*
Y12409D01*
X13393Y11148D02*
Y12409D01*
X13420Y11148D02*
Y12409D01*
X13448Y11148D02*
Y12409D01*
X13475Y11148D02*
Y12409D01*
X13502Y11148D02*
Y12409D01*
X13530Y11148D02*
Y12409D01*
X13557Y11148D02*
Y12409D01*
X13585Y11148D02*
Y12409D01*
X13612Y11148D02*
Y12409D01*
X13640Y11148D02*
Y12409D01*
X13667Y11148D02*
Y12409D01*
X13694Y11148D02*
Y12409D01*
X13722Y11148D02*
Y12409D01*
X13749Y11148D02*
Y12409D01*
X13777Y11148D02*
Y12409D01*
X13804Y11148D02*
Y12409D01*
X13831Y11148D02*
Y12409D01*
X13859Y11148D02*
Y12409D01*
X13886Y11148D02*
Y12409D01*
X13914Y11148D02*
Y12409D01*
X13941Y11148D02*
Y12409D01*
X13968Y11148D02*
Y12409D01*
X13996Y11148D02*
Y12409D01*
X14023Y11148D02*
Y12409D01*
X14051Y11148D02*
Y12409D01*
X14078Y11148D02*
Y12409D01*
X14105Y11148D02*
Y12409D01*
X14133Y11148D02*
Y12409D01*
X14160Y11148D02*
Y12409D01*
X14187Y11148D02*
Y12409D01*
X14215Y11148D02*
Y12409D01*
X14242Y11148D02*
Y12409D01*
X14270Y11148D02*
Y12409D01*
X14297Y11148D02*
Y12409D01*
X14324Y11148D02*
Y12409D01*
X14352Y11148D02*
Y12409D01*
X14379Y11148D02*
Y12409D01*
X14407Y11148D02*
Y12409D01*
X14434Y11148D02*
Y12409D01*
X14461Y11148D02*
Y12409D01*
X14489Y11148D02*
Y12409D01*
X14516Y11148D02*
Y12409D01*
X14544Y11148D02*
Y12409D01*
X14571Y11148D02*
Y12409D01*
X14598Y11148D02*
Y12409D01*
X14626Y11148D02*
Y12409D01*
X14653Y11148D02*
Y12409D01*
X14681Y11148D02*
Y12409D01*
X14708Y11148D02*
Y12409D01*
X14735Y11148D02*
Y12409D01*
X14763Y11148D02*
Y12409D01*
X14790Y11148D02*
Y12409D01*
X14818Y11148D02*
Y12409D01*
X14845Y11148D02*
Y12409D01*
X14872Y11148D02*
Y12409D01*
X14900Y11148D02*
Y12409D01*
X14927Y11148D02*
Y12409D01*
X14955Y11148D02*
Y12409D01*
X14982Y11148D02*
Y12409D01*
X15009Y11148D02*
Y12409D01*
X15037Y11148D02*
Y12409D01*
X15064Y11148D02*
Y12409D01*
X15092Y11148D02*
Y12409D01*
X15119Y11148D02*
Y12409D01*
X15146Y11148D02*
Y12409D01*
X15174Y11148D02*
Y12409D01*
X15201Y11148D02*
Y12409D01*
X15229Y11148D02*
Y12409D01*
X15256Y11148D02*
Y12409D01*
X15283Y11148D02*
Y12409D01*
X15311Y11148D02*
Y12409D01*
X15338Y11148D02*
Y12409D01*
X15365Y11148D02*
Y12409D01*
X15393Y11148D02*
Y12409D01*
X15420Y11148D02*
Y12409D01*
X15448Y11148D02*
Y12409D01*
X15475Y11148D02*
Y12409D01*
X15503Y11148D02*
Y12409D01*
X15530Y11148D02*
Y12409D01*
X15557Y11148D02*
Y12409D01*
X15585Y11148D02*
Y12409D01*
X15612Y11148D02*
Y12409D01*
X15640Y11148D02*
Y12409D01*
X15667Y11148D02*
Y12409D01*
X15694Y11148D02*
Y12409D01*
X15722Y11148D02*
Y12409D01*
X15749Y11148D02*
Y12409D01*
X15777Y11148D02*
Y12409D01*
X15804Y11148D02*
Y12409D01*
X15831Y11148D02*
Y12409D01*
X15859Y11148D02*
Y12409D01*
X15886Y11148D02*
Y12409D01*
X15913Y11148D02*
Y12409D01*
X15941Y11148D02*
Y12409D01*
X15968Y11148D02*
Y12409D01*
X15996Y11148D02*
Y12409D01*
X16023Y11148D02*
Y12409D01*
X16050Y11148D02*
Y12409D01*
X16078Y11148D02*
Y12409D01*
X16105Y11148D02*
Y12409D01*
X16133Y11148D02*
Y12409D01*
X16160Y11148D02*
Y12409D01*
X16187Y11148D02*
Y12409D01*
X16215Y11148D02*
Y12409D01*
X16242Y11176D02*
Y12381D01*
X16270Y11176D02*
Y12381D01*
X16297Y11176D02*
Y12381D01*
X16324Y11203D02*
Y12354D01*
X16352Y11203D02*
Y12354D01*
X16379Y11231D02*
Y12326D01*
X16407Y11231D02*
Y12299D01*
X16434Y11258D02*
Y12299D01*
X16461Y11285D02*
Y12272D01*
X16489Y11313D02*
Y12244D01*
X16516Y11340D02*
Y12217D01*
X16544Y11368D02*
Y12190D01*
X16571Y11395D02*
Y12162D01*
X16598Y11450D02*
Y12107D01*
X16626Y11505D02*
Y12053D01*
X16653Y11559D02*
Y11998D01*
X16681Y11669D02*
Y11888D01*
D16*
X297612Y137200D02*
X297754D01*
X311806D02*
X311947D01*
X297565Y137153D02*
X297801D01*
X311759D02*
X311995D01*
X297518Y137105D02*
X297848D01*
X311712D02*
X312042D01*
X297471Y137058D02*
X297895D01*
X311665D02*
X312089D01*
X297424Y137011D02*
X297942D01*
X311617D02*
X312136D01*
X297376Y136964D02*
X297989D01*
X311570D02*
X312183D01*
X297329Y136917D02*
X298037D01*
X311523D02*
X312230D01*
X297329Y136870D02*
X298084D01*
X311476D02*
X312230D01*
X297282Y136822D02*
X298131D01*
X311429D02*
X312278D01*
X297235Y136775D02*
X298178D01*
X311382D02*
X312325D01*
X297188Y136728D02*
X298225D01*
X311334D02*
X312372D01*
X297141Y136681D02*
X298272D01*
X311287D02*
X312419D01*
X297093Y136634D02*
X298320D01*
X311240D02*
X312466D01*
X297046Y136587D02*
X298367D01*
X311193D02*
X312513D01*
X296999Y136539D02*
X298414D01*
X311146D02*
X312513D01*
X296999Y136492D02*
X298461D01*
X311099D02*
X312561D01*
X296952Y136445D02*
X298508D01*
X311052D02*
X312608D01*
X296905Y136398D02*
X298555D01*
X311004D02*
X312655D01*
X296858Y136351D02*
X298602D01*
X310957D02*
X312702D01*
X296858Y136304D02*
X298650D01*
X310910D02*
X312702D01*
X296811Y136257D02*
X298697D01*
X310863D02*
X312749D01*
X296763Y136209D02*
X298744D01*
X310816D02*
X312796D01*
X296716Y136162D02*
X298791D01*
X310769D02*
X312843D01*
X296669Y136115D02*
X298838D01*
X310721D02*
X312891D01*
X296669Y136068D02*
X298838D01*
X310721D02*
X312891D01*
X296622Y136021D02*
X298791D01*
X310769D02*
X312938D01*
X296575Y135974D02*
X298744D01*
X310816D02*
X312985D01*
X296575Y135926D02*
X298697D01*
X310816D02*
X312985D01*
X296528Y135879D02*
X298697D01*
X310863D02*
X313032D01*
X296480Y135832D02*
X298650D01*
X310910D02*
X313079D01*
X296480Y135785D02*
X298602D01*
X310957D02*
X313079D01*
X296433Y135738D02*
X298555D01*
X311004D02*
X313126D01*
X296386Y135691D02*
X298508D01*
X311052D02*
X313174D01*
X296386Y135643D02*
X298461D01*
X311099D02*
X313174D01*
X296339Y135596D02*
X298414D01*
X311146D02*
X313221D01*
X296292Y135549D02*
X298367D01*
X311193D02*
X313268D01*
X296292Y135502D02*
X298320D01*
X311240D02*
X313268D01*
X296245Y135455D02*
X298320D01*
X311240D02*
X313315D01*
X296198Y135408D02*
X298272D01*
X311287D02*
X313362D01*
X296198Y135361D02*
X298225D01*
X311334D02*
X313362D01*
X296150Y135313D02*
X298178D01*
X311382D02*
X313409D01*
X296103Y135266D02*
X298131D01*
X311429D02*
X313409D01*
X296103Y135219D02*
X298131D01*
X299593D02*
X299734D01*
X309873D02*
X309967D01*
X311429D02*
X313456D01*
X296056Y135172D02*
X298084D01*
X299546D02*
X299781D01*
X306383D02*
X306525D01*
X309825D02*
X310014D01*
X311476D02*
X313504D01*
X296056Y135125D02*
X298037D01*
X299498D02*
X299829D01*
X306147D02*
X306760D01*
X309778D02*
X310061D01*
X311523D02*
X313504D01*
X296009Y135078D02*
X297989D01*
X299451D02*
X299876D01*
X306006D02*
X306902D01*
X309731D02*
X310108D01*
X311570D02*
X313551D01*
X296009Y135030D02*
X297989D01*
X299404D02*
X299923D01*
X305911D02*
X306996D01*
X309684D02*
X310156D01*
X311570D02*
X313551D01*
X295962Y134983D02*
X297942D01*
X299357D02*
X299970D01*
X305817D02*
X307090D01*
X309637D02*
X310203D01*
X311617D02*
X313598D01*
X295962Y134936D02*
X297895D01*
X299310D02*
X300017D01*
X305770D02*
X307138D01*
X309590D02*
X310250D01*
X311665D02*
X313598D01*
X295915Y134889D02*
X297895D01*
X299263D02*
X300064D01*
X305723D02*
X307185D01*
X309542D02*
X310297D01*
X311665D02*
X313645D01*
X295867Y134842D02*
X297848D01*
X299263D02*
X300111D01*
X305676D02*
X307232D01*
X309495D02*
X310297D01*
X311712D02*
X313692D01*
X295867Y134795D02*
X297801D01*
X299216D02*
X300159D01*
X305629D02*
X307279D01*
X309448D02*
X310344D01*
X311759D02*
X313692D01*
X295820Y134748D02*
X297801D01*
X299168D02*
X300206D01*
X305581D02*
X307326D01*
X309401D02*
X310391D01*
X311759D02*
X313739D01*
X295820Y134700D02*
X297754D01*
X299121D02*
X300253D01*
X305534D02*
X307373D01*
X309354D02*
X310438D01*
X311806D02*
X313739D01*
X295773Y134653D02*
X297707D01*
X299074D02*
X300300D01*
X305534D02*
X307420D01*
X309307D02*
X310486D01*
X311853D02*
X313787D01*
X295773Y134606D02*
X297707D01*
X299074D02*
X300347D01*
X305487D02*
X307420D01*
X309260D02*
X310486D01*
X311853D02*
X313787D01*
X295726Y134559D02*
X297659D01*
X299027D02*
X300394D01*
X305440D02*
X307468D01*
X309212D02*
X310533D01*
X311900D02*
X313834D01*
X295726Y134512D02*
X297612D01*
X298980D02*
X300394D01*
X305440D02*
X307468D01*
X309165D02*
X310580D01*
X311947D02*
X313834D01*
X295679Y134465D02*
X297612D01*
X298933D02*
X300394D01*
X305393D02*
X307515D01*
X309165D02*
X310627D01*
X311947D02*
X313881D01*
X295679Y134417D02*
X297565D01*
X298885D02*
X300347D01*
X305393D02*
X307515D01*
X309212D02*
X310674D01*
X311995D02*
X313881D01*
X295632Y134370D02*
X297565D01*
X298885D02*
X300300D01*
X305393D02*
X307515D01*
X309260D02*
X310674D01*
X311995D02*
X313881D01*
X295632Y134323D02*
X297518D01*
X298838D02*
X300253D01*
X305393D02*
X307515D01*
X309307D02*
X310721D01*
X312042D02*
X313928D01*
X295632Y134276D02*
X297471D01*
X298791D02*
X300253D01*
X305346D02*
X307562D01*
X309307D02*
X310769D01*
X312089D02*
X313928D01*
X295585Y134229D02*
X297471D01*
X298791D02*
X300206D01*
X305346D02*
X307562D01*
X309354D02*
X310769D01*
X312089D02*
X313975D01*
X295585Y134182D02*
X297424D01*
X298744D02*
X300159D01*
X305346D02*
X307562D01*
X309401D02*
X310816D01*
X312136D02*
X313975D01*
X295537Y134134D02*
X297424D01*
X298697D02*
X300111D01*
X305346D02*
X307562D01*
X309448D02*
X310863D01*
X312136D02*
X314022D01*
X295537Y134087D02*
X297376D01*
X298697D02*
X300064D01*
X305346D02*
X307562D01*
X309495D02*
X310863D01*
X312183D02*
X314022D01*
X295490Y134040D02*
X297376D01*
X298650D02*
X300017D01*
X305346D02*
X307562D01*
X309542D02*
X310910D01*
X312183D02*
X314069D01*
X295490Y133993D02*
X297329D01*
X298602D02*
X299970D01*
X305346D02*
X307562D01*
X309590D02*
X310957D01*
X312230D02*
X314069D01*
X295490Y133946D02*
X297329D01*
X298602D02*
X299970D01*
X305346D02*
X307562D01*
X309590D02*
X310957D01*
X312230D02*
X314069D01*
X295443Y133899D02*
X297282D01*
X298555D02*
X299923D01*
X305346D02*
X307562D01*
X309637D02*
X311004D01*
X312278D02*
X314117D01*
X295443Y133852D02*
X297282D01*
X298555D02*
X299876D01*
X305346D02*
X307562D01*
X309684D02*
X311004D01*
X312278D02*
X314117D01*
X295396Y133805D02*
X297235D01*
X298508D02*
X299829D01*
X305346D02*
X307562D01*
X309731D02*
X311052D01*
X312325D02*
X314164D01*
X295396Y133757D02*
X297235D01*
X298461D02*
X299829D01*
X305393D02*
X307515D01*
X309731D02*
X311099D01*
X312325D02*
X314164D01*
X295396Y133710D02*
X297188D01*
X298461D02*
X299781D01*
X305393D02*
X307515D01*
X309778D02*
X311099D01*
X312372D02*
X314164D01*
X295349Y133663D02*
X297188D01*
X298414D02*
X299734D01*
X305393D02*
X307515D01*
X309825D02*
X311146D01*
X312372D02*
X314211D01*
X295349Y133616D02*
X297141D01*
X298414D02*
X299734D01*
X305440D02*
X307468D01*
X309825D02*
X311146D01*
X312419D02*
X314211D01*
X295302Y133569D02*
X297141D01*
X298367D02*
X299687D01*
X305440D02*
X307468D01*
X309873D02*
X311193D01*
X312419D02*
X314258D01*
X295302Y133521D02*
X297093D01*
X298367D02*
X299640D01*
X305487D02*
X307420D01*
X309920D02*
X311193D01*
X312466D02*
X314258D01*
X295302Y133474D02*
X297093D01*
X298320D02*
X299640D01*
X305487D02*
X307420D01*
X309920D02*
X311240D01*
X312466D02*
X314258D01*
X295254Y133427D02*
X297046D01*
X298320D02*
X299593D01*
X305534D02*
X307373D01*
X309967D02*
X311240D01*
X312466D02*
X314305D01*
X295254Y133380D02*
X297046D01*
X298272D02*
X299546D01*
X305581D02*
X307326D01*
X310014D02*
X311287D01*
X312513D02*
X314305D01*
X295254Y133333D02*
X297046D01*
X298272D02*
X299546D01*
X305629D02*
X307279D01*
X310014D02*
X311287D01*
X312513D02*
X314305D01*
X295207Y133286D02*
X296999D01*
X298225D02*
X299498D01*
X305629D02*
X307279D01*
X310061D02*
X311334D01*
X312561D02*
X314352D01*
X295207Y133239D02*
X296999D01*
X298225D02*
X299451D01*
X305723D02*
X307232D01*
X310108D02*
X311334D01*
X312561D02*
X314352D01*
X295207Y133192D02*
X296952D01*
X298178D02*
X299451D01*
X305770D02*
X307138D01*
X310108D02*
X311382D01*
X312608D02*
X314352D01*
X295160Y133144D02*
X296952D01*
X298178D02*
X299404D01*
X305817D02*
X307090D01*
X310156D02*
X311382D01*
X312608D02*
X314400D01*
X295160Y133097D02*
X296952D01*
X298131D02*
X299404D01*
X305911D02*
X307043D01*
X310156D02*
X311429D01*
X312608D02*
X314400D01*
X295160Y133050D02*
X296905D01*
X298131D02*
X299357D01*
X305959D02*
X306949D01*
X310203D02*
X311429D01*
X312655D02*
X314400D01*
X295160Y133003D02*
X296905D01*
X298131D02*
X299357D01*
X306100D02*
X306807D01*
X310203D02*
X311429D01*
X312655D02*
X314400D01*
X295113Y132956D02*
X296905D01*
X298084D02*
X299310D01*
X306289D02*
X306619D01*
X310250D02*
X311476D01*
X312655D02*
X314447D01*
X295113Y132908D02*
X296858D01*
X298084D02*
X299310D01*
X302752D02*
X305676D01*
X310250D02*
X311476D01*
X312702D02*
X314447D01*
X295113Y132861D02*
X296858D01*
X298037D02*
X299263D01*
X302705D02*
X305676D01*
X310297D02*
X311523D01*
X312702D02*
X314447D01*
X295066Y132814D02*
X296858D01*
X298037D02*
X299263D01*
X302705D02*
X305723D01*
X310297D02*
X311523D01*
X312702D02*
X314494D01*
X295066Y132767D02*
X296811D01*
X297989D02*
X299216D01*
X302658D02*
X305770D01*
X310344D02*
X311570D01*
X312749D02*
X314494D01*
X295066Y132720D02*
X296811D01*
X297989D02*
X299216D01*
X302658D02*
X305770D01*
X310344D02*
X311570D01*
X312749D02*
X314494D01*
X295066Y132673D02*
X296811D01*
X297989D02*
X299168D01*
X302611D02*
X305817D01*
X310391D02*
X311570D01*
X312749D02*
X314494D01*
X295019Y132626D02*
X296763D01*
X297942D02*
X299168D01*
X302611D02*
X305864D01*
X310391D02*
X311617D01*
X312796D02*
X314541D01*
X295019Y132578D02*
X296763D01*
X297942D02*
X299121D01*
X302564D02*
X305864D01*
X310438D02*
X311617D01*
X312796D02*
X314541D01*
X295019Y132531D02*
X296763D01*
X297942D02*
X299121D01*
X302564D02*
X305911D01*
X310438D02*
X311617D01*
X312796D02*
X314541D01*
X295019Y132484D02*
X296716D01*
X297895D02*
X299121D01*
X302516D02*
X305959D01*
X310438D02*
X311665D01*
X312843D02*
X314541D01*
X294971Y132437D02*
X296716D01*
X297895D02*
X299074D01*
X302516D02*
X305959D01*
X310486D02*
X311665D01*
X312843D02*
X314588D01*
X294971Y132390D02*
X296716D01*
X297895D02*
X299074D01*
X302469D02*
X306006D01*
X310486D02*
X311665D01*
X312843D02*
X314588D01*
X294971Y132343D02*
X296716D01*
X297848D02*
X299027D01*
X302469D02*
X306053D01*
X310533D02*
X311712D01*
X312843D02*
X314588D01*
X294971Y132296D02*
X296669D01*
X297848D02*
X299027D01*
X302422D02*
X306053D01*
X310533D02*
X311712D01*
X312891D02*
X314588D01*
X294971Y132248D02*
X296669D01*
X297848D02*
X299027D01*
X302422D02*
X306100D01*
X310533D02*
X311712D01*
X312891D02*
X314588D01*
X294924Y132201D02*
X296669D01*
X297801D02*
X298980D01*
X302375D02*
X306147D01*
X310580D02*
X311759D01*
X312891D02*
X314635D01*
X294924Y132154D02*
X296669D01*
X297801D02*
X298980D01*
X302375D02*
X306147D01*
X310580D02*
X311759D01*
X312891D02*
X314635D01*
X294924Y132107D02*
X296622D01*
X297801D02*
X298980D01*
X302328D02*
X306194D01*
X310580D02*
X311759D01*
X312938D02*
X314635D01*
X294924Y132060D02*
X296622D01*
X297801D02*
X298933D01*
X302328D02*
X306242D01*
X310627D02*
X311759D01*
X312938D02*
X314635D01*
X294924Y132013D02*
X296622D01*
X297754D02*
X298933D01*
X302281D02*
X306242D01*
X310627D02*
X311806D01*
X312938D02*
X314635D01*
X294877Y131965D02*
X296622D01*
X297754D02*
X298933D01*
X302281D02*
X306289D01*
X310627D02*
X311806D01*
X312938D02*
X314683D01*
X294877Y131918D02*
X296575D01*
X297754D02*
X298885D01*
X302233D02*
X306336D01*
X310674D02*
X311806D01*
X312985D02*
X314683D01*
X294877Y131871D02*
X296575D01*
X297754D02*
X298885D01*
X302233D02*
X306336D01*
X310674D02*
X311806D01*
X312985D02*
X314683D01*
X294877Y131824D02*
X296575D01*
X297707D02*
X298885D01*
X302186D02*
X303460D01*
X304403D02*
X306383D01*
X310674D02*
X311853D01*
X312985D02*
X314683D01*
X294877Y131777D02*
X296575D01*
X297707D02*
X298838D01*
X302186D02*
X303412D01*
X304403D02*
X306430D01*
X310721D02*
X311853D01*
X312985D02*
X314683D01*
X294877Y131730D02*
X296575D01*
X297707D02*
X298838D01*
X302139D02*
X303412D01*
X304403D02*
X306430D01*
X310721D02*
X311853D01*
X312985D02*
X314683D01*
X294830Y131683D02*
X296528D01*
X297707D02*
X298838D01*
X302139D02*
X303365D01*
X304355D02*
X306477D01*
X310721D02*
X311853D01*
X313032D02*
X314730D01*
X294830Y131635D02*
X296528D01*
X297659D02*
X298838D01*
X302092D02*
X303365D01*
X304355D02*
X306525D01*
X310721D02*
X311900D01*
X313032D02*
X314730D01*
X294830Y131588D02*
X296528D01*
X297659D02*
X298791D01*
X302092D02*
X303318D01*
X304308D02*
X306525D01*
X310769D02*
X311900D01*
X313032D02*
X314730D01*
X294830Y131541D02*
X296528D01*
X297659D02*
X298791D01*
X302045D02*
X303318D01*
X304308D02*
X306572D01*
X310769D02*
X311900D01*
X313032D02*
X314730D01*
X294830Y131494D02*
X296528D01*
X297659D02*
X298791D01*
X302045D02*
X303271D01*
X304261D02*
X306619D01*
X310769D02*
X311900D01*
X313032D02*
X314730D01*
X294830Y131447D02*
X296528D01*
X297659D02*
X298791D01*
X301998D02*
X303271D01*
X304261D02*
X306619D01*
X310769D02*
X311900D01*
X313032D02*
X314730D01*
X294830Y131400D02*
X296480D01*
X297612D02*
X298791D01*
X301998D02*
X303224D01*
X304214D02*
X306666D01*
X310769D02*
X311947D01*
X313079D02*
X314730D01*
X294783Y131352D02*
X296480D01*
X297612D02*
X298744D01*
X301951D02*
X303224D01*
X304214D02*
X306713D01*
X310816D02*
X311947D01*
X313079D02*
X314777D01*
X294783Y131305D02*
X296480D01*
X297612D02*
X298744D01*
X301951D02*
X303176D01*
X304167D02*
X306713D01*
X310816D02*
X311947D01*
X313079D02*
X314777D01*
X294783Y131258D02*
X296480D01*
X297612D02*
X298744D01*
X301903D02*
X303176D01*
X304167D02*
X308694D01*
X310816D02*
X311947D01*
X313079D02*
X314777D01*
X294783Y131211D02*
X296480D01*
X297612D02*
X298744D01*
X301903D02*
X303129D01*
X304120D02*
X305393D01*
X305440D02*
X308694D01*
X310816D02*
X311947D01*
X313079D02*
X314777D01*
X294783Y131164D02*
X296480D01*
X297612D02*
X298744D01*
X301856D02*
X303129D01*
X304120D02*
X305346D01*
X305487D02*
X308694D01*
X310816D02*
X311947D01*
X313079D02*
X314777D01*
X294783Y131117D02*
X296480D01*
X297612D02*
X298697D01*
X301856D02*
X303082D01*
X304072D02*
X305346D01*
X305534D02*
X308694D01*
X310863D02*
X311947D01*
X313079D02*
X314777D01*
X294783Y131070D02*
X296433D01*
X297565D02*
X298697D01*
X301809D02*
X303082D01*
X304072D02*
X305298D01*
X305534D02*
X308694D01*
X310863D02*
X311995D01*
X313126D02*
X314777D01*
X294783Y131022D02*
X296433D01*
X297565D02*
X298697D01*
X301809D02*
X303035D01*
X304025D02*
X305298D01*
X305581D02*
X308694D01*
X310863D02*
X311995D01*
X313126D02*
X314777D01*
X294783Y130975D02*
X296433D01*
X297565D02*
X298697D01*
X301762D02*
X303035D01*
X304025D02*
X305251D01*
X305629D02*
X308694D01*
X310863D02*
X311995D01*
X313126D02*
X314777D01*
X294783Y130928D02*
X296433D01*
X297565D02*
X298697D01*
X301762D02*
X302988D01*
X303978D02*
X305251D01*
X305629D02*
X308694D01*
X310863D02*
X311995D01*
X313126D02*
X314777D01*
X294736Y130881D02*
X296433D01*
X297565D02*
X298697D01*
X301715D02*
X302988D01*
X303978D02*
X305204D01*
X305676D02*
X308694D01*
X310863D02*
X311995D01*
X313126D02*
X314777D01*
X294736Y130834D02*
X296433D01*
X297565D02*
X298697D01*
X301715D02*
X302941D01*
X303931D02*
X305204D01*
X305723D02*
X308694D01*
X310863D02*
X311995D01*
X313126D02*
X314824D01*
X294736Y130787D02*
X296433D01*
X297565D02*
X298697D01*
X301667D02*
X302941D01*
X303931D02*
X305157D01*
X305723D02*
X308694D01*
X310863D02*
X311995D01*
X313126D02*
X314824D01*
X294736Y130739D02*
X296433D01*
X297565D02*
X298650D01*
X301667D02*
X302894D01*
X303884D02*
X305157D01*
X305770D02*
X308694D01*
X310910D02*
X311995D01*
X313126D02*
X314824D01*
X294736Y130692D02*
X296433D01*
X297565D02*
X298650D01*
X301620D02*
X302894D01*
X303884D02*
X305110D01*
X305817D02*
X308694D01*
X310910D02*
X311995D01*
X313126D02*
X314824D01*
X294736Y130645D02*
X296433D01*
X297565D02*
X298650D01*
X301620D02*
X302846D01*
X303837D02*
X305110D01*
X305817D02*
X308694D01*
X310910D02*
X311995D01*
X313126D02*
X314824D01*
X294736Y130598D02*
X296433D01*
X297518D02*
X298650D01*
X301573D02*
X302846D01*
X303837D02*
X305063D01*
X305864D02*
X308694D01*
X310910D02*
X312042D01*
X313126D02*
X314824D01*
X294736Y130551D02*
X296433D01*
X297518D02*
X298650D01*
X301573D02*
X302799D01*
X303789D02*
X305063D01*
X305911D02*
X308694D01*
X310910D02*
X312042D01*
X313126D02*
X314824D01*
X294736Y130504D02*
X296433D01*
X297518D02*
X298650D01*
X301526D02*
X302799D01*
X303789D02*
X305016D01*
X305911D02*
X308694D01*
X310910D02*
X312042D01*
X313126D02*
X314824D01*
X294736Y130456D02*
X296433D01*
X297518D02*
X298650D01*
X301526D02*
X302752D01*
X303742D02*
X305016D01*
X305959D02*
X308694D01*
X310910D02*
X312042D01*
X313126D02*
X314824D01*
X294736Y130409D02*
X296433D01*
X297518D02*
X298650D01*
X301479D02*
X302752D01*
X303742D02*
X304968D01*
X306006D02*
X308694D01*
X310910D02*
X312042D01*
X313126D02*
X314824D01*
X294736Y130362D02*
X296433D01*
X297518D02*
X298650D01*
X301573D02*
X302705D01*
X303695D02*
X304968D01*
X306006D02*
X308694D01*
X310910D02*
X312042D01*
X313126D02*
X314824D01*
X294736Y130315D02*
X296386D01*
X297518D02*
X298650D01*
X301667D02*
X302705D01*
X303695D02*
X304921D01*
X306053D02*
X308694D01*
X310910D02*
X312042D01*
X313174D02*
X314824D01*
X294736Y130268D02*
X296386D01*
X297518D02*
X298650D01*
X301762D02*
X302658D01*
X303648D02*
X304921D01*
X306100D02*
X308694D01*
X310910D02*
X312042D01*
X313174D02*
X314824D01*
X294736Y130221D02*
X296386D01*
X297518D02*
X298650D01*
X301856D02*
X302658D01*
X303648D02*
X304874D01*
X306100D02*
X308694D01*
X310910D02*
X312042D01*
X313174D02*
X314824D01*
X294736Y130174D02*
X296386D01*
X297518D02*
X298650D01*
X301951D02*
X302611D01*
X303601D02*
X304874D01*
X306147D02*
X308694D01*
X310910D02*
X312042D01*
X313174D02*
X314824D01*
X294736Y130126D02*
X296386D01*
X297518D02*
X298650D01*
X302045D02*
X302611D01*
X303601D02*
X304874D01*
X310910D02*
X312042D01*
X313174D02*
X314824D01*
X294736Y130079D02*
X296386D01*
X297518D02*
X298650D01*
X302139D02*
X302564D01*
X303554D02*
X304874D01*
X310910D02*
X312042D01*
X313174D02*
X314824D01*
X294736Y130032D02*
X296386D01*
X297518D02*
X298650D01*
X302233D02*
X302564D01*
X303554D02*
X304921D01*
X310910D02*
X312042D01*
X313174D02*
X314824D01*
X294736Y129985D02*
X296386D01*
X297518D02*
X298650D01*
X302328D02*
X302516D01*
X303507D02*
X304921D01*
X310910D02*
X312042D01*
X313174D02*
X314824D01*
X294736Y129938D02*
X296433D01*
X297518D02*
X298650D01*
X302422D02*
X302516D01*
X303507D02*
X304968D01*
X310910D02*
X312042D01*
X313126D02*
X314824D01*
X294736Y129891D02*
X296433D01*
X297518D02*
X298650D01*
X303460D02*
X304968D01*
X310910D02*
X312042D01*
X313126D02*
X314824D01*
X294736Y129843D02*
X296433D01*
X297518D02*
X298650D01*
X303460D02*
X305016D01*
X310910D02*
X312042D01*
X313126D02*
X314824D01*
X294736Y129796D02*
X296433D01*
X297518D02*
X298650D01*
X303412D02*
X305016D01*
X310910D02*
X312042D01*
X313126D02*
X314824D01*
X294736Y129749D02*
X296433D01*
X297518D02*
X298650D01*
X303412D02*
X305063D01*
X310910D02*
X312042D01*
X313126D02*
X314824D01*
X294736Y129702D02*
X296433D01*
X297518D02*
X298650D01*
X303365D02*
X305063D01*
X310910D02*
X312042D01*
X313126D02*
X314824D01*
X294736Y129655D02*
X296433D01*
X297565D02*
X298650D01*
X303365D02*
X305110D01*
X310910D02*
X311995D01*
X313126D02*
X314824D01*
X294736Y129608D02*
X296433D01*
X297565D02*
X298650D01*
X303318D02*
X305110D01*
X310910D02*
X311995D01*
X313126D02*
X314824D01*
X294736Y129560D02*
X296433D01*
X297565D02*
X298650D01*
X303318D02*
X305157D01*
X310910D02*
X311995D01*
X313126D02*
X314824D01*
X294736Y129513D02*
X296433D01*
X297565D02*
X298697D01*
X303271D02*
X305157D01*
X310863D02*
X311995D01*
X313126D02*
X314824D01*
X294736Y129466D02*
X296433D01*
X297565D02*
X298697D01*
X303271D02*
X305204D01*
X310863D02*
X311995D01*
X313126D02*
X314824D01*
X294783Y129419D02*
X296433D01*
X297565D02*
X298697D01*
X303224D02*
X305204D01*
X310863D02*
X311995D01*
X313126D02*
X314777D01*
X294783Y129372D02*
X296433D01*
X297565D02*
X298697D01*
X303224D02*
X305251D01*
X310863D02*
X311995D01*
X313126D02*
X314777D01*
X294783Y129325D02*
X296433D01*
X297565D02*
X298697D01*
X303176D02*
X305251D01*
X310863D02*
X311995D01*
X313126D02*
X314777D01*
X294783Y129278D02*
X296433D01*
X297565D02*
X298697D01*
X303176D02*
X305298D01*
X310863D02*
X311995D01*
X313126D02*
X314777D01*
X294783Y129230D02*
X296433D01*
X297565D02*
X298697D01*
X303129D02*
X305298D01*
X310863D02*
X311995D01*
X313079D02*
X314777D01*
X294783Y129183D02*
X296480D01*
X297612D02*
X298697D01*
X303129D02*
X305346D01*
X310863D02*
X311947D01*
X313079D02*
X314777D01*
X294783Y129136D02*
X296480D01*
X297612D02*
X298744D01*
X303082D02*
X305346D01*
X310816D02*
X311947D01*
X313079D02*
X314777D01*
X294783Y129089D02*
X296480D01*
X297612D02*
X298744D01*
X303082D02*
X305393D01*
X310816D02*
X311947D01*
X313079D02*
X314777D01*
X294783Y129042D02*
X296480D01*
X297612D02*
X298744D01*
X303035D02*
X305393D01*
X310816D02*
X311947D01*
X313079D02*
X314777D01*
X294783Y128995D02*
X296480D01*
X297612D02*
X298744D01*
X303035D02*
X305440D01*
X310816D02*
X311947D01*
X313079D02*
X314777D01*
X294783Y128947D02*
X296480D01*
X297612D02*
X298744D01*
X302988D02*
X305440D01*
X310816D02*
X311947D01*
X313079D02*
X314777D01*
X294830Y128900D02*
X296480D01*
X297612D02*
X298791D01*
X302988D02*
X305487D01*
X310769D02*
X311947D01*
X313079D02*
X314730D01*
X294830Y128853D02*
X296528D01*
X297659D02*
X298791D01*
X302941D02*
X304214D01*
X304261D02*
X305487D01*
X310769D02*
X311900D01*
X313032D02*
X314730D01*
X294830Y128806D02*
X296528D01*
X297659D02*
X298791D01*
X302941D02*
X304167D01*
X304261D02*
X305534D01*
X310769D02*
X311900D01*
X313032D02*
X314730D01*
X294830Y128759D02*
X296528D01*
X297659D02*
X298791D01*
X302894D02*
X304167D01*
X304308D02*
X305534D01*
X310769D02*
X311900D01*
X313032D02*
X314730D01*
X294830Y128712D02*
X296528D01*
X297659D02*
X298791D01*
X302894D02*
X304120D01*
X304308D02*
X305581D01*
X310769D02*
X311900D01*
X313032D02*
X314730D01*
X294830Y128665D02*
X296528D01*
X297659D02*
X298838D01*
X302846D02*
X304120D01*
X304355D02*
X305581D01*
X310721D02*
X311900D01*
X313032D02*
X314730D01*
X294830Y128617D02*
X296528D01*
X297707D02*
X298838D01*
X302846D02*
X304072D01*
X304355D02*
X305629D01*
X310721D02*
X311853D01*
X313032D02*
X314730D01*
X294877Y128570D02*
X296575D01*
X297707D02*
X298838D01*
X302799D02*
X304072D01*
X304403D02*
X305629D01*
X310721D02*
X311853D01*
X312985D02*
X314683D01*
X294877Y128523D02*
X296575D01*
X297707D02*
X298838D01*
X302799D02*
X304025D01*
X304403D02*
X305676D01*
X310721D02*
X311853D01*
X312985D02*
X314683D01*
X294877Y128476D02*
X296575D01*
X297707D02*
X298885D01*
X302752D02*
X304025D01*
X304450D02*
X305676D01*
X310674D02*
X311853D01*
X312985D02*
X314683D01*
X294877Y128429D02*
X296575D01*
X297754D02*
X298885D01*
X300866D02*
X303978D01*
X304450D02*
X305723D01*
X310674D02*
X311806D01*
X312985D02*
X314683D01*
X294877Y128382D02*
X296575D01*
X297754D02*
X298885D01*
X300866D02*
X303978D01*
X304497D02*
X305723D01*
X310674D02*
X311806D01*
X312985D02*
X314683D01*
X294877Y128334D02*
X296622D01*
X297754D02*
X298933D01*
X300866D02*
X303931D01*
X304497D02*
X305770D01*
X310627D02*
X311806D01*
X312938D02*
X314683D01*
X294924Y128287D02*
X296622D01*
X297754D02*
X298933D01*
X300866D02*
X303931D01*
X304544D02*
X305770D01*
X310627D02*
X311806D01*
X312938D02*
X314635D01*
X294924Y128240D02*
X296622D01*
X297801D02*
X298933D01*
X300866D02*
X303884D01*
X304544D02*
X305817D01*
X310627D02*
X311759D01*
X312938D02*
X314635D01*
X294924Y128193D02*
X296622D01*
X297801D02*
X298980D01*
X300866D02*
X303884D01*
X304591D02*
X305817D01*
X310580D02*
X311759D01*
X312938D02*
X314635D01*
X294924Y128146D02*
X296669D01*
X297801D02*
X298980D01*
X300866D02*
X303837D01*
X304591D02*
X305864D01*
X310580D02*
X311759D01*
X312891D02*
X314635D01*
X294924Y128099D02*
X296669D01*
X297801D02*
X298980D01*
X300866D02*
X303837D01*
X304638D02*
X305864D01*
X310580D02*
X311759D01*
X312891D02*
X314635D01*
X294971Y128051D02*
X296669D01*
X297848D02*
X299027D01*
X300866D02*
X303789D01*
X304638D02*
X305911D01*
X310533D02*
X311712D01*
X312891D02*
X314588D01*
X294971Y128004D02*
X296669D01*
X297848D02*
X299027D01*
X300866D02*
X303789D01*
X304685D02*
X305911D01*
X310533D02*
X311712D01*
X312891D02*
X314588D01*
X294971Y127957D02*
X296716D01*
X297848D02*
X299027D01*
X300866D02*
X303742D01*
X304685D02*
X305959D01*
X310533D02*
X311712D01*
X312843D02*
X314588D01*
X294971Y127910D02*
X296716D01*
X297895D02*
X299074D01*
X300866D02*
X303742D01*
X304733D02*
X305959D01*
X310486D02*
X311665D01*
X312843D02*
X314588D01*
X294971Y127863D02*
X296716D01*
X297895D02*
X299074D01*
X300866D02*
X303695D01*
X304733D02*
X306006D01*
X310486D02*
X311665D01*
X312843D02*
X314588D01*
X295019Y127816D02*
X296716D01*
X297895D02*
X299121D01*
X300866D02*
X303695D01*
X304780D02*
X306006D01*
X310438D02*
X311665D01*
X312843D02*
X314541D01*
X295019Y127769D02*
X296763D01*
X297942D02*
X299121D01*
X300866D02*
X303648D01*
X304780D02*
X306053D01*
X310438D02*
X311617D01*
X312796D02*
X314541D01*
X295019Y127721D02*
X296763D01*
X297942D02*
X299121D01*
X300866D02*
X303648D01*
X304827D02*
X306053D01*
X310438D02*
X311617D01*
X312796D02*
X314541D01*
X295019Y127674D02*
X296763D01*
X297942D02*
X299168D01*
X300866D02*
X303601D01*
X304827D02*
X306100D01*
X310391D02*
X311617D01*
X312796D02*
X314541D01*
X295066Y127627D02*
X296811D01*
X297989D02*
X299168D01*
X300866D02*
X303601D01*
X304874D02*
X306100D01*
X310391D02*
X311570D01*
X312749D02*
X314494D01*
X295066Y127580D02*
X296811D01*
X297989D02*
X299216D01*
X300866D02*
X303554D01*
X304874D02*
X306147D01*
X310344D02*
X311570D01*
X312749D02*
X314494D01*
X295066Y127533D02*
X296811D01*
X297989D02*
X299216D01*
X300866D02*
X303554D01*
X304921D02*
X306147D01*
X310344D02*
X311570D01*
X312749D02*
X314494D01*
X295066Y127486D02*
X296858D01*
X298037D02*
X299263D01*
X300866D02*
X303507D01*
X304921D02*
X306194D01*
X310297D02*
X311523D01*
X312702D02*
X314494D01*
X295113Y127438D02*
X296858D01*
X298037D02*
X299263D01*
X300866D02*
X303507D01*
X304968D02*
X306194D01*
X310297D02*
X311523D01*
X312702D02*
X314447D01*
X295113Y127391D02*
X296858D01*
X298084D02*
X299310D01*
X300866D02*
X303460D01*
X304968D02*
X306242D01*
X310250D02*
X311476D01*
X312702D02*
X314447D01*
X295113Y127344D02*
X296905D01*
X298084D02*
X299310D01*
X305016D02*
X306242D01*
X310250D02*
X311476D01*
X312655D02*
X314447D01*
X295160Y127297D02*
X296905D01*
X298131D02*
X299357D01*
X305016D02*
X306289D01*
X310203D02*
X311429D01*
X312655D02*
X314400D01*
X295160Y127250D02*
X296905D01*
X298131D02*
X299357D01*
X305063D02*
X306289D01*
X310203D02*
X311429D01*
X312655D02*
X314400D01*
X295160Y127203D02*
X296952D01*
X298131D02*
X299404D01*
X305063D02*
X306336D01*
X310156D02*
X311429D01*
X312608D02*
X314400D01*
X295160Y127155D02*
X296952D01*
X298178D02*
X299404D01*
X305110D02*
X306336D01*
X310156D02*
X311382D01*
X312608D02*
X314352D01*
X295207Y127108D02*
X296952D01*
X298178D02*
X299451D01*
X305110D02*
X306383D01*
X310108D02*
X311382D01*
X312608D02*
X314352D01*
X295207Y127061D02*
X296999D01*
X298225D02*
X299451D01*
X305157D02*
X306383D01*
X310108D02*
X311334D01*
X312561D02*
X314352D01*
X295207Y127014D02*
X296999D01*
X298225D02*
X299498D01*
X305157D02*
X306430D01*
X310061D02*
X311334D01*
X312561D02*
X314352D01*
X295254Y126967D02*
X297046D01*
X298272D02*
X299546D01*
X305204D02*
X306430D01*
X310014D02*
X311287D01*
X312513D02*
X314305D01*
X295254Y126920D02*
X297046D01*
X298272D02*
X299546D01*
X305204D02*
X306477D01*
X310014D02*
X311287D01*
X312513D02*
X314305D01*
X295254Y126873D02*
X297093D01*
X298320D02*
X299593D01*
X305251D02*
X306477D01*
X309967D02*
X311240D01*
X312466D02*
X314305D01*
X295302Y126825D02*
X297093D01*
X298320D02*
X299640D01*
X305251D02*
X306525D01*
X309920D02*
X311240D01*
X312466D02*
X314258D01*
X295302Y126778D02*
X297093D01*
X298367D02*
X299640D01*
X305298D02*
X306525D01*
X309920D02*
X311193D01*
X312466D02*
X314258D01*
X295302Y126731D02*
X297141D01*
X298367D02*
X299687D01*
X305298D02*
X306572D01*
X309873D02*
X311193D01*
X312419D02*
X314211D01*
X295349Y126684D02*
X297141D01*
X298414D02*
X299734D01*
X305346D02*
X306572D01*
X309825D02*
X311146D01*
X312419D02*
X314211D01*
X295349Y126637D02*
X297188D01*
X298414D02*
X299734D01*
X305346D02*
X306619D01*
X309825D02*
X311146D01*
X312372D02*
X314211D01*
X295396Y126590D02*
X297188D01*
X298461D02*
X299781D01*
X305393D02*
X306619D01*
X309778D02*
X311099D01*
X312372D02*
X314164D01*
X295396Y126542D02*
X297235D01*
X298461D02*
X299829D01*
X305393D02*
X306666D01*
X309731D02*
X311099D01*
X312325D02*
X314164D01*
X295396Y126495D02*
X297235D01*
X298508D02*
X299829D01*
X305440D02*
X306666D01*
X309731D02*
X311052D01*
X312325D02*
X314164D01*
X295443Y126448D02*
X297282D01*
X298555D02*
X299876D01*
X305440D02*
X306713D01*
X309684D02*
X311004D01*
X312278D02*
X314117D01*
X295443Y126401D02*
X297282D01*
X298555D02*
X299923D01*
X305487D02*
X306713D01*
X309637D02*
X311004D01*
X312278D02*
X314117D01*
X295490Y126354D02*
X297329D01*
X298602D02*
X299970D01*
X305487D02*
X306760D01*
X309590D02*
X310957D01*
X312230D02*
X314069D01*
X295490Y126307D02*
X297329D01*
X298602D02*
X299970D01*
X305534D02*
X306760D01*
X309590D02*
X310957D01*
X312230D02*
X314069D01*
X295490Y126260D02*
X297376D01*
X298650D02*
X300017D01*
X305534D02*
X306807D01*
X309542D02*
X310910D01*
X312183D02*
X314069D01*
X295537Y126212D02*
X297376D01*
X298697D02*
X300064D01*
X305581D02*
X306807D01*
X309495D02*
X310863D01*
X312183D02*
X314022D01*
X295537Y126165D02*
X297424D01*
X298697D02*
X300111D01*
X305581D02*
X306855D01*
X309448D02*
X310863D01*
X312136D02*
X314022D01*
X295585Y126118D02*
X297424D01*
X298744D02*
X300159D01*
X305629D02*
X306855D01*
X309401D02*
X310816D01*
X312136D02*
X313975D01*
X295585Y126071D02*
X297471D01*
X298791D02*
X300206D01*
X305629D02*
X306902D01*
X309354D02*
X310769D01*
X312089D02*
X313975D01*
X295632Y126024D02*
X297471D01*
X298791D02*
X300253D01*
X305676D02*
X306902D01*
X309307D02*
X310769D01*
X312089D02*
X313928D01*
X295632Y125977D02*
X297518D01*
X298838D02*
X300253D01*
X305676D02*
X306949D01*
X309260D02*
X310721D01*
X312042D02*
X313928D01*
X295679Y125929D02*
X297565D01*
X298885D02*
X300300D01*
X305723D02*
X306949D01*
X309260D02*
X310674D01*
X311995D02*
X313881D01*
X295679Y125882D02*
X297565D01*
X298933D02*
X300347D01*
X305723D02*
X306855D01*
X309212D02*
X310627D01*
X311995D02*
X313881D01*
X295679Y125835D02*
X297612D01*
X298933D02*
X300394D01*
X305770D02*
X306760D01*
X309165D02*
X310627D01*
X311947D02*
X313881D01*
X295726Y125788D02*
X297612D01*
X298980D02*
X300394D01*
X305770D02*
X306666D01*
X309165D02*
X310580D01*
X311947D02*
X313834D01*
X295726Y125741D02*
X297659D01*
X299027D02*
X300394D01*
X305817D02*
X306572D01*
X309212D02*
X310533D01*
X311900D02*
X313834D01*
X295773Y125694D02*
X297707D01*
X299074D02*
X300347D01*
X305817D02*
X306477D01*
X309260D02*
X310486D01*
X311853D02*
X313787D01*
X295773Y125647D02*
X297707D01*
X299074D02*
X300300D01*
X305864D02*
X306383D01*
X309307D02*
X310486D01*
X311853D02*
X313787D01*
X295820Y125599D02*
X297754D01*
X299121D02*
X300253D01*
X305864D02*
X306289D01*
X309354D02*
X310438D01*
X311806D02*
X313739D01*
X295820Y125552D02*
X297801D01*
X299168D02*
X300206D01*
X305911D02*
X306194D01*
X309354D02*
X310391D01*
X311759D02*
X313739D01*
X295867Y125505D02*
X297801D01*
X299216D02*
X300159D01*
X305911D02*
X306100D01*
X309448D02*
X310344D01*
X311759D02*
X313692D01*
X295867Y125458D02*
X297848D01*
X299263D02*
X300111D01*
X305959D02*
X306006D01*
X309495D02*
X310297D01*
X311712D02*
X313692D01*
X295915Y125411D02*
X297895D01*
X299263D02*
X300064D01*
X309542D02*
X310297D01*
X311665D02*
X313645D01*
X295962Y125364D02*
X297895D01*
X299310D02*
X300017D01*
X309590D02*
X310250D01*
X311665D02*
X313598D01*
X295962Y125317D02*
X297942D01*
X299357D02*
X299970D01*
X309637D02*
X310203D01*
X311617D02*
X313598D01*
X296009Y125269D02*
X297989D01*
X299404D02*
X299923D01*
X309637D02*
X310156D01*
X311570D02*
X313551D01*
X296009Y125222D02*
X297989D01*
X299451D02*
X299876D01*
X309731D02*
X310108D01*
X311570D02*
X313551D01*
X296056Y125175D02*
X298037D01*
X299498D02*
X299829D01*
X309778D02*
X310061D01*
X311523D02*
X313504D01*
X296056Y125128D02*
X298084D01*
X299546D02*
X299781D01*
X309825D02*
X310014D01*
X311476D02*
X313504D01*
X296103Y125081D02*
X298131D01*
X299593D02*
X299734D01*
X309873D02*
X309967D01*
X311429D02*
X313456D01*
X296150Y125033D02*
X298131D01*
X311429D02*
X313409D01*
X296150Y124986D02*
X298178D01*
X311382D02*
X313409D01*
X296198Y124939D02*
X298225D01*
X311334D02*
X313362D01*
X296198Y124892D02*
X298272D01*
X311287D02*
X313362D01*
X296245Y124845D02*
X298320D01*
X311240D02*
X313315D01*
X296292Y124798D02*
X298320D01*
X311240D02*
X313268D01*
X296292Y124751D02*
X298367D01*
X311193D02*
X313268D01*
X296339Y124703D02*
X298414D01*
X311146D02*
X313221D01*
X296386Y124656D02*
X298461D01*
X311099D02*
X313174D01*
X296386Y124609D02*
X298508D01*
X311052D02*
X313174D01*
X296433Y124562D02*
X298555D01*
X311004D02*
X313126D01*
X296480Y124515D02*
X298602D01*
X310957D02*
X313079D01*
X296480Y124468D02*
X298650D01*
X310910D02*
X313079D01*
X296528Y124420D02*
X298697D01*
X310863D02*
X313032D01*
X296575Y124373D02*
X298697D01*
X310816D02*
X312985D01*
X296575Y124326D02*
X298744D01*
X310816D02*
X312985D01*
X296622Y124279D02*
X298791D01*
X310769D02*
X312938D01*
X296669Y124232D02*
X298838D01*
X310721D02*
X312891D01*
X296669Y124185D02*
X298838D01*
X310721D02*
X312891D01*
X296716Y124138D02*
X298791D01*
X310816D02*
X312843D01*
X296763Y124090D02*
X298744D01*
X310863D02*
X312796D01*
X296811Y124043D02*
X298697D01*
X310910D02*
X312749D01*
X296858Y123996D02*
X298650D01*
X310957D02*
X312702D01*
X296858Y123949D02*
X298602D01*
X311004D02*
X312702D01*
X296905Y123902D02*
X298555D01*
X311052D02*
X312655D01*
X296952Y123855D02*
X298508D01*
X311099D02*
X312608D01*
X296999Y123808D02*
X298461D01*
X311146D02*
X312561D01*
X297046Y123760D02*
X298414D01*
X311193D02*
X312513D01*
X297046Y123713D02*
X298367D01*
X311240D02*
X312513D01*
X297093Y123666D02*
X298320D01*
X311287D02*
X312466D01*
X297141Y123619D02*
X298272D01*
X311287D02*
X312419D01*
X297188Y123572D02*
X298225D01*
X311334D02*
X312372D01*
X297235Y123525D02*
X298178D01*
X311382D02*
X312325D01*
X297282Y123477D02*
X298131D01*
X311429D02*
X312278D01*
X297329Y123430D02*
X298084D01*
X311476D02*
X312230D01*
X297329Y123383D02*
X298037D01*
X311523D02*
X312230D01*
X297376Y123336D02*
X297989D01*
X311570D02*
X312183D01*
X297424Y123289D02*
X297942D01*
X311617D02*
X312136D01*
X297471Y123242D02*
X297895D01*
X311665D02*
X312089D01*
X297518Y123195D02*
X297848D01*
X311712D02*
X312042D01*
X297565Y123147D02*
X297801D01*
X311759D02*
X311995D01*
X297612Y123100D02*
X297754D01*
X311806D02*
X311947D01*
D17*
X48819Y209055D02*
Y319291D01*
Y209055D02*
X179528Y209055D01*
Y319291D01*
X48819Y319291D02*
X179528Y319291D01*
D18*
X338795Y105723D02*
Y101787D01*
X340763D01*
X341419Y102443D01*
Y105067D01*
X340763Y105723D01*
X338795D01*
X341025Y129083D02*
X340370Y129739D01*
X339057D01*
X338402Y129083D01*
Y128427D01*
X339057Y127771D01*
X340370D01*
X341025Y127115D01*
Y126459D01*
X340370Y125803D01*
X339057D01*
X338402Y126459D01*
X326852Y129083D02*
X326196Y129739D01*
X324884D01*
X324228Y129083D01*
Y126459D01*
X324884Y125803D01*
X326196D01*
X326852Y126459D01*
Y127771D01*
X325540D01*
X267732Y55921D02*
X269732D01*
X268732D01*
Y61919D01*
X267732Y60920D01*
X134000Y177354D02*
X133000Y178354D01*
Y180353D01*
X132001Y181353D01*
X134000Y197433D02*
X133000Y198433D01*
Y200432D01*
X132001Y201432D01*
D19*
X158662Y105841D02*
X161811Y107940D01*
X158662D02*
X161811Y105841D01*
Y111088D02*
Y108989D01*
X159711Y111088D01*
X159187D01*
X158662Y110564D01*
Y109514D01*
X159187Y108989D01*
X171917Y159842D02*
X174016Y156693D01*
Y159842D02*
X171917Y156693D01*
X175065D02*
X176115D01*
X175590D01*
Y159842D01*
X175065Y159317D01*
X199280Y27165D02*
Y24541D01*
X199805Y24016D01*
X200854D01*
X201379Y24541D01*
Y27165D01*
X204528Y26640D02*
X204003Y27165D01*
X202953D01*
X202429Y26640D01*
Y26115D01*
X202953Y25591D01*
X204003D01*
X204528Y25066D01*
Y24541D01*
X204003Y24016D01*
X202953D01*
X202429Y24541D01*
X205577Y27165D02*
Y24016D01*
X207151D01*
X207676Y24541D01*
Y25066D01*
X207151Y25591D01*
X205577D01*
X207151D01*
X207676Y26115D01*
Y26640D01*
X207151Y27165D01*
X205577D01*
X208726Y24016D02*
X209775D01*
X209250D01*
Y27165D01*
X208726Y26640D01*
X236353Y106496D02*
Y103872D01*
X236877Y103347D01*
X237927D01*
X238452Y103872D01*
Y106496D01*
X239501D02*
X241600D01*
Y105971D01*
X239501Y103872D01*
Y103347D01*
X179857Y84251D02*
Y81628D01*
X180381Y81103D01*
X181431D01*
X181956Y81628D01*
Y84251D01*
X185104D02*
X184055Y83727D01*
X183005Y82677D01*
Y81628D01*
X183530Y81103D01*
X184579D01*
X185104Y81628D01*
Y82152D01*
X184579Y82677D01*
X183005D01*
X206628Y40747D02*
Y38124D01*
X207153Y37599D01*
X208202D01*
X208727Y38124D01*
Y40747D01*
X211876D02*
X209777D01*
Y39173D01*
X210826Y39698D01*
X211351D01*
X211876Y39173D01*
Y38124D01*
X211351Y37599D01*
X210301D01*
X209777Y38124D01*
X2494Y101377D02*
Y98754D01*
X3019Y98229D01*
X4069D01*
X4593Y98754D01*
Y101377D01*
X7217Y98229D02*
Y101377D01*
X5643Y99803D01*
X7742D01*
X232809Y166141D02*
Y163517D01*
X233334Y162993D01*
X234384D01*
X234908Y163517D01*
Y166141D01*
X235958Y165617D02*
X236483Y166141D01*
X237532D01*
X238057Y165617D01*
Y165092D01*
X237532Y164567D01*
X237007D01*
X237532D01*
X238057Y164042D01*
Y163517D01*
X237532Y162993D01*
X236483D01*
X235958Y163517D01*
X89896Y119685D02*
Y117061D01*
X90421Y116536D01*
X91470D01*
X91995Y117061D01*
Y119685D01*
X95144Y116536D02*
X93045D01*
X95144Y118635D01*
Y119160D01*
X94619Y119685D01*
X93569D01*
X93045Y119160D01*
X127625Y168897D02*
Y166273D01*
X128150Y165749D01*
X129200D01*
X129724Y166273D01*
Y168897D01*
X130774Y165749D02*
X131824D01*
X131299D01*
Y168897D01*
X130774Y168372D01*
X110300Y265790D02*
X112399D01*
X111349D01*
Y262641D01*
X113449D02*
X114498D01*
X113973D01*
Y265790D01*
X113449Y265265D01*
X106693Y22506D02*
X106169Y23031D01*
X105119D01*
X104594Y22506D01*
Y21982D01*
X105119Y21457D01*
X106169D01*
X106693Y20932D01*
Y20407D01*
X106169Y19882D01*
X105119D01*
X104594Y20407D01*
X107743Y23031D02*
Y19882D01*
X108792Y20932D01*
X109842Y19882D01*
Y23031D01*
X110892Y19882D02*
X111941D01*
X111416D01*
Y23031D01*
X110892Y22506D01*
X347243Y97703D02*
X346718Y98228D01*
X345669D01*
X345144Y97703D01*
Y97178D01*
X345669Y96653D01*
X346718D01*
X347243Y96129D01*
Y95604D01*
X346718Y95079D01*
X345669D01*
X345144Y95604D01*
X348293Y95079D02*
X349342D01*
X348817D01*
Y98228D01*
X348293Y97703D01*
X237337Y325197D02*
Y328346D01*
X238912D01*
X239436Y327821D01*
Y326772D01*
X238912Y326247D01*
X237337D01*
X238387D02*
X239436Y325197D01*
X240486Y328346D02*
Y325197D01*
X242585D01*
X245734D02*
X243635D01*
X245734Y327296D01*
Y327821D01*
X245209Y328346D01*
X244159D01*
X243635Y327821D01*
X186287Y325197D02*
Y328346D01*
X187862D01*
X188386Y327821D01*
Y326772D01*
X187862Y326247D01*
X186287D01*
X187337D02*
X188386Y325197D01*
X189436Y328346D02*
Y325197D01*
X191535D01*
X192585D02*
X193634D01*
X193109D01*
Y328346D01*
X192585Y327821D01*
X340946Y70867D02*
Y74015D01*
X342520D01*
X343045Y73491D01*
Y72441D01*
X342520Y71916D01*
X340946D01*
X341995D02*
X343045Y70867D01*
X346194D02*
X344094D01*
X346194Y72966D01*
Y73491D01*
X345669Y74015D01*
X344619D01*
X344094Y73491D01*
X347243D02*
X347768Y74015D01*
X348817D01*
X349342Y73491D01*
Y72966D01*
X348817Y72441D01*
X349342Y71916D01*
Y71391D01*
X348817Y70867D01*
X347768D01*
X347243Y71391D01*
Y71916D01*
X347768Y72441D01*
X347243Y72966D01*
Y73491D01*
X347768Y72441D02*
X348817D01*
X340946Y51182D02*
Y54330D01*
X342520D01*
X343045Y53805D01*
Y52756D01*
X342520Y52231D01*
X340946D01*
X341995D02*
X343045Y51182D01*
X346194D02*
X344094D01*
X346194Y53281D01*
Y53805D01*
X345669Y54330D01*
X344619D01*
X344094Y53805D01*
X348817Y51182D02*
Y54330D01*
X347243Y52756D01*
X349342D01*
X254070Y77166D02*
Y80314D01*
X255644D01*
X256169Y79790D01*
Y78740D01*
X255644Y78215D01*
X254070D01*
X255119D02*
X256169Y77166D01*
X259317D02*
X257218D01*
X259317Y79265D01*
Y79790D01*
X258792Y80314D01*
X257743D01*
X257218Y79790D01*
X262466Y77166D02*
X260367D01*
X262466Y79265D01*
Y79790D01*
X261941Y80314D01*
X260892D01*
X260367Y79790D01*
X210433Y119293D02*
X207284D01*
Y120867D01*
X207809Y121392D01*
X208858D01*
X209383Y120867D01*
Y119293D01*
Y120342D02*
X210433Y121392D01*
Y124540D02*
Y122441D01*
X208333Y124540D01*
X207809D01*
X207284Y124015D01*
Y122966D01*
X207809Y122441D01*
X210433Y125590D02*
Y126639D01*
Y126115D01*
X207284D01*
X207809Y125590D01*
X56038Y118504D02*
Y121653D01*
X57612D01*
X58137Y121128D01*
Y120079D01*
X57612Y119554D01*
X56038D01*
X57088D02*
X58137Y118504D01*
X61286D02*
X59187D01*
X61286Y120604D01*
Y121128D01*
X60761Y121653D01*
X59711D01*
X59187Y121128D01*
X62335D02*
X62860Y121653D01*
X63910D01*
X64434Y121128D01*
Y119029D01*
X63910Y118504D01*
X62860D01*
X62335Y119029D01*
Y121128D01*
X220866Y119293D02*
X217717D01*
Y120867D01*
X218242Y121392D01*
X219291D01*
X219816Y120867D01*
Y119293D01*
Y120342D02*
X220866Y121392D01*
Y122441D02*
Y123491D01*
Y122966D01*
X217717D01*
X218242Y122441D01*
X220341Y125065D02*
X220866Y125590D01*
Y126639D01*
X220341Y127164D01*
X218242D01*
X217717Y126639D01*
Y125590D01*
X218242Y125065D01*
X218767D01*
X219291Y125590D01*
Y127164D01*
X215944Y119293D02*
X212796D01*
Y120867D01*
X213320Y121392D01*
X214370D01*
X214895Y120867D01*
Y119293D01*
Y120342D02*
X215944Y121392D01*
Y122441D02*
Y123491D01*
Y122966D01*
X212796D01*
X213320Y122441D01*
Y125065D02*
X212796Y125590D01*
Y126639D01*
X213320Y127164D01*
X213845D01*
X214370Y126639D01*
X214895Y127164D01*
X215420D01*
X215944Y126639D01*
Y125590D01*
X215420Y125065D01*
X214895D01*
X214370Y125590D01*
X213845Y125065D01*
X213320D01*
X214370Y125590D02*
Y126639D01*
X265356Y148623D02*
Y151771D01*
X266930D01*
X267455Y151246D01*
Y150197D01*
X266930Y149672D01*
X265356D01*
X266405D02*
X267455Y148623D01*
X268504D02*
X269554D01*
X269029D01*
Y151771D01*
X268504Y151246D01*
X271128Y151771D02*
X273227D01*
Y151246D01*
X271128Y149147D01*
Y148623D01*
X265356Y153347D02*
Y156496D01*
X266930D01*
X267455Y155971D01*
Y154921D01*
X266930Y154396D01*
X265356D01*
X266405D02*
X267455Y153347D01*
X268504D02*
X269554D01*
X269029D01*
Y156496D01*
X268504Y155971D01*
X273227Y156496D02*
X272178Y155971D01*
X271128Y154921D01*
Y153872D01*
X271653Y153347D01*
X272702D01*
X273227Y153872D01*
Y154396D01*
X272702Y154921D01*
X271128D01*
X226181Y119293D02*
X223032D01*
Y120867D01*
X223557Y121392D01*
X224606D01*
X225131Y120867D01*
Y119293D01*
Y120342D02*
X226181Y121392D01*
Y122441D02*
Y123491D01*
Y122966D01*
X223032D01*
X223557Y122441D01*
X223032Y127164D02*
Y125065D01*
X224606D01*
X224081Y126115D01*
Y126639D01*
X224606Y127164D01*
X225656D01*
X226181Y126639D01*
Y125590D01*
X225656Y125065D01*
X165159Y131497D02*
Y134645D01*
X166733D01*
X167258Y134120D01*
Y133071D01*
X166733Y132546D01*
X165159D01*
X166208D02*
X167258Y131497D01*
X168307D02*
X169357D01*
X168832D01*
Y134645D01*
X168307Y134120D01*
X172505Y131497D02*
Y134645D01*
X170931Y133071D01*
X173030D01*
X42718Y3347D02*
Y6496D01*
X44292D01*
X44817Y5971D01*
Y4921D01*
X44292Y4397D01*
X42718D01*
X43767D02*
X44817Y3347D01*
X45866D02*
X46916D01*
X46391D01*
Y6496D01*
X45866Y5971D01*
X48490D02*
X49015Y6496D01*
X50064D01*
X50589Y5971D01*
Y5446D01*
X50064Y4921D01*
X49540D01*
X50064D01*
X50589Y4397D01*
Y3872D01*
X50064Y3347D01*
X49015D01*
X48490Y3872D01*
X222637Y184647D02*
X219489D01*
Y186221D01*
X220013Y186746D01*
X221063D01*
X221588Y186221D01*
Y184647D01*
Y185696D02*
X222637Y186746D01*
Y187795D02*
Y188845D01*
Y188320D01*
X219489D01*
X220013Y187795D01*
X222637Y192518D02*
Y190419D01*
X220538Y192518D01*
X220013D01*
X219489Y191994D01*
Y190944D01*
X220013Y190419D01*
X67455Y3347D02*
Y6496D01*
X69029D01*
X69554Y5971D01*
Y4921D01*
X69029Y4397D01*
X67455D01*
X68505D02*
X69554Y3347D01*
X70604D02*
X71653D01*
X71128D01*
Y6496D01*
X70604Y5971D01*
X73228Y3347D02*
X74277D01*
X73752D01*
Y6496D01*
X73228Y5971D01*
X249411Y143504D02*
Y146653D01*
X250985D01*
X251510Y146128D01*
Y145079D01*
X250985Y144554D01*
X249411D01*
X250460D02*
X251510Y143504D01*
X252559D02*
X253609D01*
X253084D01*
Y146653D01*
X252559Y146128D01*
X255183D02*
X255708Y146653D01*
X256757D01*
X257282Y146128D01*
Y144029D01*
X256757Y143504D01*
X255708D01*
X255183Y144029D01*
Y146128D01*
X212795Y96392D02*
X209646D01*
Y97966D01*
X210171Y98491D01*
X211221D01*
X211745Y97966D01*
Y96392D01*
Y97442D02*
X212795Y98491D01*
X212270Y99541D02*
X212795Y100065D01*
Y101115D01*
X212270Y101640D01*
X210171D01*
X209646Y101115D01*
Y100065D01*
X210171Y99541D01*
X210696D01*
X211221Y100065D01*
Y101640D01*
X202362Y78478D02*
X199213D01*
Y80053D01*
X199738Y80578D01*
X200787D01*
X201312Y80053D01*
Y78478D01*
Y79528D02*
X202362Y80578D01*
X199738Y81627D02*
X199213Y82152D01*
Y83201D01*
X199738Y83726D01*
X200263D01*
X200787Y83201D01*
X201312Y83726D01*
X201837D01*
X202362Y83201D01*
Y82152D01*
X201837Y81627D01*
X201312D01*
X200787Y82152D01*
X200263Y81627D01*
X199738D01*
X200787Y82152D02*
Y83201D01*
X72179Y15552D02*
Y18700D01*
X73754D01*
X74278Y18176D01*
Y17126D01*
X73754Y16601D01*
X72179D01*
X73229D02*
X74278Y15552D01*
X75328Y18700D02*
X77427D01*
Y18176D01*
X75328Y16077D01*
Y15552D01*
X112007Y25723D02*
X108859D01*
Y27297D01*
X109383Y27822D01*
X110433D01*
X110958Y27297D01*
Y25723D01*
Y26772D02*
X112007Y27822D01*
X108859Y30970D02*
X109383Y29921D01*
X110433Y28871D01*
X111483D01*
X112007Y29396D01*
Y30446D01*
X111483Y30970D01*
X110958D01*
X110433Y30446D01*
Y28871D01*
X159581Y358268D02*
Y361417D01*
X161155D01*
X161680Y360892D01*
Y359842D01*
X161155Y359318D01*
X159581D01*
X160630D02*
X161680Y358268D01*
X164829Y361417D02*
X162730D01*
Y359842D01*
X163779Y360367D01*
X164304D01*
X164829Y359842D01*
Y358793D01*
X164304Y358268D01*
X163254D01*
X162730Y358793D01*
X235172Y218898D02*
Y222047D01*
X236746D01*
X237270Y221522D01*
Y220472D01*
X236746Y219948D01*
X235172D01*
X236221D02*
X237270Y218898D01*
X239894D02*
Y222047D01*
X238320Y220472D01*
X240419D01*
X217652Y218898D02*
Y222047D01*
X219226D01*
X219751Y221522D01*
Y220472D01*
X219226Y219948D01*
X217652D01*
X218701D02*
X219751Y218898D01*
X220800Y221522D02*
X221325Y222047D01*
X222375D01*
X222899Y221522D01*
Y220997D01*
X222375Y220472D01*
X221850D01*
X222375D01*
X222899Y219948D01*
Y219423D01*
X222375Y218898D01*
X221325D01*
X220800Y219423D01*
X233464Y228479D02*
X230315D01*
Y230053D01*
X230840Y230578D01*
X231890D01*
X232415Y230053D01*
Y228479D01*
Y229528D02*
X233464Y230578D01*
Y233726D02*
Y231627D01*
X231365Y233726D01*
X230840D01*
X230315Y233201D01*
Y232152D01*
X230840Y231627D01*
X233070Y236287D02*
X229922D01*
Y237861D01*
X230447Y238386D01*
X231496D01*
X232021Y237861D01*
Y236287D01*
Y237336D02*
X233070Y238386D01*
Y239435D02*
Y240485D01*
Y239960D01*
X229922D01*
X230447Y239435D01*
X346194Y60761D02*
Y62861D01*
X345669Y63385D01*
X344619D01*
X344094Y62861D01*
Y60761D01*
X344619Y60237D01*
X345669D01*
X345144Y61286D02*
X346194Y60237D01*
X345669D02*
X346194Y60761D01*
X349342Y63385D02*
X347243D01*
Y61811D01*
X348293Y62336D01*
X348817D01*
X349342Y61811D01*
Y60761D01*
X348817Y60237D01*
X347768D01*
X347243Y60761D01*
X48491Y119029D02*
Y121128D01*
X47966Y121653D01*
X46917D01*
X46392Y121128D01*
Y119029D01*
X46917Y118504D01*
X47966D01*
X47442Y119554D02*
X48491Y118504D01*
X47966D02*
X48491Y119029D01*
X51115Y118504D02*
Y121653D01*
X49540Y120079D01*
X51640D01*
X54790Y3872D02*
Y5971D01*
X54265Y6496D01*
X53216D01*
X52691Y5971D01*
Y3872D01*
X53216Y3347D01*
X54265D01*
X53741Y4397D02*
X54790Y3347D01*
X54265D02*
X54790Y3872D01*
X55840Y5971D02*
X56365Y6496D01*
X57414D01*
X57939Y5971D01*
Y5446D01*
X57414Y4921D01*
X56889D01*
X57414D01*
X57939Y4397D01*
Y3872D01*
X57414Y3347D01*
X56365D01*
X55840Y3872D01*
X253806Y228872D02*
Y230971D01*
X253281Y231496D01*
X252232D01*
X251707Y230971D01*
Y228872D01*
X252232Y228347D01*
X253281D01*
X252756Y229397D02*
X253806Y228347D01*
X253281D02*
X253806Y228872D01*
X256955Y228347D02*
X254855D01*
X256955Y230446D01*
Y230971D01*
X256430Y231496D01*
X255380D01*
X254855Y230971D01*
X209842Y228675D02*
Y230774D01*
X209318Y231299D01*
X208268D01*
X207744Y230774D01*
Y228675D01*
X208268Y228150D01*
X209318D01*
X208793Y229200D02*
X209842Y228150D01*
X209318D02*
X209842Y228675D01*
X210892Y228150D02*
X211942D01*
X211417D01*
Y231299D01*
X210892Y230774D01*
X338847Y85236D02*
Y82087D01*
X340946D01*
X344094Y85236D02*
X341995D01*
Y82087D01*
X344094D01*
X341995Y83661D02*
X343045D01*
X345144Y85236D02*
Y82087D01*
X346718D01*
X347243Y82612D01*
Y84711D01*
X346718Y85236D01*
X345144D01*
X348293Y82087D02*
X349342D01*
X348817D01*
Y85236D01*
X348293Y84711D01*
X110696Y112401D02*
Y109253D01*
X112795D01*
X113845D02*
X114894D01*
X114370D01*
Y112401D01*
X113845Y111876D01*
X32349Y307677D02*
X31300D01*
X31824D01*
Y305053D01*
X31300Y304528D01*
X30775D01*
X30250Y305053D01*
X33399Y307677D02*
X35498D01*
Y307152D01*
X33399Y305053D01*
Y304528D01*
X189042Y74212D02*
X187993D01*
X188517D01*
Y71588D01*
X187993Y71064D01*
X187468D01*
X186943Y71588D01*
X192191Y74212D02*
X191141Y73687D01*
X190092Y72638D01*
Y71588D01*
X190617Y71064D01*
X191666D01*
X192191Y71588D01*
Y72113D01*
X191666Y72638D01*
X190092D01*
X227231Y328937D02*
X226182D01*
X226706D01*
Y326313D01*
X226182Y325788D01*
X225657D01*
X225132Y326313D01*
X230380Y328937D02*
X228281D01*
Y327362D01*
X229330Y327887D01*
X229855D01*
X230380Y327362D01*
Y326313D01*
X229855Y325788D01*
X228805D01*
X228281Y326313D01*
X273688Y7283D02*
X272638D01*
X273163D01*
Y4659D01*
X272638Y4134D01*
X272113D01*
X271589Y4659D01*
X276312Y4134D02*
Y7283D01*
X274737Y5709D01*
X276836D01*
X278412Y329133D02*
X277363D01*
X277888D01*
Y326509D01*
X277363Y325985D01*
X276838D01*
X276313Y326509D01*
X279462Y328609D02*
X279987Y329133D01*
X281036D01*
X281561Y328609D01*
Y328084D01*
X281036Y327559D01*
X280511D01*
X281036D01*
X281561Y327034D01*
Y326509D01*
X281036Y325985D01*
X279987D01*
X279462Y326509D01*
X7546Y149803D02*
X6497D01*
X7021D01*
Y147179D01*
X6497Y146654D01*
X5972D01*
X5447Y147179D01*
X10695Y146654D02*
X8596D01*
X10695Y148753D01*
Y149278D01*
X10170Y149803D01*
X9120D01*
X8596Y149278D01*
X282744Y166929D02*
X281694D01*
X282219D01*
Y164305D01*
X281694Y163780D01*
X281169D01*
X280644Y164305D01*
X283793Y163780D02*
X284842D01*
X284318D01*
Y166929D01*
X283793Y166404D01*
X87205Y194685D02*
X85106D01*
Y193110D01*
X86155D01*
X85106D01*
Y191536D01*
X88254D02*
X89304D01*
X88779D01*
Y194685D01*
X88254Y194160D01*
X84581Y187795D02*
Y184646D01*
X86155D01*
X86680Y185171D01*
Y187270D01*
X86155Y187795D01*
X84581D01*
X89828D02*
X88779Y187270D01*
X87730Y186221D01*
Y185171D01*
X88254Y184646D01*
X89304D01*
X89828Y185171D01*
Y185696D01*
X89304Y186221D01*
X87730D01*
X153872Y122834D02*
Y119685D01*
X155447D01*
X155971Y120210D01*
Y122309D01*
X155447Y122834D01*
X153872D01*
X159120D02*
X157021D01*
Y121260D01*
X158070Y121785D01*
X158595D01*
X159120Y121260D01*
Y120210D01*
X158595Y119685D01*
X157546D01*
X157021Y120210D01*
X261156Y233267D02*
Y230119D01*
X262730D01*
X263255Y230643D01*
Y232743D01*
X262730Y233267D01*
X261156D01*
X265879Y230119D02*
Y233267D01*
X264304Y231693D01*
X266403D01*
X197573Y233464D02*
Y230315D01*
X199147D01*
X199672Y230840D01*
Y232939D01*
X199147Y233464D01*
X197573D01*
X200722Y232939D02*
X201246Y233464D01*
X202296D01*
X202821Y232939D01*
Y232415D01*
X202296Y231890D01*
X201771D01*
X202296D01*
X202821Y231365D01*
Y230840D01*
X202296Y230315D01*
X201246D01*
X200722Y230840D01*
X82219Y118503D02*
Y115355D01*
X83793D01*
X84318Y115880D01*
Y117979D01*
X83793Y118503D01*
X82219D01*
X87466Y115355D02*
X85367D01*
X87466Y117454D01*
Y117979D01*
X86942Y118503D01*
X85892D01*
X85367Y117979D01*
X233334Y27755D02*
Y24607D01*
X234908D01*
X235433Y25132D01*
Y27231D01*
X234908Y27755D01*
X233334D01*
X236483Y24607D02*
X237532D01*
X237007D01*
Y27755D01*
X236483Y27231D01*
X51116Y128806D02*
X50591Y128282D01*
Y127232D01*
X51116Y126707D01*
X53215D01*
X53740Y127232D01*
Y128282D01*
X53215Y128806D01*
X51116Y129856D02*
X50591Y130381D01*
Y131430D01*
X51116Y131955D01*
X51641D01*
X52165Y131430D01*
Y130905D01*
Y131430D01*
X52690Y131955D01*
X53215D01*
X53740Y131430D01*
Y130381D01*
X53215Y129856D01*
X53740Y135104D02*
Y133005D01*
X51641Y135104D01*
X51116D01*
X50591Y134579D01*
Y133529D01*
X51116Y133005D01*
X255447Y103937D02*
X254922Y103413D01*
Y102363D01*
X255447Y101839D01*
X257546D01*
X258070Y102363D01*
Y103413D01*
X257546Y103937D01*
X255447Y104987D02*
X254922Y105512D01*
Y106561D01*
X255447Y107086D01*
X255971D01*
X256496Y106561D01*
Y106037D01*
Y106561D01*
X257021Y107086D01*
X257546D01*
X258070Y106561D01*
Y105512D01*
X257546Y104987D01*
X258070Y108136D02*
Y109185D01*
Y108660D01*
X254922D01*
X255447Y108136D01*
X262336Y103937D02*
X261811Y103413D01*
Y102363D01*
X262336Y101839D01*
X264435D01*
X264960Y102363D01*
Y103413D01*
X264435Y103937D01*
X262336Y104987D02*
X261811Y105512D01*
Y106561D01*
X262336Y107086D01*
X262861D01*
X263386Y106561D01*
Y106037D01*
Y106561D01*
X263911Y107086D01*
X264435D01*
X264960Y106561D01*
Y105512D01*
X264435Y104987D01*
X262336Y108136D02*
X261811Y108660D01*
Y109710D01*
X262336Y110235D01*
X264435D01*
X264960Y109710D01*
Y108660D01*
X264435Y108136D01*
X262336D01*
X114436Y75065D02*
X113912Y75590D01*
X112862D01*
X112337Y75065D01*
Y72966D01*
X112862Y72442D01*
X113912D01*
X114436Y72966D01*
X117585Y72442D02*
X115486D01*
X117585Y74541D01*
Y75065D01*
X117060Y75590D01*
X116011D01*
X115486Y75065D01*
X118634Y72966D02*
X119159Y72442D01*
X120209D01*
X120733Y72966D01*
Y75065D01*
X120209Y75590D01*
X119159D01*
X118634Y75065D01*
Y74541D01*
X119159Y74016D01*
X120733D01*
X179856Y111877D02*
X179331Y111353D01*
Y110303D01*
X179856Y109778D01*
X181955D01*
X182480Y110303D01*
Y111353D01*
X181955Y111877D01*
X182480Y115026D02*
Y112927D01*
X180381Y115026D01*
X179856D01*
X179331Y114501D01*
Y113452D01*
X179856Y112927D01*
Y116076D02*
X179331Y116600D01*
Y117650D01*
X179856Y118175D01*
X180381D01*
X180905Y117650D01*
X181430Y118175D01*
X181955D01*
X182480Y117650D01*
Y116600D01*
X181955Y116076D01*
X181430D01*
X180905Y116600D01*
X180381Y116076D01*
X179856D01*
X180905Y116600D02*
Y117650D01*
X198360Y112074D02*
X197835Y111549D01*
Y110500D01*
X198360Y109975D01*
X200459D01*
X200984Y110500D01*
Y111549D01*
X200459Y112074D01*
X200984Y115223D02*
Y113124D01*
X198885Y115223D01*
X198360D01*
X197835Y114698D01*
Y113648D01*
X198360Y113124D01*
X197835Y116272D02*
Y118371D01*
X198360D01*
X200459Y116272D01*
X200984D01*
X21523Y6758D02*
X20998Y7283D01*
X19949D01*
X19424Y6758D01*
Y4659D01*
X19949Y4134D01*
X20998D01*
X21523Y4659D01*
X24672Y4134D02*
X22572D01*
X24672Y6233D01*
Y6758D01*
X24147Y7283D01*
X23097D01*
X22572Y6758D01*
X27820Y7283D02*
X26771Y6758D01*
X25721Y5709D01*
Y4659D01*
X26246Y4134D01*
X27295D01*
X27820Y4659D01*
Y5184D01*
X27295Y5709D01*
X25721D01*
X21523Y12861D02*
X20998Y13385D01*
X19949D01*
X19424Y12861D01*
Y10762D01*
X19949Y10237D01*
X20998D01*
X21523Y10762D01*
X24672Y10237D02*
X22572D01*
X24672Y12336D01*
Y12861D01*
X24147Y13385D01*
X23097D01*
X22572Y12861D01*
X27820Y13385D02*
X25721D01*
Y11811D01*
X26771Y12336D01*
X27295D01*
X27820Y11811D01*
Y10762D01*
X27295Y10237D01*
X26246D01*
X25721Y10762D01*
X21523Y19160D02*
X20998Y19684D01*
X19949D01*
X19424Y19160D01*
Y17061D01*
X19949Y16536D01*
X20998D01*
X21523Y17061D01*
X24672Y16536D02*
X22572D01*
X24672Y18635D01*
Y19160D01*
X24147Y19684D01*
X23097D01*
X22572Y19160D01*
X27295Y16536D02*
Y19684D01*
X25721Y18110D01*
X27820D01*
X171523Y169553D02*
X170998Y170078D01*
X169949D01*
X169424Y169553D01*
Y167454D01*
X169949Y166930D01*
X170998D01*
X171523Y167454D01*
X174672Y166930D02*
X172573D01*
X174672Y169029D01*
Y169553D01*
X174147Y170078D01*
X173097D01*
X172573Y169553D01*
X175721D02*
X176246Y170078D01*
X177295D01*
X177820Y169553D01*
Y169029D01*
X177295Y168504D01*
X176771D01*
X177295D01*
X177820Y167979D01*
Y167454D01*
X177295Y166930D01*
X176246D01*
X175721Y167454D01*
X165618Y145341D02*
X165093Y145866D01*
X164043D01*
X163518Y145341D01*
Y143242D01*
X164043Y142717D01*
X165093D01*
X165618Y143242D01*
X168766Y142717D02*
X166667D01*
X168766Y144816D01*
Y145341D01*
X168241Y145866D01*
X167192D01*
X166667Y145341D01*
X171915Y142717D02*
X169816D01*
X171915Y144816D01*
Y145341D01*
X171390Y145866D01*
X170340D01*
X169816Y145341D01*
X167258Y127821D02*
X166733Y128346D01*
X165683D01*
X165159Y127821D01*
Y125722D01*
X165683Y125197D01*
X166733D01*
X167258Y125722D01*
X170406Y125197D02*
X168307D01*
X170406Y127296D01*
Y127821D01*
X169882Y128346D01*
X168832D01*
X168307Y127821D01*
X171456Y125197D02*
X172505D01*
X171981D01*
Y128346D01*
X171456Y127821D01*
X196588Y127822D02*
X196063Y127297D01*
Y126248D01*
X196588Y125723D01*
X198687D01*
X199212Y126248D01*
Y127297D01*
X198687Y127822D01*
X199212Y130971D02*
Y128872D01*
X197113Y130971D01*
X196588D01*
X196063Y130446D01*
Y129396D01*
X196588Y128872D01*
Y132020D02*
X196063Y132545D01*
Y133595D01*
X196588Y134119D01*
X198687D01*
X199212Y133595D01*
Y132545D01*
X198687Y132020D01*
X196588D01*
X247376Y127427D02*
X246851Y127952D01*
X245802D01*
X245277Y127427D01*
Y125328D01*
X245802Y124804D01*
X246851D01*
X247376Y125328D01*
X248426Y124804D02*
X249475D01*
X248950D01*
Y127952D01*
X248426Y127427D01*
X251049Y125328D02*
X251574Y124804D01*
X252624D01*
X253148Y125328D01*
Y127427D01*
X252624Y127952D01*
X251574D01*
X251049Y127427D01*
Y126903D01*
X251574Y126378D01*
X253148D01*
X243833Y165420D02*
X243308Y165944D01*
X242258D01*
X241734Y165420D01*
Y163321D01*
X242258Y162796D01*
X243308D01*
X243833Y163321D01*
X244882Y162796D02*
X245932D01*
X245407D01*
Y165944D01*
X244882Y165420D01*
X247506D02*
X248031Y165944D01*
X249080D01*
X249605Y165420D01*
Y164895D01*
X249080Y164370D01*
X249605Y163845D01*
Y163321D01*
X249080Y162796D01*
X248031D01*
X247506Y163321D01*
Y163845D01*
X248031Y164370D01*
X247506Y164895D01*
Y165420D01*
X248031Y164370D02*
X249080D01*
X198754Y180183D02*
X198229Y180708D01*
X197180D01*
X196655Y180183D01*
Y178084D01*
X197180Y177560D01*
X198229D01*
X198754Y178084D01*
X199803Y177560D02*
X200853D01*
X200328D01*
Y180708D01*
X199803Y180183D01*
X202427Y180708D02*
X204526D01*
Y180183D01*
X202427Y178084D01*
Y177560D01*
X188321Y188321D02*
X187796Y187796D01*
Y186747D01*
X188321Y186222D01*
X190420D01*
X190944Y186747D01*
Y187796D01*
X190420Y188321D01*
X190944Y189370D02*
Y190420D01*
Y189895D01*
X187796D01*
X188321Y189370D01*
X187796Y194093D02*
X188321Y193044D01*
X189370Y191994D01*
X190420D01*
X190944Y192519D01*
Y193569D01*
X190420Y194093D01*
X189895D01*
X189370Y193569D01*
Y191994D01*
X181234Y188321D02*
X180709Y187796D01*
Y186747D01*
X181234Y186222D01*
X183333D01*
X183858Y186747D01*
Y187796D01*
X183333Y188321D01*
X183858Y189370D02*
Y190420D01*
Y189895D01*
X180709D01*
X181234Y189370D01*
X180709Y194093D02*
Y191994D01*
X182283D01*
X181759Y193044D01*
Y193569D01*
X182283Y194093D01*
X183333D01*
X183858Y193569D01*
Y192519D01*
X183333Y191994D01*
X4266Y252231D02*
X3741Y252755D01*
X2691D01*
X2167Y252231D01*
Y250132D01*
X2691Y249607D01*
X3741D01*
X4266Y250132D01*
X5315Y249607D02*
X6365D01*
X5840D01*
Y252755D01*
X5315Y252231D01*
X9513Y249607D02*
Y252755D01*
X7939Y251181D01*
X10038D01*
X4266Y300065D02*
X3741Y300590D01*
X2691D01*
X2167Y300065D01*
Y297966D01*
X2691Y297442D01*
X3741D01*
X4266Y297966D01*
X5315Y297442D02*
X6365D01*
X5840D01*
Y300590D01*
X5315Y300065D01*
X7939D02*
X8464Y300590D01*
X9513D01*
X10038Y300065D01*
Y299540D01*
X9513Y299016D01*
X8989D01*
X9513D01*
X10038Y298491D01*
Y297966D01*
X9513Y297442D01*
X8464D01*
X7939Y297966D01*
X70604Y121195D02*
X70079Y120670D01*
Y119621D01*
X70604Y119096D01*
X72703D01*
X73228Y119621D01*
Y120670D01*
X72703Y121195D01*
X73228Y122244D02*
Y123294D01*
Y122769D01*
X70079D01*
X70604Y122244D01*
X73228Y126967D02*
Y124868D01*
X71129Y126967D01*
X70604D01*
X70079Y126443D01*
Y125393D01*
X70604Y124868D01*
X77494Y121195D02*
X76969Y120670D01*
Y119621D01*
X77494Y119096D01*
X79593D01*
X80118Y119621D01*
Y120670D01*
X79593Y121195D01*
X80118Y122244D02*
Y123294D01*
Y122769D01*
X76969D01*
X77494Y122244D01*
X80118Y124868D02*
Y125918D01*
Y125393D01*
X76969D01*
X77494Y124868D01*
X90999Y159265D02*
X90474Y159790D01*
X89425D01*
X88900Y159265D01*
Y157166D01*
X89425Y156641D01*
X90474D01*
X90999Y157166D01*
X92049Y156641D02*
X93098D01*
X92573D01*
Y159790D01*
X92049Y159265D01*
X94672D02*
X95197Y159790D01*
X96247D01*
X96772Y159265D01*
Y157166D01*
X96247Y156641D01*
X95197D01*
X94672Y157166D01*
Y159265D01*
X111877Y119160D02*
X111352Y119685D01*
X110302D01*
X109778Y119160D01*
Y117061D01*
X110302Y116536D01*
X111352D01*
X111877Y117061D01*
X112926D02*
X113451Y116536D01*
X114501D01*
X115025Y117061D01*
Y119160D01*
X114501Y119685D01*
X113451D01*
X112926Y119160D01*
Y118635D01*
X113451Y118110D01*
X115025D01*
X261155Y52822D02*
X260630Y52297D01*
Y51247D01*
X261155Y50723D01*
X263254D01*
X263779Y51247D01*
Y52297D01*
X263254Y52822D01*
X261155Y53871D02*
X260630Y54396D01*
Y55445D01*
X261155Y55970D01*
X261680D01*
X262205Y55445D01*
X262730Y55970D01*
X263254D01*
X263779Y55445D01*
Y54396D01*
X263254Y53871D01*
X262730D01*
X262205Y54396D01*
X261680Y53871D01*
X261155D01*
X262205Y54396D02*
Y55445D01*
X254659Y52822D02*
X254134Y52297D01*
Y51247D01*
X254659Y50723D01*
X256758D01*
X257283Y51247D01*
Y52297D01*
X256758Y52822D01*
X254134Y53871D02*
Y55970D01*
X254659D01*
X256758Y53871D01*
X257283D01*
X247769Y52822D02*
X247245Y52297D01*
Y51247D01*
X247769Y50723D01*
X249868D01*
X250393Y51247D01*
Y52297D01*
X249868Y52822D01*
X247245Y55970D02*
X247769Y54921D01*
X248819Y53871D01*
X249868D01*
X250393Y54396D01*
Y55445D01*
X249868Y55970D01*
X249344D01*
X248819Y55445D01*
Y53871D01*
X261352Y27428D02*
X260827Y26903D01*
Y25854D01*
X261352Y25329D01*
X263451D01*
X263976Y25854D01*
Y26903D01*
X263451Y27428D01*
X260827Y30577D02*
Y28477D01*
X262402D01*
X261877Y29527D01*
Y30052D01*
X262402Y30577D01*
X263451D01*
X263976Y30052D01*
Y29002D01*
X263451Y28477D01*
X135499Y135695D02*
X134974Y136220D01*
X133925D01*
X133400Y135695D01*
Y133596D01*
X133925Y133071D01*
X134974D01*
X135499Y133596D01*
X138123Y133071D02*
Y136220D01*
X136548Y134646D01*
X138647D01*
X163517Y152625D02*
X162993Y152100D01*
Y151051D01*
X163517Y150526D01*
X165617D01*
X166141Y151051D01*
Y152100D01*
X165617Y152625D01*
X163517Y153674D02*
X162993Y154199D01*
Y155249D01*
X163517Y155773D01*
X164042D01*
X164567Y155249D01*
Y154724D01*
Y155249D01*
X165092Y155773D01*
X165617D01*
X166141Y155249D01*
Y154199D01*
X165617Y153674D01*
X122769Y149475D02*
X122245Y148951D01*
Y147901D01*
X122769Y147376D01*
X124868D01*
X125393Y147901D01*
Y148951D01*
X124868Y149475D01*
X125393Y152624D02*
Y150525D01*
X123294Y152624D01*
X122769D01*
X122245Y152099D01*
Y151049D01*
X122769Y150525D01*
X117257Y149475D02*
X116733Y148951D01*
Y147901D01*
X117257Y147376D01*
X119357D01*
X119881Y147901D01*
Y148951D01*
X119357Y149475D01*
X119881Y150525D02*
Y151574D01*
Y151049D01*
X116733D01*
X117257Y150525D01*
X4201Y138779D02*
Y135630D01*
X5775D01*
X6300Y136155D01*
Y136680D01*
X5775Y137205D01*
X4201D01*
X5775D01*
X6300Y137730D01*
Y138254D01*
X5775Y138779D01*
X4201D01*
X7349D02*
X9448D01*
Y138254D01*
X7349Y136155D01*
Y135630D01*
X9448D01*
X10498D02*
X11547D01*
X11023D01*
Y138779D01*
X10498Y138254D01*
X109713Y172047D02*
Y168898D01*
X111287D01*
X111811Y169423D01*
Y169948D01*
X111287Y170473D01*
X109713D01*
X111287D01*
X111811Y170997D01*
Y171522D01*
X111287Y172047D01*
X109713D01*
X112861Y168898D02*
Y172047D01*
X114435D01*
X114960Y171522D01*
Y170473D01*
X114435Y169948D01*
X112861D01*
X113911D02*
X114960Y168898D01*
X116010D02*
X117059D01*
X116534D01*
Y172047D01*
X116010Y171522D01*
D20*
X75256Y106275D02*
D03*
M02*
