G04*
G04 #@! TF.GenerationSoftware,Altium Limited,Altium Designer,22.2.1 (43)*
G04*
G04 Layer_Physical_Order=4*
G04 Layer_Color=16711680*
%FSLAX25Y25*%
%MOIN*%
G70*
G04*
G04 #@! TF.SameCoordinates,4EB9BB6F-69CC-4AE6-9B36-E95FEA1B1F0F*
G04*
G04*
G04 #@! TF.FilePolarity,Positive*
G04*
G01*
G75*
%ADD58C,0.08268*%
%ADD67C,0.02362*%
%ADD69C,0.02000*%
%ADD70R,0.03800X0.03100*%
%ADD72R,0.02756X0.05118*%
%ADD75R,0.03100X0.03800*%
%ADD78R,0.05118X0.02756*%
%ADD105C,0.02500*%
%ADD106C,0.01500*%
%ADD107C,0.01470*%
%ADD108C,0.01100*%
%ADD109C,0.03000*%
%ADD110C,0.01200*%
%ADD112C,0.07000*%
%ADD114C,0.03937*%
%ADD115O,0.07874X0.05118*%
%ADD116C,0.07874*%
%ADD117O,0.14173X0.07087*%
%ADD118O,0.15748X0.07874*%
%ADD119O,0.07874X0.15748*%
%ADD120O,0.07087X0.14173*%
%ADD121C,0.11811*%
%ADD122C,0.01968*%
%ADD123C,0.01772*%
%ADD124C,0.05000*%
%ADD160R,0.04331X0.02362*%
%ADD161R,0.03543X0.06299*%
%ADD162R,0.04646X0.02284*%
G36*
X24606Y276575D02*
Y264961D01*
Y231496D01*
X31890Y224213D01*
Y208071D01*
X169685D01*
X184449Y222835D01*
X283071D01*
X286221Y219685D01*
Y10630D01*
X277953Y2362D01*
X28937D01*
X24803Y6496D01*
Y30709D01*
X27165Y33071D01*
X109843D01*
Y87008D01*
X98425Y98425D01*
X56496Y98425D01*
X49213Y105709D01*
X49213Y127043D01*
X52125Y129956D01*
X121658D01*
X126675Y124939D01*
X127154Y124618D01*
X127720Y124506D01*
X138196D01*
X138448Y124006D01*
X138103Y123489D01*
X138083Y123388D01*
X142232D01*
X142212Y123489D01*
X141867Y124006D01*
X142119Y124506D01*
X196123D01*
X196137Y124484D01*
X196826Y124024D01*
X197638Y123862D01*
X198450Y124024D01*
X199138Y124484D01*
X199598Y125172D01*
X199760Y125984D01*
X199598Y126796D01*
X199138Y127485D01*
X198450Y127945D01*
X197638Y128106D01*
X196826Y127945D01*
X196137Y127485D01*
X196123Y127463D01*
X162011D01*
X161775Y127904D01*
X161897Y128086D01*
X161917Y128187D01*
X157768D01*
X157788Y128086D01*
X157910Y127904D01*
X157674Y127463D01*
X128332D01*
X125472Y130323D01*
X125790Y130712D01*
X126072Y130524D01*
X126637Y130411D01*
X157674D01*
X157910Y129970D01*
X157788Y129788D01*
X157768Y129687D01*
X161917D01*
X161897Y129788D01*
X161775Y129970D01*
X162011Y130411D01*
X196123D01*
X196137Y130389D01*
X196826Y129929D01*
X197638Y129768D01*
X198450Y129929D01*
X199138Y130389D01*
X199598Y131078D01*
X199760Y131890D01*
X199598Y132702D01*
X199138Y133390D01*
X198450Y133850D01*
X197638Y134012D01*
X196826Y133850D01*
X196137Y133390D01*
X196123Y133368D01*
X127250D01*
X124414Y136204D01*
X124621Y136704D01*
X170276D01*
X170919Y136832D01*
X171465Y137196D01*
X219791Y185522D01*
X240642D01*
X262491Y163673D01*
Y141031D01*
X262398Y140893D01*
X262252Y140157D01*
X262398Y139422D01*
X262815Y138799D01*
X263438Y138383D01*
X264173Y138236D01*
X264908Y138383D01*
X265532Y138799D01*
X265948Y139422D01*
X266094Y140157D01*
X265948Y140893D01*
X265856Y141031D01*
Y164370D01*
X265856Y164370D01*
X265727Y165014D01*
X265363Y165560D01*
X242528Y188394D01*
X241982Y188759D01*
X241339Y188887D01*
X219094D01*
X219094Y188887D01*
X218451Y188759D01*
X217905Y188394D01*
X217905Y188394D01*
X169579Y140068D01*
X61464D01*
X61048Y140346D01*
X60236Y140508D01*
X59424Y140346D01*
X58736Y139886D01*
X58276Y139198D01*
X58114Y138386D01*
X58276Y137574D01*
X58426Y137349D01*
X58158Y136849D01*
X51316D01*
X50750Y136737D01*
X50271Y136416D01*
X47122Y133268D01*
X12205Y133268D01*
X2953Y142520D01*
Y201575D01*
Y276575D01*
X7874Y281496D01*
X19685D01*
X24606Y276575D01*
D02*
G37*
G36*
X123436Y133001D02*
X123117Y132612D01*
X122836Y132800D01*
X122270Y132913D01*
X51655D01*
X51455Y133272D01*
X51435Y133399D01*
X51928Y133893D01*
X122544D01*
X123436Y133001D01*
D02*
G37*
G36*
X371850Y136221D02*
Y6890D01*
X367520Y2559D01*
X297290D01*
X293504Y7269D01*
X293504Y80267D01*
X294004Y80474D01*
X295139Y79339D01*
X295768Y78919D01*
X296509Y78772D01*
Y78159D01*
X296509D01*
X296509Y77747D01*
X296509D01*
Y75947D01*
X299409D01*
X302309D01*
Y77747D01*
X302309D01*
X302309Y78159D01*
X302309D01*
Y79959D01*
X299409D01*
Y81459D01*
X302309D01*
Y83259D01*
X302614Y83632D01*
X303477D01*
Y83632D01*
X303852Y83621D01*
Y83621D01*
X303972Y83621D01*
X308352D01*
Y84538D01*
X310433D01*
X311077Y84666D01*
X311623Y85031D01*
X312469Y85877D01*
X314261D01*
Y85717D01*
X320306D01*
Y86964D01*
X320768Y87155D01*
X322611Y85312D01*
Y51304D01*
X302725D01*
Y53733D01*
X304505Y55514D01*
X305006Y55307D01*
Y54704D01*
X305322Y53939D01*
X305908Y53354D01*
X306673Y53037D01*
X307501D01*
X308265Y53354D01*
X308347Y53436D01*
X313779D01*
X314423Y53564D01*
X314969Y53929D01*
X318473Y57433D01*
X318838Y57978D01*
X318966Y58622D01*
Y60717D01*
X320306D01*
Y64401D01*
X314261D01*
Y60717D01*
X315601D01*
Y59319D01*
X313083Y56800D01*
X308347D01*
X308265Y56882D01*
X307501Y57199D01*
X306874D01*
X306605Y57671D01*
X306909Y58126D01*
X307056Y58867D01*
Y59167D01*
X307719D01*
Y63667D01*
X302519D01*
Y59167D01*
X302519Y59167D01*
X302519D01*
X302282Y58771D01*
X299418Y55906D01*
X298998Y55277D01*
X298850Y54536D01*
Y51304D01*
X296654D01*
X296380Y51250D01*
X296149Y51095D01*
X295558Y50505D01*
X295404Y50273D01*
X295349Y50000D01*
Y45866D01*
X295404Y45593D01*
X295558Y45362D01*
X296600Y44320D01*
X296689Y43996D01*
X296600Y43672D01*
X295558Y42631D01*
X295404Y42399D01*
X295349Y42126D01*
Y39961D01*
X295404Y39687D01*
X295558Y39456D01*
X296906Y38109D01*
X296936Y38054D01*
X296942Y37510D01*
X296936Y37498D01*
X296388Y36784D01*
X296039Y35942D01*
X295920Y35039D01*
X296039Y34136D01*
X296388Y33295D01*
X296858Y32682D01*
X296793Y32271D01*
X296715Y32116D01*
X296543Y32001D01*
X295558Y31016D01*
X295404Y30785D01*
X295349Y30512D01*
Y27756D01*
X295404Y27483D01*
X295558Y27251D01*
X296543Y26267D01*
X296715Y26151D01*
X296793Y25996D01*
X296858Y25586D01*
X296388Y24973D01*
X296039Y24131D01*
X295920Y23228D01*
X296039Y22325D01*
X296388Y21484D01*
X296942Y20761D01*
X297250Y20526D01*
Y20026D01*
X296942Y19790D01*
X296388Y19067D01*
X296039Y18226D01*
X295920Y17323D01*
X296039Y16420D01*
X296388Y15578D01*
X296942Y14856D01*
X297665Y14301D01*
X298506Y13953D01*
X299409Y13834D01*
X302165D01*
X303068Y13953D01*
X303910Y14301D01*
X304632Y14856D01*
X305187Y15578D01*
X305535Y16420D01*
X305654Y17323D01*
X305535Y18226D01*
X305187Y19067D01*
X304632Y19790D01*
X304325Y20026D01*
Y20526D01*
X304632Y20761D01*
X305187Y21484D01*
X305535Y22325D01*
X305654Y23228D01*
X305535Y24131D01*
X305187Y24973D01*
X304632Y25695D01*
X304325Y25931D01*
Y26431D01*
X304632Y26667D01*
X305187Y27389D01*
X305199Y27417D01*
X305627Y27846D01*
X310127D01*
Y27450D01*
X316645D01*
Y27846D01*
X317435D01*
Y26928D01*
X321935D01*
Y27846D01*
X322553D01*
Y26928D01*
X327053D01*
Y32128D01*
X326340D01*
X326202Y32375D01*
X326157Y32628D01*
X329931Y36402D01*
X330331D01*
Y36587D01*
X332557D01*
X335349Y33795D01*
X335059Y33378D01*
X330205D01*
Y25679D01*
X330995D01*
Y25085D01*
X330077D01*
Y20585D01*
X330995D01*
Y19598D01*
X329812D01*
Y16158D01*
X329512D01*
Y14727D01*
X332677D01*
Y13227D01*
X329512D01*
Y11919D01*
X329508Y11919D01*
X327053D01*
Y12836D01*
X322553D01*
Y7636D01*
X327053D01*
Y8554D01*
X329511D01*
X329812Y8356D01*
Y8356D01*
X335542D01*
Y8708D01*
X336908D01*
X337493Y8824D01*
X337989Y9155D01*
X339586Y10753D01*
X340048Y10561D01*
Y8356D01*
X342631D01*
X342913Y8300D01*
X346076D01*
X346079Y8299D01*
X348537D01*
Y7636D01*
X353037D01*
Y8299D01*
X354331D01*
X355072Y8446D01*
X355700Y8866D01*
X358456Y11622D01*
X358876Y12251D01*
X359024Y12992D01*
Y24016D01*
X358876Y24757D01*
X358456Y25386D01*
X352944Y30898D01*
X352315Y31318D01*
X351574Y31466D01*
X346566D01*
Y33378D01*
X346032D01*
Y36811D01*
X345884Y37552D01*
X345464Y38181D01*
X336016Y47630D01*
X335387Y48050D01*
X335208Y48085D01*
X332198Y51095D01*
X331966Y51250D01*
X331693Y51304D01*
X326995D01*
Y66344D01*
X327495Y66496D01*
X327584Y66363D01*
X332938Y61009D01*
X333649Y60534D01*
X334488Y60367D01*
X335997D01*
Y55904D01*
X336164Y55065D01*
X336639Y54354D01*
X342346Y48647D01*
X343057Y48172D01*
X343896Y48005D01*
X355315D01*
X356154Y48172D01*
X356865Y48647D01*
X359227Y51009D01*
X359702Y51720D01*
X359869Y52559D01*
Y56111D01*
X360577D01*
Y57911D01*
X357677D01*
X354777D01*
Y56111D01*
X355485D01*
Y53467D01*
X354407Y52389D01*
X344804D01*
X344418Y52775D01*
X344609Y53237D01*
X346369D01*
Y59755D01*
X346229D01*
Y66338D01*
X346081Y67080D01*
X345661Y67708D01*
X344441Y68929D01*
X343812Y69349D01*
X343071Y69496D01*
X338228D01*
X337748Y69401D01*
X335206D01*
Y69241D01*
X334556D01*
Y101075D01*
X339298Y105816D01*
X339386Y105793D01*
X340141D01*
X340871Y105988D01*
X341525Y106366D01*
X342059Y106900D01*
X342437Y107554D01*
X342632Y108284D01*
Y109039D01*
X342437Y109769D01*
X342059Y110423D01*
X341525Y110957D01*
X340871Y111334D01*
X340141Y111530D01*
X339386D01*
X338657Y111334D01*
X338002Y110957D01*
X337468Y110423D01*
X337091Y109769D01*
X336895Y109039D01*
Y108284D01*
X336919Y108196D01*
X331826Y103103D01*
X331326Y103303D01*
Y120652D01*
X331159Y121491D01*
X330684Y122202D01*
X328776Y124110D01*
X328065Y124585D01*
X328000Y124598D01*
X327966Y124657D01*
X327413Y125210D01*
X326736Y125601D01*
X326341Y125707D01*
Y122835D01*
X324841D01*
Y125707D01*
X324445Y125601D01*
X323768Y125210D01*
X323330Y124772D01*
X317982D01*
X317241Y124624D01*
X316613Y124205D01*
X298848Y106440D01*
X298428Y105811D01*
X298280Y105070D01*
Y95569D01*
X296658D01*
Y95128D01*
X296463D01*
X295721Y94980D01*
X295093Y94560D01*
X294004Y93471D01*
X293504Y93679D01*
X293504Y135236D01*
X297835Y139567D01*
X368504D01*
X371850Y136221D01*
D02*
G37*
G36*
X320472Y106496D02*
Y91732D01*
X319094Y90354D01*
X304921D01*
X304134Y91142D01*
X304134Y105315D01*
X307283Y108465D01*
X318504D01*
X320472Y106496D01*
D02*
G37*
G36*
X300968Y90813D02*
X303512D01*
X303629Y90637D01*
X303852Y90414D01*
Y89921D01*
X304346D01*
X304417Y89850D01*
X304648Y89695D01*
X304921Y89641D01*
X311216D01*
X311265Y89141D01*
X311128Y89113D01*
X310582Y88749D01*
X309736Y87903D01*
X308352D01*
Y88820D01*
X303852D01*
Y88088D01*
X303477Y87788D01*
X297016D01*
Y90813D01*
X299468D01*
Y93191D01*
X300968D01*
Y90813D01*
D02*
G37*
G36*
X326942Y119691D02*
Y87790D01*
X326442Y87638D01*
X326353Y87771D01*
X323189Y90934D01*
X323106Y91059D01*
X321964Y92201D01*
X321840Y92284D01*
X321186Y92938D01*
Y96663D01*
X322676D01*
Y99213D01*
X323426D01*
Y99963D01*
X326326D01*
Y101763D01*
X326326Y101763D01*
X326394Y101953D01*
X326394D01*
X326394Y102235D01*
Y104762D01*
X324016D01*
Y106262D01*
X326394D01*
Y109071D01*
X325953D01*
Y119866D01*
X325981D01*
X326556Y120020D01*
X326942Y119691D01*
D02*
G37*
G36*
X302177Y50591D02*
X323328D01*
X324706Y51968D01*
Y52165D01*
X326281Y50591D01*
X331693D01*
X337598Y44685D01*
X297244D01*
X296063Y45866D01*
Y50000D01*
X296654Y50591D01*
X299259D01*
X300787Y52953D01*
X302177Y50591D01*
D02*
G37*
G36*
X306693Y43307D02*
X308661Y41339D01*
X329331D01*
X331594Y39075D01*
X325590Y33071D01*
X307677Y33071D01*
X306496Y34252D01*
Y38583D01*
X297441Y38583D01*
X296063Y39961D01*
Y42126D01*
X297244Y43307D01*
X306693Y43307D01*
D02*
G37*
G36*
X305906Y29134D02*
X303543Y26772D01*
X297047Y26772D01*
X296063Y27756D01*
Y30512D01*
X297047Y31496D01*
X303543D01*
X305906Y29134D01*
D02*
G37*
G36*
X355149Y23213D02*
Y13794D01*
X353537Y12183D01*
X353037Y12195D01*
Y12836D01*
X348537D01*
Y12173D01*
X346083D01*
X346079Y12174D01*
X342913D01*
X342631Y12118D01*
X341605D01*
X341413Y12580D01*
X342429Y13596D01*
X342761Y14092D01*
X342877Y14678D01*
Y15836D01*
X345779D01*
Y19598D01*
X340048D01*
Y17891D01*
X339935Y17721D01*
X339819Y17136D01*
Y15311D01*
X338450Y13943D01*
X337990Y14189D01*
X338052Y14505D01*
Y19882D01*
X338227Y20056D01*
Y22835D01*
X339727D01*
Y20285D01*
X341877D01*
Y21153D01*
X348318D01*
X349105Y20366D01*
Y19436D01*
X348237D01*
Y17286D01*
X350787D01*
X353337D01*
Y19436D01*
X352470D01*
Y21063D01*
X352342Y21707D01*
X351977Y22253D01*
X351977Y22253D01*
X350205Y24025D01*
X349659Y24390D01*
X349015Y24518D01*
X341877D01*
Y25284D01*
X341877Y25385D01*
X342256Y25679D01*
X346566D01*
Y27591D01*
X350772D01*
X355149Y23213D01*
D02*
G37*
%LPC*%
G36*
X17450Y277547D02*
X16161Y277378D01*
X14960Y276880D01*
X14529Y276549D01*
X17450Y273628D01*
X20371Y276550D01*
X19940Y276880D01*
X18739Y277378D01*
X17450Y277547D01*
D02*
G37*
G36*
X13468Y275489D02*
X13137Y275058D01*
X12640Y273857D01*
X12470Y272568D01*
X12640Y271279D01*
X13137Y270078D01*
X13468Y269647D01*
X16389Y272568D01*
X13468Y275489D01*
D02*
G37*
G36*
X21431Y275489D02*
X18510Y272568D01*
X21431Y269647D01*
X21762Y270078D01*
X22260Y271279D01*
X22429Y272568D01*
X22260Y273857D01*
X21762Y275058D01*
X21431Y275489D01*
D02*
G37*
G36*
X17450Y271507D02*
X14529Y268586D01*
X14960Y268255D01*
X16161Y267758D01*
X17450Y267588D01*
X18739Y267758D01*
X19940Y268255D01*
X20371Y268586D01*
X17450Y271507D01*
D02*
G37*
G36*
X17450Y230303D02*
X16161Y230134D01*
X14960Y229636D01*
X14529Y229305D01*
X17450Y226384D01*
X20371Y229305D01*
X19940Y229636D01*
X18739Y230134D01*
X17450Y230303D01*
D02*
G37*
G36*
X21431Y228245D02*
X18510Y225324D01*
X21431Y222403D01*
X21762Y222834D01*
X22260Y224035D01*
X22429Y225324D01*
X22260Y226613D01*
X21762Y227814D01*
X21431Y228245D01*
D02*
G37*
G36*
X13468D02*
X13137Y227814D01*
X12640Y226613D01*
X12470Y225324D01*
X12640Y224035D01*
X13137Y222834D01*
X13468Y222403D01*
X16389Y225324D01*
X13468Y228245D01*
D02*
G37*
G36*
X17450Y224263D02*
X14529Y221342D01*
X14960Y221011D01*
X16161Y220514D01*
X17450Y220344D01*
X18739Y220514D01*
X19940Y221011D01*
X20371Y221342D01*
X17450Y224263D01*
D02*
G37*
G36*
X208033Y221169D02*
Y219845D01*
X209358D01*
X209338Y219946D01*
X208856Y220667D01*
X208135Y221149D01*
X208033Y221169D01*
D02*
G37*
G36*
X206534D02*
X206432Y221149D01*
X205711Y220667D01*
X205229Y219946D01*
X205209Y219845D01*
X206534D01*
Y221169D01*
D02*
G37*
G36*
X190317D02*
Y219845D01*
X191642D01*
X191621Y219946D01*
X191139Y220667D01*
X190418Y221149D01*
X190317Y221169D01*
D02*
G37*
G36*
X188817D02*
X188716Y221149D01*
X187994Y220667D01*
X187512Y219946D01*
X187492Y219845D01*
X188817D01*
Y221169D01*
D02*
G37*
G36*
X209358Y218344D02*
X208033D01*
Y217020D01*
X208135Y217040D01*
X208856Y217522D01*
X209338Y218244D01*
X209358Y218344D01*
D02*
G37*
G36*
X206534D02*
X205209D01*
X205229Y218244D01*
X205711Y217522D01*
X206432Y217040D01*
X206534Y217020D01*
Y218344D01*
D02*
G37*
G36*
X191642D02*
X190317D01*
Y217020D01*
X190418Y217040D01*
X191139Y217522D01*
X191621Y218244D01*
X191642Y218344D01*
D02*
G37*
G36*
X188817D02*
X187492D01*
X187512Y218244D01*
X187994Y217522D01*
X188716Y217040D01*
X188817Y217020D01*
Y218344D01*
D02*
G37*
G36*
X235396Y215854D02*
Y214529D01*
X236720D01*
X236700Y214631D01*
X236218Y215352D01*
X235497Y215834D01*
X235396Y215854D01*
D02*
G37*
G36*
X233896D02*
X233795Y215834D01*
X233073Y215352D01*
X232591Y214631D01*
X232571Y214529D01*
X233896D01*
Y215854D01*
D02*
G37*
G36*
X273191Y215264D02*
Y213939D01*
X274516D01*
X274496Y214040D01*
X274013Y214761D01*
X273292Y215244D01*
X273191Y215264D01*
D02*
G37*
G36*
X271691D02*
X271590Y215244D01*
X270868Y214761D01*
X270386Y214040D01*
X270366Y213939D01*
X271691D01*
Y215264D01*
D02*
G37*
G36*
X236720Y213030D02*
X235396D01*
Y211705D01*
X235497Y211725D01*
X236218Y212207D01*
X236700Y212929D01*
X236720Y213030D01*
D02*
G37*
G36*
X233896D02*
X232571D01*
X232591Y212929D01*
X233073Y212207D01*
X233795Y211725D01*
X233896Y211705D01*
Y213030D01*
D02*
G37*
G36*
X274516Y212439D02*
X273191D01*
Y211114D01*
X273292Y211134D01*
X274013Y211616D01*
X274496Y212338D01*
X274516Y212439D01*
D02*
G37*
G36*
X271691D02*
X270366D01*
X270386Y212338D01*
X270868Y211616D01*
X271590Y211134D01*
X271691Y211114D01*
Y212439D01*
D02*
G37*
G36*
X208033Y209358D02*
Y208033D01*
X209358D01*
X209338Y208135D01*
X208856Y208856D01*
X208135Y209338D01*
X208033Y209358D01*
D02*
G37*
G36*
X206534D02*
X206432Y209338D01*
X205711Y208856D01*
X205229Y208135D01*
X205209Y208033D01*
X206534D01*
Y209358D01*
D02*
G37*
G36*
X209358Y206534D02*
X208033D01*
Y205209D01*
X208135Y205229D01*
X208856Y205711D01*
X209338Y206432D01*
X209358Y206534D01*
D02*
G37*
G36*
X206534D02*
X205209D01*
X205229Y206432D01*
X205711Y205711D01*
X206432Y205229D01*
X206534Y205209D01*
Y206534D01*
D02*
G37*
G36*
X216695Y201484D02*
Y200159D01*
X218020D01*
X217999Y200260D01*
X217517Y200982D01*
X216796Y201464D01*
X216695Y201484D01*
D02*
G37*
G36*
X215195D02*
X215094Y201464D01*
X214372Y200982D01*
X213890Y200260D01*
X213870Y200159D01*
X215195D01*
Y201484D01*
D02*
G37*
G36*
X218020Y198659D02*
X216695D01*
Y197335D01*
X216796Y197355D01*
X217517Y197837D01*
X217999Y198558D01*
X218020Y198659D01*
D02*
G37*
G36*
X215195D02*
X213870D01*
X213890Y198558D01*
X214372Y197837D01*
X215094Y197355D01*
X215195Y197335D01*
Y198659D01*
D02*
G37*
G36*
X273191Y197547D02*
Y196222D01*
X274516D01*
X274496Y196324D01*
X274013Y197045D01*
X273292Y197527D01*
X273191Y197547D01*
D02*
G37*
G36*
X271691D02*
X271590Y197527D01*
X270868Y197045D01*
X270386Y196324D01*
X270366Y196222D01*
X271691D01*
Y197547D01*
D02*
G37*
G36*
X274516Y194722D02*
X273191D01*
Y193398D01*
X273292Y193418D01*
X274013Y193900D01*
X274496Y194621D01*
X274516Y194722D01*
D02*
G37*
G36*
X271691D02*
X270366D01*
X270386Y194621D01*
X270868Y193900D01*
X271590Y193418D01*
X271691Y193398D01*
Y194722D01*
D02*
G37*
G36*
X190317Y191642D02*
Y190317D01*
X191642D01*
X191621Y190418D01*
X191139Y191139D01*
X190418Y191621D01*
X190317Y191642D01*
D02*
G37*
G36*
X188817D02*
X188716Y191621D01*
X187994Y191139D01*
X187512Y190418D01*
X187492Y190317D01*
X188817D01*
Y191642D01*
D02*
G37*
G36*
X178506D02*
Y190317D01*
X179831D01*
X179811Y190418D01*
X179328Y191139D01*
X178607Y191621D01*
X178506Y191642D01*
D02*
G37*
G36*
X177006D02*
X176905Y191621D01*
X176183Y191139D01*
X175701Y190418D01*
X175681Y190317D01*
X177006D01*
Y191642D01*
D02*
G37*
G36*
X60236Y191098D02*
X59424Y190937D01*
X58736Y190477D01*
X58568Y190226D01*
X57967D01*
X57800Y190477D01*
X57111Y190937D01*
X56299Y191098D01*
X55487Y190937D01*
X54799Y190477D01*
X54631Y190226D01*
X54030D01*
X53863Y190477D01*
X53174Y190937D01*
X52362Y191098D01*
X51550Y190937D01*
X50862Y190477D01*
X50402Y189788D01*
X50240Y188976D01*
X50402Y188164D01*
X50862Y187476D01*
X51550Y187016D01*
X52362Y186855D01*
X53174Y187016D01*
X53863Y187476D01*
X54030Y187727D01*
X54631D01*
X54799Y187476D01*
X55487Y187016D01*
X56299Y186855D01*
X57111Y187016D01*
X57800Y187476D01*
X57967Y187727D01*
X58568D01*
X58736Y187476D01*
X59424Y187016D01*
X60236Y186855D01*
X61048Y187016D01*
X61737Y187476D01*
X62197Y188164D01*
X62358Y188976D01*
X62197Y189788D01*
X61737Y190477D01*
X61048Y190937D01*
X60236Y191098D01*
D02*
G37*
G36*
X191642Y188817D02*
X190317D01*
Y187492D01*
X190418Y187512D01*
X191139Y187994D01*
X191621Y188716D01*
X191642Y188817D01*
D02*
G37*
G36*
X188817D02*
X187492D01*
X187512Y188716D01*
X187994Y187994D01*
X188716Y187512D01*
X188817Y187492D01*
Y188817D01*
D02*
G37*
G36*
X179831D02*
X178506D01*
Y187492D01*
X178607Y187512D01*
X179328Y187994D01*
X179811Y188716D01*
X179831Y188817D01*
D02*
G37*
G36*
X177006D02*
X175681D01*
X175701Y188716D01*
X176183Y187994D01*
X176905Y187512D01*
X177006Y187492D01*
Y188817D01*
D02*
G37*
G36*
X29884Y182440D02*
Y174372D01*
X34113D01*
Y177559D01*
X33944Y178848D01*
X33446Y180049D01*
X32655Y181080D01*
X31624Y181871D01*
X30423Y182369D01*
X29884Y182440D01*
D02*
G37*
G36*
X28384D02*
X27845Y182369D01*
X26644Y181871D01*
X25613Y181080D01*
X24821Y180049D01*
X24324Y178848D01*
X24154Y177559D01*
Y174372D01*
X28384D01*
Y182440D01*
D02*
G37*
G36*
X264685Y177791D02*
X263873Y177630D01*
X263185Y177170D01*
X262725Y176481D01*
X262563Y175669D01*
X262725Y174857D01*
X263185Y174169D01*
X263873Y173709D01*
X264685Y173547D01*
X265497Y173709D01*
X266185Y174169D01*
X266645Y174857D01*
X266807Y175669D01*
X266645Y176481D01*
X266185Y177170D01*
X265497Y177630D01*
X264685Y177791D01*
D02*
G37*
G36*
X221555Y181945D02*
X220743Y181783D01*
X220055Y181323D01*
X219595Y180635D01*
X219433Y179823D01*
X219438Y179797D01*
X214506Y174864D01*
X214185Y174385D01*
X214073Y173819D01*
Y173642D01*
X213573Y173491D01*
X213366Y173799D01*
X212743Y174216D01*
X212008Y174362D01*
X211273Y174216D01*
X210649Y173799D01*
X210233Y173176D01*
X210129Y172653D01*
X204860Y167384D01*
X204540Y166904D01*
X204427Y166339D01*
Y103937D01*
X204540Y103371D01*
X204860Y102892D01*
X206592Y101159D01*
Y96478D01*
X197577Y87463D01*
X197256Y86983D01*
X197144Y86417D01*
Y71850D01*
X197256Y71285D01*
X197577Y70805D01*
X199893Y68489D01*
X199997Y67966D01*
X200413Y67342D01*
X201036Y66926D01*
X201772Y66780D01*
X202104Y66846D01*
X202605Y66435D01*
Y58661D01*
X202721Y58076D01*
X203052Y57580D01*
X205808Y54824D01*
X206305Y54492D01*
X206890Y54376D01*
X226729D01*
X244391Y36714D01*
X244887Y36382D01*
X245472Y36266D01*
X257634D01*
X265848Y28052D01*
X266344Y27721D01*
X266929Y27604D01*
X269134D01*
X269223Y27389D01*
X269778Y26667D01*
X270085Y26431D01*
Y25931D01*
X269778Y25695D01*
X269223Y24973D01*
X268875Y24131D01*
X268756Y23228D01*
X268875Y22325D01*
X269223Y21484D01*
X269778Y20761D01*
X270085Y20526D01*
Y20026D01*
X269778Y19790D01*
X269223Y19067D01*
X268875Y18226D01*
X268756Y17323D01*
X268875Y16420D01*
X269223Y15578D01*
X269778Y14856D01*
X270500Y14301D01*
X271342Y13953D01*
X272245Y13834D01*
X275001D01*
X275904Y13953D01*
X276745Y14301D01*
X277468Y14856D01*
X278022Y15578D01*
X278371Y16420D01*
X278490Y17323D01*
X278371Y18226D01*
X278022Y19067D01*
X277468Y19790D01*
X277161Y20026D01*
Y20526D01*
X277468Y20761D01*
X278022Y21484D01*
X278371Y22325D01*
X278490Y23228D01*
X278371Y24131D01*
X278022Y24973D01*
X277468Y25695D01*
X277161Y25931D01*
Y26431D01*
X277468Y26667D01*
X278022Y27389D01*
X278371Y28231D01*
X278490Y29134D01*
X278371Y30037D01*
X278022Y30878D01*
X277468Y31601D01*
X277161Y31837D01*
Y32337D01*
X277468Y32572D01*
X278022Y33295D01*
X278371Y34136D01*
X278490Y35039D01*
X278371Y35942D01*
X278022Y36784D01*
X277468Y37506D01*
X277243Y37679D01*
X277243Y38179D01*
X277539Y38407D01*
X278110Y39150D01*
X278468Y40016D01*
X278492Y40195D01*
X273623D01*
X268754D01*
X268777Y40016D01*
X269136Y39150D01*
X269707Y38407D01*
X270003Y38179D01*
X270003Y37679D01*
X269778Y37506D01*
X269223Y36784D01*
X268875Y35942D01*
X268756Y35039D01*
X268875Y34136D01*
X269223Y33295D01*
X269778Y32572D01*
X270085Y32337D01*
Y31837D01*
X269778Y31601D01*
X269223Y30878D01*
X269134Y30663D01*
X267563D01*
X259349Y38877D01*
X258853Y39208D01*
X258268Y39325D01*
X246106D01*
X228444Y56987D01*
X227947Y57319D01*
X227362Y57435D01*
X207523D01*
X205663Y59295D01*
Y66492D01*
X207523Y68353D01*
X212833D01*
X213025Y67891D01*
X212460Y67326D01*
X212097D01*
X211562Y67683D01*
X210827Y67829D01*
X210092Y67683D01*
X209468Y67267D01*
X209052Y66643D01*
X208906Y65908D01*
X209052Y65173D01*
X209307Y64791D01*
X209427Y64424D01*
X209307Y64056D01*
X209052Y63675D01*
X208906Y62940D01*
X209052Y62204D01*
X209468Y61581D01*
X210092Y61165D01*
X210827Y61018D01*
X211562Y61165D01*
X212097Y61522D01*
X214173D01*
X214811Y61649D01*
X215352Y62010D01*
X285144Y131803D01*
X285506Y132344D01*
X285633Y132982D01*
Y137349D01*
Y148661D01*
X285506Y149299D01*
X285144Y149839D01*
X279815Y155169D01*
X279274Y155531D01*
X278636Y155658D01*
X272881D01*
X272751Y155788D01*
X272745Y155815D01*
X272351Y156406D01*
X271760Y156800D01*
X271063Y156939D01*
X270366Y156800D01*
X269776Y156406D01*
X269381Y155815D01*
X269242Y155118D01*
X269381Y154421D01*
X269776Y153831D01*
X270366Y153436D01*
X270393Y153430D01*
X270724Y153100D01*
X270738Y153081D01*
Y152431D01*
X270724Y152412D01*
X270393Y152081D01*
X270366Y152076D01*
X269776Y151681D01*
X269381Y151091D01*
X269242Y150394D01*
X269381Y149697D01*
X269776Y149106D01*
X270366Y148712D01*
X271063Y148573D01*
X271760Y148712D01*
X272351Y149106D01*
X272745Y149697D01*
X272751Y149724D01*
X272881Y149854D01*
X276922D01*
X279829Y146947D01*
Y143690D01*
X279524D01*
X279416Y143669D01*
X278775Y143584D01*
X278077Y143295D01*
X277477Y142835D01*
X277017Y142236D01*
X276728Y141538D01*
X276630Y140789D01*
X276728Y140039D01*
X277017Y139341D01*
X277477Y138742D01*
X278077Y138282D01*
X278775Y137993D01*
X279416Y137908D01*
X279524Y137887D01*
X279829D01*
Y134695D01*
X230859Y85725D01*
X230398Y85917D01*
Y110945D01*
X230828Y111590D01*
X230990Y112402D01*
X230828Y113214D01*
X230368Y113902D01*
X229680Y114362D01*
X228868Y114523D01*
X228056Y114362D01*
X227368Y113902D01*
X226908Y113214D01*
X226746Y112402D01*
X226908Y111590D01*
X227339Y110945D01*
Y85801D01*
X212949Y71411D01*
X206890D01*
X206305Y71295D01*
X205808Y70963D01*
X204043Y69198D01*
X203565Y69344D01*
X203547Y69436D01*
X203130Y70059D01*
X202507Y70476D01*
X201983Y70580D01*
X200100Y72463D01*
Y85805D01*
X209116Y94821D01*
X209437Y95300D01*
X209549Y95866D01*
Y101772D01*
X209437Y102337D01*
X209116Y102817D01*
X207384Y104549D01*
Y165726D01*
X212220Y170562D01*
X212743Y170666D01*
X213366Y171082D01*
X213573Y171391D01*
X214073Y171240D01*
Y99038D01*
X210432Y95397D01*
X210111Y94917D01*
X209999Y94351D01*
Y88523D01*
X209977Y88508D01*
X209517Y87820D01*
X209355Y87008D01*
X209517Y86196D01*
X209977Y85508D01*
X210665Y85048D01*
X211477Y84886D01*
X212289Y85048D01*
X212978Y85508D01*
X213438Y86196D01*
X213599Y87008D01*
X213438Y87820D01*
X212978Y88508D01*
X212956Y88523D01*
Y92988D01*
X213456Y93037D01*
X213591Y92357D01*
X214051Y91669D01*
X214739Y91209D01*
X215551Y91047D01*
X216363Y91209D01*
X217052Y91669D01*
X217512Y92357D01*
X217673Y93169D01*
X217668Y93195D01*
X223486Y99014D01*
X223807Y99493D01*
X223919Y100059D01*
Y174666D01*
X223941Y174681D01*
X224401Y175369D01*
X224563Y176181D01*
X224401Y176993D01*
X223941Y177682D01*
X223417Y178032D01*
X223254Y178163D01*
X223273Y178647D01*
X223516Y179011D01*
X223677Y179823D01*
X223516Y180635D01*
X223056Y181323D01*
X222367Y181783D01*
X221555Y181945D01*
D02*
G37*
G36*
X125159Y174516D02*
Y173191D01*
X126484D01*
X126464Y173292D01*
X125982Y174013D01*
X125260Y174495D01*
X125159Y174516D01*
D02*
G37*
G36*
X123659D02*
X123558Y174495D01*
X122837Y174013D01*
X122355Y173292D01*
X122335Y173191D01*
X123659D01*
Y174516D01*
D02*
G37*
G36*
X117285D02*
Y173191D01*
X118610D01*
X118590Y173292D01*
X118108Y174013D01*
X117386Y174495D01*
X117285Y174516D01*
D02*
G37*
G36*
X115785D02*
X115684Y174495D01*
X114963Y174013D01*
X114481Y173292D01*
X114461Y173191D01*
X115785D01*
Y174516D01*
D02*
G37*
G36*
X81852D02*
Y173191D01*
X83177D01*
X83157Y173292D01*
X82675Y174013D01*
X81953Y174495D01*
X81852Y174516D01*
D02*
G37*
G36*
X80352D02*
X80251Y174495D01*
X79530Y174013D01*
X79048Y173292D01*
X79028Y173191D01*
X80352D01*
Y174516D01*
D02*
G37*
G36*
X126484Y171691D02*
X125159D01*
Y170366D01*
X125260Y170386D01*
X125982Y170869D01*
X126464Y171590D01*
X126484Y171691D01*
D02*
G37*
G36*
X123659D02*
X122335D01*
X122355Y171590D01*
X122837Y170869D01*
X123558Y170386D01*
X123659Y170366D01*
Y171691D01*
D02*
G37*
G36*
X118610D02*
X117285D01*
Y170366D01*
X117386Y170386D01*
X118108Y170869D01*
X118590Y171590D01*
X118610Y171691D01*
D02*
G37*
G36*
X115785D02*
X114461D01*
X114481Y171590D01*
X114963Y170869D01*
X115684Y170386D01*
X115785Y170366D01*
Y171691D01*
D02*
G37*
G36*
X83177D02*
X81852D01*
Y170366D01*
X81953Y170386D01*
X82675Y170869D01*
X83157Y171590D01*
X83177Y171691D01*
D02*
G37*
G36*
X80352D02*
X79028D01*
X79048Y171590D01*
X79530Y170869D01*
X80251Y170386D01*
X80352Y170366D01*
Y171691D01*
D02*
G37*
G36*
X53937Y185978D02*
X52777Y185825D01*
X51696Y185377D01*
X50768Y184665D01*
X50056Y183737D01*
X49608Y182656D01*
X49455Y181496D01*
Y174409D01*
X49608Y173249D01*
X50056Y172169D01*
X50768Y171240D01*
X51696Y170528D01*
X52777Y170080D01*
X53937Y169928D01*
X55097Y170080D01*
X56178Y170528D01*
X57106Y171240D01*
X57818Y172169D01*
X58266Y173249D01*
X58419Y174409D01*
Y181496D01*
X58266Y182656D01*
X57818Y183737D01*
X57106Y184665D01*
X56178Y185377D01*
X55097Y185825D01*
X53937Y185978D01*
D02*
G37*
G36*
X190120Y170185D02*
Y168860D01*
X191445D01*
X191425Y168961D01*
X190943Y169683D01*
X190221Y170165D01*
X190120Y170185D01*
D02*
G37*
G36*
X188620D02*
X188519Y170165D01*
X187798Y169683D01*
X187315Y168961D01*
X187295Y168860D01*
X188620D01*
Y170185D01*
D02*
G37*
G36*
X183034D02*
Y168860D01*
X184358D01*
X184338Y168961D01*
X183856Y169683D01*
X183134Y170165D01*
X183034Y170185D01*
D02*
G37*
G36*
X181534D02*
X181432Y170165D01*
X180711Y169683D01*
X180229Y168961D01*
X180209Y168860D01*
X181534D01*
Y170185D01*
D02*
G37*
G36*
X11417Y178699D02*
X10103Y178526D01*
X8879Y178019D01*
X7827Y177212D01*
X7020Y176161D01*
X6513Y174936D01*
X6340Y173622D01*
X6513Y172308D01*
X7020Y171083D01*
X7827Y170032D01*
X8879Y169225D01*
X10103Y168718D01*
X11417Y168545D01*
X12731Y168718D01*
X13956Y169225D01*
X15008Y170032D01*
X15814Y171083D01*
X16322Y172308D01*
X16495Y173622D01*
X16322Y174936D01*
X15814Y176161D01*
X15008Y177212D01*
X13956Y178019D01*
X12731Y178526D01*
X11417Y178699D01*
D02*
G37*
G36*
X249569Y169397D02*
Y168073D01*
X250893D01*
X250873Y168174D01*
X250391Y168895D01*
X249670Y169377D01*
X249569Y169397D01*
D02*
G37*
G36*
X248069D02*
X247968Y169377D01*
X247246Y168895D01*
X246764Y168174D01*
X246744Y168073D01*
X248069D01*
Y169397D01*
D02*
G37*
G36*
X191445Y167360D02*
X190120D01*
Y166036D01*
X190221Y166056D01*
X190943Y166538D01*
X191425Y167259D01*
X191445Y167360D01*
D02*
G37*
G36*
X188620D02*
X187295D01*
X187315Y167259D01*
X187798Y166538D01*
X188519Y166056D01*
X188620Y166036D01*
Y167360D01*
D02*
G37*
G36*
X184358D02*
X183034D01*
Y166036D01*
X183134Y166056D01*
X183856Y166538D01*
X184338Y167259D01*
X184358Y167360D01*
D02*
G37*
G36*
X181534D02*
X180209D01*
X180229Y167259D01*
X180711Y166538D01*
X181432Y166056D01*
X181534Y166036D01*
Y167360D01*
D02*
G37*
G36*
X157087Y166886D02*
X156275Y166724D01*
X155586Y166264D01*
X155419Y166014D01*
X154817D01*
X154650Y166264D01*
X153962Y166724D01*
X153150Y166886D01*
X152338Y166724D01*
X151649Y166264D01*
X151189Y165576D01*
X151028Y164764D01*
X151189Y163952D01*
X151649Y163263D01*
X151900Y163096D01*
Y162495D01*
X151649Y162327D01*
X151482Y162077D01*
X150880D01*
X150713Y162327D01*
X150025Y162787D01*
X149213Y162949D01*
X148401Y162787D01*
X147712Y162327D01*
X147252Y161639D01*
X147091Y160827D01*
X147252Y160015D01*
X147712Y159326D01*
X147963Y159159D01*
Y158558D01*
X147712Y158390D01*
X147252Y157702D01*
X147091Y156890D01*
X147252Y156078D01*
X147712Y155389D01*
X148401Y154929D01*
X149213Y154768D01*
X150025Y154929D01*
X150713Y155389D01*
X150880Y155640D01*
X151482D01*
X151649Y155389D01*
X152338Y154929D01*
X153150Y154768D01*
X153962Y154929D01*
X154650Y155389D01*
X155110Y156078D01*
X155271Y156890D01*
X155110Y157702D01*
X154650Y158390D01*
X154399Y158558D01*
Y159159D01*
X154650Y159326D01*
X155110Y160015D01*
X155271Y160827D01*
X155110Y161639D01*
X154650Y162327D01*
X154399Y162495D01*
Y163096D01*
X154650Y163263D01*
X154817Y163514D01*
X155419D01*
X155586Y163263D01*
X156275Y162803D01*
X157087Y162642D01*
X157899Y162803D01*
X158587Y163263D01*
X159047Y163952D01*
X159209Y164764D01*
X159047Y165576D01*
X158587Y166264D01*
X157899Y166724D01*
X157087Y166886D01*
D02*
G37*
G36*
X250893Y166573D02*
X249569D01*
Y165248D01*
X249670Y165268D01*
X250391Y165750D01*
X250873Y166472D01*
X250893Y166573D01*
D02*
G37*
G36*
X248069D02*
X246744D01*
X246764Y166472D01*
X247246Y165750D01*
X247968Y165268D01*
X248069Y165248D01*
Y166573D01*
D02*
G37*
G36*
X34113Y172872D02*
X29884D01*
Y164804D01*
X30423Y164875D01*
X31624Y165373D01*
X32655Y166164D01*
X33446Y167195D01*
X33944Y168396D01*
X34113Y169685D01*
Y172872D01*
D02*
G37*
G36*
X28384D02*
X24154D01*
Y169685D01*
X24324Y168396D01*
X24821Y167195D01*
X25613Y166164D01*
X26644Y165373D01*
X27845Y164875D01*
X28384Y164804D01*
Y172872D01*
D02*
G37*
G36*
X242520Y167476D02*
X241708Y167315D01*
X241019Y166855D01*
X240559Y166166D01*
X240398Y165354D01*
X240559Y164542D01*
X241019Y163854D01*
X241708Y163394D01*
X242520Y163233D01*
X243332Y163394D01*
X244020Y163854D01*
X244480Y164542D01*
X244642Y165354D01*
X244480Y166166D01*
X244020Y166855D01*
X243332Y167315D01*
X242520Y167476D01*
D02*
G37*
G36*
X65748Y161964D02*
X64936Y161803D01*
X64248Y161343D01*
X64080Y161092D01*
X63479D01*
X63311Y161343D01*
X62623Y161803D01*
X61811Y161964D01*
X60999Y161803D01*
X60311Y161343D01*
X60143Y161092D01*
X59542D01*
X59374Y161343D01*
X58686Y161803D01*
X57874Y161964D01*
X57062Y161803D01*
X56374Y161343D01*
X55914Y160654D01*
X55752Y159843D01*
X55914Y159030D01*
X56374Y158342D01*
X57062Y157882D01*
X57874Y157721D01*
X58686Y157882D01*
X59374Y158342D01*
X59542Y158593D01*
X60143D01*
X60311Y158342D01*
X60999Y157882D01*
X61811Y157721D01*
X62623Y157882D01*
X63311Y158342D01*
X63479Y158593D01*
X64080D01*
X64248Y158342D01*
X64936Y157882D01*
X65748Y157721D01*
X66560Y157882D01*
X67248Y158342D01*
X67708Y159030D01*
X67870Y159843D01*
X67708Y160654D01*
X67248Y161343D01*
X66560Y161803D01*
X65748Y161964D01*
D02*
G37*
G36*
X169844Y158571D02*
Y157246D01*
X171169D01*
X171149Y157347D01*
X170667Y158069D01*
X169946Y158551D01*
X169844Y158571D01*
D02*
G37*
G36*
X168344D02*
X168244Y158551D01*
X167522Y158069D01*
X167040Y157347D01*
X167020Y157246D01*
X168344D01*
Y158571D01*
D02*
G37*
G36*
X45669Y159704D02*
X42482D01*
Y155474D01*
X50550D01*
X50479Y156013D01*
X49982Y157214D01*
X49190Y158246D01*
X48159Y159037D01*
X46958Y159534D01*
X45669Y159704D01*
D02*
G37*
G36*
X40982D02*
X37795D01*
X36507Y159534D01*
X35306Y159037D01*
X34274Y158246D01*
X33483Y157214D01*
X32985Y156013D01*
X32914Y155474D01*
X40982D01*
Y159704D01*
D02*
G37*
G36*
X211970Y156012D02*
Y154687D01*
X213295D01*
X213275Y154788D01*
X212793Y155509D01*
X212071Y155992D01*
X211970Y156012D01*
D02*
G37*
G36*
X210471D02*
X210369Y155992D01*
X209648Y155509D01*
X209166Y154788D01*
X209146Y154687D01*
X210471D01*
Y156012D01*
D02*
G37*
G36*
X171169Y155746D02*
X169844D01*
Y154421D01*
X169946Y154441D01*
X170667Y154924D01*
X171149Y155645D01*
X171169Y155746D01*
D02*
G37*
G36*
X168344D02*
X167020D01*
X167040Y155645D01*
X167522Y154924D01*
X168244Y154441D01*
X168344Y154421D01*
Y155746D01*
D02*
G37*
G36*
X213295Y153187D02*
X211970D01*
Y151862D01*
X212071Y151883D01*
X212793Y152365D01*
X213275Y153086D01*
X213295Y153187D01*
D02*
G37*
G36*
X210471D02*
X209146D01*
X209166Y153086D01*
X209648Y152365D01*
X210369Y151883D01*
X210471Y151862D01*
Y153187D01*
D02*
G37*
G36*
X50550Y153974D02*
X42482D01*
Y149745D01*
X45669D01*
X46958Y149915D01*
X48159Y150412D01*
X49190Y151203D01*
X49982Y152235D01*
X50479Y153436D01*
X50550Y153974D01*
D02*
G37*
G36*
X40982D02*
X32914D01*
X32985Y153436D01*
X33483Y152235D01*
X34274Y151203D01*
X35306Y150412D01*
X36507Y149915D01*
X37795Y149745D01*
X40982D01*
Y153974D01*
D02*
G37*
G36*
X67679Y149516D02*
Y148191D01*
X69004D01*
X68984Y148292D01*
X68502Y149013D01*
X67780Y149495D01*
X67679Y149516D01*
D02*
G37*
G36*
X66179D02*
X66078Y149495D01*
X65357Y149013D01*
X64875Y148292D01*
X64855Y148191D01*
X66179D01*
Y149516D01*
D02*
G37*
G36*
X79490Y147547D02*
Y146222D01*
X80815D01*
X80795Y146324D01*
X80313Y147045D01*
X79591Y147527D01*
X79490Y147547D01*
D02*
G37*
G36*
X77990D02*
X77889Y147527D01*
X77168Y147045D01*
X76686Y146324D01*
X76666Y146222D01*
X77990D01*
Y147547D01*
D02*
G37*
G36*
X69004Y146691D02*
X67679D01*
Y145366D01*
X67780Y145386D01*
X68502Y145869D01*
X68984Y146590D01*
X69004Y146691D01*
D02*
G37*
G36*
X66179D02*
X64855D01*
X64875Y146590D01*
X65357Y145869D01*
X66078Y145386D01*
X66179Y145366D01*
Y146691D01*
D02*
G37*
G36*
X211970Y146169D02*
Y144844D01*
X213295D01*
X213275Y144946D01*
X212793Y145667D01*
X212071Y146149D01*
X211970Y146169D01*
D02*
G37*
G36*
X210471D02*
X210369Y146149D01*
X209648Y145667D01*
X209166Y144946D01*
X209146Y144844D01*
X210471D01*
Y146169D01*
D02*
G37*
G36*
X80815Y144722D02*
X79490D01*
Y143398D01*
X79591Y143418D01*
X80313Y143900D01*
X80795Y144621D01*
X80815Y144722D01*
D02*
G37*
G36*
X77990D02*
X76666D01*
X76686Y144621D01*
X77168Y143900D01*
X77889Y143418D01*
X77990Y143398D01*
Y144722D01*
D02*
G37*
G36*
X49175Y144594D02*
Y143270D01*
X50500D01*
X50480Y143371D01*
X49998Y144092D01*
X49276Y144574D01*
X49175Y144594D01*
D02*
G37*
G36*
X47675D02*
X47574Y144574D01*
X46853Y144092D01*
X46371Y143371D01*
X46351Y143270D01*
X47675D01*
Y144594D01*
D02*
G37*
G36*
X227718Y144201D02*
Y142876D01*
X229043D01*
X229023Y142977D01*
X228541Y143699D01*
X227819Y144181D01*
X227718Y144201D01*
D02*
G37*
G36*
X226219D02*
X226117Y144181D01*
X225396Y143699D01*
X224914Y142977D01*
X224894Y142876D01*
X226219D01*
Y144201D01*
D02*
G37*
G36*
X213295Y143344D02*
X211970D01*
Y142020D01*
X212071Y142040D01*
X212793Y142522D01*
X213275Y143244D01*
X213295Y143344D01*
D02*
G37*
G36*
X210471D02*
X209146D01*
X209166Y143244D01*
X209648Y142522D01*
X210369Y142040D01*
X210471Y142020D01*
Y143344D01*
D02*
G37*
G36*
X50500Y141770D02*
X49175D01*
Y140445D01*
X49276Y140465D01*
X49998Y140947D01*
X50480Y141669D01*
X50500Y141770D01*
D02*
G37*
G36*
X47675D02*
X46351D01*
X46371Y141669D01*
X46853Y140947D01*
X47574Y140465D01*
X47675Y140445D01*
Y141770D01*
D02*
G37*
G36*
X229043Y141376D02*
X227718D01*
Y140051D01*
X227819Y140071D01*
X228541Y140553D01*
X229023Y141275D01*
X229043Y141376D01*
D02*
G37*
G36*
X226219D02*
X224894D01*
X224914Y141275D01*
X225396Y140553D01*
X226117Y140071D01*
X226219Y140051D01*
Y141376D01*
D02*
G37*
G36*
X188386Y139523D02*
X187574Y139362D01*
X186885Y138902D01*
X186425Y138214D01*
X186264Y137402D01*
X186425Y136590D01*
X186885Y135901D01*
X187574Y135441D01*
X188386Y135280D01*
X189198Y135441D01*
X189886Y135901D01*
X190346Y136590D01*
X190508Y137402D01*
X190346Y138214D01*
X189886Y138902D01*
X189198Y139362D01*
X188386Y139523D01*
D02*
G37*
G36*
X249766Y128453D02*
Y127128D01*
X251090D01*
X251070Y127229D01*
X250588Y127950D01*
X249867Y128433D01*
X249766Y128453D01*
D02*
G37*
G36*
X248266D02*
X248165Y128433D01*
X247443Y127950D01*
X246961Y127229D01*
X246941Y127128D01*
X248266D01*
Y128453D01*
D02*
G37*
G36*
X80709Y127319D02*
X79897Y127157D01*
X79208Y126697D01*
X78748Y126009D01*
X78622Y125375D01*
X78602Y125356D01*
X78157Y125166D01*
X78109Y125162D01*
X77584Y125514D01*
X76772Y125675D01*
X75960Y125514D01*
X75271Y125054D01*
X75104Y124803D01*
X74502D01*
X74335Y125054D01*
X73647Y125514D01*
X72835Y125675D01*
X72023Y125514D01*
X71334Y125054D01*
X71313Y125022D01*
X70813D01*
X70792Y125054D01*
X70103Y125514D01*
X69291Y125675D01*
X68479Y125514D01*
X67791Y125054D01*
X67331Y124365D01*
X67169Y123553D01*
X67331Y122741D01*
X67791Y122053D01*
X68479Y121593D01*
X69291Y121431D01*
X70103Y121593D01*
X70792Y122053D01*
X70813Y122085D01*
X71313D01*
X71334Y122053D01*
X72023Y121593D01*
X72835Y121431D01*
X73647Y121593D01*
X74335Y122053D01*
X74502Y122303D01*
X75104D01*
X75271Y122053D01*
X75960Y121593D01*
X76772Y121431D01*
X77584Y121593D01*
X78272Y122053D01*
X78732Y122741D01*
X78858Y123375D01*
X78878Y123394D01*
X79323Y123584D01*
X79371Y123588D01*
X79897Y123237D01*
X80709Y123075D01*
X81521Y123237D01*
X82209Y123696D01*
X82669Y124385D01*
X82831Y125197D01*
X82669Y126009D01*
X82209Y126697D01*
X81521Y127157D01*
X80709Y127319D01*
D02*
G37*
G36*
X251090Y125628D02*
X249766D01*
Y124303D01*
X249867Y124323D01*
X250588Y124805D01*
X251070Y125527D01*
X251090Y125628D01*
D02*
G37*
G36*
X248266D02*
X246941D01*
X246961Y125527D01*
X247443Y124805D01*
X248165Y124323D01*
X248266Y124303D01*
Y125628D01*
D02*
G37*
G36*
X142232Y121888D02*
X140908D01*
Y120563D01*
X141008Y120583D01*
X141730Y121065D01*
X142212Y121787D01*
X142232Y121888D01*
D02*
G37*
G36*
X139408D02*
X138083D01*
X138103Y121787D01*
X138585Y121065D01*
X139306Y120583D01*
X139408Y120563D01*
Y121888D01*
D02*
G37*
G36*
X177325Y119791D02*
Y118466D01*
X178649D01*
X178629Y118568D01*
X178147Y119289D01*
X177426Y119771D01*
X177325Y119791D01*
D02*
G37*
G36*
X175825D02*
X175724Y119771D01*
X175002Y119289D01*
X174520Y118568D01*
X174500Y118466D01*
X175825D01*
Y119791D01*
D02*
G37*
G36*
X239370Y120232D02*
X238558Y120071D01*
X237870Y119611D01*
X237410Y118922D01*
X237248Y118110D01*
X237410Y117298D01*
X237870Y116610D01*
X238558Y116150D01*
X239370Y115988D01*
X240182Y116150D01*
X240870Y116610D01*
X241330Y117298D01*
X241492Y118110D01*
X241330Y118922D01*
X240870Y119611D01*
X240182Y120071D01*
X239370Y120232D01*
D02*
G37*
G36*
X178649Y116966D02*
X177325D01*
Y115642D01*
X177426Y115662D01*
X178147Y116144D01*
X178629Y116866D01*
X178649Y116966D01*
D02*
G37*
G36*
X175825D02*
X174500D01*
X174520Y116866D01*
X175002Y116144D01*
X175724Y115662D01*
X175825Y115642D01*
Y116966D01*
D02*
G37*
G36*
X180709Y112358D02*
X179897Y112197D01*
X179208Y111737D01*
X178748Y111048D01*
X178587Y110236D01*
X178748Y109424D01*
X179208Y108736D01*
X179459Y108568D01*
Y107967D01*
X179208Y107800D01*
X178748Y107111D01*
X178587Y106299D01*
X178748Y105487D01*
X179208Y104799D01*
X179897Y104339D01*
X180709Y104177D01*
X181521Y104339D01*
X182209Y104799D01*
X182669Y105487D01*
X182831Y106299D01*
X182669Y107111D01*
X182209Y107800D01*
X181958Y107967D01*
Y108568D01*
X182209Y108736D01*
X182669Y109424D01*
X182831Y110236D01*
X182669Y111048D01*
X182209Y111737D01*
X181521Y112197D01*
X180709Y112358D01*
D02*
G37*
G36*
X200787Y101531D02*
X199975Y101370D01*
X199287Y100910D01*
X198827Y100222D01*
X198665Y99410D01*
X198827Y98598D01*
X199287Y97909D01*
X199975Y97449D01*
X200787Y97288D01*
X201599Y97449D01*
X202288Y97909D01*
X202748Y98598D01*
X202909Y99410D01*
X202748Y100222D01*
X202288Y100910D01*
X201599Y101370D01*
X200787Y101531D01*
D02*
G37*
G36*
X140424Y106327D02*
X139162Y106160D01*
X137985Y105673D01*
X136975Y104898D01*
X136199Y103887D01*
X135712Y102711D01*
X135546Y101448D01*
X135712Y100185D01*
X136199Y99009D01*
X136975Y97998D01*
X137985Y97223D01*
X139162Y96735D01*
X140424Y96569D01*
X141687Y96735D01*
X142864Y97223D01*
X143874Y97998D01*
X144649Y99009D01*
X145137Y100185D01*
X145303Y101448D01*
X145137Y102711D01*
X144649Y103887D01*
X143874Y104898D01*
X142864Y105673D01*
X141687Y106160D01*
X140424Y106327D01*
D02*
G37*
G36*
X270140Y97655D02*
X269328Y97494D01*
X268639Y97034D01*
X268179Y96346D01*
X268018Y95534D01*
X268179Y94722D01*
X268639Y94033D01*
X269328Y93573D01*
X270140Y93412D01*
X270952Y93573D01*
X271640Y94033D01*
X272100Y94722D01*
X272262Y95534D01*
X272100Y96346D01*
X271640Y97034D01*
X270952Y97494D01*
X270140Y97655D01*
D02*
G37*
G36*
X126505Y92508D02*
X125216Y92338D01*
X124015Y91841D01*
X123584Y91510D01*
X126505Y88589D01*
X129426Y91510D01*
X128995Y91841D01*
X127794Y92338D01*
X126505Y92508D01*
D02*
G37*
G36*
X274766Y89673D02*
Y88348D01*
X276090D01*
X276070Y88450D01*
X275588Y89171D01*
X274867Y89653D01*
X274766Y89673D01*
D02*
G37*
G36*
X273266D02*
X273165Y89653D01*
X272443Y89171D01*
X271961Y88450D01*
X271941Y88348D01*
X273266D01*
Y89673D01*
D02*
G37*
G36*
X276090Y86848D02*
X274766D01*
Y85524D01*
X274867Y85544D01*
X275588Y86026D01*
X276070Y86747D01*
X276090Y86848D01*
D02*
G37*
G36*
X273266D02*
X271941D01*
X271961Y86747D01*
X272443Y86026D01*
X273165Y85544D01*
X273266Y85524D01*
Y86848D01*
D02*
G37*
G36*
X122523Y90449D02*
X122192Y90018D01*
X121695Y88817D01*
X121525Y87529D01*
X121695Y86240D01*
X122192Y85039D01*
X122523Y84607D01*
X125444Y87529D01*
X122523Y90449D01*
D02*
G37*
G36*
X130487Y90449D02*
X127566Y87529D01*
X130487Y84607D01*
X130817Y85039D01*
X131315Y86240D01*
X131484Y87529D01*
X131315Y88817D01*
X130817Y90018D01*
X130487Y90449D01*
D02*
G37*
G36*
X219845Y85539D02*
Y84215D01*
X221169D01*
X221149Y84316D01*
X220667Y85037D01*
X219946Y85519D01*
X219845Y85539D01*
D02*
G37*
G36*
X218344D02*
X218244Y85519D01*
X217522Y85037D01*
X217040Y84316D01*
X217020Y84215D01*
X218344D01*
Y85539D01*
D02*
G37*
G36*
X126505Y86468D02*
X123584Y83547D01*
X124015Y83216D01*
X125216Y82718D01*
X126505Y82549D01*
X127794Y82718D01*
X128995Y83216D01*
X129426Y83547D01*
X126505Y86468D01*
D02*
G37*
G36*
X221169Y82715D02*
X219845D01*
Y81390D01*
X219946Y81410D01*
X220667Y81892D01*
X221149Y82613D01*
X221169Y82715D01*
D02*
G37*
G36*
X218344D02*
X217020D01*
X217040Y82613D01*
X217522Y81892D01*
X218244Y81410D01*
X218344Y81390D01*
Y82715D01*
D02*
G37*
G36*
X211477Y82830D02*
X210665Y82668D01*
X209977Y82208D01*
X209517Y81520D01*
X209355Y80708D01*
X209517Y79896D01*
X209977Y79207D01*
X210665Y78747D01*
X211477Y78586D01*
X212289Y78747D01*
X212978Y79207D01*
X213438Y79896D01*
X213599Y80708D01*
X213438Y81520D01*
X212978Y82208D01*
X212289Y82668D01*
X211477Y82830D01*
D02*
G37*
G36*
X274766Y79831D02*
Y78506D01*
X276090D01*
X276070Y78607D01*
X275588Y79328D01*
X274867Y79811D01*
X274766Y79831D01*
D02*
G37*
G36*
X273266D02*
X273165Y79811D01*
X272443Y79328D01*
X271961Y78607D01*
X271941Y78506D01*
X273266D01*
Y79831D01*
D02*
G37*
G36*
X276090Y77006D02*
X274766D01*
Y75681D01*
X274867Y75701D01*
X275588Y76183D01*
X276070Y76905D01*
X276090Y77006D01*
D02*
G37*
G36*
X273266D02*
X271941D01*
X271961Y76905D01*
X272443Y76183D01*
X273165Y75701D01*
X273266Y75681D01*
Y77006D01*
D02*
G37*
G36*
X117089Y67626D02*
Y66301D01*
X118413D01*
X118393Y66402D01*
X117911Y67124D01*
X117190Y67606D01*
X117089Y67626D01*
D02*
G37*
G36*
X115589D02*
X115488Y67606D01*
X114766Y67124D01*
X114284Y66402D01*
X114264Y66301D01*
X115589D01*
Y67626D01*
D02*
G37*
G36*
X118413Y64801D02*
X117089D01*
Y63477D01*
X117190Y63497D01*
X117911Y63979D01*
X118393Y64700D01*
X118413Y64801D01*
D02*
G37*
G36*
X115589D02*
X114264D01*
X114284Y64700D01*
X114766Y63979D01*
X115488Y63497D01*
X115589Y63477D01*
Y64801D01*
D02*
G37*
G36*
X117089Y57783D02*
Y56459D01*
X118413D01*
X118393Y56560D01*
X117911Y57281D01*
X117190Y57763D01*
X117089Y57783D01*
D02*
G37*
G36*
X115589D02*
X115488Y57763D01*
X114766Y57281D01*
X114284Y56560D01*
X114264Y56459D01*
X115589D01*
Y57783D01*
D02*
G37*
G36*
X118413Y54959D02*
X117089D01*
Y53634D01*
X117190Y53654D01*
X117911Y54136D01*
X118393Y54858D01*
X118413Y54959D01*
D02*
G37*
G36*
X115589D02*
X114264D01*
X114284Y54858D01*
X114766Y54136D01*
X115488Y53654D01*
X115589Y53634D01*
Y54959D01*
D02*
G37*
G36*
X262206Y54484D02*
X261393Y54323D01*
X260705Y53863D01*
X260245Y53174D01*
X260084Y52362D01*
X260245Y51550D01*
X260705Y50862D01*
X261393Y50402D01*
X262206Y50240D01*
X263018Y50402D01*
X263706Y50862D01*
X264166Y51550D01*
X264327Y52362D01*
X264166Y53174D01*
X263706Y53863D01*
X263018Y54323D01*
X262206Y54484D01*
D02*
G37*
G36*
X255513D02*
X254701Y54323D01*
X254012Y53863D01*
X253552Y53174D01*
X253391Y52362D01*
X253552Y51550D01*
X254012Y50862D01*
X254701Y50402D01*
X255513Y50240D01*
X256325Y50402D01*
X257013Y50862D01*
X257473Y51550D01*
X257634Y52362D01*
X257473Y53174D01*
X257013Y53863D01*
X256325Y54323D01*
X255513Y54484D01*
D02*
G37*
G36*
X248820D02*
X248008Y54323D01*
X247319Y53863D01*
X246859Y53174D01*
X246698Y52362D01*
X246859Y51550D01*
X247319Y50862D01*
X248008Y50402D01*
X248820Y50240D01*
X249632Y50402D01*
X250320Y50862D01*
X250780Y51550D01*
X250942Y52362D01*
X250780Y53174D01*
X250320Y53863D01*
X249632Y54323D01*
X248820Y54484D01*
D02*
G37*
G36*
X220533Y45393D02*
Y44376D01*
X221550D01*
X221143Y44986D01*
X220533Y45393D01*
D02*
G37*
G36*
X219034D02*
X218424Y44986D01*
X218017Y44376D01*
X219034D01*
Y45393D01*
D02*
G37*
G36*
X180701Y51133D02*
Y43066D01*
X184931D01*
Y46253D01*
X184761Y47541D01*
X184264Y48742D01*
X183472Y49774D01*
X182441Y50565D01*
X181240Y51063D01*
X180701Y51133D01*
D02*
G37*
G36*
X179201D02*
X178662Y51063D01*
X177461Y50565D01*
X176430Y49774D01*
X175639Y48742D01*
X175141Y47541D01*
X174972Y46253D01*
Y43066D01*
X179201D01*
Y51133D01*
D02*
G37*
G36*
X179951Y42316D02*
D01*
D01*
D01*
D02*
G37*
G36*
X221550Y42876D02*
X220533D01*
Y41859D01*
X221143Y42266D01*
X221550Y42876D01*
D02*
G37*
G36*
X219034D02*
X218017D01*
X218424Y42266D01*
X219034Y41859D01*
Y42876D01*
D02*
G37*
G36*
X275001Y50339D02*
X272245D01*
X271342Y50220D01*
X270500Y49872D01*
X269778Y49317D01*
X269223Y48595D01*
X268875Y47753D01*
X268756Y46850D01*
X268875Y45947D01*
X269223Y45106D01*
X269778Y44383D01*
X270003Y44211D01*
X270003Y43711D01*
X269707Y43483D01*
X269136Y42740D01*
X268777Y41874D01*
X268754Y41695D01*
X273623D01*
X278492D01*
X278468Y41874D01*
X278110Y42740D01*
X277539Y43483D01*
X277243Y43711D01*
X277243Y44211D01*
X277468Y44383D01*
X278022Y45106D01*
X278371Y45947D01*
X278490Y46850D01*
X278371Y47753D01*
X278022Y48595D01*
X277468Y49317D01*
X276745Y49872D01*
X275904Y50220D01*
X275001Y50339D01*
D02*
G37*
G36*
X235789Y42232D02*
Y40907D01*
X237114D01*
X237094Y41008D01*
X236612Y41730D01*
X235890Y42212D01*
X235789Y42232D01*
D02*
G37*
G36*
X234289D02*
X234188Y42212D01*
X233467Y41730D01*
X232985Y41008D01*
X232965Y40907D01*
X234289D01*
Y42232D01*
D02*
G37*
G36*
X237114Y39408D02*
X235789D01*
Y38083D01*
X235890Y38103D01*
X236612Y38585D01*
X237094Y39307D01*
X237114Y39408D01*
D02*
G37*
G36*
X234289D02*
X232965D01*
X232985Y39307D01*
X233467Y38585D01*
X234188Y38103D01*
X234289Y38083D01*
Y39408D01*
D02*
G37*
G36*
X179201Y41566D02*
X174972D01*
Y38379D01*
X175141Y37090D01*
X175639Y35889D01*
X176430Y34857D01*
X177461Y34066D01*
X178662Y33569D01*
X179201Y33498D01*
Y41566D01*
D02*
G37*
G36*
X184931D02*
X180701D01*
Y33498D01*
X181240Y33569D01*
X182441Y34066D01*
X183472Y34857D01*
X184264Y35889D01*
X184761Y37090D01*
X184931Y38379D01*
Y41566D01*
D02*
G37*
G36*
X28900Y31799D02*
Y30474D01*
X30224D01*
X30204Y30575D01*
X29722Y31297D01*
X29001Y31779D01*
X28900Y31799D01*
D02*
G37*
G36*
X27400D02*
X27299Y31779D01*
X26577Y31297D01*
X26095Y30575D01*
X26075Y30474D01*
X27400D01*
Y31799D01*
D02*
G37*
G36*
X164991Y34697D02*
X161804D01*
Y30467D01*
X169871D01*
X169800Y31006D01*
X169303Y32207D01*
X168512Y33238D01*
X167480Y34030D01*
X166279Y34527D01*
X164991Y34697D01*
D02*
G37*
G36*
X160304D02*
X157117D01*
X155828Y34527D01*
X154627Y34030D01*
X153595Y33238D01*
X152804Y32207D01*
X152307Y31006D01*
X152236Y30467D01*
X160304D01*
Y34697D01*
D02*
G37*
G36*
X30224Y28974D02*
X28900D01*
Y27650D01*
X29001Y27670D01*
X29722Y28152D01*
X30204Y28873D01*
X30224Y28974D01*
D02*
G37*
G36*
X27400D02*
X26075D01*
X26095Y28873D01*
X26577Y28152D01*
X27299Y27670D01*
X27400Y27650D01*
Y28974D01*
D02*
G37*
G36*
X219783Y28667D02*
X219087Y28529D01*
X218496Y28134D01*
X218101Y27543D01*
X217963Y26847D01*
X218101Y26150D01*
X218496Y25559D01*
X219087Y25164D01*
X219783Y25026D01*
X220480Y25164D01*
X221071Y25559D01*
X221466Y26150D01*
X221604Y26847D01*
X221466Y27543D01*
X221071Y28134D01*
X220480Y28529D01*
X219783Y28667D01*
D02*
G37*
G36*
X169871Y28967D02*
X161804D01*
Y24737D01*
X164991D01*
X166279Y24907D01*
X167480Y25405D01*
X168512Y26196D01*
X169303Y27227D01*
X169800Y28428D01*
X169871Y28967D01*
D02*
G37*
G36*
X160304D02*
X152236D01*
X152307Y28428D01*
X152804Y27227D01*
X153595Y26196D01*
X154627Y25405D01*
X155828Y24907D01*
X157117Y24737D01*
X160304D01*
Y28967D01*
D02*
G37*
G36*
X28900Y24319D02*
Y22994D01*
X30224D01*
X30204Y23095D01*
X29722Y23817D01*
X29001Y24299D01*
X28900Y24319D01*
D02*
G37*
G36*
X27400D02*
X27299Y24299D01*
X26577Y23817D01*
X26095Y23095D01*
X26075Y22994D01*
X27400D01*
Y24319D01*
D02*
G37*
G36*
X30224Y21494D02*
X28900D01*
Y20169D01*
X29001Y20189D01*
X29722Y20672D01*
X30204Y21393D01*
X30224Y21494D01*
D02*
G37*
G36*
X27400D02*
X26075D01*
X26095Y21393D01*
X26577Y20672D01*
X27299Y20189D01*
X27400Y20169D01*
Y21494D01*
D02*
G37*
G36*
X68663Y19949D02*
Y18624D01*
X69988D01*
X69968Y18725D01*
X69486Y19446D01*
X68764Y19929D01*
X68663Y19949D01*
D02*
G37*
G36*
X67163D02*
X67062Y19929D01*
X66341Y19446D01*
X65859Y18725D01*
X65839Y18624D01*
X67163D01*
Y19949D01*
D02*
G37*
G36*
X69988Y17124D02*
X68663D01*
Y15799D01*
X68764Y15819D01*
X69486Y16301D01*
X69968Y17023D01*
X69988Y17124D01*
D02*
G37*
G36*
X67163D02*
X65839D01*
X65859Y17023D01*
X66341Y16301D01*
X67062Y15819D01*
X67163Y15799D01*
Y17124D01*
D02*
G37*
G36*
X28900Y16838D02*
Y15514D01*
X30224D01*
X30204Y15615D01*
X29722Y16336D01*
X29001Y16818D01*
X28900Y16838D01*
D02*
G37*
G36*
X27400D02*
X27299Y16818D01*
X26577Y16336D01*
X26095Y15615D01*
X26075Y15514D01*
X27400D01*
Y16838D01*
D02*
G37*
G36*
X30224Y14014D02*
X28900D01*
Y12689D01*
X29001Y12709D01*
X29722Y13191D01*
X30204Y13913D01*
X30224Y14014D01*
D02*
G37*
G36*
X27400D02*
X26075D01*
X26095Y13913D01*
X26577Y13191D01*
X27299Y12709D01*
X27400Y12689D01*
Y14014D01*
D02*
G37*
G36*
X28900Y9555D02*
Y8230D01*
X30224D01*
X30204Y8331D01*
X29722Y9053D01*
X29001Y9535D01*
X28900Y9555D01*
D02*
G37*
G36*
X27400D02*
X27299Y9535D01*
X26577Y9053D01*
X26095Y8331D01*
X26075Y8230D01*
X27400D01*
Y9555D01*
D02*
G37*
G36*
X161054Y17078D02*
X159739Y16905D01*
X158515Y16398D01*
X157463Y15591D01*
X156657Y14539D01*
X156149Y13315D01*
X155976Y12001D01*
X156149Y10687D01*
X156657Y9462D01*
X157463Y8410D01*
X158515Y7604D01*
X159739Y7096D01*
X161054Y6923D01*
X162368Y7096D01*
X163592Y7604D01*
X164644Y8410D01*
X165451Y9462D01*
X165958Y10687D01*
X166131Y12001D01*
X165958Y13315D01*
X165451Y14539D01*
X164644Y15591D01*
X163592Y16398D01*
X162368Y16905D01*
X161054Y17078D01*
D02*
G37*
G36*
X52559Y7240D02*
X51747Y7079D01*
X51059Y6618D01*
X50891Y6368D01*
X50290D01*
X50122Y6618D01*
X49434Y7079D01*
X48622Y7240D01*
X47810Y7079D01*
X47122Y6618D01*
X46954Y6368D01*
X46353D01*
X46185Y6618D01*
X45497Y7079D01*
X44685Y7240D01*
X43873Y7079D01*
X43185Y6618D01*
X42725Y5930D01*
X42563Y5118D01*
X42725Y4306D01*
X43185Y3618D01*
X43873Y3158D01*
X44685Y2996D01*
X45497Y3158D01*
X46185Y3618D01*
X46353Y3868D01*
X46954D01*
X47122Y3618D01*
X47810Y3158D01*
X48622Y2996D01*
X49434Y3158D01*
X50122Y3618D01*
X50290Y3868D01*
X50891D01*
X51059Y3618D01*
X51747Y3158D01*
X52559Y2996D01*
X53371Y3158D01*
X54059Y3618D01*
X54519Y4306D01*
X54681Y5118D01*
X54519Y5930D01*
X54059Y6618D01*
X53371Y7079D01*
X52559Y7240D01*
D02*
G37*
G36*
X30224Y6730D02*
X28900D01*
Y5406D01*
X29001Y5426D01*
X29722Y5908D01*
X30204Y6629D01*
X30224Y6730D01*
D02*
G37*
G36*
X27400D02*
X26075D01*
X26095Y6629D01*
X26577Y5908D01*
X27299Y5426D01*
X27400Y5406D01*
Y6730D01*
D02*
G37*
G36*
X106968Y10569D02*
X106271Y10477D01*
X105621Y10208D01*
X105063Y9780D01*
X104635Y9221D01*
X104366Y8572D01*
X104274Y7874D01*
X104366Y7177D01*
X104635Y6527D01*
X105063Y5969D01*
X105621Y5540D01*
X106271Y5271D01*
X106968Y5179D01*
X107666Y5271D01*
X108316Y5540D01*
X108874Y5969D01*
X109302Y6527D01*
X109571Y7177D01*
X109663Y7874D01*
X109571Y8572D01*
X109302Y9221D01*
X108874Y9780D01*
X108316Y10208D01*
X107666Y10477D01*
X106968Y10569D01*
D02*
G37*
G36*
X95157D02*
X94460Y10477D01*
X93810Y10208D01*
X93252Y9780D01*
X92824Y9221D01*
X92555Y8572D01*
X92463Y7874D01*
X92555Y7177D01*
X92824Y6527D01*
X93252Y5969D01*
X93810Y5540D01*
X94460Y5271D01*
X95157Y5179D01*
X95855Y5271D01*
X96505Y5540D01*
X97063Y5969D01*
X97491Y6527D01*
X97760Y7177D01*
X97852Y7874D01*
X97760Y8572D01*
X97491Y9221D01*
X97063Y9780D01*
X96505Y10208D01*
X95855Y10477D01*
X95157Y10569D01*
D02*
G37*
G36*
X53150Y129103D02*
X52408Y128955D01*
X51780Y128535D01*
X51360Y127907D01*
X51212Y127165D01*
X51360Y126424D01*
X51780Y125795D01*
X72646Y104929D01*
X73274Y104509D01*
X74016Y104362D01*
X102109D01*
X102436Y104035D01*
X102436Y98819D01*
X102490Y98546D01*
X102645Y98314D01*
X103039Y97921D01*
X103270Y97766D01*
X103543Y97711D01*
X111909D01*
X112712Y96908D01*
Y81890D01*
X112829Y81002D01*
X113172Y80175D01*
X113717Y79465D01*
X123953Y69229D01*
X124663Y68684D01*
X125490Y68341D01*
X126378Y68224D01*
X134626D01*
X146590Y56260D01*
X146346Y56016D01*
X146191Y55785D01*
X146137Y55512D01*
Y51968D01*
X146191Y51695D01*
X146346Y51464D01*
X149495Y48314D01*
X149727Y48160D01*
X150000Y48105D01*
X164173D01*
X164446Y48160D01*
X164678Y48314D01*
X169009Y52645D01*
X169163Y52877D01*
X169218Y53150D01*
Y59547D01*
X170471Y60800D01*
X188856D01*
X196627Y53029D01*
Y10630D01*
X196794Y9791D01*
X197269Y9080D01*
X202584Y3765D01*
X203295Y3290D01*
X204134Y3123D01*
X235827D01*
X236666Y3290D01*
X237377Y3765D01*
X249975Y16363D01*
X250450Y17075D01*
X250617Y17913D01*
Y32087D01*
X250450Y32926D01*
X249975Y33637D01*
X249264Y34112D01*
X248425Y34279D01*
X247586Y34112D01*
X246875Y33637D01*
X246400Y32926D01*
X246233Y32087D01*
Y18821D01*
X234919Y7507D01*
X205042D01*
X201011Y11538D01*
Y53937D01*
X200844Y54776D01*
X200369Y55487D01*
X191314Y64542D01*
X190603Y65017D01*
X189764Y65184D01*
X168110D01*
X167271Y65017D01*
X166560Y64542D01*
X162968Y60950D01*
X151600D01*
X138471Y74078D01*
X137761Y74623D01*
X136934Y74966D01*
X136046Y75083D01*
X127798D01*
X119571Y83310D01*
Y96762D01*
X120728Y97711D01*
X122441D01*
X122714Y97766D01*
X122946Y97921D01*
X124127Y99102D01*
X124281Y99333D01*
X124336Y99606D01*
X124336Y111811D01*
X124281Y112084D01*
X124127Y112316D01*
X122946Y113497D01*
X122946Y113497D01*
X122714Y113652D01*
X122441Y113706D01*
X103543D01*
X103270Y113652D01*
X103039Y113497D01*
X102645Y113103D01*
X102490Y112872D01*
X102436Y112598D01*
Y108563D01*
X102109Y108236D01*
X74818D01*
X54519Y128535D01*
X53891Y128955D01*
X53150Y129103D01*
D02*
G37*
%LPD*%
G36*
X220384Y175854D02*
X220481Y175369D01*
X220940Y174681D01*
X220963Y174666D01*
Y100671D01*
X215587Y95296D01*
X215199Y95298D01*
X214968Y95752D01*
X216597Y97380D01*
X216917Y97859D01*
X217030Y98425D01*
Y173206D01*
X219842Y176019D01*
X220384Y175854D01*
D02*
G37*
G36*
X123622Y111811D02*
X123622Y99606D01*
X122441Y98425D01*
X120472D01*
X118771Y97029D01*
X118504Y96850D01*
X113779D01*
X112205Y98425D01*
X103543D01*
X103150Y98819D01*
X103150Y104331D01*
X101969Y105512D01*
Y107087D01*
X103150Y108268D01*
Y112598D01*
X103543Y112992D01*
X122441D01*
X123622Y111811D01*
D02*
G37*
G36*
X168504Y59842D02*
Y53150D01*
X164173Y48819D01*
X150000D01*
X146850Y51968D01*
Y55512D01*
X151575Y60236D01*
X166339D01*
X167913Y61811D01*
X170472D01*
X168504Y59842D01*
D02*
G37*
%LPC*%
G36*
X353628Y97483D02*
X349128D01*
Y96820D01*
X348510D01*
Y97483D01*
X344010D01*
Y96820D01*
X341733D01*
X340992Y96672D01*
X340363Y96253D01*
X338607Y94496D01*
X338228D01*
X337748Y94401D01*
X335206D01*
Y90717D01*
X337748D01*
X338228Y90622D01*
X339409D01*
X339890Y90717D01*
X341251D01*
Y91661D01*
X342535Y92945D01*
X344010D01*
Y92283D01*
X348510D01*
Y92945D01*
X349128D01*
Y92283D01*
X353628D01*
Y97483D01*
D02*
G37*
G36*
Y91183D02*
X349128D01*
Y90520D01*
X348510D01*
Y91183D01*
X344010D01*
Y90520D01*
X342575D01*
X341833Y90373D01*
X341205Y89952D01*
X340749Y89496D01*
X338228D01*
X337748Y89401D01*
X335206D01*
Y85717D01*
X337748D01*
X338228Y85622D01*
X341551D01*
X342292Y85769D01*
X342921Y86189D01*
X343377Y86646D01*
X344010D01*
Y85983D01*
X348510D01*
Y86646D01*
X349128D01*
Y85983D01*
X353628D01*
Y85983D01*
X354128Y86289D01*
X354246Y86245D01*
Y85982D01*
X358746D01*
Y91182D01*
X354246D01*
Y91182D01*
X353746Y90886D01*
X353628Y90932D01*
Y91183D01*
D02*
G37*
G36*
X358746Y97482D02*
X354246D01*
Y92282D01*
X358746D01*
Y93200D01*
X361507D01*
Y92235D01*
X359930D01*
Y88080D01*
X366448D01*
Y92235D01*
X364871D01*
Y94003D01*
X364743Y94647D01*
X364379Y95193D01*
X363500Y96071D01*
X362954Y96436D01*
X362310Y96564D01*
X358746D01*
Y97482D01*
D02*
G37*
G36*
Y85277D02*
X354246D01*
Y84614D01*
X353628D01*
Y85277D01*
X349128D01*
Y84614D01*
X338347D01*
X337605Y84467D01*
X337506Y84401D01*
X335206D01*
Y80717D01*
X341251D01*
Y80740D01*
X349128D01*
Y80077D01*
X353628D01*
Y80740D01*
X354246D01*
Y80077D01*
X358746D01*
Y80740D01*
X359930D01*
Y80599D01*
X366448D01*
Y84755D01*
X359930D01*
Y84614D01*
X358746D01*
Y85277D01*
D02*
G37*
G36*
X320306Y84401D02*
X314261D01*
Y84241D01*
X312677D01*
X312677Y84241D01*
X312033Y84113D01*
X311488Y83749D01*
X311488Y83749D01*
X310130Y82391D01*
X308309D01*
Y82959D01*
X303109D01*
Y78459D01*
X308309D01*
Y79026D01*
X310827D01*
X311471Y79154D01*
X312016Y79519D01*
X313374Y80877D01*
X314261D01*
Y80717D01*
X320306D01*
Y84401D01*
D02*
G37*
G36*
X340141Y125703D02*
X339386D01*
X338657Y125508D01*
X338002Y125130D01*
X337468Y124596D01*
X337091Y123942D01*
X336895Y123212D01*
Y122457D01*
X337091Y121727D01*
X337468Y121073D01*
X338002Y120539D01*
X338657Y120162D01*
X339386Y119966D01*
X340141D01*
X340871Y120162D01*
X341525Y120539D01*
X342059Y121073D01*
X342105Y121152D01*
X346941D01*
X367412Y100681D01*
Y76993D01*
X366910Y76490D01*
X366448Y76682D01*
Y78456D01*
X359930D01*
Y78315D01*
X359630D01*
X359626Y78314D01*
X358746D01*
Y78977D01*
X354246D01*
Y78314D01*
X353628D01*
Y78977D01*
X349128D01*
Y78314D01*
X346473D01*
X345858Y78929D01*
X345230Y79349D01*
X344488Y79496D01*
X338228D01*
X337748Y79401D01*
X335206D01*
Y75717D01*
X337748D01*
X338228Y75622D01*
X343686D01*
X344300Y75007D01*
X344929Y74587D01*
X345670Y74440D01*
X349128D01*
Y73777D01*
X353628D01*
Y74440D01*
X354246D01*
Y73777D01*
X355056D01*
X355427Y73466D01*
Y72549D01*
X353653D01*
Y72944D01*
X347135D01*
Y72549D01*
X346169D01*
X344969Y73749D01*
X344423Y74113D01*
X343779Y74241D01*
X341251D01*
Y74401D01*
X335206D01*
Y70717D01*
X341251D01*
Y70877D01*
X343083D01*
X344283Y69677D01*
X344283Y69677D01*
X344829Y69312D01*
X345472Y69184D01*
X347135D01*
Y68788D01*
X353653D01*
Y69184D01*
X355427D01*
Y68266D01*
X359530D01*
X359780Y67766D01*
X359556Y67466D01*
X358427D01*
Y65316D01*
X360227D01*
Y66820D01*
X362040D01*
Y60911D01*
X361377D01*
Y56411D01*
X366577D01*
Y60911D01*
X365914D01*
Y66820D01*
X366448D01*
Y70976D01*
X366448Y70976D01*
X366448D01*
X366601Y71424D01*
X370284Y75106D01*
X370284Y75106D01*
X370649Y75652D01*
X370777Y76296D01*
X370777Y76296D01*
Y101378D01*
X370649Y102022D01*
X370284Y102568D01*
X348827Y124024D01*
X348282Y124389D01*
X347638Y124517D01*
X342105D01*
X342059Y124596D01*
X341525Y125130D01*
X340871Y125508D01*
X340141Y125703D01*
D02*
G37*
G36*
X320306Y79401D02*
X314261D01*
Y75717D01*
X320306D01*
Y79401D01*
D02*
G37*
G36*
X308309Y77447D02*
X303109D01*
Y72947D01*
X303971D01*
X304221Y72550D01*
X304221Y72447D01*
Y66032D01*
X308377D01*
Y66559D01*
X308839Y66750D01*
X309220Y66369D01*
X309766Y66005D01*
X310409Y65877D01*
X310409Y65877D01*
X314261D01*
Y65717D01*
X320306D01*
Y69401D01*
X314261D01*
Y69241D01*
X311106D01*
X309867Y70481D01*
X309321Y70846D01*
X308677Y70974D01*
X308377D01*
Y72475D01*
X308377Y72550D01*
X308309Y73022D01*
Y73161D01*
X308663Y73514D01*
X310626D01*
X312771Y71369D01*
X313317Y71005D01*
X313961Y70877D01*
X314261D01*
Y70717D01*
X320306D01*
Y74401D01*
X314498D01*
X312512Y76386D01*
X311967Y76751D01*
X311323Y76879D01*
X308309D01*
Y77447D01*
D02*
G37*
G36*
X349644Y65764D02*
X346835D01*
Y64136D01*
X349644D01*
Y65764D01*
D02*
G37*
G36*
X356927Y67466D02*
X355127D01*
Y66109D01*
X354861D01*
X354023Y65942D01*
X353756Y65764D01*
X351144D01*
Y63386D01*
X350394D01*
Y62636D01*
X346835D01*
Y61008D01*
X349580D01*
Y60055D01*
X349394D01*
Y57246D01*
X354150D01*
Y60055D01*
X353964D01*
Y60832D01*
X354073Y60940D01*
X354391Y61053D01*
X354777Y60739D01*
Y59411D01*
X357677D01*
X360577D01*
Y61211D01*
X360335D01*
X360227Y61667D01*
X360227D01*
Y63816D01*
X357677D01*
Y64566D01*
X356927D01*
Y67466D01*
D02*
G37*
G36*
X302309Y74447D02*
X299409D01*
X296509D01*
Y72954D01*
X296509Y72647D01*
X296741Y72243D01*
Y66032D01*
X297137D01*
Y63667D01*
X296219D01*
Y59167D01*
X301419D01*
Y63667D01*
X300501D01*
Y66032D01*
X300897D01*
X300897Y72550D01*
X301357Y72647D01*
X302309D01*
Y74447D01*
D02*
G37*
G36*
X354150Y55746D02*
X352522D01*
Y52937D01*
X354150D01*
Y55746D01*
D02*
G37*
G36*
X351022D02*
X349394D01*
Y52937D01*
X351022D01*
Y55746D01*
D02*
G37*
G36*
X327053Y25828D02*
X322553D01*
Y24911D01*
X321935D01*
Y25828D01*
X317435D01*
Y24450D01*
X316945Y24426D01*
X316935Y24426D01*
X314136D01*
Y22048D01*
X313386D01*
Y21298D01*
X309827D01*
Y19670D01*
Y17286D01*
X312205D01*
X314583D01*
Y19670D01*
X316945D01*
Y20605D01*
X317435Y20628D01*
X317445Y20628D01*
X321935D01*
Y21546D01*
X322553D01*
Y20628D01*
X323121D01*
Y19136D01*
X322553D01*
Y18218D01*
X321763D01*
Y19795D01*
X317607D01*
Y13277D01*
X321763D01*
Y14854D01*
X322553D01*
Y13936D01*
X327053D01*
Y19136D01*
X326485D01*
Y20628D01*
X327053D01*
Y25828D01*
D02*
G37*
G36*
X312636Y24426D02*
X309827D01*
Y22798D01*
X312636D01*
Y24426D01*
D02*
G37*
G36*
X314583Y15786D02*
X312205D01*
X309827D01*
Y12977D01*
X310267D01*
X310267Y12977D01*
Y10471D01*
X310155Y10199D01*
X314255D01*
X314142Y10471D01*
Y12977D01*
X314142Y12977D01*
X314583D01*
Y15786D01*
D02*
G37*
G36*
X314255Y8699D02*
X312955D01*
Y7399D01*
X313440Y7600D01*
X314054Y8213D01*
X314255Y8699D01*
D02*
G37*
G36*
X311455D02*
X310155D01*
X310356Y8213D01*
X310969Y7600D01*
X311455Y7399D01*
Y8699D01*
D02*
G37*
G36*
X326326Y98463D02*
X324176D01*
Y96663D01*
X326326D01*
Y98463D01*
D02*
G37*
G36*
X353337Y15786D02*
X351537D01*
Y13636D01*
X353337D01*
Y15786D01*
D02*
G37*
G36*
X350037D02*
X348237D01*
Y13636D01*
X350037D01*
Y15786D01*
D02*
G37*
%LPD*%
D58*
X161054Y12001D02*
D03*
X11417Y173622D02*
D03*
X242874Y318465D02*
D03*
Y248465D02*
D03*
Y288465D02*
D03*
X272874Y248465D02*
D03*
X272795Y308465D02*
D03*
X191693Y318465D02*
D03*
Y248465D02*
D03*
Y288465D02*
D03*
X221693Y248465D02*
D03*
X221614Y308465D02*
D03*
D67*
X312205Y9449D02*
D03*
X322835Y35236D02*
D03*
X309449D02*
D03*
X315945D02*
D03*
X307087Y55118D02*
D03*
X276378Y226378D02*
D03*
X232283Y238779D02*
D03*
X234646Y213779D02*
D03*
X122047Y106299D02*
D03*
X48425Y142520D02*
D03*
X66929Y147441D02*
D03*
X78740Y145472D02*
D03*
X81102Y172441D02*
D03*
X116535D02*
D03*
X124409D02*
D03*
X169095Y156496D02*
D03*
X159843Y128937D02*
D03*
X140157Y122638D02*
D03*
X116339Y65551D02*
D03*
Y55709D02*
D03*
X235039Y40157D02*
D03*
X274016Y77756D02*
D03*
Y87598D02*
D03*
X219094Y83465D02*
D03*
X176575Y117717D02*
D03*
X226969Y142126D02*
D03*
X211221Y144095D02*
D03*
Y153937D02*
D03*
X249016Y126378D02*
D03*
X248819Y167323D02*
D03*
X272441Y195472D02*
D03*
Y213189D02*
D03*
X182283Y168110D02*
D03*
X189370D02*
D03*
X215945Y199409D02*
D03*
X177756Y189567D02*
D03*
X189567D02*
D03*
X207283Y207283D02*
D03*
Y219094D02*
D03*
X189567D02*
D03*
X232033Y246850D02*
D03*
X67913Y17874D02*
D03*
X28150Y29724D02*
D03*
Y14764D02*
D03*
Y22244D02*
D03*
Y7480D02*
D03*
X232283Y225394D02*
D03*
X157087Y164764D02*
D03*
X153150D02*
D03*
Y160827D02*
D03*
X149213D02*
D03*
Y156890D02*
D03*
X153150D02*
D03*
X270140Y95534D02*
D03*
X242520Y165354D02*
D03*
X197638Y131890D02*
D03*
X188386Y137402D02*
D03*
X69291Y123553D02*
D03*
X72835D02*
D03*
X76772D02*
D03*
X43110Y103543D02*
D03*
X47638Y100787D02*
D03*
X197638Y125984D02*
D03*
X60236Y138386D02*
D03*
X239370Y118110D02*
D03*
X200787Y99410D02*
D03*
X228868Y112402D02*
D03*
X52559Y5118D02*
D03*
X44685D02*
D03*
X48622D02*
D03*
X222441Y176181D02*
D03*
X248820Y52362D02*
D03*
X80709Y125197D02*
D03*
X221555Y179823D02*
D03*
X215551Y93169D02*
D03*
X211477Y87008D02*
D03*
X211477Y80708D02*
D03*
X264685Y175669D02*
D03*
X262206Y52362D02*
D03*
X255513D02*
D03*
X180709Y106299D02*
D03*
Y110236D02*
D03*
X248425Y32087D02*
D03*
X116142Y102362D02*
D03*
Y110236D02*
D03*
X52362Y188976D02*
D03*
X65748Y159843D02*
D03*
X57874D02*
D03*
X56299Y188976D02*
D03*
X61811Y159843D02*
D03*
X60236Y188976D02*
D03*
D69*
X300787Y46850D02*
Y54536D01*
X305119Y58867D01*
Y61417D01*
X324016Y99763D02*
Y105512D01*
Y121260D02*
X325591Y122835D01*
X324016Y105512D02*
Y121260D01*
X317982Y122835D02*
X325591D01*
X344291Y58071D02*
Y66338D01*
X338228Y67559D02*
X343071D01*
X344291Y66338D01*
X363977Y58661D02*
Y68520D01*
X363189Y68898D02*
X363599D01*
X363977Y68520D01*
X359629Y76377D02*
X359630Y76378D01*
X363189D01*
X356496Y76377D02*
X359629D01*
X351378D02*
X356496D01*
X344488Y77559D02*
X345670Y76377D01*
X351378D01*
X338228Y77559D02*
X344488D01*
X356496Y82677D02*
X363189D01*
X351378D02*
X356496D01*
X338347D02*
X351378D01*
X353929Y88582D02*
X356496D01*
X353928Y88583D02*
X353929Y88582D01*
X351378Y88583D02*
X353928D01*
X346260D02*
X351378D01*
X341551Y87559D02*
X342575Y88583D01*
X346260D01*
X338228Y87559D02*
X341551D01*
X346260Y94883D02*
X351378D01*
X341733D02*
X346260D01*
X339409Y92559D02*
X341733Y94883D01*
X338228Y92559D02*
X339409D01*
X299409Y78159D02*
X299409Y78159D01*
X299409Y75197D02*
Y78159D01*
X299409Y78159D02*
Y80709D01*
X296509D02*
X299409D01*
X295079Y82139D02*
X296509Y80709D01*
X296463Y93191D02*
X300218D01*
X295079Y91807D02*
X296463Y93191D01*
X295079Y82139D02*
Y91807D01*
X300218Y93191D02*
Y105070D01*
X300234Y85727D02*
X305609D01*
X300218Y85710D02*
X300234Y85727D01*
X305609D02*
X306102Y86221D01*
X300218Y105070D02*
X317982Y122835D01*
X323426Y99213D02*
X323466D01*
X324016Y99763D01*
X312205Y9449D02*
Y12977D01*
X312205Y12977D01*
Y16536D01*
Y21670D02*
X312583Y22048D01*
X312205Y16536D02*
Y21670D01*
X312583Y22048D02*
X313386D01*
X326772Y46260D02*
X334646D01*
X344094Y36811D01*
Y29528D02*
Y36811D01*
X346079Y10236D02*
X350787D01*
X354331D01*
X351574Y29528D02*
X357087Y24016D01*
X354331Y10236D02*
X357087Y12992D01*
Y24016D01*
X344094Y29528D02*
X351574D01*
X346079Y10237D02*
X346079Y10236D01*
X342913Y10237D02*
X346079D01*
X226181Y240998D02*
X232033Y246850D01*
X226181Y222244D02*
X234646Y213779D01*
X226181Y222244D02*
Y240998D01*
X74016Y106299D02*
X120079D01*
X53150Y127165D02*
X74016Y106299D01*
D70*
X332677Y22835D02*
D03*
X338977D02*
D03*
X357677Y58661D02*
D03*
X363977D02*
D03*
X305119Y61417D02*
D03*
X298819D02*
D03*
X305709Y75197D02*
D03*
X299409D02*
D03*
X305709Y80709D02*
D03*
X299409D02*
D03*
X323426Y99213D02*
D03*
X317126D02*
D03*
D72*
X319685Y16536D02*
D03*
X312205D02*
D03*
X344291Y56496D02*
D03*
X351772D02*
D03*
X298819Y69291D02*
D03*
X306299D02*
D03*
X316535Y105512D02*
D03*
X324016D02*
D03*
D75*
X319685Y29528D02*
D03*
Y23228D02*
D03*
X324803Y29528D02*
D03*
Y23228D02*
D03*
Y16536D02*
D03*
Y10236D02*
D03*
X350787D02*
D03*
Y16536D02*
D03*
X357677Y70867D02*
D03*
Y64566D02*
D03*
X356496Y76377D02*
D03*
Y82677D02*
D03*
X351378D02*
D03*
Y76377D02*
D03*
X356496Y88582D02*
D03*
Y94882D02*
D03*
X346260Y88583D02*
D03*
Y94883D02*
D03*
X351378D02*
D03*
Y88583D02*
D03*
X306102Y92520D02*
D03*
Y86221D02*
D03*
D78*
X313386Y29528D02*
D03*
Y22048D02*
D03*
Y46260D02*
D03*
Y38780D02*
D03*
X320079Y46260D02*
D03*
Y38780D02*
D03*
X326772Y46260D02*
D03*
Y38780D02*
D03*
X350394Y63386D02*
D03*
Y70866D02*
D03*
X363189Y68898D02*
D03*
Y76378D02*
D03*
Y90158D02*
D03*
Y82677D02*
D03*
X300218Y93191D02*
D03*
Y85710D02*
D03*
D105*
X329134Y67913D02*
X334488Y62559D01*
X338228D01*
X325866Y122560D02*
X327226D01*
X329134Y120652D01*
Y67913D02*
Y120652D01*
X325591Y122835D02*
X325866Y122560D01*
X338189Y55904D02*
X343896Y50197D01*
X338189Y55904D02*
Y61414D01*
X343896Y50197D02*
X355315D01*
X357677Y52559D02*
Y58661D01*
X355315Y50197D02*
X357677Y52559D01*
Y58661D02*
Y64217D01*
X354861Y63916D02*
X357377D01*
X354337Y63392D02*
X354861Y63916D01*
X350400Y63392D02*
X354337D01*
X357377Y63916D02*
X357677Y64217D01*
Y64566D01*
X351575Y63386D02*
X351772Y63189D01*
Y56496D02*
Y63189D01*
X318465Y92559D02*
X320373Y90651D01*
X321556Y89467D02*
X324803Y86221D01*
X321556Y89467D02*
Y89508D01*
X317284Y92559D02*
X318311D01*
X318356Y92604D02*
X318402Y92559D01*
X320414Y90651D02*
X321556Y89508D01*
X324803Y48436D02*
Y86221D01*
X318311Y92559D02*
X318356Y92604D01*
X320373Y90651D02*
X320414D01*
X318402Y92559D02*
X318465D01*
X326772Y38780D02*
X333465D01*
X338977Y22835D02*
Y33267D01*
X333465Y38780D02*
X338977Y33267D01*
X248425Y17913D02*
Y32087D01*
X204134Y5315D02*
X235827D01*
X198819Y10630D02*
X204134Y5315D01*
X198819Y10630D02*
Y53937D01*
X189764Y62992D02*
X198819Y53937D01*
X168110Y62992D02*
X189764D01*
X235827Y5315D02*
X248425Y17913D01*
X159638Y54520D02*
X168110Y62992D01*
X156723Y54520D02*
X159638D01*
D106*
X307087Y55118D02*
X313779D01*
X317284Y58622D01*
Y62559D01*
X332874Y68438D02*
Y101772D01*
X333753Y67559D02*
X338228D01*
X332874Y68438D02*
X333753Y67559D01*
X332874Y101772D02*
X339764Y108661D01*
X362310Y94882D02*
X363189Y94003D01*
Y90158D02*
Y94003D01*
X356496Y94882D02*
X362310D01*
X357677Y70867D02*
Y70926D01*
X358477Y71726D01*
X364524D01*
X350394Y70867D02*
X357677D01*
X364524Y71726D02*
X369094Y76296D01*
Y101378D01*
X347638Y122835D02*
X369094Y101378D01*
X339764Y122835D02*
X347638D01*
X345472Y70866D02*
X350394D01*
X343779Y72559D02*
X345472Y70866D01*
X338228Y72559D02*
X343779D01*
X308677Y69291D02*
X310409Y67559D01*
X317284D01*
X306299Y69291D02*
X308677D01*
X298819Y61417D02*
Y69291D01*
X305709Y75197D02*
X311323D01*
X313961Y72559D01*
X317284D01*
X312677Y82559D02*
X317284D01*
X305709Y80709D02*
X310827D01*
X312677Y82559D01*
X311772Y87559D02*
X317284D01*
X306102Y86221D02*
X310433D01*
X311772Y87559D01*
X313386Y29528D02*
X319685D01*
X301182D02*
X313386D01*
X300787Y29134D02*
X301182Y29528D01*
X338977Y22835D02*
X349015D01*
X338627D02*
X338977D01*
X350787Y16536D02*
Y21063D01*
X349015Y22835D02*
X350787Y21063D01*
X336370Y14505D02*
Y20578D01*
X335842Y13977D02*
X336370Y14505D01*
Y20578D02*
X338627Y22835D01*
X332677Y13977D02*
X335842D01*
X324803Y10236D02*
X329511D01*
X329512Y10237D01*
X332677D01*
Y22835D02*
Y29528D01*
Y17717D02*
Y22835D01*
X319685Y16536D02*
X324803D01*
Y23228D01*
X319685D02*
X324803D01*
X319685Y29528D02*
X324803D01*
X60236Y138386D02*
X170276D01*
X219094Y187205D02*
X241339D01*
X170276Y138386D02*
X219094Y187205D01*
X264173Y140157D02*
Y164370D01*
X241339Y187205D02*
X264173Y164370D01*
D107*
X280026Y142023D02*
G03*
X281496Y143493I0J1470D01*
G01*
X279524Y142023D02*
G03*
X279524Y139554I0J-1235D01*
G01*
X281496Y138084D02*
G03*
X280026Y139554I-1470J0D01*
G01*
X283966Y137349D02*
Y148661D01*
Y132982D02*
Y137349D01*
X213150Y65659D02*
X281496Y134004D01*
X210827Y65908D02*
X211179D01*
X214173Y63189D02*
X283966Y132982D01*
X210827Y62940D02*
X211076Y63189D01*
X214173D01*
X211429Y65659D02*
X213150D01*
X211179Y65908D02*
X211429Y65659D01*
X281496Y134004D02*
Y137349D01*
X271063Y150394D02*
X272190Y151521D01*
X281496Y143493D02*
Y146653D01*
X279524Y142023D02*
X280026D01*
X279524Y139554D02*
X280026D01*
X281496Y137349D02*
Y138084D01*
Y146653D02*
Y146850D01*
Y147638D01*
X272190Y153991D02*
X278636D01*
X283966Y148661D01*
X272190Y151521D02*
X277613D01*
X281496Y147638D01*
X271063Y155118D02*
X272190Y153991D01*
D108*
X126637Y131890D02*
X197638D01*
X47638Y100787D02*
Y127559D01*
X51513Y131434D01*
X122270D01*
X51316Y135371D02*
X123156D01*
X43110Y103543D02*
Y127165D01*
X51316Y135371D01*
X123156D02*
X126637Y131890D01*
X127720Y125984D02*
X197638D01*
X122270Y131434D02*
X127720Y125984D01*
X208071Y95866D02*
Y101772D01*
X205906Y166339D02*
X212008Y172441D01*
X205906Y103937D02*
Y166339D01*
Y103937D02*
X208071Y101772D01*
X198622Y86417D02*
X208071Y95866D01*
X198622Y71850D02*
X201772Y68701D01*
X198622Y71850D02*
Y86417D01*
X222441Y100059D02*
Y176181D01*
X215551Y173819D02*
X221555Y179823D01*
X215551Y98425D02*
Y173819D01*
Y93169D02*
X222441Y100059D01*
X211477Y87008D02*
Y94351D01*
X215551Y98425D01*
D109*
X232283Y225394D02*
Y238779D01*
D110*
X336908Y10237D02*
X341348Y14678D01*
Y17136D01*
X332677Y10237D02*
X336908D01*
X341348Y17136D02*
X341929Y17717D01*
X342913D01*
X206890Y69882D02*
X213583D01*
X204134Y58661D02*
Y67126D01*
X206890Y69882D01*
X204134Y58661D02*
X206890Y55905D01*
X227362D02*
X245472Y37795D01*
X206890Y55905D02*
X227362D01*
X245472Y37795D02*
X258268D01*
X266929Y29134D01*
X273623D01*
X228868Y85167D02*
Y112402D01*
X213583Y69882D02*
X228868Y85167D01*
D112*
X247874Y323465D02*
Y338583D01*
X242874Y318465D02*
X247874Y323465D01*
X191693Y318465D02*
X196693Y323465D01*
Y338583D01*
D114*
X339764Y122835D02*
D03*
X325591D02*
D03*
X339764Y108661D02*
D03*
D115*
X300787Y46850D02*
D03*
Y40945D02*
D03*
Y35039D02*
D03*
Y29134D02*
D03*
Y23228D02*
D03*
Y17323D02*
D03*
X273623Y40945D02*
D03*
Y17323D02*
D03*
Y23228D02*
D03*
Y29134D02*
D03*
Y35039D02*
D03*
Y46850D02*
D03*
D116*
X140424Y101448D02*
D03*
X126505Y87529D02*
D03*
X22658Y107480D02*
D03*
Y127165D02*
D03*
X31369Y239243D02*
D03*
X17450Y225324D02*
D03*
X31369Y286487D02*
D03*
X17450Y272568D02*
D03*
X55118Y342913D02*
D03*
X173228D02*
D03*
X94488Y224803D02*
D03*
X133858D02*
D03*
X74803Y303543D02*
D03*
X153543D02*
D03*
D117*
X156723Y54520D02*
D03*
D118*
X161054Y29717D02*
D03*
X41732Y154724D02*
D03*
D119*
X179951Y42316D02*
D03*
X29134Y173622D02*
D03*
D120*
X53937Y177953D02*
D03*
D121*
X27559Y323071D02*
D03*
Y343071D02*
D03*
X196693Y338583D02*
D03*
X216693D02*
D03*
X247874D02*
D03*
X267874D02*
D03*
D122*
X210827Y65908D02*
D03*
Y62940D02*
D03*
X201772Y68701D02*
D03*
X53150Y127165D02*
D03*
X212008Y172441D02*
D03*
X264173Y140157D02*
D03*
D123*
X219783Y43626D02*
D03*
Y26847D02*
D03*
X271063Y155118D02*
D03*
Y150394D02*
D03*
D124*
X116142Y81890D02*
X126378Y71653D01*
X116142Y81890D02*
Y102362D01*
X126378Y71653D02*
X136046D01*
X153180Y54520D02*
X156723D01*
X136046Y71653D02*
X153180Y54520D01*
D160*
X342913Y17717D02*
D03*
Y10237D02*
D03*
X332677Y17717D02*
D03*
Y13977D02*
D03*
Y10237D02*
D03*
D161*
Y29528D02*
D03*
X344094D02*
D03*
D162*
X338228Y92559D02*
D03*
D03*
Y87559D02*
D03*
Y82559D02*
D03*
Y77559D02*
D03*
Y72559D02*
D03*
Y67559D02*
D03*
Y62559D02*
D03*
X317284Y87559D02*
D03*
Y82559D02*
D03*
Y77559D02*
D03*
Y72559D02*
D03*
Y67559D02*
D03*
Y62559D02*
D03*
Y92559D02*
D03*
M02*
