G04*
G04 #@! TF.GenerationSoftware,Altium Limited,Altium Designer,22.2.1 (43)*
G04*
G04 Layer_Color=32896*
%FSLAX25Y25*%
%MOIN*%
G70*
G04*
G04 #@! TF.SameCoordinates,4EB9BB6F-69CC-4AE6-9B36-E95FEA1B1F0F*
G04*
G04*
G04 #@! TF.FilePolarity,Positive*
G04*
G01*
G75*
%ADD10C,0.00787*%
%ADD13C,0.00394*%
%ADD14C,0.00984*%
%ADD18C,0.01000*%
%ADD19C,0.00591*%
%ADD166C,0.00327*%
%ADD167C,0.00167*%
D10*
X323819Y94488D02*
G03*
X331693Y94488I3937J0D01*
G01*
X335084Y60050D02*
Y94488D01*
X320428Y60050D02*
X335084D01*
X331693Y94488D02*
X335084D01*
X320428Y60050D02*
Y94488D01*
X323819D01*
X371260Y2756D02*
Y6692D01*
X369948Y5380D01*
X368636Y6692D01*
Y2756D01*
X367324D02*
Y5380D01*
X366012Y6692D01*
X364700Y5380D01*
Y2756D01*
Y4724D01*
X367324D01*
X363388Y6692D02*
X362076D01*
X362732D01*
Y2756D01*
X363388D01*
X362076D01*
X360109D02*
Y6692D01*
X357485Y2756D01*
Y6692D01*
D13*
X337008Y128347D02*
G03*
X337008Y128347I-4331J0D01*
G01*
X295472Y58465D02*
X309252D01*
Y95669D01*
X295472Y58465D02*
Y95669D01*
X309252D01*
X297244Y97638D02*
X298228Y98425D01*
X296260D02*
X297244Y97638D01*
Y106693D01*
X310039D02*
Y137205D01*
X295276Y106693D02*
X310039D01*
X295276D02*
Y137205D01*
X310039D01*
X327756Y6890D02*
Y32874D01*
X309842Y6890D02*
X327756D01*
X309842D02*
Y32874D01*
X327756D01*
X328551Y34045D02*
X330368Y33751D01*
X328547Y34045D02*
X328841Y35863D01*
X328551Y34045D02*
X339104Y40945D01*
X363386D01*
Y39370D02*
Y40945D01*
X365551Y27953D02*
X371457D01*
X360236Y28150D02*
X360433Y27953D01*
X360236Y28150D02*
Y38386D01*
X355315Y27953D02*
X365551D01*
Y22638D02*
Y38386D01*
X371457Y17520D02*
Y18701D01*
X365551Y17520D02*
X371457D01*
X365551D02*
Y22638D01*
X355315D02*
X365551D01*
X355315D02*
Y38386D01*
X371457D01*
Y18701D02*
Y38386D01*
X311417Y24607D02*
X315354D01*
X311417Y26969D02*
X315354D01*
X317717Y20866D02*
X321654D01*
X317717D02*
Y31890D01*
X321654D01*
Y20866D02*
Y31890D01*
X322835Y20866D02*
X326772D01*
X322835D02*
Y31890D01*
X326772D01*
Y20866D02*
Y31890D01*
X314764Y14568D02*
Y18505D01*
X317126Y14568D02*
Y18505D01*
X322835Y7874D02*
X326772D01*
X322835D02*
Y18898D01*
X326772D01*
Y7874D02*
Y18898D01*
X335433Y8465D02*
Y19489D01*
X340158D01*
Y8465D02*
Y19489D01*
X335433Y8465D02*
X340158D01*
X348819Y7874D02*
Y18898D01*
Y7874D02*
X352756D01*
Y18898D01*
X348819D02*
X352756D01*
X341339Y20867D02*
Y24804D01*
X330315Y20867D02*
X341339D01*
X330315D02*
Y24804D01*
X341339D01*
X334835Y26194D02*
X341922D01*
X334850Y32863D02*
X341936D01*
X311417Y41339D02*
X315354D01*
X311417Y43701D02*
X315354D01*
X318110Y41339D02*
X322047D01*
X318110Y43701D02*
X322047D01*
X324803Y41339D02*
X328740D01*
X324803Y43701D02*
X328740D01*
X360236Y61417D02*
Y65354D01*
Y94291D02*
Y98228D01*
X343110Y61417D02*
X360236D01*
X343110D02*
Y98228D01*
X360236D01*
X355709Y62205D02*
X359646D01*
X355709D02*
Y73228D01*
X359646D01*
Y62205D02*
Y73228D01*
X348425Y68307D02*
X352362D01*
X348425Y65945D02*
X352362D01*
X349213Y54528D02*
Y58465D01*
X346850Y54528D02*
Y58465D01*
X366339Y56693D02*
Y60630D01*
X355315Y56693D02*
X366339D01*
X355315D02*
Y60630D01*
X366339D01*
X354528Y85039D02*
X358465D01*
Y74015D02*
Y85039D01*
X354528Y74015D02*
X358465D01*
X354528D02*
Y85039D01*
X349410Y74015D02*
Y85039D01*
Y74015D02*
X353346D01*
Y85039D01*
X349410D02*
X353346D01*
X361221Y73819D02*
X365158D01*
X361221Y71457D02*
X365158D01*
X361221Y85236D02*
X365158D01*
X361221Y87598D02*
X365158D01*
X354528Y97244D02*
X358465D01*
Y86220D02*
Y97244D01*
X354528Y86220D02*
X358465D01*
X354528D02*
Y97244D01*
X348228Y86221D02*
Y97245D01*
X344291D02*
X348228D01*
X344291Y86221D02*
Y97245D01*
Y86221D02*
X348228D01*
X349410D02*
X353346D01*
X349410D02*
Y97245D01*
X353346D01*
Y86221D02*
Y97245D01*
X296457Y59449D02*
Y63386D01*
X307481D01*
Y59449D02*
Y63386D01*
X296457Y59449D02*
X307481D01*
X301378Y67323D02*
X304134Y69291D01*
X301378Y67323D02*
Y71260D01*
X304134Y69291D01*
Y66929D02*
Y71654D01*
X297047Y73228D02*
Y77165D01*
X308071D01*
Y73228D02*
Y77165D01*
X297047Y73228D02*
X308071D01*
X297047Y78740D02*
Y82677D01*
X308071D01*
Y78740D02*
Y82677D01*
X297047Y78740D02*
X308071D01*
X298249Y88269D02*
X302186D01*
X298249Y90632D02*
X302186D01*
X304134Y83859D02*
X308071D01*
X304134D02*
Y94882D01*
X308071D01*
Y83859D02*
Y94882D01*
X314764Y101181D02*
X325788D01*
X314764Y97244D02*
Y101181D01*
Y97244D02*
X325788D01*
Y101181D01*
X321457Y103543D02*
Y107480D01*
X319094Y103543D02*
Y107480D01*
D14*
X292126Y10827D02*
Y53347D01*
Y10827D02*
X306693D01*
Y53347D01*
X292126D02*
X306693D01*
D18*
X292339Y55525D02*
Y57524D01*
Y56524D01*
X298337D01*
X297337Y55525D01*
D19*
X342913Y102362D02*
X344291Y100984D01*
Y100984D02*
X345669Y102362D01*
X344291Y100984D02*
Y121850D01*
X353543D01*
X369094Y106496D02*
Y137205D01*
X353543Y106496D02*
X369094D01*
X353543D02*
Y137205D01*
X369094D01*
X341929Y137729D02*
X339830D01*
X340880D01*
Y134580D01*
X338781D02*
Y137729D01*
X337206D01*
X336682Y137204D01*
Y136154D01*
X337206Y135629D01*
X338781D01*
X335632Y134055D02*
X333533D01*
X330384Y137204D02*
X330909Y137729D01*
X331959D01*
X332483Y137204D01*
Y135105D01*
X331959Y134580D01*
X330909D01*
X330384Y135105D01*
Y136154D01*
X331434D01*
X329335Y134580D02*
Y137729D01*
X327236Y134580D01*
Y137729D01*
X326186D02*
Y134580D01*
X324612D01*
X324087Y135105D01*
Y137204D01*
X324612Y137729D01*
X326186D01*
X337269Y58464D02*
Y55840D01*
X336745Y55316D01*
X335695D01*
X335170Y55840D01*
Y58464D01*
X334121Y55840D02*
X333596Y55316D01*
X332547D01*
X332022Y55840D01*
Y57939D01*
X332547Y58464D01*
X333596D01*
X334121Y57939D01*
Y57415D01*
X333596Y56890D01*
X332022D01*
X340222Y7086D02*
Y4462D01*
X339698Y3937D01*
X338648D01*
X338123Y4462D01*
Y7086D01*
X337074Y6561D02*
X336549Y7086D01*
X335499D01*
X334975Y6561D01*
Y6037D01*
X335499Y5512D01*
X334975Y4987D01*
Y4462D01*
X335499Y3937D01*
X336549D01*
X337074Y4462D01*
Y4987D01*
X336549Y5512D01*
X337074Y6037D01*
Y6561D01*
X336549Y5512D02*
X335499D01*
X345602Y34646D02*
Y37795D01*
X344028D01*
X343503Y37270D01*
Y36220D01*
X344028Y35696D01*
X345602D01*
X344553D02*
X343503Y34646D01*
X342454Y37795D02*
X340355D01*
X341404D01*
Y34646D01*
X339305D02*
X338256D01*
X338780D01*
Y37795D01*
X339305Y37270D01*
X308858Y136088D02*
X305709D01*
Y134514D01*
X306234Y133989D01*
X307283D01*
X307808Y134514D01*
Y136088D01*
Y135038D02*
X308858Y133989D01*
X306234Y132939D02*
X305709Y132414D01*
Y131365D01*
X306234Y130840D01*
X306759D01*
X307283Y131365D01*
Y131890D01*
Y131365D01*
X307808Y130840D01*
X308333D01*
X308858Y131365D01*
Y132414D01*
X308333Y132939D01*
X305709Y129791D02*
Y127692D01*
X306234D01*
X308333Y129791D01*
X308858D01*
X308004Y107678D02*
Y110826D01*
X306430D01*
X305905Y110301D01*
Y109252D01*
X306430Y108727D01*
X308004D01*
X306955D02*
X305905Y107678D01*
X304855Y110301D02*
X304331Y110826D01*
X303281D01*
X302756Y110301D01*
Y109777D01*
X303281Y109252D01*
X303806D01*
X303281D01*
X302756Y108727D01*
Y108202D01*
X303281Y107678D01*
X304331D01*
X304855Y108202D01*
X299608Y110826D02*
X300657Y110301D01*
X301707Y109252D01*
Y108202D01*
X301182Y107678D01*
X300133D01*
X299608Y108202D01*
Y108727D01*
X300133Y109252D01*
X301707D01*
X362795Y136088D02*
X359646D01*
Y134514D01*
X360171Y133989D01*
X361221D01*
X361745Y134514D01*
Y136088D01*
Y135038D02*
X362795Y133989D01*
X360171Y132939D02*
X359646Y132414D01*
Y131365D01*
X360171Y130840D01*
X360696D01*
X361221Y131365D01*
Y131890D01*
Y131365D01*
X361745Y130840D01*
X362270D01*
X362795Y131365D01*
Y132414D01*
X362270Y132939D01*
X359646Y127692D02*
Y129791D01*
X361221D01*
X360696Y128741D01*
Y128216D01*
X361221Y127692D01*
X362270D01*
X362795Y128216D01*
Y129266D01*
X362270Y129791D01*
X367716Y136088D02*
X364567D01*
Y134514D01*
X365092Y133989D01*
X366142D01*
X366667Y134514D01*
Y136088D01*
Y135038D02*
X367716Y133989D01*
X365092Y132939D02*
X364567Y132415D01*
Y131365D01*
X365092Y130840D01*
X365617D01*
X366142Y131365D01*
Y131890D01*
Y131365D01*
X366667Y130840D01*
X367191D01*
X367716Y131365D01*
Y132415D01*
X367191Y132939D01*
X367716Y128216D02*
X364567D01*
X366142Y129791D01*
Y127692D01*
X367716Y126049D02*
X364567D01*
Y124474D01*
X365092Y123950D01*
X366142D01*
X366667Y124474D01*
Y126049D01*
Y124999D02*
X367716Y123950D01*
X365092Y122900D02*
X364567Y122375D01*
Y121326D01*
X365092Y120801D01*
X365617D01*
X366142Y121326D01*
Y121850D01*
Y121326D01*
X366667Y120801D01*
X367191D01*
X367716Y121326D01*
Y122375D01*
X367191Y122900D01*
X365092Y119751D02*
X364567Y119227D01*
Y118177D01*
X365092Y117652D01*
X365617D01*
X366142Y118177D01*
Y118702D01*
Y118177D01*
X366667Y117652D01*
X367191D01*
X367716Y118177D01*
Y119227D01*
X367191Y119751D01*
X308004Y117323D02*
Y120472D01*
X306430D01*
X305905Y119947D01*
Y118898D01*
X306430Y118373D01*
X308004D01*
X306955D02*
X305905Y117323D01*
X304855Y119947D02*
X304331Y120472D01*
X303281D01*
X302756Y119947D01*
Y119422D01*
X303281Y118898D01*
X303806D01*
X303281D01*
X302756Y118373D01*
Y117848D01*
X303281Y117323D01*
X304331D01*
X304855Y117848D01*
X299608Y117323D02*
X301707D01*
X299608Y119422D01*
Y119947D01*
X300133Y120472D01*
X301182D01*
X301707Y119947D01*
X308004Y122638D02*
Y125787D01*
X306430D01*
X305905Y125262D01*
Y124213D01*
X306430Y123688D01*
X308004D01*
X306955D02*
X305905Y122638D01*
X304855Y125262D02*
X304331Y125787D01*
X303281D01*
X302756Y125262D01*
Y124737D01*
X303281Y124213D01*
X303806D01*
X303281D01*
X302756Y123688D01*
Y123163D01*
X303281Y122638D01*
X304331D01*
X304855Y123163D01*
X301707Y122638D02*
X300657D01*
X301182D01*
Y125787D01*
X301707Y125262D01*
X367716Y116009D02*
X364567D01*
Y114435D01*
X365092Y113910D01*
X366142D01*
X366667Y114435D01*
Y116009D01*
Y114960D02*
X367716Y113910D01*
X365092Y112861D02*
X364567Y112336D01*
Y111286D01*
X365092Y110761D01*
X365617D01*
X366142Y111286D01*
Y111811D01*
Y111286D01*
X366667Y110761D01*
X367191D01*
X367716Y111286D01*
Y112336D01*
X367191Y112861D01*
X365092Y109712D02*
X364567Y109187D01*
Y108138D01*
X365092Y107613D01*
X367191D01*
X367716Y108138D01*
Y109187D01*
X367191Y109712D01*
X365092D01*
X364631Y51575D02*
Y54724D01*
X363057D01*
X362532Y54199D01*
Y53150D01*
X363057Y52625D01*
X364631D01*
X363582D02*
X362532Y51575D01*
X359384D02*
X361483D01*
X359384Y53674D01*
Y54199D01*
X359908Y54724D01*
X360958D01*
X361483Y54199D01*
X358334Y52100D02*
X357809Y51575D01*
X356760D01*
X356235Y52100D01*
Y54199D01*
X356760Y54724D01*
X357809D01*
X358334Y54199D01*
Y53674D01*
X357809Y53150D01*
X356235D01*
X361024Y29070D02*
X364173D01*
Y30644D01*
X363648Y31169D01*
X362598D01*
X362074Y30644D01*
Y29070D01*
Y30119D02*
X361024Y31169D01*
Y34317D02*
Y32218D01*
X363123Y34317D01*
X363648D01*
X364173Y33792D01*
Y32743D01*
X363648Y32218D01*
X364173Y35367D02*
Y37466D01*
X363648D01*
X361549Y35367D01*
X361024D01*
X367126Y18833D02*
X370275D01*
Y20408D01*
X369750Y20932D01*
X368701D01*
X368176Y20408D01*
Y18833D01*
Y19883D02*
X367126Y20932D01*
Y24081D02*
Y21982D01*
X369226Y24081D01*
X369750D01*
X370275Y23556D01*
Y22507D01*
X369750Y21982D01*
X370275Y27230D02*
X369750Y26180D01*
X368701Y25131D01*
X367651D01*
X367126Y25655D01*
Y26705D01*
X367651Y27230D01*
X368176D01*
X368701Y26705D01*
Y25131D01*
X367126Y29070D02*
X370275D01*
Y30644D01*
X369750Y31169D01*
X368701D01*
X368176Y30644D01*
Y29070D01*
Y30119D02*
X367126Y31169D01*
Y34317D02*
Y32218D01*
X369226Y34317D01*
X369750D01*
X370275Y33792D01*
Y32743D01*
X369750Y32218D01*
X370275Y37466D02*
Y35367D01*
X368701D01*
X369226Y36416D01*
Y36941D01*
X368701Y37466D01*
X367651D01*
X367126Y36941D01*
Y35892D01*
X367651Y35367D01*
X351836Y21457D02*
Y24606D01*
X350262D01*
X349737Y24081D01*
Y23031D01*
X350262Y22507D01*
X351836D01*
X350786D02*
X349737Y21457D01*
X346588D02*
X348687D01*
X346588Y23556D01*
Y24081D01*
X347113Y24606D01*
X348163D01*
X348687Y24081D01*
X345539D02*
X345014Y24606D01*
X343964D01*
X343440Y24081D01*
Y23556D01*
X343964Y23031D01*
X344489D01*
X343964D01*
X343440Y22507D01*
Y21982D01*
X343964Y21457D01*
X345014D01*
X345539Y21982D01*
X308004Y115747D02*
Y112599D01*
X305905D01*
X302756Y115747D02*
X304855D01*
Y112599D01*
X302756D01*
X304855Y114173D02*
X303806D01*
X301707Y115747D02*
Y112599D01*
X300133D01*
X299608Y113124D01*
Y115223D01*
X300133Y115747D01*
X301707D01*
X296459Y112599D02*
X298558D01*
X296459Y114698D01*
Y115223D01*
X296984Y115747D01*
X298033D01*
X298558Y115223D01*
X295013Y8464D02*
X296062D01*
X295538D01*
Y5840D01*
X296062Y5316D01*
X296587D01*
X297112Y5840D01*
X293963Y7939D02*
X293439Y8464D01*
X292389D01*
X291864Y7939D01*
Y7414D01*
X292389Y6890D01*
X291864Y6365D01*
Y5840D01*
X292389Y5316D01*
X293439D01*
X293963Y5840D01*
Y6365D01*
X293439Y6890D01*
X293963Y7414D01*
Y7939D01*
X293439Y6890D02*
X292389D01*
X355447Y133989D02*
X354922Y134514D01*
Y135563D01*
X355447Y136088D01*
X357546D01*
X358070Y135563D01*
Y134514D01*
X357546Y133989D01*
X358070Y131365D02*
X354922D01*
X356496Y132939D01*
Y130840D01*
X354922Y129791D02*
Y127692D01*
X355447D01*
X357546Y129791D01*
X358070D01*
X334383Y106758D02*
X334907Y107283D01*
X335957D01*
X336482Y106758D01*
Y104659D01*
X335957Y104134D01*
X334907D01*
X334383Y104659D01*
X331759Y104134D02*
Y107283D01*
X333333Y105709D01*
X331234D01*
X328085Y107283D02*
X329135Y106758D01*
X330184Y105709D01*
Y104659D01*
X329660Y104134D01*
X328610D01*
X328085Y104659D01*
Y105184D01*
X328610Y105709D01*
X330184D01*
X334383Y100459D02*
X334907Y100984D01*
X335957D01*
X336482Y100459D01*
Y98360D01*
X335957Y97835D01*
X334907D01*
X334383Y98360D01*
X331759Y97835D02*
Y100984D01*
X333333Y99410D01*
X331234D01*
X328085Y100984D02*
X330184D01*
Y99410D01*
X329135Y99934D01*
X328610D01*
X328085Y99410D01*
Y98360D01*
X328610Y97835D01*
X329660D01*
X330184Y98360D01*
X368439Y88516D02*
X367914Y89041D01*
Y90091D01*
X368439Y90615D01*
X370538D01*
X371062Y90091D01*
Y89041D01*
X370538Y88516D01*
X371062Y85893D02*
X367914D01*
X369488Y87467D01*
Y85368D01*
X371062Y82744D02*
X367914D01*
X369488Y84318D01*
Y82219D01*
X300722Y133989D02*
X300197Y134514D01*
Y135563D01*
X300722Y136088D01*
X302821D01*
X303346Y135563D01*
Y134514D01*
X302821Y133989D01*
X303346Y131365D02*
X300197D01*
X301772Y132939D01*
Y130840D01*
X300722Y129791D02*
X300197Y129266D01*
Y128216D01*
X300722Y127692D01*
X301247D01*
X301772Y128216D01*
Y128741D01*
Y128216D01*
X302296Y127692D01*
X302821D01*
X303346Y128216D01*
Y129266D01*
X302821Y129791D01*
X360171Y123950D02*
X359646Y124474D01*
Y125524D01*
X360171Y126049D01*
X362270D01*
X362795Y125524D01*
Y124474D01*
X362270Y123950D01*
X362795Y121326D02*
X359646D01*
X361221Y122900D01*
Y120801D01*
X362795Y117652D02*
Y119751D01*
X360696Y117652D01*
X360171D01*
X359646Y118177D01*
Y119227D01*
X360171Y119751D01*
X368439Y74409D02*
X367914Y74934D01*
Y75983D01*
X368439Y76508D01*
X370538D01*
X371062Y75983D01*
Y74934D01*
X370538Y74409D01*
X371062Y71785D02*
X367914D01*
X369488Y73359D01*
Y71260D01*
X371062Y70211D02*
Y69161D01*
Y69686D01*
X367914D01*
X368439Y70211D01*
X324738Y55445D02*
X324213Y55970D01*
Y57020D01*
X324738Y57545D01*
X326837D01*
X327362Y57020D01*
Y55970D01*
X326837Y55445D01*
X327362Y52822D02*
X324213D01*
X325787Y54396D01*
Y52297D01*
X324738Y51247D02*
X324213Y50723D01*
Y49673D01*
X324738Y49148D01*
X326837D01*
X327362Y49673D01*
Y50723D01*
X326837Y51247D01*
X324738D01*
X318045Y55445D02*
X317520Y55970D01*
Y57020D01*
X318045Y57545D01*
X320144D01*
X320669Y57020D01*
Y55970D01*
X320144Y55445D01*
X318045Y54396D02*
X317520Y53871D01*
Y52822D01*
X318045Y52297D01*
X318570D01*
X319094Y52822D01*
Y53347D01*
Y52822D01*
X319619Y52297D01*
X320144D01*
X320669Y52822D01*
Y53871D01*
X320144Y54396D01*
Y51247D02*
X320669Y50723D01*
Y49673D01*
X320144Y49148D01*
X318045D01*
X317520Y49673D01*
Y50723D01*
X318045Y51247D01*
X318570D01*
X319094Y50723D01*
Y49148D01*
X311746Y55445D02*
X311221Y55970D01*
Y57020D01*
X311746Y57545D01*
X313845D01*
X314370Y57020D01*
Y55970D01*
X313845Y55445D01*
X311746Y54396D02*
X311221Y53871D01*
Y52822D01*
X311746Y52297D01*
X312270D01*
X312795Y52822D01*
Y53347D01*
Y52822D01*
X313320Y52297D01*
X313845D01*
X314370Y52822D01*
Y53871D01*
X313845Y54396D01*
X311746Y51247D02*
X311221Y50723D01*
Y49673D01*
X311746Y49148D01*
X312270D01*
X312795Y49673D01*
X313320Y49148D01*
X313845D01*
X314370Y49673D01*
Y50723D01*
X313845Y51247D01*
X313320D01*
X312795Y50723D01*
X312270Y51247D01*
X311746D01*
X312795Y50723D02*
Y49673D01*
X360171Y113910D02*
X359646Y114435D01*
Y115484D01*
X360171Y116009D01*
X362270D01*
X362795Y115484D01*
Y114435D01*
X362270Y113910D01*
X360171Y112861D02*
X359646Y112336D01*
Y111286D01*
X360171Y110761D01*
X360696D01*
X361221Y111286D01*
Y111811D01*
Y111286D01*
X361745Y110761D01*
X362270D01*
X362795Y111286D01*
Y112336D01*
X362270Y112861D01*
X359646Y109712D02*
Y107613D01*
X360171D01*
X362270Y109712D01*
X362795D01*
X350131Y51640D02*
X350655Y52165D01*
X351705D01*
X352230Y51640D01*
Y49541D01*
X351705Y49016D01*
X350655D01*
X350131Y49541D01*
X349081Y51640D02*
X348556Y52165D01*
X347507D01*
X346982Y51640D01*
Y51115D01*
X347507Y50591D01*
X348031D01*
X347507D01*
X346982Y50066D01*
Y49541D01*
X347507Y49016D01*
X348556D01*
X349081Y49541D01*
X343833Y52165D02*
X344883Y51640D01*
X345932Y50591D01*
Y49541D01*
X345408Y49016D01*
X344358D01*
X343833Y49541D01*
Y50066D01*
X344358Y50591D01*
X345932D01*
X355447Y15682D02*
X354922Y16206D01*
Y17256D01*
X355447Y17781D01*
X357546D01*
X358070Y17256D01*
Y16206D01*
X357546Y15682D01*
X355447Y14632D02*
X354922Y14107D01*
Y13058D01*
X355447Y12533D01*
X355971D01*
X356496Y13058D01*
Y13583D01*
Y13058D01*
X357021Y12533D01*
X357546D01*
X358070Y13058D01*
Y14107D01*
X357546Y14632D01*
X354922Y9385D02*
Y11484D01*
X356496D01*
X355971Y10434D01*
Y9909D01*
X356496Y9385D01*
X357546D01*
X358070Y9909D01*
Y10959D01*
X357546Y11484D01*
X358924Y31169D02*
X359448Y30644D01*
Y29594D01*
X358924Y29070D01*
X356824D01*
X356300Y29594D01*
Y30644D01*
X356824Y31169D01*
X358924Y32218D02*
X359448Y32743D01*
Y33792D01*
X358924Y34317D01*
X358399D01*
X357874Y33792D01*
Y33268D01*
Y33792D01*
X357349Y34317D01*
X356824D01*
X356300Y33792D01*
Y32743D01*
X356824Y32218D01*
X356300Y36941D02*
X359448D01*
X357874Y35367D01*
Y37466D01*
X362532Y26640D02*
X363057Y27165D01*
X364106D01*
X364631Y26640D01*
Y24541D01*
X364106Y24016D01*
X363057D01*
X362532Y24541D01*
X361483Y26640D02*
X360958Y27165D01*
X359908D01*
X359384Y26640D01*
Y26115D01*
X359908Y25591D01*
X360433D01*
X359908D01*
X359384Y25066D01*
Y24541D01*
X359908Y24016D01*
X360958D01*
X361483Y24541D01*
X358334Y26640D02*
X357809Y27165D01*
X356760D01*
X356235Y26640D01*
Y26115D01*
X356760Y25591D01*
X357284D01*
X356760D01*
X356235Y25066D01*
Y24541D01*
X356760Y24016D01*
X357809D01*
X358334Y24541D01*
D166*
X57874Y92550D02*
X58201D01*
X57874Y92223D02*
X58527D01*
X57874Y91896D02*
X58527D01*
X57874Y91570D02*
X58527D01*
X57874Y91243D02*
X58527D01*
X57547Y90917D02*
X58527D01*
X57547Y90590D02*
X58527D01*
X57547Y90264D02*
X58201D01*
X57547Y89937D02*
X58201D01*
X57547Y89610D02*
X58201D01*
X62120Y89284D02*
X62446D01*
X57547D02*
X58201D01*
X61793Y88957D02*
X62446D01*
X57547D02*
X58201D01*
X61793Y88631D02*
X62773D01*
X57221D02*
X58201D01*
X61793Y88304D02*
X62773D01*
X57221D02*
X58201D01*
X61793Y87978D02*
X62773D01*
X57221D02*
X58201D01*
X61793Y87651D02*
X62773D01*
X57221D02*
X57874D01*
X61793Y87324D02*
X62773D01*
X57221D02*
X57874D01*
X61793Y86998D02*
X62773D01*
X57221D02*
X57874D01*
X61793Y86671D02*
X62773D01*
X57221D02*
X57874D01*
X61466Y86345D02*
X62446D01*
X57221D02*
X57874D01*
X61466Y86018D02*
X62446D01*
X57221D02*
X57874D01*
X61466Y85691D02*
X62446D01*
X56894D02*
X57874D01*
X61466Y85365D02*
X62446D01*
X56894D02*
X57874D01*
X61466Y85038D02*
X62446D01*
X56894D02*
X57874D01*
X66039Y84712D02*
X66365D01*
X61466D02*
X62446D01*
X56894D02*
X57874D01*
X66039Y84385D02*
X66692D01*
X61466D02*
X62446D01*
X56894D02*
X57874D01*
X66039Y84059D02*
X66692D01*
X61466D02*
X62446D01*
X56894D02*
X57874D01*
X66039Y83732D02*
X66692D01*
X61466D02*
X62446D01*
X56894D02*
X57874D01*
X65712Y83405D02*
X66692D01*
X61466D02*
X62446D01*
X56894D02*
X57874D01*
X65712Y83079D02*
X66692D01*
X61466D02*
X62120D01*
X56894D02*
X57874D01*
X65712Y82752D02*
X66692D01*
X61466D02*
X62120D01*
X56894D02*
X57874D01*
X65712Y82426D02*
X66692D01*
X61466D02*
X62120D01*
X56894D02*
X57874D01*
X65712Y82099D02*
X66692D01*
X61466D02*
X62120D01*
X56894D02*
X57874D01*
X65712Y81773D02*
X66365D01*
X61140D02*
X62120D01*
X56894D02*
X57874D01*
X65712Y81446D02*
X66365D01*
X61140D02*
X62120D01*
X56894D02*
X57547D01*
X65712Y81119D02*
X66365D01*
X61140D02*
X62120D01*
X56894D02*
X57547D01*
X65712Y80793D02*
X66365D01*
X61140D02*
X62120D01*
X56894D02*
X57547D01*
X65712Y80466D02*
X66365D01*
X61140D02*
X62120D01*
X58201D02*
X58527D01*
X56568D02*
X57547D01*
X65712Y80140D02*
X66365D01*
X61140D02*
X62120D01*
X58201D02*
X59180D01*
X56568D02*
X57547D01*
X65712Y79813D02*
X66365D01*
X61140D02*
X62120D01*
X58201D02*
X59180D01*
X56568D02*
X57547D01*
X65712Y79487D02*
X66365D01*
X61140D02*
X62120D01*
X58527D02*
X59507D01*
X56568D02*
X57547D01*
X65385Y79160D02*
X66365D01*
X61140D02*
X61793D01*
X58854D02*
X59834D01*
X56568D02*
X57547D01*
X65385Y78833D02*
X66365D01*
X61140D02*
X61793D01*
X59180D02*
X59834D01*
X56568D02*
X57547D01*
X65385Y78507D02*
X66365D01*
X61140D02*
X61793D01*
X59507D02*
X60160D01*
X56568D02*
X57547D01*
X65385Y78180D02*
X66365D01*
X61140D02*
X61793D01*
X59507D02*
X60160D01*
X56568D02*
X57547D01*
X65385Y77854D02*
X66365D01*
X61140D02*
X61793D01*
X59507D02*
X60487D01*
X56568D02*
X57547D01*
X65385Y77527D02*
X66365D01*
X63099D02*
X63426D01*
X61140D02*
X61793D01*
X59507D02*
X60487D01*
X56568D02*
X57547D01*
X65385Y77200D02*
X66365D01*
X63099D02*
X63753D01*
X61140D02*
X61793D01*
X59180D02*
X60487D01*
X56568D02*
X57547D01*
X65385Y76874D02*
X66365D01*
X63099D02*
X64079D01*
X61140D02*
X61793D01*
X58854D02*
X60813D01*
X56568D02*
X57547D01*
X65385Y76547D02*
X66365D01*
X63426D02*
X64079D01*
X58527D02*
X61793D01*
X56568D02*
X57547D01*
X65385Y76221D02*
X66039D01*
X63753D02*
X64406D01*
X58201D02*
X61793D01*
X56568D02*
X57547D01*
X65385Y75894D02*
X66039D01*
X63753D02*
X64406D01*
X60813D02*
X61793D01*
X57874D02*
X60487D01*
X56568D02*
X57547D01*
X65385Y75568D02*
X66039D01*
X63753D02*
X64732D01*
X60813D02*
X61793D01*
X56568D02*
X60160D01*
X66692Y75241D02*
X67345D01*
X65385D02*
X66039D01*
X63753D02*
X64732D01*
X60813D02*
X61793D01*
X56568D02*
X60160D01*
X67018Y74914D02*
X67671D01*
X65059D02*
X66039D01*
X63753D02*
X64732D01*
X60813D02*
X61793D01*
X56568D02*
X59834D01*
X67345Y74588D02*
X67671D01*
X65059D02*
X66039D01*
X63426D02*
X64732D01*
X60813D02*
X61793D01*
X56568D02*
X59507D01*
X67345Y74261D02*
X67998D01*
X65059D02*
X66039D01*
X63426D02*
X64732D01*
X60813D02*
X61793D01*
X56241D02*
X59180D01*
X67671Y73935D02*
X68325D01*
X65059D02*
X66039D01*
X63099D02*
X64732D01*
X60813D02*
X61793D01*
X56241D02*
X58854D01*
X67671Y73608D02*
X68325D01*
X65059D02*
X66039D01*
X62446D02*
X64732D01*
X60813D02*
X61466D01*
X55914D02*
X58527D01*
X67998Y73281D02*
X68651D01*
X65059D02*
X66039D01*
X62120D02*
X64732D01*
X60813D02*
X61466D01*
X55588D02*
X58527D01*
X67998Y72955D02*
X68651D01*
X65059D02*
X66039D01*
X61793D02*
X64406D01*
X60813D02*
X61466D01*
X55261D02*
X58201D01*
X77795Y72628D02*
X81061D01*
X67998D02*
X68978D01*
X65059D02*
X66039D01*
X60813D02*
X64406D01*
X54935D02*
X57874D01*
X73550Y72302D02*
X84000D01*
X67998D02*
X68978D01*
X65059D02*
X66039D01*
X60813D02*
X64079D01*
X54608D02*
X57547D01*
X71590Y71975D02*
X85633D01*
X67671D02*
X68978D01*
X65059D02*
X66039D01*
X60813D02*
X63753D01*
X54608D02*
X57221D01*
X83021Y71649D02*
X86940D01*
X69631D02*
X72897D01*
X67345D02*
X68978D01*
X65059D02*
X66039D01*
X60487D02*
X63426D01*
X53955D02*
X57221D01*
X84327Y71322D02*
X87919D01*
X67018D02*
X70937D01*
X65059D02*
X66039D01*
X60160D02*
X63099D01*
X53955D02*
X57221D01*
X85307Y70995D02*
X88899D01*
X66692D02*
X69304D01*
X64732D02*
X65712D01*
X59834D02*
X62446D01*
X53628D02*
X57221D01*
X86286Y70669D02*
X89879D01*
X66365D02*
X68651D01*
X64732D02*
X65712D01*
X59507D02*
X62120D01*
X56241D02*
X57221D01*
X53302D02*
X55914D01*
X86940Y70342D02*
X90206D01*
X64732D02*
X68325D01*
X59180D02*
X61793D01*
X56241D02*
X57221D01*
X52975D02*
X55588D01*
X87593Y70016D02*
X90859D01*
X64732D02*
X67998D01*
X58854D02*
X61466D01*
X56241D02*
X57221D01*
X52649D02*
X55261D01*
X88246Y69689D02*
X91185D01*
X74203D02*
X74530D01*
X64406D02*
X67671D01*
X58527D02*
X61466D01*
X56241D02*
X57221D01*
X52649D02*
X54935D01*
X89226Y69362D02*
X91838D01*
X73877D02*
X74856D01*
X63426D02*
X67345D01*
X58201D02*
X61466D01*
X56241D02*
X57221D01*
X52322D02*
X54608D01*
X89552Y69036D02*
X92165D01*
X73877D02*
X74856D01*
X63099D02*
X67018D01*
X57874D02*
X61466D01*
X56241D02*
X57221D01*
X51996D02*
X54282D01*
X90206Y68709D02*
X92818D01*
X73550D02*
X74856D01*
X62446D02*
X66692D01*
X60487D02*
X61466D01*
X57547D02*
X60160D01*
X56241D02*
X57221D01*
X51669D02*
X53955D01*
X90532Y68383D02*
X93145D01*
X73223D02*
X74856D01*
X60487D02*
X66365D01*
X56241D02*
X59834D01*
X51342D02*
X53628D01*
X90859Y68056D02*
X93471D01*
X73223D02*
X75183D01*
X63753D02*
X66039D01*
X60487D02*
X63426D01*
X56241D02*
X59507D01*
X51016D02*
X53628D01*
X91185Y67730D02*
X93798D01*
X72897D02*
X75509D01*
X63753D02*
X65712D01*
X60487D02*
X62773D01*
X56241D02*
X59180D01*
X51016D02*
X53302D01*
X91512Y67403D02*
X94125D01*
X71264D02*
X76816D01*
X63426D02*
X65712D01*
X60160D02*
X62446D01*
X56241D02*
X59180D01*
X50689D02*
X52975D01*
X91838Y67076D02*
X94451D01*
X69304D02*
X78122D01*
X63099D02*
X65712D01*
X59834D02*
X61793D01*
X56241D02*
X58854D01*
X50363D02*
X52649D01*
X92165Y66750D02*
X94451D01*
X75836D02*
X79102D01*
X72244D02*
X74530D01*
X67998D02*
X71264D01*
X62773D02*
X65712D01*
X59507D02*
X61793D01*
X56241D02*
X58527D01*
X50036D02*
X52322D01*
X92492Y66423D02*
X94778D01*
X77142D02*
X80081D01*
X72244D02*
X74203D01*
X67018D02*
X69631D01*
X64732D02*
X65712D01*
X62446D02*
X64406D01*
X59180D02*
X61466D01*
X56241D02*
X58201D01*
X50036D02*
X52322D01*
X92818Y66097D02*
X95104D01*
X78122D02*
X80735D01*
X72244D02*
X74203D01*
X68651D02*
X68978D01*
X66039D02*
X68325D01*
X64732D02*
X65712D01*
X62120D02*
X64079D01*
X58527D02*
X61466D01*
X56241D02*
X57874D01*
X49709D02*
X51996D01*
X93145Y65770D02*
X95104D01*
X79102D02*
X81388D01*
X71917D02*
X73877D01*
X68651D02*
X69958D01*
X64732D02*
X67345D01*
X62120D02*
X63753D01*
X58527D02*
X61466D01*
X56241D02*
X57547D01*
X49383D02*
X51669D01*
X93145Y65443D02*
X95431D01*
X79428D02*
X81714D01*
X71917D02*
X73550D01*
X69631D02*
X70937D01*
X64406D02*
X66365D01*
X60160D02*
X63426D01*
X57874D02*
X59834D01*
X56241D02*
X57221D01*
X49383D02*
X51342D01*
X93471Y65117D02*
X95431D01*
X80081D02*
X82368D01*
X71917D02*
X73223D01*
X70284D02*
X70937D01*
X63753D02*
X65712D01*
X60160D02*
X63099D01*
X57547D02*
X59507D01*
X56241D02*
X57221D01*
X49056D02*
X51342D01*
X93798Y64790D02*
X95757D01*
X80735D02*
X82694D01*
X71590D02*
X73223D01*
X68325D02*
X68651D01*
X67345D02*
X67998D01*
X60160D02*
X65712D01*
X56241D02*
X59180D01*
X48730D02*
X51016D01*
X93798Y64464D02*
X95757D01*
X81061D02*
X83021D01*
X71590D02*
X72897D01*
X69304D02*
X69958D01*
X68325D02*
X68651D01*
X67345D02*
X67998D01*
X60487D02*
X65712D01*
X56241D02*
X58854D01*
X48730D02*
X50689D01*
X93798Y64137D02*
X96084D01*
X81714D02*
X83347D01*
X71590D02*
X72897D01*
X69304D02*
X69958D01*
X68325D02*
X68651D01*
X67345D02*
X67671D01*
X64732D02*
X65712D01*
X60487D02*
X63753D01*
X55588D02*
X58201D01*
X48403D02*
X50363D01*
X94125Y63811D02*
X96084D01*
X82041D02*
X83674D01*
X71264D02*
X72570D01*
X69304D02*
X69958D01*
X67998D02*
X68651D01*
X67345D02*
X67671D01*
X64732D02*
X65712D01*
X60487D02*
X63426D01*
X55261D02*
X57874D01*
X48403D02*
X50363D01*
X94125Y63484D02*
X96084D01*
X82368D02*
X84000D01*
X71264D02*
X72570D01*
X69304D02*
X69958D01*
X67998D02*
X68978D01*
X67345D02*
X67671D01*
X64732D02*
X65712D01*
X60160D02*
X62773D01*
X54935D02*
X57547D01*
X48077D02*
X50036D01*
X94451Y63157D02*
X96411D01*
X82694D02*
X84327D01*
X71264D02*
X72570D01*
X67345D02*
X69958D01*
X64732D02*
X65712D01*
X59834D02*
X62446D01*
X54608D02*
X57221D01*
X47750D02*
X50036D01*
X94451Y62831D02*
X96411D01*
X82694D02*
X84327D01*
X71264D02*
X72244D01*
X67671D02*
X69958D01*
X64732D02*
X65712D01*
X59507D02*
X62120D01*
X54282D02*
X57221D01*
X47750D02*
X49709D01*
X94451Y62504D02*
X96411D01*
X83021D02*
X84654D01*
X71264D02*
X72244D01*
X64406D02*
X66039D01*
X59180D02*
X61793D01*
X53628D02*
X57221D01*
X47423D02*
X49383D01*
X94451Y62178D02*
X96737D01*
X83021D02*
X84654D01*
X71264D02*
X72244D01*
X64406D02*
X66365D01*
X58854D02*
X61793D01*
X53302D02*
X57221D01*
X47423D02*
X49383D01*
X94778Y61851D02*
X96737D01*
X83021D02*
X84980D01*
X78122D02*
X80081D01*
X70937D02*
X72244D01*
X68978D02*
X69304D01*
X63753D02*
X67018D01*
X58201D02*
X61793D01*
X56241D02*
X57221D01*
X52975D02*
X55914D01*
X47097D02*
X49056D01*
X94778Y61524D02*
X96737D01*
X83021D02*
X84980D01*
X76489D02*
X81714D01*
X70937D02*
X71917D01*
X68325D02*
X69958D01*
X63426D02*
X67345D01*
X57874D02*
X61793D01*
X56241D02*
X57221D01*
X52649D02*
X55588D01*
X47097D02*
X48730D01*
X94778Y61198D02*
X96737D01*
X75836D02*
X85307D01*
X70937D02*
X71917D01*
X67998D02*
X70284D01*
X62773D02*
X67018D01*
X57547D02*
X61793D01*
X56241D02*
X57221D01*
X52322D02*
X55261D01*
X46770D02*
X48730D01*
X94778Y60871D02*
X96737D01*
X74856D02*
X85307D01*
X71264D02*
X71917D01*
X67998D02*
X70611D01*
X62446D02*
X66365D01*
X60160D02*
X61466D01*
X56241D02*
X59834D01*
X51996D02*
X54935D01*
X46770D02*
X48403D01*
X94778Y60545D02*
X96737D01*
X74530D02*
X85307D01*
X71264D02*
X71917D01*
X67671D02*
X70937D01*
X62120D02*
X66039D01*
X60160D02*
X61466D01*
X56241D02*
X59507D01*
X51669D02*
X54608D01*
X46444D02*
X48403D01*
X94778Y60218D02*
X96737D01*
X81061D02*
X85307D01*
X73877D02*
X79102D01*
X71264D02*
X71917D01*
X67671D02*
X70937D01*
X61793D02*
X65712D01*
X60160D02*
X61466D01*
X56241D02*
X58854D01*
X51342D02*
X54282D01*
X46444D02*
X48077D01*
X94778Y59892D02*
X96737D01*
X82368D02*
X85633D01*
X73550D02*
X78122D01*
X69958D02*
X71917D01*
X67671D02*
X69304D01*
X60160D02*
X65385D01*
X56241D02*
X58527D01*
X51016D02*
X53955D01*
X46444D02*
X48077D01*
X94778Y59565D02*
X96737D01*
X83021D02*
X86286D01*
X73223D02*
X77142D01*
X70284D02*
X71917D01*
X67671D02*
X68978D01*
X60160D02*
X65385D01*
X55914D02*
X58201D01*
X50689D02*
X53628D01*
X46117D02*
X47750D01*
X94778Y59238D02*
X96737D01*
X83347D02*
X86940D01*
X72897D02*
X76489D01*
X70611D02*
X71590D01*
X67671D02*
X68978D01*
X64406D02*
X65385D01*
X60160D02*
X63426D01*
X55588D02*
X57874D01*
X50363D02*
X53302D01*
X46117D02*
X47750D01*
X94451Y58912D02*
X96737D01*
X83021D02*
X87593D01*
X72570D02*
X76162D01*
X70611D02*
X71590D01*
X69631D02*
X70284D01*
X67671D02*
X68978D01*
X64406D02*
X65385D01*
X60160D02*
X63099D01*
X55261D02*
X57547D01*
X50363D02*
X52975D01*
X45790D02*
X47750D01*
X94451Y58585D02*
X96737D01*
X86286D02*
X88246D01*
X83021D02*
X85307D01*
X71917D02*
X75509D01*
X70937D02*
X71590D01*
X69631D02*
X70284D01*
X67671D02*
X68651D01*
X64406D02*
X65385D01*
X60160D02*
X62446D01*
X54935D02*
X57221D01*
X50036D02*
X52649D01*
X45790D02*
X47423D01*
X94451Y58259D02*
X96737D01*
X86940D02*
X88573D01*
X83021D02*
X85307D01*
X70937D02*
X75183D01*
X69631D02*
X70284D01*
X67345D02*
X68651D01*
X64406D02*
X65385D01*
X59834D02*
X62120D01*
X54608D02*
X57221D01*
X49709D02*
X52649D01*
X45790D02*
X47423D01*
X94451Y57932D02*
X96411D01*
X87593D02*
X89226D01*
X83021D02*
X85307D01*
X70937D02*
X74856D01*
X69631D02*
X70284D01*
X67345D02*
X68651D01*
X64406D02*
X65385D01*
X59507D02*
X61793D01*
X54282D02*
X57221D01*
X49383D02*
X52322D01*
X45790D02*
X47097D01*
X94451Y57606D02*
X96411D01*
X88246D02*
X89552D01*
X83021D02*
X85307D01*
X70937D02*
X74530D01*
X69631D02*
X70284D01*
X67018D02*
X68651D01*
X64406D02*
X65385D01*
X59180D02*
X61793D01*
X53955D02*
X57221D01*
X49056D02*
X51996D01*
X45464D02*
X47097D01*
X94451Y57279D02*
X96411D01*
X88899D02*
X90532D01*
X82694D02*
X85307D01*
X70611D02*
X74203D01*
X69631D02*
X69958D01*
X66692D02*
X68325D01*
X64406D02*
X65385D01*
X58854D02*
X61466D01*
X53628D02*
X57221D01*
X48730D02*
X51669D01*
X45464D02*
X47097D01*
X94125Y56952D02*
X96411D01*
X89226D02*
X90859D01*
X82694D02*
X85307D01*
X70611D02*
X73550D01*
X66039D02*
X68325D01*
X64406D02*
X65385D01*
X58527D02*
X61466D01*
X55914D02*
X57221D01*
X53302D02*
X55588D01*
X48730D02*
X51342D01*
X45464D02*
X47097D01*
X94125Y56626D02*
X96411D01*
X89879D02*
X91512D01*
X82368D02*
X84980D01*
X70284D02*
X73223D01*
X63099D02*
X67998D01*
X58201D02*
X61140D01*
X55914D02*
X57221D01*
X52975D02*
X55261D01*
X48403D02*
X51016D01*
X45464D02*
X46770D01*
X94125Y56299D02*
X96084D01*
X90532D02*
X92165D01*
X82368D02*
X84980D01*
X69958D02*
X72897D01*
X57547D02*
X67671D01*
X55914D02*
X57221D01*
X52649D02*
X54935D01*
X48077D02*
X51016D01*
X45464D02*
X46770D01*
X93798Y55973D02*
X96084D01*
X90859D02*
X92492D01*
X82041D02*
X84654D01*
X69958D02*
X72570D01*
X68978D02*
X69631D01*
X55914D02*
X67345D01*
X52322D02*
X54608D01*
X47750D02*
X50689D01*
X45137D02*
X46770D01*
X93798Y55646D02*
X96084D01*
X91512D02*
X92818D01*
X82041D02*
X84654D01*
X69958D02*
X72244D01*
X68651D02*
X69631D01*
X55914D02*
X66692D01*
X51996D02*
X54282D01*
X47423D02*
X50363D01*
X45137D02*
X46770D01*
X91838Y55319D02*
X95757D01*
X81714D02*
X84327D01*
X69958D02*
X71917D01*
X68651D02*
X69631D01*
X55914D02*
X66039D01*
X51996D02*
X54282D01*
X47423D02*
X50036D01*
X45137D02*
X46770D01*
X92492Y54993D02*
X95757D01*
X81388D02*
X84327D01*
X70284D02*
X71590D01*
X68325D02*
X69631D01*
X64732D02*
X65712D01*
X62120D02*
X63099D01*
X55588D02*
X61140D01*
X51669D02*
X53955D01*
X47097D02*
X50036D01*
X45137D02*
X46770D01*
X92818Y54666D02*
X95757D01*
X81388D02*
X84000D01*
X70284D02*
X71264D01*
X67998D02*
X69958D01*
X64732D02*
X66039D01*
X62120D02*
X63099D01*
X60160D02*
X61140D01*
X54935D02*
X58854D01*
X51342D02*
X53628D01*
X45137D02*
X49709D01*
X93145Y54340D02*
X95431D01*
X81061D02*
X84000D01*
X70284D02*
X70937D01*
X67345D02*
X69958D01*
X65059D02*
X66365D01*
X62120D02*
X63426D01*
X60160D02*
X61140D01*
X54282D02*
X58201D01*
X51016D02*
X53302D01*
X45137D02*
X49383D01*
X92818Y54013D02*
X95431D01*
X80735D02*
X83674D01*
X65059D02*
X69631D01*
X62446D02*
X63753D01*
X59834D02*
X61140D01*
X53955D02*
X57221D01*
X50689D02*
X53302D01*
X45137D02*
X49056D01*
X92818Y53687D02*
X95431D01*
X80081D02*
X83347D01*
X65385D02*
X69631D01*
X62120D02*
X63753D01*
X59834D02*
X61140D01*
X54282D02*
X57221D01*
X50689D02*
X52975D01*
X45464D02*
X48730D01*
X92492Y53360D02*
X95757D01*
X79755D02*
X83021D01*
X65385D02*
X69304D01*
X59834D02*
X64079D01*
X54935D02*
X56894D01*
X50363D02*
X52649D01*
X45464D02*
X48730D01*
X95104Y53033D02*
X96084D01*
X92165D02*
X94778D01*
X79428D02*
X82694D01*
X65712D02*
X69304D01*
X59834D02*
X64079D01*
X55588D02*
X56894D01*
X50036D02*
X52649D01*
X45464D02*
X48403D01*
X95757Y52707D02*
X96411D01*
X92165D02*
X94778D01*
X78775D02*
X82368D01*
X66039D02*
X68978D01*
X59180D02*
X64406D01*
X55914D02*
X56894D01*
X54935D02*
X55261D01*
X53955D02*
X54282D01*
X52975D02*
X53628D01*
X49709D02*
X52322D01*
X45464D02*
X48077D01*
X91838Y52380D02*
X94451D01*
X77795D02*
X82041D01*
X66692D02*
X68978D01*
X65385D02*
X66039D01*
X58201D02*
X64732D01*
X55914D02*
X56894D01*
X54935D02*
X55261D01*
X53955D02*
X54282D01*
X52975D02*
X53628D01*
X49383D02*
X51996D01*
X45464D02*
X48077D01*
X91512Y52054D02*
X94125D01*
X77142D02*
X81714D01*
X67998D02*
X68978D01*
X65059D02*
X65712D01*
X63753D02*
X64732D01*
X57874D02*
X62446D01*
X55914D02*
X56894D01*
X54935D02*
X55261D01*
X52975D02*
X54282D01*
X49383D02*
X51996D01*
X45464D02*
X47750D01*
X91185Y51727D02*
X93798D01*
X76489D02*
X81061D01*
X67998D02*
X68978D01*
X64079D02*
X65712D01*
X55914D02*
X61466D01*
X52975D02*
X55261D01*
X49056D02*
X51669D01*
X45137D02*
X47423D01*
X91185Y51401D02*
X93798D01*
X75836D02*
X80735D01*
X68325D02*
X68978D01*
X66692D02*
X67345D01*
X64406D02*
X65385D01*
X55914D02*
X61140D01*
X53302D02*
X55261D01*
X48730D02*
X51669D01*
X44811D02*
X47423D01*
X90532Y51074D02*
X93471D01*
X74530D02*
X80081D01*
X68651D02*
X69304D01*
X66365D02*
X67671D01*
X64406D02*
X65385D01*
X62773D02*
X63753D01*
X59834D02*
X61140D01*
X55588D02*
X59507D01*
X48730D02*
X51342D01*
X44811D02*
X47423D01*
X90206Y50747D02*
X93471D01*
X73877D02*
X79428D01*
X68651D02*
X69631D01*
X64732D02*
X67671D01*
X62773D02*
X63753D01*
X59834D02*
X61140D01*
X54935D02*
X59180D01*
X48403D02*
X51016D01*
X44484D02*
X47750D01*
X89879Y50421D02*
X93145D01*
X68978D02*
X78449D01*
X62773D02*
X67998D01*
X59834D02*
X61140D01*
X54282D02*
X58527D01*
X48077D02*
X51016D01*
X44484D02*
X47750D01*
X89552Y50094D02*
X92818D01*
X69304D02*
X77795D01*
X65385D02*
X67998D01*
X62773D02*
X65059D01*
X59834D02*
X61140D01*
X53302D02*
X57874D01*
X47097D02*
X50689D01*
X44158D02*
X46770D01*
X89226Y49768D02*
X92492D01*
X69631D02*
X77142D01*
X65712D02*
X67671D01*
X63099D02*
X64732D01*
X59834D02*
X61140D01*
X51996D02*
X57547D01*
X47423D02*
X50363D01*
X44158D02*
X46444D01*
X88899Y49441D02*
X92165D01*
X69958D02*
X76162D01*
X68978D02*
X69304D01*
X66039D02*
X67345D01*
X63753D02*
X64406D01*
X50689D02*
X61140D01*
X47423D02*
X50363D01*
X43831D02*
X46117D01*
X88573Y49115D02*
X91838D01*
X70611D02*
X75183D01*
X68978D02*
X69631D01*
X66365D02*
X67345D01*
X63753D02*
X64079D01*
X50689D02*
X61793D01*
X47423D02*
X50036D01*
X43505D02*
X46117D01*
X88246Y48788D02*
X91512D01*
X68651D02*
X69631D01*
X66692D02*
X67671D01*
X51016D02*
X65385D01*
X47423D02*
X49709D01*
X43505D02*
X45790D01*
X87919Y48461D02*
X91185D01*
X68651D02*
X69958D01*
X67018D02*
X67998D01*
X55261D02*
X65385D01*
X51016D02*
X54608D01*
X47097D02*
X49709D01*
X43178D02*
X45790D01*
X87266Y48135D02*
X90859D01*
X67345D02*
X69958D01*
X58527D02*
X65712D01*
X55914D02*
X56894D01*
X51016D02*
X52322D01*
X47097D02*
X49709D01*
X43178D02*
X45464D01*
X86940Y47808D02*
X90532D01*
X67998D02*
X69958D01*
X59834D02*
X66039D01*
X55914D02*
X56894D01*
X53955D02*
X54282D01*
X46770D02*
X50363D01*
X42851D02*
X45137D01*
X86286Y47482D02*
X90206D01*
X67998D02*
X69958D01*
X61793D02*
X66692D01*
X59834D02*
X61140D01*
X58854D02*
X59507D01*
X55914D02*
X56894D01*
X53955D02*
X54935D01*
X51996D02*
X52649D01*
X49709D02*
X50689D01*
X46444D02*
X49056D01*
X42851D02*
X45137D01*
X85960Y47155D02*
X89879D01*
X61793D02*
X70611D01*
X58527D02*
X61140D01*
X55914D02*
X56894D01*
X54282D02*
X55261D01*
X53628D02*
X53955D01*
X51669D02*
X52649D01*
X50036D02*
X51016D01*
X46444D02*
X48730D01*
X42525D02*
X44811D01*
X85307Y46828D02*
X89226D01*
X66039D02*
X71264D01*
X64406D02*
X65712D01*
X61793D02*
X63426D01*
X58201D02*
X61140D01*
X55914D02*
X56894D01*
X54282D02*
X55588D01*
X53302D02*
X53955D01*
X50363D02*
X52649D01*
X46117D02*
X48730D01*
X42525D02*
X44811D01*
X84654Y46502D02*
X88899D01*
X66365D02*
X72244D01*
X64406D02*
X65712D01*
X61466D02*
X63099D01*
X58201D02*
X61140D01*
X55914D02*
X56894D01*
X54282D02*
X55588D01*
X53302D02*
X53955D01*
X51016D02*
X52649D01*
X49709D02*
X50036D01*
X46117D02*
X48403D01*
X42198D02*
X44484D01*
X84000Y46175D02*
X88573D01*
X70937D02*
X73223D01*
X66692D02*
X69958D01*
X64406D02*
X65712D01*
X61466D02*
X63099D01*
X58527D02*
X61140D01*
X57547D02*
X58201D01*
X55914D02*
X56894D01*
X53955D02*
X55588D01*
X53302D02*
X53628D01*
X51016D02*
X52649D01*
X49383D02*
X50036D01*
X45790D02*
X48403D01*
X41872D02*
X44158D01*
X83347Y45849D02*
X87919D01*
X71917D02*
X74530D01*
X67018D02*
X69958D01*
X64079D02*
X65712D01*
X61466D02*
X62773D01*
X59507D02*
X61140D01*
X57547D02*
X58527D01*
X55914D02*
X56894D01*
X53955D02*
X55261D01*
X50689D02*
X52649D01*
X49056D02*
X50036D01*
X45790D02*
X48077D01*
X41872D02*
X44158D01*
X82694Y45522D02*
X87266D01*
X73223D02*
X76162D01*
X68325D02*
X69958D01*
X63753D02*
X65712D01*
X61466D02*
X62773D01*
X59834D02*
X61140D01*
X57547D02*
X58527D01*
X55914D02*
X56894D01*
X53955D02*
X55261D01*
X51016D02*
X52649D01*
X48730D02*
X50036D01*
X45464D02*
X48077D01*
X41545D02*
X43831D01*
X82041Y45195D02*
X86940D01*
X75836D02*
X76162D01*
X68651D02*
X69958D01*
X61466D02*
X66039D01*
X60160D02*
X61140D01*
X57547D02*
X58854D01*
X55914D02*
X56894D01*
X53955D02*
X55261D01*
X51016D02*
X52649D01*
X48403D02*
X50036D01*
X45137D02*
X48077D01*
X41545D02*
X43831D01*
X81061Y44869D02*
X85960D01*
X68651D02*
X69958D01*
X61466D02*
X66692D01*
X60160D02*
X61140D01*
X57547D02*
X59180D01*
X55914D02*
X56894D01*
X53955D02*
X55261D01*
X51016D02*
X52322D01*
X48077D02*
X50036D01*
X45137D02*
X47750D01*
X41218D02*
X43505D01*
X80081Y44542D02*
X85307D01*
X68651D02*
X69958D01*
X65385D02*
X67018D01*
X60160D02*
X65059D01*
X57547D02*
X59180D01*
X55914D02*
X56894D01*
X53628D02*
X54935D01*
X50689D02*
X52322D01*
X47750D02*
X50036D01*
X44811D02*
X47423D01*
X41218D02*
X43178D01*
X78449Y44216D02*
X84654D01*
X68978D02*
X69958D01*
X66039D02*
X67671D01*
X60160D02*
X64732D01*
X57874D02*
X59507D01*
X55914D02*
X56894D01*
X53628D02*
X54935D01*
X50689D02*
X51996D01*
X47750D02*
X49709D01*
X44484D02*
X47423D01*
X40892D02*
X43178D01*
X77142Y43889D02*
X84000D01*
X68978D02*
X70284D01*
X66365D02*
X67998D01*
X61793D02*
X64406D01*
X60160D02*
X61140D01*
X57874D02*
X59507D01*
X55914D02*
X56894D01*
X53628D02*
X54935D01*
X50363D02*
X51996D01*
X48077D02*
X49709D01*
X44484D02*
X47097D01*
X40565D02*
X42851D01*
X74856Y43563D02*
X83021D01*
X69304D02*
X70937D01*
X66692D02*
X68651D01*
X62446D02*
X63753D01*
X60160D02*
X61140D01*
X57874D02*
X59834D01*
X55914D02*
X56894D01*
X53628D02*
X54935D01*
X50363D02*
X51669D01*
X47750D02*
X49383D01*
X44158D02*
X46770D01*
X40239D02*
X42525D01*
X69631Y43236D02*
X82041D01*
X68651D02*
X68978D01*
X67345D02*
X67998D01*
X64079D02*
X64732D01*
X60160D02*
X61140D01*
X57874D02*
X59834D01*
X55914D02*
X56894D01*
X53628D02*
X54935D01*
X52322D02*
X52975D01*
X50363D02*
X51669D01*
X47750D02*
X49056D01*
X43831D02*
X46444D01*
X39912D02*
X42525D01*
X69958Y42909D02*
X81061D01*
X68978D02*
X69304D01*
X67671D02*
X68325D01*
X64079D02*
X64732D01*
X57874D02*
X61466D01*
X55914D02*
X56894D01*
X53302D02*
X54935D01*
X52322D02*
X52975D01*
X50036D02*
X51342D01*
X47423D02*
X49056D01*
X43505D02*
X46444D01*
X39586D02*
X42198D01*
X70611Y42583D02*
X80081D01*
X69304D02*
X69958D01*
X67671D02*
X68651D01*
X63753D02*
X64732D01*
X60487D02*
X61466D01*
X57874D02*
X60160D01*
X55914D02*
X56894D01*
X53302D02*
X54935D01*
X51996D02*
X52975D01*
X50036D02*
X51016D01*
X47423D02*
X48730D01*
X43505D02*
X46117D01*
X39259D02*
X41872D01*
X70937Y42256D02*
X79102D01*
X69631D02*
X70284D01*
X67998D02*
X68978D01*
X63426D02*
X64732D01*
X60487D02*
X62120D01*
X57874D02*
X60160D01*
X55914D02*
X56894D01*
X53302D02*
X54935D01*
X51669D02*
X52975D01*
X50036D02*
X51016D01*
X47097D02*
X48730D01*
X43178D02*
X45790D01*
X38932D02*
X41545D01*
X71917Y41930D02*
X77142D01*
X69958D02*
X70611D01*
X68325D02*
X69304D01*
X59507D02*
X64732D01*
X57874D02*
X59180D01*
X55914D02*
X56894D01*
X53302D02*
X54935D01*
X51669D02*
X52975D01*
X50036D02*
X51016D01*
X47097D02*
X48403D01*
X42525D02*
X45464D01*
X38279D02*
X40892D01*
X69958Y41603D02*
X70611D01*
X68325D02*
X69304D01*
X66039D02*
X66692D01*
X65385D02*
X65712D01*
X60813D02*
X64732D01*
X59507D02*
X60487D01*
X57874D02*
X59180D01*
X56241D02*
X56894D01*
X53302D02*
X54935D01*
X51996D02*
X52975D01*
X50036D02*
X51016D01*
X46770D02*
X48403D01*
X42198D02*
X45137D01*
X37626D02*
X40239D01*
X70284Y41276D02*
X70937D01*
X68325D02*
X69631D01*
X67345D02*
X67671D01*
X66039D02*
X66692D01*
X65385D02*
X65712D01*
X61140D02*
X64406D01*
X59507D02*
X60487D01*
X57874D02*
X59180D01*
X56241D02*
X56894D01*
X52975D02*
X55261D01*
X52322D02*
X52649D01*
X50036D02*
X50689D01*
X46770D02*
X48077D01*
X41545D02*
X44811D01*
X36320D02*
X39586D01*
X70284Y40950D02*
X71264D01*
X68325D02*
X69631D01*
X67345D02*
X67998D01*
X66039D02*
X66692D01*
X65059D02*
X65712D01*
X61466D02*
X64406D01*
X59507D02*
X60487D01*
X57874D02*
X59180D01*
X56241D02*
X56894D01*
X52975D02*
X55261D01*
X50036D02*
X50689D01*
X46444D02*
X48077D01*
X40239D02*
X44484D01*
X34360D02*
X38606D01*
X70284Y40623D02*
X71264D01*
X68325D02*
X69631D01*
X67345D02*
X67998D01*
X66039D02*
X66692D01*
X65059D02*
X65712D01*
X61793D02*
X64079D01*
X59507D02*
X60487D01*
X57874D02*
X59180D01*
X56568D02*
X56894D01*
X52649D02*
X55588D01*
X50036D02*
X51016D01*
X46444D02*
X47750D01*
X38932D02*
X43831D01*
X32074D02*
X36973D01*
X70284Y40297D02*
X71590D01*
X68325D02*
X69631D01*
X65385D02*
X67671D01*
X62446D02*
X64079D01*
X59834D02*
X60487D01*
X57547D02*
X59180D01*
X50036D02*
X55588D01*
X46117D02*
X47750D01*
X36320D02*
X42851D01*
X28808D02*
X32727D01*
X70611Y39970D02*
X71590D01*
X68325D02*
X69631D01*
X66692D02*
X67671D01*
X65385D02*
X66365D01*
X62446D02*
X64079D01*
X59834D02*
X60813D01*
X57221D02*
X59180D01*
X54608D02*
X55914D01*
X50036D02*
X54282D01*
X46117D02*
X47423D01*
X34034D02*
X41218D01*
X26849D02*
X30441D01*
X70611Y39644D02*
X71590D01*
X68325D02*
X69631D01*
X62446D02*
X63753D01*
X59834D02*
X60813D01*
X54608D02*
X59180D01*
X50363D02*
X53955D01*
X46117D02*
X47097D01*
X31748D02*
X36646D01*
X24563D02*
X27829D01*
X70611Y39317D02*
X71590D01*
X67998D02*
X69631D01*
X62446D02*
X64079D01*
X59834D02*
X60813D01*
X54935D02*
X58854D01*
X50363D02*
X53955D01*
X49056D02*
X49709D01*
X46117D02*
X47097D01*
X29788D02*
X34034D01*
X23257D02*
X26196D01*
X70611Y38991D02*
X71917D01*
X67671D02*
X69631D01*
X62446D02*
X64079D01*
X60160D02*
X60813D01*
X54935D02*
X58854D01*
X50689D02*
X53628D01*
X49056D02*
X49709D01*
X45790D02*
X47097D01*
X27502D02*
X30441D01*
X21624D02*
X24236D01*
X70611Y38664D02*
X71917D01*
X67345D02*
X69304D01*
X62446D02*
X64079D01*
X60160D02*
X60813D01*
X55261D02*
X58527D01*
X51342D02*
X52975D01*
X49056D02*
X50036D01*
X45790D02*
X46770D01*
X25216D02*
X28155D01*
X20644D02*
X22603D01*
X70611Y38337D02*
X71917D01*
X66692D02*
X69304D01*
X63426D02*
X64406D01*
X62446D02*
X63099D01*
X60160D02*
X61140D01*
X55588D02*
X58201D01*
X49056D02*
X50036D01*
X45790D02*
X46770D01*
X23910D02*
X26196D01*
X19664D02*
X21624D01*
X70611Y38011D02*
X71917D01*
X63753D02*
X69304D01*
X62120D02*
X63099D01*
X60160D02*
X61140D01*
X55914D02*
X57547D01*
X53302D02*
X53628D01*
X48730D02*
X50363D01*
X45790D02*
X46770D01*
X22603D02*
X24236D01*
X18358D02*
X19991D01*
X70284Y37684D02*
X71917D01*
X63753D02*
X68978D01*
X61793D02*
X62773D01*
X60487D02*
X61466D01*
X58527D02*
X59507D01*
X53302D02*
X53955D01*
X48403D02*
X50363D01*
X46117D02*
X47097D01*
X21624D02*
X23257D01*
X17705D02*
X19338D01*
X70284Y37358D02*
X71917D01*
X64079D02*
X68978D01*
X60487D02*
X62773D01*
X58201D02*
X59834D01*
X53302D02*
X54282D01*
X46117D02*
X50689D01*
X20317D02*
X22277D01*
X17051D02*
X18031D01*
X69958Y37031D02*
X71590D01*
X64406D02*
X68651D01*
X60487D02*
X62773D01*
X58201D02*
X60160D01*
X52975D02*
X54608D01*
X46117D02*
X51016D01*
X19011D02*
X21297D01*
X69958Y36704D02*
X71590D01*
X64732D02*
X67998D01*
X60813D02*
X62446D01*
X57874D02*
X60160D01*
X52975D02*
X54935D01*
X50036D02*
X51342D01*
X46444D02*
X49383D01*
X69304Y36378D02*
X71590D01*
X65712D02*
X67018D01*
X60813D02*
X62446D01*
X57547D02*
X60487D01*
X52649D02*
X55261D01*
X50363D02*
X51669D01*
X46770D02*
X49056D01*
X69304Y36051D02*
X71264D01*
X61140D02*
X62120D01*
X59834D02*
X60487D01*
X56894D02*
X59180D01*
X54282D02*
X55588D01*
X50363D02*
X53955D01*
X47097D02*
X48730D01*
X68651Y35725D02*
X70937D01*
X63426D02*
X64406D01*
X60160D02*
X60813D01*
X54608D02*
X58854D01*
X50689D02*
X53628D01*
X68325Y35398D02*
X70937D01*
X64406D02*
X65059D01*
X60160D02*
X60813D01*
X54608D02*
X58527D01*
X50689D02*
X53628D01*
X67345Y35072D02*
X70611D01*
X60160D02*
X60813D01*
X54935D02*
X58201D01*
X51016D02*
X53302D01*
X49383D02*
X49709D01*
X66365Y34745D02*
X70284D01*
X60160D02*
X60813D01*
X55261D02*
X57874D01*
X51669D02*
X52975D01*
X48730D02*
X50036D01*
X64406Y34418D02*
X69631D01*
X59834D02*
X60813D01*
X55588D02*
X57547D01*
X48077D02*
X50363D01*
X59507Y34092D02*
X69304D01*
X48077D02*
X50363D01*
X59180Y33765D02*
X68651D01*
X48403D02*
X50363D01*
X58854Y33439D02*
X67998D01*
X48730D02*
X50036D01*
X58201Y33112D02*
X67018D01*
X51669D02*
X52649D01*
X48730D02*
X49383D01*
X57874Y32785D02*
X65059D01*
X52322D02*
X53628D01*
X47097D02*
X48077D01*
X57874Y32459D02*
X62446D01*
X52975D02*
X54282D01*
X47423D02*
X48730D01*
X57874Y32132D02*
X60487D01*
X53628D02*
X54935D01*
X48403D02*
X49709D01*
X57874Y31806D02*
X59507D01*
X54608D02*
X55914D01*
X49056D02*
X50363D01*
X57874Y31479D02*
X59180D01*
X55261D02*
X56241D01*
X49709D02*
X51016D01*
X57874Y31152D02*
X58527D01*
X55914D02*
X56568D01*
X50363D02*
X51669D01*
X51016Y30826D02*
X51996D01*
D167*
X66089Y295037D02*
X161384D01*
X66089Y294870D02*
X161384D01*
X66089Y294704D02*
X161384D01*
X66089Y294537D02*
X161384D01*
X66089Y294371D02*
X161384D01*
X66089Y294204D02*
X161384D01*
X66089Y294037D02*
X161384D01*
X66089Y293871D02*
X161384D01*
X66089Y293704D02*
X161384D01*
X66089Y293538D02*
X161384D01*
X66089Y293371D02*
X161384D01*
X66089Y293204D02*
X161384D01*
X66089Y293038D02*
X161384D01*
X66089Y292871D02*
X161384D01*
X66089Y292705D02*
X161384D01*
X66089Y292538D02*
X161384D01*
X66089Y292372D02*
X161384D01*
X66089Y292205D02*
X161384D01*
X66089Y292038D02*
X161384D01*
X66089Y291872D02*
X161384D01*
X66089Y291705D02*
X161384D01*
X66089Y291539D02*
X161384D01*
X66089Y291372D02*
X161384D01*
X66089Y291205D02*
X161384D01*
X66089Y291039D02*
X161384D01*
X66089Y290872D02*
X161384D01*
X66089Y290705D02*
X161384D01*
X66089Y290539D02*
X161384D01*
X66089Y290372D02*
X161384D01*
X66089Y290206D02*
X161384D01*
X66089Y290039D02*
X161384D01*
X66089Y289873D02*
X161384D01*
X66089Y289706D02*
X161384D01*
X66089Y289539D02*
X161384D01*
X66089Y289373D02*
X161384D01*
X66089Y289206D02*
X161384D01*
X66089Y289039D02*
X161384D01*
X66089Y288873D02*
X161384D01*
X66089Y288706D02*
X161384D01*
X66089Y288540D02*
X161384D01*
X66089Y288373D02*
X161384D01*
X66089Y288207D02*
X161384D01*
X66089Y288040D02*
X161384D01*
X66089Y287873D02*
X161384D01*
X66089Y287707D02*
X161384D01*
X66089Y287540D02*
X161384D01*
X66089Y287373D02*
X161384D01*
X66089Y287207D02*
X161384D01*
X66089Y287040D02*
X161384D01*
X66089Y286874D02*
X161384D01*
X66089Y286707D02*
X161384D01*
X66089Y286541D02*
X161384D01*
X66089Y286374D02*
X161384D01*
X66089Y286207D02*
X161384D01*
X66089Y286041D02*
X161384D01*
X66089Y285874D02*
X161384D01*
X66089Y285707D02*
X161384D01*
X66089Y285541D02*
X161384D01*
X66089Y285374D02*
X161384D01*
X66089Y285208D02*
X161384D01*
X66089Y285041D02*
X161384D01*
X66089Y284875D02*
X161384D01*
X66089Y284708D02*
X161384D01*
X66089Y284541D02*
X161384D01*
X66089Y284375D02*
X161384D01*
X66089Y284208D02*
X161384D01*
X66089Y284042D02*
X161384D01*
X66089Y283875D02*
X161384D01*
X66089Y283708D02*
X161384D01*
X66089Y283542D02*
X161384D01*
X66089Y283375D02*
X161384D01*
X66089Y283208D02*
X161384D01*
X66089Y283042D02*
X161384D01*
X66089Y282875D02*
X161384D01*
X66089Y282709D02*
X161384D01*
X66089Y282542D02*
X161384D01*
X66089Y282376D02*
X161384D01*
X66089Y282209D02*
X161384D01*
X66089Y282042D02*
X161384D01*
X147889Y281876D02*
X161384D01*
X66089D02*
X78917D01*
X147889Y281709D02*
X161384D01*
X66089D02*
X78917D01*
X147889Y281542D02*
X161384D01*
X66089D02*
X78917D01*
X147889Y281376D02*
X161384D01*
X66089D02*
X78917D01*
X147889Y281209D02*
X161384D01*
X79584D02*
X147223D01*
X66089D02*
X78917D01*
X147889Y281043D02*
X161384D01*
X79584D02*
X147223D01*
X66089D02*
X78917D01*
X147889Y280876D02*
X161384D01*
X79584D02*
X147223D01*
X66089D02*
X78917D01*
X147889Y280710D02*
X161384D01*
X79584D02*
X147223D01*
X66089D02*
X78917D01*
X147889Y280543D02*
X161384D01*
X79584D02*
X147223D01*
X66089D02*
X78917D01*
X147889Y280376D02*
X161384D01*
X79584D02*
X147223D01*
X66089D02*
X78917D01*
X147889Y280210D02*
X161384D01*
X79584D02*
X147223D01*
X66089D02*
X78917D01*
X147889Y280043D02*
X161384D01*
X79584D02*
X147223D01*
X66089D02*
X78917D01*
X147889Y279876D02*
X161384D01*
X79584D02*
X147223D01*
X66089D02*
X78917D01*
X147889Y279710D02*
X161384D01*
X79584D02*
X147223D01*
X66089D02*
X78917D01*
X147889Y279543D02*
X161384D01*
X79584D02*
X147223D01*
X66089D02*
X78917D01*
X147889Y279377D02*
X161384D01*
X79584D02*
X147223D01*
X66089D02*
X78917D01*
X147889Y279210D02*
X161384D01*
X79584D02*
X147223D01*
X66089D02*
X78917D01*
X147889Y279044D02*
X161384D01*
X79584D02*
X147223D01*
X66089D02*
X78917D01*
X147889Y278877D02*
X161384D01*
X79584D02*
X147223D01*
X66089D02*
X78917D01*
X147889Y278710D02*
X161384D01*
X79584D02*
X147223D01*
X66089D02*
X78917D01*
X147889Y278544D02*
X161384D01*
X79584D02*
X147223D01*
X66089D02*
X78917D01*
X147889Y278377D02*
X161384D01*
X79584D02*
X147223D01*
X66089D02*
X78917D01*
X147889Y278210D02*
X161384D01*
X79584D02*
X147223D01*
X66089D02*
X78917D01*
X147889Y278044D02*
X161384D01*
X79584D02*
X147223D01*
X66089D02*
X78917D01*
X147889Y277877D02*
X161384D01*
X79584D02*
X147223D01*
X66089D02*
X78917D01*
X147889Y277711D02*
X161384D01*
X95077D02*
X147223D01*
X79584D02*
X91912D01*
X66089D02*
X78917D01*
X147889Y277544D02*
X161384D01*
X96077D02*
X147223D01*
X79584D02*
X91079D01*
X66089D02*
X78917D01*
X147889Y277378D02*
X161384D01*
X96743D02*
X147223D01*
X79584D02*
X90579D01*
X66089D02*
X78917D01*
X147889Y277211D02*
X161384D01*
X97410D02*
X147223D01*
X79584D02*
X90246D01*
X66089D02*
X78917D01*
X147889Y277044D02*
X161384D01*
X128231D02*
X147223D01*
X98076D02*
X127564D01*
X92745D02*
X95910D01*
X79584D02*
X90079D01*
X66089D02*
X78917D01*
X147889Y276878D02*
X161384D01*
X128564D02*
X147223D01*
X98409D02*
X127398D01*
X91912D02*
X96910D01*
X79584D02*
X89913D01*
X66089D02*
X78917D01*
X147889Y276711D02*
X161384D01*
X128897D02*
X147223D01*
X98909D02*
X127231D01*
X91579D02*
X97576D01*
X79584D02*
X89746D01*
X66089D02*
X78917D01*
X147889Y276544D02*
X161384D01*
X129064D02*
X147223D01*
X128231D02*
X128564D01*
X99409D02*
X127231D01*
X91246D02*
X98243D01*
X79584D02*
X89580D01*
X66089D02*
X78917D01*
X147889Y276378D02*
X161384D01*
X129230D02*
X147223D01*
X128064D02*
X128897D01*
X99909D02*
X127231D01*
X91079D02*
X98743D01*
X79584D02*
X89580D01*
X66089D02*
X78917D01*
X147889Y276211D02*
X161384D01*
X129563D02*
X147223D01*
X128064D02*
X129064D01*
X100242D02*
X127231D01*
X90912D02*
X99242D01*
X79584D02*
X89413D01*
X66089D02*
X78917D01*
X147889Y276045D02*
X161384D01*
X129730D02*
X147223D01*
X128064D02*
X129230D01*
X100575D02*
X127231D01*
X90746D02*
X99742D01*
X79584D02*
X89413D01*
X66089D02*
X78917D01*
X147889Y275878D02*
X161384D01*
X129897D02*
X147223D01*
X128064D02*
X129397D01*
X101075D02*
X127398D01*
X90579D02*
X100242D01*
X79584D02*
X89413D01*
X66089D02*
X78917D01*
X147889Y275711D02*
X161384D01*
X130063D02*
X147223D01*
X128064D02*
X129563D01*
X101408D02*
X127398D01*
X90413D02*
X100575D01*
X79584D02*
X89413D01*
X66089D02*
X78917D01*
X147889Y275545D02*
X161384D01*
X130230D02*
X147223D01*
X128064D02*
X129730D01*
X101741D02*
X127398D01*
X90413D02*
X101075D01*
X79584D02*
X89246D01*
X66089D02*
X78917D01*
X147889Y275378D02*
X161384D01*
X130396D02*
X147223D01*
X128231D02*
X129897D01*
X102075D02*
X127398D01*
X90413D02*
X101408D01*
X79584D02*
X89246D01*
X66089D02*
X78917D01*
X147889Y275212D02*
X161384D01*
X130563D02*
X147223D01*
X128231D02*
X130063D01*
X102241D02*
X127564D01*
X90413D02*
X101741D01*
X79584D02*
X89413D01*
X66089D02*
X78917D01*
X147889Y275045D02*
X161384D01*
X130563D02*
X147223D01*
X128231D02*
X130063D01*
X102574D02*
X127564D01*
X90246D02*
X102075D01*
X79584D02*
X89413D01*
X66089D02*
X78917D01*
X147889Y274879D02*
X161384D01*
X130730D02*
X147223D01*
X128397D02*
X130230D01*
X102908D02*
X127564D01*
X95244D02*
X102408D01*
X90413D02*
X94744D01*
X79584D02*
X89413D01*
X66089D02*
X78917D01*
X147889Y274712D02*
X161384D01*
X130896D02*
X147223D01*
X128397D02*
X130396D01*
X103241D02*
X127731D01*
X95577D02*
X102741D01*
X90413D02*
X94744D01*
X79584D02*
X89413D01*
X66089D02*
X78917D01*
X147889Y274545D02*
X161384D01*
X131063D02*
X147223D01*
X128397D02*
X130563D01*
X103407D02*
X127731D01*
X95744D02*
X102908D01*
X90413D02*
X94911D01*
X79584D02*
X89413D01*
X66089D02*
X78917D01*
X147889Y274379D02*
X161384D01*
X131229D02*
X147223D01*
X128564D02*
X130730D01*
X103741D02*
X127731D01*
X95744D02*
X103241D01*
X90413D02*
X94911D01*
X79584D02*
X89580D01*
X66089D02*
X78917D01*
X147889Y274212D02*
X161384D01*
X131396D02*
X147223D01*
X128564D02*
X130896D01*
X104074D02*
X127898D01*
X95910D02*
X103574D01*
X90413D02*
X95077D01*
X79584D02*
X89580D01*
X66089D02*
X78917D01*
X147889Y274046D02*
X161384D01*
X131563D02*
X147223D01*
X128730D02*
X131063D01*
X104240D02*
X127898D01*
X95910D02*
X103741D01*
X90413D02*
X95077D01*
X79584D02*
X89746D01*
X66089D02*
X78917D01*
X147889Y273879D02*
X161384D01*
X131563D02*
X147223D01*
X128730D02*
X131063D01*
X104574D02*
X128064D01*
X96077D02*
X104074D01*
X90579D02*
X95244D01*
X79584D02*
X89746D01*
X66089D02*
X78917D01*
X147889Y273712D02*
X161384D01*
X131729D02*
X147223D01*
X128730D02*
X131229D01*
X104740D02*
X128064D01*
X96077D02*
X104240D01*
X90579D02*
X95244D01*
X79584D02*
X89913D01*
X66089D02*
X78917D01*
X147889Y273546D02*
X161384D01*
X131896D02*
X147223D01*
X128897D02*
X131396D01*
X104907D02*
X128064D01*
X96244D02*
X104574D01*
X90746D02*
X95411D01*
X79584D02*
X89913D01*
X66089D02*
X78917D01*
X147889Y273379D02*
X161384D01*
X132062D02*
X147223D01*
X128897D02*
X131563D01*
X105240D02*
X128231D01*
X96244D02*
X104740D01*
X90746D02*
X95411D01*
X83915D02*
X90079D01*
X79584D02*
X83082D01*
X66089D02*
X78917D01*
X147889Y273213D02*
X161384D01*
X132229D02*
X147223D01*
X129064D02*
X131729D01*
X109905D02*
X128231D01*
X105407D02*
X109072D01*
X96410D02*
X104907D01*
X90912D02*
X95577D01*
X84249D02*
X90079D01*
X79584D02*
X83082D01*
X66089D02*
X78917D01*
X147889Y273046D02*
X161384D01*
X132229D02*
X147223D01*
X129064D02*
X131729D01*
X110071D02*
X128397D01*
X105573D02*
X108905D01*
X96577D02*
X105073D01*
X90912D02*
X95577D01*
X84582D02*
X90246D01*
X79584D02*
X83082D01*
X66089D02*
X78917D01*
X147889Y272879D02*
X161384D01*
X132396D02*
X147223D01*
X129230D02*
X131896D01*
X110405D02*
X128397D01*
X105740D02*
X108905D01*
X96577D02*
X105407D01*
X91079D02*
X95744D01*
X84748D02*
X90413D01*
X83915D02*
X84249D01*
X79584D02*
X83082D01*
X66089D02*
X78917D01*
X147889Y272713D02*
X161384D01*
X132562D02*
X147223D01*
X129230D02*
X132062D01*
X110571D02*
X128397D01*
X109572D02*
X110071D01*
X105906D02*
X108905D01*
X96743D02*
X105573D01*
X91246D02*
X95910D01*
X85081D02*
X90413D01*
X83749D02*
X84582D01*
X79584D02*
X83082D01*
X66089D02*
X78917D01*
X147889Y272546D02*
X161384D01*
X132729D02*
X147223D01*
X129230D02*
X132229D01*
X120734D02*
X128564D01*
X110738D02*
X120067D01*
X109572D02*
X110238D01*
X106240D02*
X108905D01*
X96743D02*
X105740D01*
X91246D02*
X95910D01*
X85248D02*
X90579D01*
X83749D02*
X84748D01*
X79584D02*
X83082D01*
X66089D02*
X78917D01*
X147889Y272380D02*
X161384D01*
X132895D02*
X147223D01*
X129397D02*
X132229D01*
X121067D02*
X128564D01*
X110904D02*
X119901D01*
X109572D02*
X110571D01*
X106406D02*
X108905D01*
X98743D02*
X105906D01*
X96910D02*
X98576D01*
X91412D02*
X96077D01*
X85415D02*
X90746D01*
X83749D02*
X84915D01*
X79584D02*
X83082D01*
X66089D02*
X78917D01*
X147889Y272213D02*
X161384D01*
X132895D02*
X147223D01*
X129397D02*
X132396D01*
X121233D02*
X128730D01*
X111071D02*
X119901D01*
X109572D02*
X110738D01*
X106573D02*
X109072D01*
X98909D02*
X106073D01*
X96910D02*
X98576D01*
X91579D02*
X96077D01*
X85581D02*
X90912D01*
X83749D02*
X85248D01*
X79584D02*
X83249D01*
X66089D02*
X78917D01*
X147889Y272046D02*
X161384D01*
X133062D02*
X147223D01*
X129563D02*
X132562D01*
X121567D02*
X128730D01*
X111238D02*
X119901D01*
X109572D02*
X110904D01*
X106739D02*
X109072D01*
X99076D02*
X106073D01*
X97077D02*
X98576D01*
X91746D02*
X96244D01*
X85748D02*
X91079D01*
X83749D02*
X85415D01*
X79584D02*
X83249D01*
X66089D02*
X78917D01*
X147889Y271880D02*
X161384D01*
X133229D02*
X147223D01*
X129563D02*
X132729D01*
X121733D02*
X128730D01*
X120567D02*
X121233D01*
X111404D02*
X119901D01*
X109738D02*
X111071D01*
X106739D02*
X109238D01*
X99242D02*
X106240D01*
X97243D02*
X98743D01*
X91746D02*
X96244D01*
X85914D02*
X91079D01*
X83915D02*
X85581D01*
X79584D02*
X83416D01*
X66089D02*
X78917D01*
X147889Y271713D02*
X161384D01*
X133395D02*
X147223D01*
X129730D02*
X132895D01*
X121900D02*
X128897D01*
X120734D02*
X121400D01*
X111571D02*
X120067D01*
X109738D02*
X111071D01*
X106906D02*
X109238D01*
X99409D02*
X106406D01*
X97243D02*
X98909D01*
X91912D02*
X96410D01*
X86081D02*
X91246D01*
X83915D02*
X85581D01*
X79584D02*
X83416D01*
X66089D02*
X78917D01*
X147889Y271547D02*
X161384D01*
X133562D02*
X147223D01*
X129730D02*
X132895D01*
X122066D02*
X128897D01*
X120734D02*
X121567D01*
X111737D02*
X120067D01*
X109905D02*
X111238D01*
X107073D02*
X109405D01*
X99576D02*
X106573D01*
X97410D02*
X99076D01*
X92079D02*
X96410D01*
X86248D02*
X91412D01*
X84082D02*
X85748D01*
X79584D02*
X83582D01*
X66089D02*
X78917D01*
X147889Y271380D02*
X161384D01*
X133562D02*
X147223D01*
X129730D02*
X133062D01*
X122233D02*
X129064D01*
X120734D02*
X121733D01*
X111737D02*
X120234D01*
X109905D02*
X111404D01*
X107239D02*
X109405D01*
X99742D02*
X106573D01*
X97410D02*
X99242D01*
X92245D02*
X96577D01*
X86414D02*
X91579D01*
X84082D02*
X85914D01*
X79584D02*
X83582D01*
X66089D02*
X78917D01*
X147889Y271213D02*
X161384D01*
X133728D02*
X147223D01*
X129897D02*
X133229D01*
X122400D02*
X129064D01*
X120734D02*
X121900D01*
X111904D02*
X120234D01*
X109905D02*
X111571D01*
X107406D02*
X109572D01*
X99909D02*
X106739D01*
X97576D02*
X99409D01*
X92412D02*
X96743D01*
X86581D02*
X91746D01*
X84249D02*
X86081D01*
X79584D02*
X83749D01*
X66089D02*
X78917D01*
X147889Y271047D02*
X161384D01*
X133895D02*
X147223D01*
X129897D02*
X133395D01*
X122566D02*
X129230D01*
X120900D02*
X122066D01*
X112071D02*
X120401D01*
X110071D02*
X111737D01*
X107406D02*
X109738D01*
X100242D02*
X106739D01*
X97576D02*
X99576D01*
X92579D02*
X96743D01*
X86747D02*
X91912D01*
X84249D02*
X86248D01*
X79584D02*
X83915D01*
X66089D02*
X78917D01*
X147889Y270880D02*
X161384D01*
X134062D02*
X147223D01*
X130063D02*
X133395D01*
X122733D02*
X129230D01*
X120900D02*
X122233D01*
X112237D02*
X120401D01*
X110238D02*
X111737D01*
X107572D02*
X109738D01*
X100409D02*
X106906D01*
X97743D02*
X99742D01*
X92745D02*
X96910D01*
X86914D02*
X92079D01*
X84415D02*
X86414D01*
X79584D02*
X83915D01*
X66089D02*
X78917D01*
X147889Y270714D02*
X161384D01*
X134062D02*
X147223D01*
X130063D02*
X133562D01*
X122899D02*
X129397D01*
X120900D02*
X122400D01*
X112237D02*
X120567D01*
X110238D02*
X111904D01*
X107572D02*
X109905D01*
X100575D02*
X106906D01*
X97743D02*
X100075D01*
X92912D02*
X96910D01*
X86914D02*
X92245D01*
X84415D02*
X86581D01*
X79584D02*
X84082D01*
X66089D02*
X78917D01*
X147889Y270547D02*
X161384D01*
X140226D02*
X147223D01*
X134228D02*
X139226D01*
X130230D02*
X133728D01*
X122899D02*
X129397D01*
X121067D02*
X122566D01*
X112404D02*
X120567D01*
X110405D02*
X112071D01*
X107739D02*
X110071D01*
X100908D02*
X106906D01*
X97910D02*
X100242D01*
X93245D02*
X97077D01*
X87081D02*
X92579D01*
X84582D02*
X86747D01*
X79584D02*
X84249D01*
X66089D02*
X78917D01*
X147889Y270380D02*
X161384D01*
X140892D02*
X147223D01*
X134395D02*
X138560D01*
X130230D02*
X133895D01*
X123066D02*
X129397D01*
X121067D02*
X122566D01*
X112570D02*
X120734D01*
X110571D02*
X112071D01*
X107739D02*
X110238D01*
X101075D02*
X106906D01*
X98076D02*
X100409D01*
X93411D02*
X97077D01*
X87247D02*
X92745D01*
X84748D02*
X86747D01*
X79584D02*
X84249D01*
X66089D02*
X78917D01*
X147889Y270214D02*
X161384D01*
X141059D02*
X147223D01*
X139060D02*
X140226D01*
X134561D02*
X138227D01*
X130396D02*
X133895D01*
X123233D02*
X129563D01*
X121233D02*
X122733D01*
X112737D02*
X120900D01*
X110738D02*
X112237D01*
X107739D02*
X110405D01*
X101408D02*
X107073D01*
X98076D02*
X100742D01*
X93578D02*
X97243D01*
X87414D02*
X92912D01*
X84748D02*
X86914D01*
X79584D02*
X84415D01*
X66089D02*
X78917D01*
X147889Y270047D02*
X161384D01*
X141225D02*
X147223D01*
X138393D02*
X140559D01*
X134728D02*
X137727D01*
X130396D02*
X134062D01*
X123399D02*
X129563D01*
X121400D02*
X122899D01*
X112737D02*
X120900D01*
X110738D02*
X112404D01*
X107739D02*
X110405D01*
X101575D02*
X107073D01*
X98243D02*
X100908D01*
X93745D02*
X97243D01*
X87581D02*
X93078D01*
X84915D02*
X87081D01*
X79584D02*
X84582D01*
X66089D02*
X78917D01*
X147889Y269881D02*
X161384D01*
X141392D02*
X147223D01*
X138227D02*
X140892D01*
X134728D02*
X137560D01*
X130563D02*
X134228D01*
X123566D02*
X129730D01*
X121400D02*
X123066D01*
X112903D02*
X121067D01*
X110904D02*
X112570D01*
X107906D02*
X110571D01*
X101908D02*
X107073D01*
X98243D02*
X101242D01*
X93911D02*
X97410D01*
X87581D02*
X93245D01*
X85081D02*
X87247D01*
X79584D02*
X84748D01*
X66089D02*
X78917D01*
X147889Y269714D02*
X161384D01*
X141559D02*
X147223D01*
X137893D02*
X140892D01*
X134895D02*
X137394D01*
X130563D02*
X134395D01*
X123566D02*
X129730D01*
X121567D02*
X123066D01*
X113070D02*
X121233D01*
X111071D02*
X112570D01*
X107906D02*
X110738D01*
X102241D02*
X106906D01*
X98409D02*
X101408D01*
X94078D02*
X97576D01*
X87747D02*
X93578D01*
X85248D02*
X87247D01*
X79584D02*
X84748D01*
X66089D02*
X78917D01*
X147889Y269547D02*
X161384D01*
X141725D02*
X147223D01*
X137727D02*
X141059D01*
X135061D02*
X137227D01*
X130563D02*
X134395D01*
X123732D02*
X129897D01*
X121567D02*
X123233D01*
X113070D02*
X121233D01*
X111238D02*
X112737D01*
X107906D02*
X110904D01*
X102574D02*
X106906D01*
X98409D02*
X101741D01*
X94411D02*
X97576D01*
X87914D02*
X93745D01*
X85415D02*
X87414D01*
X79584D02*
X84915D01*
X66089D02*
X78917D01*
X147889Y269381D02*
X161384D01*
X141725D02*
X147223D01*
X137560D02*
X141225D01*
X135228D02*
X137060D01*
X130730D02*
X134561D01*
X123899D02*
X129897D01*
X121733D02*
X123399D01*
X113237D02*
X121400D01*
X111404D02*
X112737D01*
X107739D02*
X111071D01*
X102908D02*
X106739D01*
X98576D02*
X102075D01*
X94578D02*
X97743D01*
X88080D02*
X93911D01*
X85415D02*
X87581D01*
X79584D02*
X85081D01*
X66089D02*
X78917D01*
X147889Y269214D02*
X161384D01*
X141725D02*
X147223D01*
X137227D02*
X141225D01*
X135228D02*
X136894D01*
X130730D02*
X134728D01*
X124066D02*
X130063D01*
X121900D02*
X123566D01*
X113403D02*
X121567D01*
X111571D02*
X112903D01*
X107739D02*
X111238D01*
X103407D02*
X106739D01*
X98576D02*
X102408D01*
X94911D02*
X97743D01*
X88247D02*
X94078D01*
X85581D02*
X87747D01*
X79584D02*
X85248D01*
X66089D02*
X78917D01*
X147889Y269048D02*
X161384D01*
X141725D02*
X147223D01*
X137060D02*
X141225D01*
X135394D02*
X136727D01*
X130896D02*
X134895D01*
X124066D02*
X130063D01*
X121900D02*
X123566D01*
X113570D02*
X121567D01*
X111737D02*
X113070D01*
X107739D02*
X111238D01*
X103741D02*
X106406D01*
X98743D02*
X102741D01*
X95077D02*
X97910D01*
X88247D02*
X94411D01*
X85748D02*
X87747D01*
X79584D02*
X85415D01*
X66089D02*
X78917D01*
X147889Y268881D02*
X161384D01*
X141725D02*
X147223D01*
X136894D02*
X141225D01*
X135561D02*
X136561D01*
X130896D02*
X134895D01*
X124232D02*
X130230D01*
X122066D02*
X123732D01*
X113570D02*
X121733D01*
X111737D02*
X113070D01*
X107739D02*
X111404D01*
X104407D02*
X106073D01*
X98909D02*
X103074D01*
X95244D02*
X97910D01*
X88414D02*
X94578D01*
X85914D02*
X87914D01*
X79584D02*
X85581D01*
X66089D02*
X78917D01*
X147889Y268714D02*
X161384D01*
X141892D02*
X147223D01*
X136894D02*
X141225D01*
X135728D02*
X136561D01*
X131063D02*
X135061D01*
X124399D02*
X130230D01*
X122233D02*
X123899D01*
X113736D02*
X121900D01*
X111904D02*
X113237D01*
X107572D02*
X111571D01*
X98909D02*
X103407D01*
X95577D02*
X98076D01*
X88580D02*
X94911D01*
X86081D02*
X88080D01*
X79584D02*
X85748D01*
X66089D02*
X78917D01*
X147889Y268548D02*
X161384D01*
X141725D02*
X147223D01*
X136727D02*
X141225D01*
X135894D02*
X136394D01*
X131063D02*
X135228D01*
X124399D02*
X130396D01*
X122400D02*
X123899D01*
X113903D02*
X122066D01*
X112071D02*
X113403D01*
X107572D02*
X111737D01*
X99076D02*
X103741D01*
X95744D02*
X98076D01*
X88747D02*
X95077D01*
X86248D02*
X88247D01*
X79584D02*
X85914D01*
X66089D02*
X78917D01*
X147889Y268381D02*
X161384D01*
X141725D02*
X147223D01*
X136561D02*
X141059D01*
X135894D02*
X136227D01*
X131229D02*
X135394D01*
X124565D02*
X130396D01*
X122400D02*
X124066D01*
X113903D02*
X122066D01*
X112237D02*
X113403D01*
X107406D02*
X111904D01*
X99076D02*
X104240D01*
X96077D02*
X98243D01*
X88913D02*
X95411D01*
X86414D02*
X88247D01*
X79584D02*
X86081D01*
X66089D02*
X78917D01*
X147889Y268215D02*
X161384D01*
X141725D02*
X147223D01*
X136561D02*
X141059D01*
X131229D02*
X135394D01*
X124732D02*
X130563D01*
X122566D02*
X124232D01*
X114070D02*
X122233D01*
X112404D02*
X113570D01*
X107073D02*
X112071D01*
X99242D02*
X104740D01*
X96410D02*
X98409D01*
X88913D02*
X95577D01*
X86581D02*
X88414D01*
X79584D02*
X86081D01*
X66089D02*
X78917D01*
X147889Y268048D02*
X161384D01*
X141725D02*
X147223D01*
X136394D02*
X141059D01*
X131396D02*
X135561D01*
X124899D02*
X130563D01*
X122733D02*
X124232D01*
X114236D02*
X122400D01*
X112570D02*
X113570D01*
X106573D02*
X112237D01*
X99242D02*
X105407D01*
X96743D02*
X98409D01*
X89080D02*
X95910D01*
X86747D02*
X88580D01*
X79584D02*
X86248D01*
X66089D02*
X78917D01*
X147889Y267881D02*
X161384D01*
X141725D02*
X147223D01*
X136394D02*
X140892D01*
X131396D02*
X135728D01*
X124899D02*
X130730D01*
X122899D02*
X124399D01*
X114236D02*
X122566D01*
X112737D02*
X113736D01*
X99409D02*
X112404D01*
X96910D02*
X98576D01*
X89246D02*
X96244D01*
X86747D02*
X88747D01*
X79584D02*
X86414D01*
X66089D02*
X78917D01*
X147889Y267715D02*
X161384D01*
X141559D02*
X147223D01*
X136561D02*
X140726D01*
X131563D02*
X135728D01*
X125065D02*
X130730D01*
X122899D02*
X124399D01*
X114403D02*
X122566D01*
X112903D02*
X113903D01*
X99576D02*
X112570D01*
X97243D02*
X98576D01*
X89246D02*
X96577D01*
X86914D02*
X88747D01*
X79584D02*
X86581D01*
X66089D02*
X78917D01*
X147889Y267548D02*
X161384D01*
X141559D02*
X147223D01*
X136561D02*
X140726D01*
X131563D02*
X135728D01*
X125065D02*
X130896D01*
X123066D02*
X124565D01*
X114569D02*
X122733D01*
X113070D02*
X113903D01*
X99576D02*
X112737D01*
X97576D02*
X98743D01*
X89413D02*
X96743D01*
X87081D02*
X88913D01*
X79584D02*
X86747D01*
X66089D02*
X78917D01*
X147889Y267382D02*
X161384D01*
X141392D02*
X147223D01*
X136727D02*
X140559D01*
X131563D02*
X135728D01*
X125232D02*
X130896D01*
X123233D02*
X124732D01*
X114569D02*
X122899D01*
X113237D02*
X114070D01*
X99742D02*
X112903D01*
X97910D02*
X98743D01*
X89580D02*
X97077D01*
X87247D02*
X88913D01*
X79584D02*
X86914D01*
X66089D02*
X78917D01*
X147889Y267215D02*
X161384D01*
X141392D02*
X147223D01*
X136894D02*
X140392D01*
X135894D02*
X136227D01*
X131729D02*
X135561D01*
X125399D02*
X130896D01*
X123399D02*
X124732D01*
X114736D02*
X123066D01*
X113403D02*
X114070D01*
X99742D02*
X113070D01*
X98409D02*
X98909D01*
X89580D02*
X97410D01*
X87414D02*
X89080D01*
X79584D02*
X87081D01*
X66089D02*
X78917D01*
X147889Y267048D02*
X161384D01*
X141225D02*
X147223D01*
X137060D02*
X140226D01*
X135894D02*
X136394D01*
X131729D02*
X135561D01*
X125399D02*
X131063D01*
X123566D02*
X124899D01*
X114736D02*
X123066D01*
X113570D02*
X114236D01*
X99909D02*
X113237D01*
X98743D02*
X99076D01*
X89746D02*
X97743D01*
X87581D02*
X89246D01*
X79584D02*
X87247D01*
X66089D02*
X78917D01*
X147889Y266882D02*
X161384D01*
X141225D02*
X147223D01*
X137227D02*
X140059D01*
X135728D02*
X136394D01*
X131896D02*
X135394D01*
X125565D02*
X131063D01*
X123566D02*
X124899D01*
X114903D02*
X123233D01*
X113736D02*
X114403D01*
X99909D02*
X113403D01*
X89913D02*
X98243D01*
X87747D02*
X89246D01*
X79584D02*
X87414D01*
X66089D02*
X78917D01*
X147889Y266715D02*
X161384D01*
X141059D02*
X147223D01*
X137227D02*
X139893D01*
X135728D02*
X136561D01*
X131896D02*
X135394D01*
X125565D02*
X131229D01*
X123732D02*
X125065D01*
X115069D02*
X123399D01*
X113903D02*
X114403D01*
X100075D02*
X113570D01*
X89913D02*
X98576D01*
X87914D02*
X89413D01*
X79584D02*
X87581D01*
X66089D02*
X78917D01*
X147889Y266549D02*
X161384D01*
X140892D02*
X147223D01*
X137394D02*
X139726D01*
X135728D02*
X136727D01*
X132062D02*
X135394D01*
X125732D02*
X131229D01*
X123899D02*
X125065D01*
X115069D02*
X123566D01*
X114070D02*
X114569D01*
X100075D02*
X113736D01*
X90079D02*
X98909D01*
X88080D02*
X89580D01*
X79584D02*
X87747D01*
X66089D02*
X78917D01*
X147889Y266382D02*
X161384D01*
X140726D02*
X147223D01*
X137560D02*
X139726D01*
X135561D02*
X136894D01*
X132062D02*
X135228D01*
X125732D02*
X131396D01*
X124066D02*
X125232D01*
X115236D02*
X123732D01*
X114236D02*
X114569D01*
X100409D02*
X113903D01*
X90246D02*
X99242D01*
X88247D02*
X89580D01*
X79584D02*
X87914D01*
X66089D02*
X78917D01*
X147889Y266215D02*
X161384D01*
X140726D02*
X147223D01*
X137727D02*
X139393D01*
X135561D02*
X136894D01*
X132229D02*
X135228D01*
X125898D02*
X131396D01*
X124232D02*
X125232D01*
X115402D02*
X123732D01*
X114403D02*
X114736D01*
X112071D02*
X114070D01*
X101075D02*
X111238D01*
X90246D02*
X99409D01*
X88414D02*
X89746D01*
X79584D02*
X88080D01*
X66089D02*
X78917D01*
X147889Y266049D02*
X161384D01*
X140559D02*
X147223D01*
X137893D02*
X139226D01*
X135394D02*
X137060D01*
X132229D02*
X135061D01*
X125898D02*
X131563D01*
X124232D02*
X125399D01*
X115402D02*
X123899D01*
X114569D02*
X114903D01*
X112903D02*
X114236D01*
X101741D02*
X110904D01*
X90413D02*
X99576D01*
X88580D02*
X89913D01*
X79584D02*
X88247D01*
X66089D02*
X78917D01*
X147889Y265882D02*
X161384D01*
X140226D02*
X147223D01*
X138060D02*
X139060D01*
X135394D02*
X137227D01*
X132396D02*
X135061D01*
X126065D02*
X131563D01*
X124399D02*
X125565D01*
X115569D02*
X124066D01*
X113237D02*
X114403D01*
X103074D02*
X110738D01*
X100575D02*
X100908D01*
X92245D02*
X99576D01*
X90579D02*
X91079D01*
X88747D02*
X89913D01*
X79584D02*
X88414D01*
X66089D02*
X78917D01*
X147889Y265716D02*
X161384D01*
X140059D02*
X147223D01*
X138060D02*
X138726D01*
X135394D02*
X137394D01*
X132396D02*
X135061D01*
X126232D02*
X131729D01*
X124565D02*
X125565D01*
X115569D02*
X124232D01*
X113570D02*
X114569D01*
X111904D02*
X112903D01*
X103241D02*
X110738D01*
X100575D02*
X101408D01*
X92745D02*
X99742D01*
X88913D02*
X90079D01*
X79584D02*
X88580D01*
X66089D02*
X78917D01*
X147889Y265549D02*
X161384D01*
X139893D02*
X147223D01*
X138227D02*
X138560D01*
X135394D02*
X137560D01*
X132562D02*
X134895D01*
X126232D02*
X131729D01*
X124732D02*
X125732D01*
X115736D02*
X124399D01*
X113903D02*
X114736D01*
X111737D02*
X113403D01*
X103241D02*
X110738D01*
X100742D02*
X102241D01*
X92912D02*
X99909D01*
X91412D02*
X92245D01*
X89080D02*
X90079D01*
X79584D02*
X88747D01*
X66089D02*
X78917D01*
X147889Y265382D02*
X161384D01*
X139726D02*
X147223D01*
X135228D02*
X137560D01*
X132562D02*
X134895D01*
X126398D02*
X131896D01*
X124899D02*
X125732D01*
X120067D02*
X124565D01*
X115736D02*
X119234D01*
X114070D02*
X114903D01*
X111571D02*
X113736D01*
X100742D02*
X110738D01*
X94744D02*
X99909D01*
X93078D02*
X93911D01*
X90912D02*
X92579D01*
X89246D02*
X89913D01*
X79584D02*
X88913D01*
X66089D02*
X78917D01*
X147889Y265216D02*
X161384D01*
X139393D02*
X147223D01*
X135228D02*
X137727D01*
X132729D02*
X134895D01*
X127065D02*
X131896D01*
X125065D02*
X125732D01*
X120734D02*
X124732D01*
X115902D02*
X119068D01*
X114236D02*
X115069D01*
X111571D02*
X114070D01*
X100908D02*
X110904D01*
X95411D02*
X100075D01*
X93078D02*
X93745D01*
X90912D02*
X92579D01*
X89413D02*
X89746D01*
X79584D02*
X89080D01*
X66089D02*
X78917D01*
X147889Y265049D02*
X161384D01*
X139226D02*
X147223D01*
X135228D02*
X137560D01*
X132729D02*
X134728D01*
X127564D02*
X132062D01*
X125232D02*
X125898D01*
X121067D02*
X124732D01*
X116069D02*
X118901D01*
X114569D02*
X115402D01*
X111737D02*
X114236D01*
X101075D02*
X110904D01*
X95910D02*
X100075D01*
X94578D02*
X94911D01*
X93078D02*
X93745D01*
X91079D02*
X92745D01*
X79584D02*
X89246D01*
X66089D02*
X78917D01*
X147889Y264883D02*
X161384D01*
X138893D02*
X147223D01*
X135061D02*
X137227D01*
X132895D02*
X134728D01*
X129397D02*
X132062D01*
X127898D02*
X129064D01*
X125399D02*
X125898D01*
X121400D02*
X124899D01*
X119568D02*
X120567D01*
X116069D02*
X118901D01*
X114736D02*
X115402D01*
X111737D02*
X114403D01*
X101075D02*
X111071D01*
X96077D02*
X100242D01*
X94411D02*
X95411D01*
X93078D02*
X93745D01*
X91079D02*
X92579D01*
X90246D02*
X90579D01*
X79584D02*
X89413D01*
X66089D02*
X78917D01*
X147889Y264716D02*
X161384D01*
X138893D02*
X147223D01*
X135061D02*
X136727D01*
X132895D02*
X134728D01*
X129563D02*
X132229D01*
X128064D02*
X129064D01*
X126565D02*
X126898D01*
X125399D02*
X126065D01*
X121733D02*
X125065D01*
X119568D02*
X121067D01*
X116235D02*
X118901D01*
X114903D02*
X115569D01*
X111904D02*
X114736D01*
X101242D02*
X111238D01*
X96410D02*
X100242D01*
X94411D02*
X95744D01*
X93078D02*
X93745D01*
X91246D02*
X92579D01*
X90079D02*
X90579D01*
X79584D02*
X89413D01*
X66089D02*
X78917D01*
X147889Y264549D02*
X161384D01*
X139060D02*
X147223D01*
X138060D02*
X138227D01*
X135061D02*
X136394D01*
X133062D02*
X134728D01*
X130063D02*
X132229D01*
X128397D02*
X129230D01*
X126731D02*
X127398D01*
X125565D02*
X126065D01*
X122066D02*
X125232D01*
X119568D02*
X121233D01*
X116235D02*
X119068D01*
X115069D02*
X115569D01*
X112071D02*
X114903D01*
X101242D02*
X111404D01*
X96577D02*
X100409D01*
X94411D02*
X95910D01*
X93078D02*
X93911D01*
X91246D02*
X92579D01*
X90246D02*
X90746D01*
X79584D02*
X89413D01*
X66089D02*
X78917D01*
X147889Y264383D02*
X161384D01*
X139226D02*
X147223D01*
X137560D02*
X138393D01*
X135061D02*
X135728D01*
X133062D02*
X134561D01*
X130563D02*
X132396D01*
X128730D02*
X129397D01*
X126731D02*
X127731D01*
X125732D02*
X126232D01*
X122233D02*
X125399D01*
X119734D02*
X121567D01*
X116402D02*
X119068D01*
X115236D02*
X115736D01*
X112237D02*
X115069D01*
X101408D02*
X111571D01*
X96910D02*
X100409D01*
X94578D02*
X96077D01*
X92912D02*
X94078D01*
X91412D02*
X92412D01*
X90413D02*
X90746D01*
X86914D02*
X89246D01*
X79584D02*
X86581D01*
X66089D02*
X78917D01*
X147889Y264216D02*
X161384D01*
X139393D02*
X147223D01*
X137060D02*
X138560D01*
X133229D02*
X134561D01*
X131229D02*
X132396D01*
X128897D02*
X129897D01*
X126898D02*
X127898D01*
X125898D02*
X126232D01*
X122566D02*
X125565D01*
X119734D02*
X121733D01*
X116569D02*
X119234D01*
X115569D02*
X115902D01*
X112570D02*
X115236D01*
X101408D02*
X111904D01*
X97077D02*
X100575D01*
X94744D02*
X96410D01*
X92912D02*
X94244D01*
X91412D02*
X92245D01*
X90579D02*
X90912D01*
X89746D02*
X90246D01*
X87247D02*
X89246D01*
X79584D02*
X86747D01*
X66089D02*
X78917D01*
X147889Y264050D02*
X161384D01*
X139559D02*
X147223D01*
X136561D02*
X138726D01*
X129064D02*
X130563D01*
X126898D02*
X128231D01*
X126065D02*
X126232D01*
X122733D02*
X125732D01*
X119901D02*
X122066D01*
X116569D02*
X119401D01*
X115736D02*
X115902D01*
X112903D02*
X115402D01*
X101575D02*
X112071D01*
X97243D02*
X100742D01*
X94911D02*
X96577D01*
X92745D02*
X94411D01*
X91579D02*
X92079D01*
X90746D02*
X90912D01*
X89746D02*
X90413D01*
X87581D02*
X89246D01*
X79584D02*
X87081D01*
X66089D02*
X78917D01*
X147889Y263883D02*
X161384D01*
X139726D02*
X147223D01*
X135561D02*
X138893D01*
X129230D02*
X131563D01*
X126898D02*
X128397D01*
X122899D02*
X125898D01*
X120067D02*
X122233D01*
X116735D02*
X119734D01*
X113403D02*
X115569D01*
X101575D02*
X112404D01*
X97410D02*
X100742D01*
X95077D02*
X96743D01*
X92579D02*
X94578D01*
X91579D02*
X91912D01*
X89746D02*
X90579D01*
X88080D02*
X89246D01*
X79584D02*
X87414D01*
X66089D02*
X78917D01*
X147889Y263716D02*
X161384D01*
X139893D02*
X147223D01*
X134895D02*
X138893D01*
X133395D02*
X134395D01*
X129563D02*
X132729D01*
X127065D02*
X128564D01*
X123066D02*
X126065D01*
X116735D02*
X122400D01*
X114903D02*
X115736D01*
X101741D02*
X112903D01*
X97576D02*
X100908D01*
X95244D02*
X96910D01*
X92412D02*
X94744D01*
X89580D02*
X90746D01*
X88747D02*
X89246D01*
X79584D02*
X87914D01*
X66089D02*
X78917D01*
X147889Y263550D02*
X161384D01*
X140059D02*
X147223D01*
X134728D02*
X139060D01*
X133395D02*
X134395D01*
X129730D02*
X132729D01*
X127065D02*
X128730D01*
X123399D02*
X126232D01*
X116902D02*
X122566D01*
X115402D02*
X115902D01*
X101908D02*
X113570D01*
X97743D02*
X100908D01*
X91912D02*
X97077D01*
X79584D02*
X88580D01*
X66089D02*
X78917D01*
X147889Y263383D02*
X161384D01*
X140226D02*
X147223D01*
X134728D02*
X139226D01*
X133562D02*
X134395D01*
X129897D02*
X132895D01*
X127065D02*
X128897D01*
X123566D02*
X126398D01*
X116902D02*
X122733D01*
X115569D02*
X116069D01*
X101908D02*
X114903D01*
X97910D02*
X101075D01*
X91912D02*
X97243D01*
X79584D02*
X89246D01*
X66089D02*
X78917D01*
X147889Y263217D02*
X161384D01*
X140392D02*
X147223D01*
X134728D02*
X139393D01*
X133562D02*
X134395D01*
X130063D02*
X132895D01*
X127231D02*
X129064D01*
X123732D02*
X126565D01*
X117069D02*
X122899D01*
X115569D02*
X116235D01*
X102075D02*
X114903D01*
X98076D02*
X101075D01*
X92079D02*
X97410D01*
X89580D02*
X91412D01*
X79584D02*
X89246D01*
X66089D02*
X78917D01*
X147889Y263050D02*
X161384D01*
X140559D02*
X147223D01*
X134728D02*
X139559D01*
X133728D02*
X134395D01*
X130230D02*
X132895D01*
X127231D02*
X129230D01*
X123732D02*
X126565D01*
X120401D02*
X123066D01*
X117235D02*
X120234D01*
X115736D02*
X116402D01*
X102075D02*
X115069D01*
X98243D02*
X101242D01*
X92079D02*
X97410D01*
X89746D02*
X91412D01*
X79584D02*
X89246D01*
X66089D02*
X78917D01*
X147889Y262883D02*
X161384D01*
X140726D02*
X147223D01*
X134728D02*
X139726D01*
X133728D02*
X134228D01*
X130396D02*
X133062D01*
X127231D02*
X129397D01*
X123899D02*
X126565D01*
X120567D02*
X123233D01*
X117235D02*
X120234D01*
X115736D02*
X116569D01*
X110405D02*
X115069D01*
X102241D02*
X110238D01*
X98243D02*
X101408D01*
X93078D02*
X97576D01*
X92245D02*
X92745D01*
X89746D02*
X91412D01*
X79584D02*
X89413D01*
X66089D02*
X78917D01*
X147889Y262717D02*
X161384D01*
X140726D02*
X147223D01*
X134561D02*
X139893D01*
X133895D02*
X134228D01*
X130396D02*
X133062D01*
X127398D02*
X129563D01*
X124066D02*
X126731D01*
X120900D02*
X123233D01*
X117402D02*
X120234D01*
X115736D02*
X116569D01*
X110738D02*
X115069D01*
X102241D02*
X110405D01*
X98409D02*
X101408D01*
X93245D02*
X97743D01*
X92245D02*
X93078D01*
X89746D02*
X91579D01*
X79584D02*
X89413D01*
X66089D02*
X78917D01*
X147889Y262550D02*
X161384D01*
X140892D02*
X147223D01*
X134561D02*
X140059D01*
X133895D02*
X134228D01*
X130563D02*
X133229D01*
X127564D02*
X129730D01*
X124232D02*
X126731D01*
X121067D02*
X123399D01*
X117568D02*
X120401D01*
X115736D02*
X116735D01*
X111071D02*
X115069D01*
X102408D02*
X110571D01*
X98576D02*
X101575D01*
X93578D02*
X97743D01*
X92245D02*
X93245D01*
X89746D02*
X91579D01*
X79584D02*
X89413D01*
X66089D02*
X78917D01*
X147889Y262384D02*
X161384D01*
X141059D02*
X147223D01*
X134561D02*
X140226D01*
X134062D02*
X134228D01*
X130730D02*
X133229D01*
X127731D02*
X129730D01*
X124232D02*
X126731D01*
X121233D02*
X123399D01*
X117902D02*
X120567D01*
X115736D02*
X116902D01*
X111238D02*
X115069D01*
X102408D02*
X110904D01*
X98576D02*
X101575D01*
X93911D02*
X97910D01*
X92412D02*
X93578D01*
X89913D02*
X91746D01*
X79584D02*
X89580D01*
X66089D02*
X78917D01*
X147889Y262217D02*
X161384D01*
X141225D02*
X147223D01*
X134561D02*
X140392D01*
X130896D02*
X133395D01*
X127898D02*
X129897D01*
X127398D02*
X127564D01*
X124399D02*
X126731D01*
X121400D02*
X123399D01*
X118068D02*
X120567D01*
X115736D02*
X116902D01*
X111571D02*
X115069D01*
X102574D02*
X111071D01*
X98743D02*
X101741D01*
X94244D02*
X97910D01*
X92412D02*
X93745D01*
X89913D02*
X91746D01*
X79584D02*
X89580D01*
X66089D02*
X78917D01*
X147889Y262050D02*
X161384D01*
X141392D02*
X147223D01*
X134561D02*
X140559D01*
X130896D02*
X133395D01*
X128231D02*
X130063D01*
X127398D02*
X127731D01*
X124399D02*
X126731D01*
X121733D02*
X123566D01*
X118401D02*
X120734D01*
X117735D02*
X117902D01*
X115736D02*
X117069D01*
X111904D02*
X115069D01*
X102741D02*
X111404D01*
X98743D02*
X101741D01*
X94578D02*
X97910D01*
X92412D02*
X94078D01*
X90079D02*
X91746D01*
X79584D02*
X89746D01*
X66089D02*
X78917D01*
X147889Y261884D02*
X161384D01*
X141559D02*
X147223D01*
X134561D02*
X140726D01*
X131063D02*
X133562D01*
X128397D02*
X130063D01*
X127398D02*
X127898D01*
X124399D02*
X126731D01*
X122066D02*
X123566D01*
X118735D02*
X120734D01*
X117902D02*
X118235D01*
X115736D02*
X117069D01*
X112237D02*
X114903D01*
X102741D02*
X111737D01*
X98743D02*
X101908D01*
X94911D02*
X97910D01*
X92579D02*
X94244D01*
X90079D02*
X91746D01*
X79584D02*
X89746D01*
X66089D02*
X78917D01*
X147889Y261717D02*
X161384D01*
X141892D02*
X147223D01*
X134561D02*
X140726D01*
X131063D02*
X133562D01*
X128564D02*
X130063D01*
X127398D02*
X128231D01*
X124565D02*
X126731D01*
X122400D02*
X123399D01*
X119234D02*
X120900D01*
X117902D02*
X118568D01*
X115736D02*
X117235D01*
X112570D02*
X114903D01*
X102908D02*
X111904D01*
X98743D02*
X102075D01*
X95244D02*
X97910D01*
X92579D02*
X94578D01*
X90246D02*
X91746D01*
X79584D02*
X89913D01*
X66089D02*
X78917D01*
X147889Y261551D02*
X161384D01*
X142058D02*
X147223D01*
X134561D02*
X140892D01*
X131063D02*
X133728D01*
X128730D02*
X130063D01*
X127398D02*
X128397D01*
X124565D02*
X126731D01*
X122899D02*
X123066D01*
X121733D02*
X122066D01*
X119568D02*
X120900D01*
X118068D02*
X118735D01*
X115736D02*
X117235D01*
X112903D02*
X114736D01*
X102908D02*
X112237D01*
X98743D02*
X102075D01*
X95577D02*
X97743D01*
X92579D02*
X94911D01*
X90413D02*
X91746D01*
X79584D02*
X90079D01*
X66089D02*
X78917D01*
X147889Y261384D02*
X161384D01*
X142225D02*
X147223D01*
X134395D02*
X141059D01*
X131063D02*
X133728D01*
X129064D02*
X130063D01*
X127398D02*
X128564D01*
X124565D02*
X126731D01*
X121733D02*
X122233D01*
X119901D02*
X120734D01*
X118068D02*
X119068D01*
X115736D02*
X117402D01*
X113237D02*
X114569D01*
X103074D02*
X112570D01*
X98743D02*
X102241D01*
X96077D02*
X97576D01*
X92579D02*
X95244D01*
X90746D02*
X91746D01*
X79584D02*
X90246D01*
X66089D02*
X78917D01*
X147889Y261217D02*
X161384D01*
X142392D02*
X147223D01*
X134395D02*
X141225D01*
X131063D02*
X133895D01*
X129397D02*
X130063D01*
X127398D02*
X128897D01*
X125565D02*
X126565D01*
X124565D02*
X125232D01*
X121733D02*
X122566D01*
X118235D02*
X119401D01*
X115569D02*
X117402D01*
X103074D02*
X112903D01*
X98743D02*
X102241D01*
X96910D02*
X97077D01*
X92579D02*
X95577D01*
X91246D02*
X91412D01*
X79584D02*
X90413D01*
X66089D02*
X78917D01*
X147889Y261051D02*
X161384D01*
X142558D02*
X147223D01*
X134395D02*
X141392D01*
X131063D02*
X133895D01*
X127231D02*
X129230D01*
X124399D02*
X125399D01*
X121733D02*
X123066D01*
X118235D02*
X119734D01*
X115569D02*
X117568D01*
X103241D02*
X113237D01*
X98576D02*
X102408D01*
X92412D02*
X96077D01*
X79584D02*
X90579D01*
X66089D02*
X78917D01*
X147889Y260884D02*
X161384D01*
X142725D02*
X147223D01*
X130896D02*
X141559D01*
X127231D02*
X129563D01*
X124066D02*
X125565D01*
X121567D02*
X123732D01*
X118401D02*
X120234D01*
X115402D02*
X117568D01*
X103407D02*
X113736D01*
X98409D02*
X102574D01*
X92412D02*
X96410D01*
X79584D02*
X90746D01*
X66089D02*
X78917D01*
X147889Y260718D02*
X161384D01*
X142891D02*
X147223D01*
X127065D02*
X141725D01*
X121400D02*
X125898D01*
X118401D02*
X120734D01*
X114736D02*
X117735D01*
X103407D02*
X114403D01*
X92245D02*
X102741D01*
X79584D02*
X91079D01*
X66089D02*
X78917D01*
X147889Y260551D02*
X161384D01*
X143225D02*
X147223D01*
X118401D02*
X142058D01*
X103574D02*
X117735D01*
X91912D02*
X102908D01*
X79584D02*
X91746D01*
X66089D02*
X78917D01*
X147889Y260384D02*
X161384D01*
X143391D02*
X147223D01*
X79584D02*
X142225D01*
X66089D02*
X78917D01*
X147889Y260218D02*
X161384D01*
X143558D02*
X147223D01*
X79584D02*
X142392D01*
X66089D02*
X78917D01*
X147889Y260051D02*
X161384D01*
X143724D02*
X147223D01*
X79584D02*
X142558D01*
X66089D02*
X78917D01*
X147889Y259885D02*
X161384D01*
X143724D02*
X147223D01*
X79584D02*
X142725D01*
X66089D02*
X78917D01*
X147889Y259718D02*
X161384D01*
X143724D02*
X147223D01*
X79584D02*
X142891D01*
X66089D02*
X78917D01*
X147889Y259551D02*
X161384D01*
X143391D02*
X147223D01*
X79584D02*
X143058D01*
X66089D02*
X78917D01*
X147889Y259385D02*
X161384D01*
X79584D02*
X147223D01*
X66089D02*
X78917D01*
X147889Y259218D02*
X161384D01*
X79584D02*
X147223D01*
X66089D02*
X78917D01*
X147889Y259052D02*
X161384D01*
X79584D02*
X147223D01*
X66089D02*
X78917D01*
X147889Y258885D02*
X161384D01*
X79584D02*
X147223D01*
X66089D02*
X78917D01*
X147889Y258718D02*
X161384D01*
X79584D02*
X147223D01*
X66089D02*
X78917D01*
X147889Y258552D02*
X161384D01*
X79584D02*
X147223D01*
X66089D02*
X78917D01*
X147889Y258385D02*
X161384D01*
X79584D02*
X147223D01*
X66089D02*
X78917D01*
X147889Y258219D02*
X161384D01*
X79584D02*
X147223D01*
X66089D02*
X78917D01*
X147889Y258052D02*
X161384D01*
X79584D02*
X147223D01*
X66089D02*
X78917D01*
X147889Y257885D02*
X161384D01*
X79584D02*
X147223D01*
X66089D02*
X78917D01*
X147889Y257719D02*
X161384D01*
X79584D02*
X147223D01*
X66089D02*
X78917D01*
X147889Y257552D02*
X161384D01*
X79584D02*
X147223D01*
X66089D02*
X78917D01*
X147889Y257386D02*
X161384D01*
X79584D02*
X147223D01*
X66089D02*
X78917D01*
X147889Y257219D02*
X161384D01*
X79584D02*
X147223D01*
X66089D02*
X78917D01*
X147889Y257052D02*
X161384D01*
X79584D02*
X147223D01*
X66089D02*
X78917D01*
X147889Y256886D02*
X161384D01*
X79584D02*
X147223D01*
X66089D02*
X78917D01*
X147889Y256719D02*
X161384D01*
X79584D02*
X147223D01*
X66089D02*
X78917D01*
X147889Y256553D02*
X161384D01*
X79584D02*
X147223D01*
X66089D02*
X78917D01*
X147889Y256386D02*
X161384D01*
X79584D02*
X147223D01*
X66089D02*
X78917D01*
X147889Y256220D02*
X161384D01*
X79584D02*
X147223D01*
X66089D02*
X78917D01*
X147889Y256053D02*
X161384D01*
X79584D02*
X147223D01*
X66089D02*
X78917D01*
X147889Y255886D02*
X161384D01*
X66089D02*
X78917D01*
X147889Y255720D02*
X161384D01*
X66089D02*
X78917D01*
X147889Y255553D02*
X161384D01*
X66089D02*
X78917D01*
X147889Y255386D02*
X161384D01*
X66089D02*
X78917D01*
X147889Y255220D02*
X161384D01*
X66089D02*
X78917D01*
X147889Y255053D02*
X161384D01*
X66089D02*
X78917D01*
X147889Y254887D02*
X161384D01*
X66089D02*
X78917D01*
X147889Y254720D02*
X161384D01*
X66089D02*
X78917D01*
X147889Y254554D02*
X161384D01*
X66089D02*
X78917D01*
X147889Y254387D02*
X161384D01*
X66089D02*
X78917D01*
X147889Y254220D02*
X161384D01*
X66089D02*
X78917D01*
X147889Y254054D02*
X161384D01*
X66089D02*
X78917D01*
X147889Y253887D02*
X161384D01*
X66089D02*
X78917D01*
X147889Y253720D02*
X161384D01*
X66089D02*
X78917D01*
X147889Y253554D02*
X161384D01*
X66089D02*
X78917D01*
X147889Y253387D02*
X161384D01*
X66089D02*
X78917D01*
X147889Y253221D02*
X161384D01*
X66089D02*
X78917D01*
X147889Y253054D02*
X161384D01*
X66089D02*
X78917D01*
X147889Y252888D02*
X161384D01*
X66089D02*
X78917D01*
X147889Y252721D02*
X161384D01*
X66089D02*
X78917D01*
X147889Y252554D02*
X161384D01*
X66089D02*
X78917D01*
X147889Y252388D02*
X161384D01*
X66089D02*
X78917D01*
X147889Y252221D02*
X161384D01*
X66089D02*
X78917D01*
X147889Y252055D02*
X161384D01*
X66089D02*
X78917D01*
X147889Y251888D02*
X161384D01*
X66089D02*
X78917D01*
X147889Y251721D02*
X161384D01*
X66089D02*
X78917D01*
X147889Y251555D02*
X161384D01*
X66089D02*
X78917D01*
X147889Y251388D02*
X161384D01*
X66089D02*
X78917D01*
X147889Y251221D02*
X161384D01*
X66089D02*
X78917D01*
X147889Y251055D02*
X161384D01*
X66089D02*
X78917D01*
X147889Y250888D02*
X161384D01*
X66089D02*
X78917D01*
X147889Y250722D02*
X161384D01*
X66089D02*
X78917D01*
X147889Y250555D02*
X161384D01*
X66089D02*
X78917D01*
X147889Y250389D02*
X161384D01*
X66089D02*
X78917D01*
X147889Y250222D02*
X161384D01*
X66089D02*
X78917D01*
X147889Y250055D02*
X161384D01*
X66089D02*
X78917D01*
X147889Y249889D02*
X161384D01*
X66089D02*
X78917D01*
X147889Y249722D02*
X161384D01*
X66089D02*
X78917D01*
X147889Y249555D02*
X161384D01*
X66089D02*
X78917D01*
X147889Y249389D02*
X161384D01*
X66089D02*
X78917D01*
X147889Y249222D02*
X161384D01*
X66089D02*
X78917D01*
X147889Y249056D02*
X161384D01*
X66089D02*
X78917D01*
X147889Y248889D02*
X161384D01*
X66089D02*
X78917D01*
X147889Y248723D02*
X161384D01*
X66089D02*
X78917D01*
X147889Y248556D02*
X161384D01*
X66089D02*
X78917D01*
X147889Y248389D02*
X161384D01*
X66089D02*
X78917D01*
X147889Y248223D02*
X161384D01*
X66089D02*
X78917D01*
X147889Y248056D02*
X161384D01*
X66089D02*
X78917D01*
X147889Y247889D02*
X161384D01*
X66089D02*
X78917D01*
X147889Y247723D02*
X161384D01*
X66089D02*
X78917D01*
X147889Y247556D02*
X161384D01*
X66089D02*
X78917D01*
X147889Y247390D02*
X161384D01*
X66089D02*
X78917D01*
X147889Y247223D02*
X161384D01*
X66089D02*
X78917D01*
X147889Y247057D02*
X161384D01*
X66089D02*
X78917D01*
X147889Y246890D02*
X161384D01*
X66089D02*
X78917D01*
X147889Y246723D02*
X161384D01*
X66089D02*
X78917D01*
X147889Y246557D02*
X161384D01*
X66089D02*
X78917D01*
X147889Y246390D02*
X161384D01*
X66089D02*
X78917D01*
X147889Y246223D02*
X161384D01*
X66089D02*
X78917D01*
X147889Y246057D02*
X161384D01*
X66089D02*
X78917D01*
X147889Y245890D02*
X161384D01*
X66089D02*
X78917D01*
X147889Y245724D02*
X161384D01*
X66089D02*
X78917D01*
X147889Y245557D02*
X161384D01*
X66089D02*
X78917D01*
X147889Y245391D02*
X161384D01*
X66089D02*
X78917D01*
X147889Y245224D02*
X161384D01*
X66089D02*
X78917D01*
X147889Y245057D02*
X161384D01*
X66089D02*
X78917D01*
X147889Y244891D02*
X161384D01*
X66089D02*
X78917D01*
X147889Y244724D02*
X161384D01*
X66089D02*
X78917D01*
X147889Y244557D02*
X161384D01*
X66089D02*
X78917D01*
X147889Y244391D02*
X161384D01*
X66089D02*
X78917D01*
X147889Y244224D02*
X161384D01*
X66089D02*
X78917D01*
X147889Y244058D02*
X161384D01*
X66089D02*
X78917D01*
X66089Y243891D02*
X161384D01*
X66089Y243724D02*
X161384D01*
X66089Y243558D02*
X161384D01*
X66089Y243391D02*
X161384D01*
X66089Y243225D02*
X161384D01*
X66089Y243058D02*
X161384D01*
X66089Y242892D02*
X161384D01*
X66089Y242725D02*
X161384D01*
X66089Y242558D02*
X161384D01*
X66089Y242392D02*
X161384D01*
X66089Y242225D02*
X161384D01*
X66089Y242058D02*
X161384D01*
X66089Y241892D02*
X161384D01*
X66089Y241725D02*
X161384D01*
X66089Y241559D02*
X161384D01*
X66089Y241392D02*
X161384D01*
X66089Y241226D02*
X161384D01*
X66089Y241059D02*
X161384D01*
X66089Y240892D02*
X161384D01*
X66089Y240726D02*
X161384D01*
X66089Y240559D02*
X161384D01*
X66089Y240392D02*
X161384D01*
X66089Y240226D02*
X161384D01*
X66089Y240059D02*
X161384D01*
X66089Y239893D02*
X161384D01*
X66089Y239726D02*
X161384D01*
X66089Y239560D02*
X161384D01*
X66089Y239393D02*
X161384D01*
X66089Y239226D02*
X161384D01*
X66089Y239060D02*
X161384D01*
X66089Y238893D02*
X161384D01*
X66089Y238726D02*
X161384D01*
X66089Y238560D02*
X161384D01*
X66089Y238393D02*
X161384D01*
X66089Y238227D02*
X161384D01*
X66089Y238060D02*
X161384D01*
X66089Y237894D02*
X161384D01*
X66089Y237727D02*
X161384D01*
X66089Y237560D02*
X161384D01*
X66089Y237394D02*
X161384D01*
X66089Y237227D02*
X161384D01*
X66089Y237061D02*
X161384D01*
X66089Y236894D02*
X161384D01*
X66089Y236727D02*
X161384D01*
X66089Y236561D02*
X161384D01*
X66089Y236394D02*
X161384D01*
X66089Y236228D02*
X161384D01*
X66089Y236061D02*
X161384D01*
X66089Y235894D02*
X161384D01*
X66089Y235728D02*
X161384D01*
X66089Y235561D02*
X161384D01*
X66089Y235395D02*
X161384D01*
X66089Y235228D02*
X161384D01*
X66089Y235061D02*
X161384D01*
X66089Y234895D02*
X161384D01*
X66089Y234728D02*
X161384D01*
X66089Y234562D02*
X161384D01*
X66089Y234395D02*
X161384D01*
X66089Y234228D02*
X161384D01*
X66089Y234062D02*
X161384D01*
M02*
