G04*
G04 #@! TF.GenerationSoftware,Altium Limited,Altium Designer,22.2.1 (43)*
G04*
G04 Layer_Color=128*
%FSLAX25Y25*%
%MOIN*%
G70*
G04*
G04 #@! TF.SameCoordinates,4EB9BB6F-69CC-4AE6-9B36-E95FEA1B1F0F*
G04*
G04*
G04 #@! TF.FilePolarity,Positive*
G04*
G01*
G75*
%ADD21R,0.04194X0.03494*%
%ADD23R,0.03150X0.05512*%
%ADD26R,0.03494X0.04194*%
%ADD29R,0.05512X0.03150*%
%ADD163R,0.04724X0.02756*%
%ADD164R,0.03937X0.06693*%
%ADD165R,0.05039X0.02677*%
D21*
X332677Y22835D02*
D03*
X338977D02*
D03*
X357677Y58661D02*
D03*
X363977D02*
D03*
X305119Y61417D02*
D03*
X298819D02*
D03*
X305709Y75197D02*
D03*
X299409D02*
D03*
X305709Y80709D02*
D03*
X299409D02*
D03*
X323426Y99213D02*
D03*
X317126D02*
D03*
D23*
X319685Y16536D02*
D03*
X312205D02*
D03*
X344291Y56496D02*
D03*
X351772D02*
D03*
X298819Y69291D02*
D03*
X306299D02*
D03*
X316535Y105512D02*
D03*
X324016D02*
D03*
D26*
X319685Y29528D02*
D03*
Y23228D02*
D03*
X324803Y29528D02*
D03*
Y23228D02*
D03*
Y16536D02*
D03*
Y10236D02*
D03*
X350787D02*
D03*
Y16536D02*
D03*
X357677Y70867D02*
D03*
Y64566D02*
D03*
X356496Y76377D02*
D03*
Y82677D02*
D03*
X351378D02*
D03*
Y76377D02*
D03*
X356496Y88582D02*
D03*
Y94882D02*
D03*
X346260Y88583D02*
D03*
Y94883D02*
D03*
X351378D02*
D03*
Y88583D02*
D03*
X306102Y92520D02*
D03*
Y86221D02*
D03*
D29*
X313386Y29528D02*
D03*
Y22048D02*
D03*
Y46260D02*
D03*
Y38780D02*
D03*
X320079Y46260D02*
D03*
Y38780D02*
D03*
X326772Y46260D02*
D03*
Y38780D02*
D03*
X350394Y63386D02*
D03*
Y70866D02*
D03*
X363189Y68898D02*
D03*
Y76378D02*
D03*
Y90158D02*
D03*
Y82677D02*
D03*
X300218Y93191D02*
D03*
Y85710D02*
D03*
D163*
X342913Y17717D02*
D03*
Y10237D02*
D03*
X332677Y17717D02*
D03*
Y13977D02*
D03*
Y10237D02*
D03*
D164*
Y29528D02*
D03*
X344094D02*
D03*
D165*
X338228Y92559D02*
D03*
D03*
Y87559D02*
D03*
Y82559D02*
D03*
Y77559D02*
D03*
Y72559D02*
D03*
Y67559D02*
D03*
Y62559D02*
D03*
X317284Y87559D02*
D03*
Y82559D02*
D03*
Y77559D02*
D03*
Y72559D02*
D03*
Y67559D02*
D03*
Y62559D02*
D03*
Y92559D02*
D03*
M02*
