G04*
G04 #@! TF.GenerationSoftware,Altium Limited,Altium Designer,22.2.1 (43)*
G04*
G04 Layer_Color=255*
%FSLAX25Y25*%
%MOIN*%
G70*
G04*
G04 #@! TF.SameCoordinates,4EB9BB6F-69CC-4AE6-9B36-E95FEA1B1F0F*
G04*
G04*
G04 #@! TF.FilePolarity,Positive*
G04*
G01*
G75*
%ADD58C,0.08268*%
%ADD70R,0.03800X0.03100*%
%ADD72R,0.02756X0.05118*%
%ADD75R,0.03100X0.03800*%
%ADD78R,0.05118X0.02756*%
%ADD114C,0.03937*%
%ADD115O,0.07874X0.05118*%
%ADD116C,0.07874*%
%ADD117O,0.14173X0.07087*%
%ADD118O,0.15748X0.07874*%
%ADD119O,0.07874X0.15748*%
%ADD120O,0.07087X0.14173*%
%ADD121C,0.11811*%
%ADD160R,0.04331X0.02362*%
%ADD161R,0.03543X0.06299*%
%ADD162R,0.04646X0.02284*%
D58*
X161054Y12001D02*
D03*
X11417Y173622D02*
D03*
X242874Y318465D02*
D03*
Y248465D02*
D03*
Y288465D02*
D03*
X272874Y248465D02*
D03*
X272795Y308465D02*
D03*
X191693Y318465D02*
D03*
Y248465D02*
D03*
Y288465D02*
D03*
X221693Y248465D02*
D03*
X221614Y308465D02*
D03*
D70*
X332677Y22835D02*
D03*
X338977D02*
D03*
X357677Y58661D02*
D03*
X363977D02*
D03*
X305119Y61417D02*
D03*
X298819D02*
D03*
X305709Y75197D02*
D03*
X299409D02*
D03*
X305709Y80709D02*
D03*
X299409D02*
D03*
X323426Y99213D02*
D03*
X317126D02*
D03*
D72*
X319685Y16536D02*
D03*
X312205D02*
D03*
X344291Y56496D02*
D03*
X351772D02*
D03*
X298819Y69291D02*
D03*
X306299D02*
D03*
X316535Y105512D02*
D03*
X324016D02*
D03*
D75*
X319685Y29528D02*
D03*
Y23228D02*
D03*
X324803Y29528D02*
D03*
Y23228D02*
D03*
Y16536D02*
D03*
Y10236D02*
D03*
X350787D02*
D03*
Y16536D02*
D03*
X357677Y70867D02*
D03*
Y64566D02*
D03*
X356496Y76377D02*
D03*
Y82677D02*
D03*
X351378D02*
D03*
Y76377D02*
D03*
X356496Y88582D02*
D03*
Y94882D02*
D03*
X346260Y88583D02*
D03*
Y94883D02*
D03*
X351378D02*
D03*
Y88583D02*
D03*
X306102Y92520D02*
D03*
Y86221D02*
D03*
D78*
X313386Y29528D02*
D03*
Y22048D02*
D03*
Y46260D02*
D03*
Y38780D02*
D03*
X320079Y46260D02*
D03*
Y38780D02*
D03*
X326772Y46260D02*
D03*
Y38780D02*
D03*
X350394Y63386D02*
D03*
Y70866D02*
D03*
X363189Y68898D02*
D03*
Y76378D02*
D03*
Y90158D02*
D03*
Y82677D02*
D03*
X300218Y93191D02*
D03*
Y85710D02*
D03*
D114*
X339764Y122835D02*
D03*
X325591D02*
D03*
X339764Y108661D02*
D03*
D115*
X300787Y46850D02*
D03*
Y40945D02*
D03*
Y35039D02*
D03*
Y29134D02*
D03*
Y23228D02*
D03*
Y17323D02*
D03*
X273623Y40945D02*
D03*
Y17323D02*
D03*
Y23228D02*
D03*
Y29134D02*
D03*
Y35039D02*
D03*
Y46850D02*
D03*
D116*
X140424Y101448D02*
D03*
X126505Y87529D02*
D03*
X22658Y107480D02*
D03*
Y127165D02*
D03*
X31369Y239243D02*
D03*
X17450Y225324D02*
D03*
X31369Y286487D02*
D03*
X17450Y272568D02*
D03*
X55118Y342913D02*
D03*
X173228D02*
D03*
X94488Y224803D02*
D03*
X133858D02*
D03*
X74803Y303543D02*
D03*
X153543D02*
D03*
D117*
X156723Y54520D02*
D03*
D118*
X161054Y29717D02*
D03*
X41732Y154724D02*
D03*
D119*
X179951Y42316D02*
D03*
X29134Y173622D02*
D03*
D120*
X53937Y177953D02*
D03*
D121*
X27559Y323071D02*
D03*
Y343071D02*
D03*
X196693Y338583D02*
D03*
X216693D02*
D03*
X247874D02*
D03*
X267874D02*
D03*
D160*
X342913Y17717D02*
D03*
Y10237D02*
D03*
X332677Y17717D02*
D03*
Y13977D02*
D03*
Y10237D02*
D03*
D161*
Y29528D02*
D03*
X344094D02*
D03*
D162*
X338228Y92559D02*
D03*
D03*
Y87559D02*
D03*
Y82559D02*
D03*
Y77559D02*
D03*
Y72559D02*
D03*
Y67559D02*
D03*
Y62559D02*
D03*
X317284Y87559D02*
D03*
Y82559D02*
D03*
Y77559D02*
D03*
Y72559D02*
D03*
Y67559D02*
D03*
Y62559D02*
D03*
Y92559D02*
D03*
M02*
