G04*
G04 #@! TF.GenerationSoftware,Altium Limited,Altium Designer,22.2.1 (43)*
G04*
G04 Layer_Physical_Order=3*
G04 Layer_Color=128*
%FSLAX25Y25*%
%MOIN*%
G70*
G04*
G04 #@! TF.SameCoordinates,4EB9BB6F-69CC-4AE6-9B36-E95FEA1B1F0F*
G04*
G04*
G04 #@! TF.FilePolarity,Negative*
G04*
G01*
G75*
%ADD109C,0.03000*%
%ADD125C,0.04000*%
%ADD127R,0.32284X0.75000*%
%ADD128R,2.91339X0.68504*%
%ADD129R,1.14173X0.41929*%
%ADD130R,1.31102X1.58268*%
%ADD131C,0.07969*%
%ADD133C,0.09543*%
%ADD134C,0.09937*%
%ADD136C,0.14268*%
%ADD140C,0.09150*%
%ADD144C,0.12890*%
%ADD145C,0.10331*%
%ADD146C,0.11118*%
G04:AMPARAMS|DCode=147|XSize=63.779mil|YSize=63.779mil|CornerRadius=0mil|HoleSize=0mil|Usage=FLASHONLY|Rotation=0.000|XOffset=0mil|YOffset=0mil|HoleType=Round|Shape=Relief|Width=15mil|Gap=10mil|Entries=4|*
%AMTHD147*
7,0,0,0.06378,0.04378,0.01500,45*
%
%ADD147THD147*%
%ADD148C,0.07378*%
%ADD149C,0.07181*%
G04:AMPARAMS|DCode=150|XSize=61.811mil|YSize=61.811mil|CornerRadius=0mil|HoleSize=0mil|Usage=FLASHONLY|Rotation=0.000|XOffset=0mil|YOffset=0mil|HoleType=Round|Shape=Relief|Width=15mil|Gap=10mil|Entries=4|*
%AMTHD150*
7,0,0,0.06181,0.04181,0.01500,45*
%
%ADD150THD150*%
%ADD151C,0.02200*%
%ADD152R,0.09843X0.07480*%
%AMTHOVALD153*
21,1,0.01181,0.09724,0,0,0.0*
1,1,0.09724,-0.00591,0.00000*
1,1,0.09724,0.00591,0.00000*
21,0,0.01181,0.07724,0,0,0.0*
1,0,0.07724,-0.00591,0.00000*
1,0,0.07724,0.00591,0.00000*
4,0,4,-0.00060,-0.00530,-0.03498,-0.03968,-0.04559,-0.02908,-0.01121,0.00530,-0.00060,-0.00530,0.0*
4,0,4,0.01121,-0.00530,0.04559,0.02908,0.03498,0.03968,0.00060,0.00530,0.01121,-0.00530,0.0*
4,0,4,-0.01121,-0.00530,-0.04559,0.02908,-0.03498,0.03968,-0.00060,0.00530,-0.01121,-0.00530,0.0*
4,0,4,0.00060,-0.00530,0.03498,-0.03968,0.04559,-0.02908,0.01121,0.00530,0.00060,-0.00530,0.0*
%
%ADD153THOVALD153*%

%ADD154O,0.17811X0.09937*%
%ADD155O,0.10724X0.17811*%
%ADD156O,0.09937X0.17811*%
%ADD157O,0.17811X0.10724*%
%AMTHOVALD158*
21,1,0.01181,0.09724,0,0,270.0*
1,1,0.09724,0.00000,0.00591*
1,1,0.09724,0.00000,-0.00591*
21,0,0.01181,0.07724,0,0,270.0*
1,0,0.07724,0.00000,0.00591*
1,0,0.07724,0.00000,-0.00591*
4,0,4,-0.00530,0.00060,-0.03968,0.03498,-0.02908,0.04559,0.00530,0.01121,-0.00530,0.00060,0.0*
4,0,4,-0.00530,-0.01121,0.02908,-0.04559,0.03968,-0.03498,0.00530,-0.00060,-0.00530,-0.01121,0.0*
4,0,4,-0.00530,0.01121,0.02908,0.04559,0.03968,0.03498,0.00530,0.00060,-0.00530,0.01121,0.0*
4,0,4,-0.00530,-0.00060,-0.03968,-0.03498,-0.02908,-0.04559,0.00530,-0.01121,-0.00530,-0.00060,0.0*
%
%ADD158THOVALD158*%

G04:AMPARAMS|DCode=159|XSize=101.181mil|YSize=101.181mil|CornerRadius=0mil|HoleSize=0mil|Usage=FLASHONLY|Rotation=0.000|XOffset=0mil|YOffset=0mil|HoleType=Round|Shape=Relief|Width=15mil|Gap=10mil|Entries=4|*
%AMTHD159*
7,0,0,0.10118,0.08118,0.01500,45*
%
%ADD159THD159*%
D109*
X283465Y238976D02*
X284449Y237992D01*
X291339D01*
X284055Y239567D02*
X284252Y239370D01*
X284055Y239567D02*
Y254528D01*
X286221Y239567D02*
Y252165D01*
X288583Y254528D01*
X284055D02*
X288583D01*
X280906Y257677D02*
X284055Y254528D01*
X280709Y257677D02*
X287402D01*
X288189Y256890D01*
X281693D02*
X288189D01*
X277756Y260827D02*
X281693Y256890D01*
X277756Y260827D02*
X287795D01*
X289961Y258661D01*
X282874D02*
X289961D01*
X279921Y261614D02*
X282874Y258661D01*
X288386Y394D02*
X288779Y787D01*
Y263189D01*
X290748Y261221D01*
X290945D01*
X289961Y260236D02*
X290945Y261221D01*
X289961Y1575D02*
Y260236D01*
X291929Y141929D02*
X292323Y142323D01*
X291929Y984D02*
Y141929D01*
X110433Y118307D02*
X127362D01*
X96653Y104528D02*
X110433Y118307D01*
X96653Y48622D02*
Y104528D01*
Y48622D02*
X109646Y35630D01*
X147244D01*
X153150Y41535D01*
X163583D01*
X171063Y49016D01*
Y62992D01*
X165945Y68110D02*
X171063Y62992D01*
X151772Y68110D02*
X165945D01*
X146850Y63189D02*
X151772Y68110D01*
X146850Y50591D02*
Y63189D01*
X141732Y45472D02*
X146850Y50591D01*
X141535Y45472D02*
X141732D01*
X115551D02*
X141535D01*
X108858Y52165D02*
X115551Y45472D01*
X108858Y52165D02*
Y82087D01*
X120866Y94095D01*
X129331Y102559D01*
Y116732D01*
X127854Y118209D02*
X129331Y116732D01*
D125*
X0Y0D02*
X374016D01*
Y141732D01*
X291339D02*
X374016D01*
X291339D02*
Y366142D01*
X0D02*
X291339D01*
X0Y0D02*
Y366142D01*
D127*
X16142Y58563D02*
D03*
D128*
X145079Y331496D02*
D03*
D129*
X235827Y280610D02*
D03*
D130*
X114173Y287992D02*
D03*
D131*
X339764Y122835D02*
D03*
X325591D02*
D03*
X339764Y108661D02*
D03*
D133*
X300787Y46850D02*
D03*
Y40945D02*
D03*
Y35039D02*
D03*
Y29134D02*
D03*
Y23228D02*
D03*
Y17323D02*
D03*
X273623Y40945D02*
D03*
Y17323D02*
D03*
Y23228D02*
D03*
Y29134D02*
D03*
Y35039D02*
D03*
Y46850D02*
D03*
X106968Y7874D02*
D03*
X95157D02*
D03*
D134*
X140424Y101448D02*
D03*
X126505Y87529D02*
D03*
X31369Y239243D02*
D03*
X17450Y225324D02*
D03*
X31369Y286487D02*
D03*
X17450Y272568D02*
D03*
X94488Y224803D02*
D03*
X133858D02*
D03*
X74803Y303543D02*
D03*
X153543D02*
D03*
D136*
X161054Y12001D02*
D03*
X11417Y173622D02*
D03*
D140*
X22658Y107480D02*
D03*
Y127165D02*
D03*
D144*
X27559Y323071D02*
D03*
Y343071D02*
D03*
X196693Y338583D02*
D03*
X216693D02*
D03*
X247874D02*
D03*
X267874D02*
D03*
D145*
X55118Y342913D02*
D03*
X173228D02*
D03*
D146*
X242874Y318465D02*
D03*
Y248465D02*
D03*
Y288465D02*
D03*
X272795Y308465D02*
D03*
X191693Y318465D02*
D03*
Y288465D02*
D03*
X221693Y248465D02*
D03*
X221614Y308465D02*
D03*
D147*
X122047Y106299D02*
D03*
X157087Y164764D02*
D03*
X153150D02*
D03*
Y160827D02*
D03*
X149213D02*
D03*
Y156890D02*
D03*
X153150D02*
D03*
X270140Y95534D02*
D03*
X242520Y165354D02*
D03*
X188386Y137402D02*
D03*
X69291Y123553D02*
D03*
X72835D02*
D03*
X76772D02*
D03*
X239370Y118110D02*
D03*
X200787Y99410D02*
D03*
X52559Y5118D02*
D03*
X44685D02*
D03*
X48622D02*
D03*
X248820Y52362D02*
D03*
X80709Y125197D02*
D03*
X211477Y80708D02*
D03*
X264685Y175669D02*
D03*
X262206Y52362D02*
D03*
X255513D02*
D03*
X180709Y106299D02*
D03*
Y110236D02*
D03*
X116142Y102362D02*
D03*
Y110236D02*
D03*
X52362Y188976D02*
D03*
X65748Y159843D02*
D03*
X57874D02*
D03*
X56299Y188976D02*
D03*
X61811Y159843D02*
D03*
X60236Y188976D02*
D03*
D148*
X312205Y9449D02*
D03*
X322835Y35236D02*
D03*
X309449D02*
D03*
X315945D02*
D03*
X307087Y55118D02*
D03*
X276378Y226378D02*
D03*
X232283Y238779D02*
D03*
X234646Y213779D02*
D03*
X48425Y142520D02*
D03*
X66929Y147441D02*
D03*
X78740Y145472D02*
D03*
X81102Y172441D02*
D03*
X116535D02*
D03*
X124409D02*
D03*
X169095Y156496D02*
D03*
X159843Y128937D02*
D03*
X140157Y122638D02*
D03*
X116339Y65551D02*
D03*
Y55709D02*
D03*
X235039Y40157D02*
D03*
X274016Y77756D02*
D03*
Y87598D02*
D03*
X219094Y83465D02*
D03*
X176575Y117717D02*
D03*
X226969Y142126D02*
D03*
X211221Y144095D02*
D03*
Y153937D02*
D03*
X249016Y126378D02*
D03*
X248819Y167323D02*
D03*
X272441Y195472D02*
D03*
Y213189D02*
D03*
X182283Y168110D02*
D03*
X189370D02*
D03*
X215945Y199409D02*
D03*
X177756Y189567D02*
D03*
X189567D02*
D03*
X207283Y207283D02*
D03*
Y219094D02*
D03*
X189567D02*
D03*
X232033Y246850D02*
D03*
X67913Y17874D02*
D03*
X28150Y29724D02*
D03*
Y14764D02*
D03*
Y22244D02*
D03*
Y7480D02*
D03*
X232283Y225394D02*
D03*
X197638Y131890D02*
D03*
X43110Y103543D02*
D03*
X47638Y100787D02*
D03*
X197638Y125984D02*
D03*
X60236Y138386D02*
D03*
X228868Y112402D02*
D03*
X222441Y176181D02*
D03*
X221555Y179823D02*
D03*
X215551Y93169D02*
D03*
X211477Y87008D02*
D03*
X248425Y32087D02*
D03*
D149*
X210827Y65908D02*
D03*
Y62940D02*
D03*
X201772Y68701D02*
D03*
X219783Y43626D02*
D03*
X53150Y127165D02*
D03*
X212008Y172441D02*
D03*
X271063Y155118D02*
D03*
Y150394D02*
D03*
Y155118D02*
D03*
Y150394D02*
D03*
X264173Y140157D02*
D03*
D03*
D150*
X219783Y26847D02*
D03*
D151*
X178937Y208858D02*
Y259646D01*
X73228Y157087D02*
Y173228D01*
X77953Y177953D01*
X169291D01*
X215354Y224016D01*
X268504D01*
X283465Y238976D01*
X282677Y238189D02*
Y253543D01*
X274803Y261417D02*
X282677Y253543D01*
X265354Y261417D02*
X274803D01*
X260236Y256299D02*
X265354Y261417D01*
X260236Y244094D02*
Y256299D01*
X248819Y232677D02*
X260236Y244094D01*
X208661Y232677D02*
X248819D01*
X203543Y237795D02*
X208661Y232677D01*
X203543Y237795D02*
Y254724D01*
X197638Y260630D02*
X203543Y254724D01*
X179921Y260630D02*
X197638D01*
X178937Y259646D02*
X179921Y260630D01*
X164173Y194095D02*
X178937Y208858D01*
X127953Y194095D02*
X164173D01*
X73228D02*
X127953D01*
X67716Y199606D02*
X73228Y194095D01*
Y157087D02*
X86614Y143701D01*
Y124409D02*
Y143701D01*
X81102Y118898D02*
X86614Y124409D01*
X62992Y118898D02*
X81102D01*
X57480Y124409D02*
X62992Y118898D01*
X57480Y124409D02*
Y152756D01*
X45669Y164567D02*
X57480Y152756D01*
X45669Y164567D02*
Y195276D01*
X50000Y199606D01*
X67716D01*
D152*
X273820Y46654D02*
D03*
X300984D02*
D03*
D153*
X156723Y54520D02*
D03*
D154*
X161054Y29717D02*
D03*
D155*
X179951Y42316D02*
D03*
D156*
X29134Y173622D02*
D03*
D157*
X41732Y154724D02*
D03*
D158*
X53937Y177953D02*
D03*
D159*
X272874Y248465D02*
D03*
X191693D02*
D03*
M02*
