G04*
G04 #@! TF.GenerationSoftware,Altium Limited,Altium Designer,22.2.1 (43)*
G04*
G04 Layer_Color=8388736*
%FSLAX25Y25*%
%MOIN*%
G70*
G04*
G04 #@! TF.SameCoordinates,4EB9BB6F-69CC-4AE6-9B36-E95FEA1B1F0F*
G04*
G04*
G04 #@! TF.FilePolarity,Negative*
G04*
G01*
G75*
%ADD21R,0.04194X0.03494*%
%ADD22R,0.04724X0.03543*%
%ADD23R,0.03150X0.05512*%
%ADD24O,0.07284X0.05315*%
%ADD25R,0.04528X0.02559*%
%ADD26R,0.03494X0.04194*%
%ADD27R,0.08268X0.04724*%
%ADD28R,0.06299X0.02362*%
%ADD29R,0.05512X0.03150*%
%ADD30R,0.02756X0.05118*%
%ADD31R,0.08661X0.06693*%
%ADD32R,0.01968X0.05709*%
%ADD33R,0.07480X0.07874*%
%ADD34R,0.04331X0.02362*%
%ADD35R,0.06693X0.06693*%
%ADD36R,0.02559X0.04528*%
%ADD37R,0.05118X0.06693*%
%ADD38R,0.13386X0.06693*%
%ADD39R,0.13386X0.17717*%
%ADD40R,0.15748X0.24803*%
%ADD41R,0.04331X0.03543*%
%ADD42R,0.03150X0.06299*%
%ADD43R,0.06299X0.03937*%
%ADD44R,0.03937X0.06299*%
%ADD45R,0.03937X0.03937*%
%ADD46R,0.03937X0.03937*%
%ADD47R,0.05512X0.13780*%
%ADD48R,0.09252X0.08740*%
%ADD49R,0.24803X0.15748*%
%ADD50R,0.17717X0.13386*%
G04:AMPARAMS|DCode=51|XSize=66.93mil|YSize=53.15mil|CornerRadius=0mil|HoleSize=0mil|Usage=FLASHONLY|Rotation=225.000|XOffset=0mil|YOffset=0mil|HoleType=Round|Shape=Rectangle|*
%AMROTATEDRECTD51*
4,1,4,0.00487,0.04245,0.04245,0.00487,-0.00487,-0.04245,-0.04245,-0.00487,0.00487,0.04245,0.0*
%
%ADD51ROTATEDRECTD51*%

%ADD52R,0.06496X0.05118*%
%ADD53R,0.01575X0.05118*%
%ADD54R,0.05118X0.01575*%
%ADD55R,0.12205X0.08268*%
%ADD56C,0.04331*%
%ADD57O,0.08268X0.05512*%
%ADD58C,0.08268*%
%ADD59C,0.08661*%
%ADD60O,0.14567X0.07480*%
%ADD61O,0.16142X0.08268*%
%ADD62O,0.08268X0.16142*%
%ADD63C,0.00394*%
%ADD64O,0.07480X0.14567*%
%ADD65C,0.12205*%
%ADD66C,0.02756*%
%ADD67C,0.02362*%
%ADD68C,0.02165*%
G36*
X352126Y9173D02*
X352992Y9331D01*
X353622Y9606D01*
X354842Y10394D01*
X356614Y12402D01*
X358150Y14803D01*
X359795Y18205D01*
X359795Y18204D01*
X359931Y18320D01*
X360157Y14882D01*
X360591Y13740D01*
X361535Y12756D01*
X362559Y12362D01*
X364449D01*
X364882Y12480D01*
X366811Y13543D01*
X367717Y14961D01*
X367953Y15787D01*
X367874Y16614D01*
X367638Y17047D01*
X367284Y17284D01*
X367165Y17244D01*
X365354Y15748D01*
X364370Y15394D01*
X363858Y15748D01*
X363622Y17638D01*
X363543Y21142D01*
X363425Y22716D01*
X363307Y23228D01*
X362913Y24252D01*
X362402Y24764D01*
X361890Y24961D01*
X361181D01*
X360551Y24685D01*
X360039Y24055D01*
X358661Y21260D01*
X356968Y17953D01*
X354842Y14646D01*
X353386Y12874D01*
X353386Y12874D01*
X352874D01*
X352480Y13386D01*
X352297Y14524D01*
X352304Y14756D01*
X352638Y16969D01*
X353110Y19252D01*
X353740Y21693D01*
X354055Y22795D01*
X354331Y24173D01*
X354449Y25630D01*
X354331Y26339D01*
X354252Y26614D01*
X354016Y27047D01*
X353622Y27480D01*
X353097Y27673D01*
X352716Y27677D01*
X351811Y27480D01*
X351142Y26811D01*
X350433Y25197D01*
X349134Y23071D01*
X347835Y21339D01*
X346535Y19961D01*
X345433Y19173D01*
X345315Y19055D01*
Y18583D01*
X345669Y17913D01*
X346260Y17441D01*
X347480D01*
X348661Y18071D01*
X348425Y16614D01*
X348307Y16063D01*
X348110Y14882D01*
X347992Y13032D01*
X348543Y11181D01*
X349055Y10394D01*
X350157Y9488D01*
X351142Y9173D01*
X352126D01*
D02*
G37*
D21*
X335827Y52756D02*
D03*
X329527D02*
D03*
X335827Y72244D02*
D03*
X329527D02*
D03*
X226241Y225394D02*
D03*
X219941D02*
D03*
X237361D02*
D03*
X243661D02*
D03*
X262599Y83465D02*
D03*
X256299D02*
D03*
X234842Y126378D02*
D03*
X241143D02*
D03*
X251575Y140157D02*
D03*
X257875D02*
D03*
X254924Y150456D02*
D03*
X261224D02*
D03*
Y155056D02*
D03*
X254924D02*
D03*
X242519Y159449D02*
D03*
X248819D02*
D03*
X183268Y126772D02*
D03*
X176968D02*
D03*
X183268Y133071D02*
D03*
X176969D02*
D03*
X67716Y10394D02*
D03*
X74016D02*
D03*
X105473Y118087D02*
D03*
X99173D02*
D03*
X170867Y139370D02*
D03*
X164567D02*
D03*
X176772Y163779D02*
D03*
X170472D02*
D03*
X203544Y174016D02*
D03*
X197244D02*
D03*
D22*
X328957Y61811D02*
D03*
X336398Y65551D02*
D03*
Y58071D02*
D03*
X220905Y230709D02*
D03*
X213465Y234449D02*
D03*
X220905Y238189D02*
D03*
X242519Y238189D02*
D03*
X249960Y234449D02*
D03*
X242519Y230709D02*
D03*
X50492Y14134D02*
D03*
X57933Y10394D02*
D03*
Y17874D02*
D03*
X46496Y110630D02*
D03*
X53937Y106890D02*
D03*
Y114370D02*
D03*
D23*
X336417Y83465D02*
D03*
X328937D02*
D03*
X149173Y134646D02*
D03*
X141693D02*
D03*
X39567Y5512D02*
D03*
X32087D02*
D03*
X39567Y11811D02*
D03*
X32087D02*
D03*
X39567Y18110D02*
D03*
X32087D02*
D03*
D24*
X300787Y46850D02*
D03*
X273623D02*
D03*
D25*
X205768Y237849D02*
D03*
X194744D02*
D03*
X257834D02*
D03*
X268858D02*
D03*
X240551Y32087D02*
D03*
X229528D02*
D03*
D26*
X226772Y231889D02*
D03*
Y238189D02*
D03*
X236614Y237009D02*
D03*
Y230709D02*
D03*
X206102Y87008D02*
D03*
Y80708D02*
D03*
Y93169D02*
D03*
Y99469D02*
D03*
X224410Y115354D02*
D03*
Y109054D02*
D03*
X219291Y115354D02*
D03*
Y109054D02*
D03*
X214173Y115354D02*
D03*
Y109054D02*
D03*
X209055Y115355D02*
D03*
Y109055D02*
D03*
X192520Y133268D02*
D03*
Y126968D02*
D03*
X124016Y156275D02*
D03*
Y162575D02*
D03*
X115236Y28741D02*
D03*
Y22441D02*
D03*
X81102Y16536D02*
D03*
Y10236D02*
D03*
X44528Y17874D02*
D03*
Y11574D02*
D03*
X60236Y113387D02*
D03*
Y107087D02*
D03*
X215945Y185236D02*
D03*
Y191536D02*
D03*
D27*
X244488Y175669D02*
D03*
Y185669D02*
D03*
Y195669D02*
D03*
Y205669D02*
D03*
Y215669D02*
D03*
D28*
X226969Y98465D02*
D03*
Y93465D02*
D03*
Y88465D02*
D03*
X248622Y83465D02*
D03*
Y88465D02*
D03*
Y93465D02*
D03*
Y98465D02*
D03*
X226969Y83465D02*
D03*
X171850Y103169D02*
D03*
Y98169D02*
D03*
Y93169D02*
D03*
X193504Y88169D02*
D03*
Y93169D02*
D03*
Y98169D02*
D03*
Y103169D02*
D03*
X171850Y88169D02*
D03*
X113150Y124606D02*
D03*
Y129606D02*
D03*
Y134606D02*
D03*
X91496Y139606D02*
D03*
Y129606D02*
D03*
Y124606D02*
D03*
X113150Y139606D02*
D03*
X91496Y134606D02*
D03*
D29*
X263189Y98425D02*
D03*
Y90945D02*
D03*
X256496Y98425D02*
D03*
Y90945D02*
D03*
X262206Y47638D02*
D03*
Y40157D02*
D03*
X255513Y47638D02*
D03*
Y40157D02*
D03*
X248820Y47638D02*
D03*
Y40157D02*
D03*
X256299Y32087D02*
D03*
Y24606D02*
D03*
X193701Y110235D02*
D03*
Y117716D02*
D03*
X186447Y110235D02*
D03*
Y117716D02*
D03*
X118110Y155685D02*
D03*
Y163165D02*
D03*
X78701Y130118D02*
D03*
Y137598D02*
D03*
X71653Y130118D02*
D03*
Y137598D02*
D03*
X46496Y127165D02*
D03*
Y134646D02*
D03*
X159055Y156890D02*
D03*
Y149409D02*
D03*
X182283Y181496D02*
D03*
Y174016D02*
D03*
X189370Y181496D02*
D03*
Y174016D02*
D03*
D30*
X219783Y30709D02*
D03*
X223524D02*
D03*
Y39764D02*
D03*
X216043D02*
D03*
Y30709D02*
D03*
X219783Y39764D02*
D03*
D31*
X230709Y18602D02*
D03*
X206299D02*
D03*
D32*
X223622Y19094D02*
D03*
X221063D02*
D03*
X215945D02*
D03*
X218504D02*
D03*
X213386D02*
D03*
D33*
X233465Y7697D02*
D03*
X203543D02*
D03*
D34*
X160236Y103150D02*
D03*
Y98819D02*
D03*
D35*
X94095Y199602D02*
D03*
X79921D02*
D03*
D36*
Y191732D02*
D03*
Y180709D02*
D03*
X149213Y126772D02*
D03*
Y115748D02*
D03*
D37*
X149173Y143283D02*
D03*
X131063D02*
D03*
X140118D02*
D03*
D38*
Y168480D02*
D03*
D39*
X163613Y62198D02*
D03*
D40*
X135660Y26961D02*
D03*
X186447D02*
D03*
D41*
X115433Y3740D02*
D03*
X86693D02*
D03*
X115433Y12008D02*
D03*
X86693D02*
D03*
D42*
X104016Y14764D02*
D03*
X92205D02*
D03*
X109921D02*
D03*
D43*
X104449Y61732D02*
D03*
Y81732D02*
D03*
Y76732D02*
D03*
Y71732D02*
D03*
Y66732D02*
D03*
Y56732D02*
D03*
Y51732D02*
D03*
Y46732D02*
D03*
Y41732D02*
D03*
Y36732D02*
D03*
D03*
D44*
X39528Y24803D02*
D03*
X44528D02*
D03*
X49528D02*
D03*
X54528D02*
D03*
X59528D02*
D03*
X64528D02*
D03*
X69528D02*
D03*
X74528D02*
D03*
X79528D02*
D03*
X84528D02*
D03*
X89528D02*
D03*
X94528D02*
D03*
X99528D02*
D03*
X39528Y93661D02*
D03*
X44528D02*
D03*
X49528D02*
D03*
X54528D02*
D03*
X59528D02*
D03*
X64528D02*
D03*
X69528D02*
D03*
X74528D02*
D03*
X79528D02*
D03*
X84528D02*
D03*
X89528D02*
D03*
X94528D02*
D03*
X99528D02*
D03*
X34528Y24803D02*
D03*
D03*
Y93661D02*
D03*
D45*
X59449Y47874D02*
D03*
Y53346D02*
D03*
X70394Y47874D02*
D03*
Y53346D02*
D03*
X59449Y58819D02*
D03*
X70394D02*
D03*
D46*
X64921Y47874D02*
D03*
Y53346D02*
D03*
Y58819D02*
D03*
D47*
X98189Y106276D02*
D03*
X106457D02*
D03*
D48*
X86221Y106275D02*
D03*
X69016D02*
D03*
D49*
X26378Y148228D02*
D03*
Y199016D02*
D03*
D50*
X61614Y171063D02*
D03*
D51*
X180589Y143362D02*
D03*
X184765Y159787D02*
D03*
X174465Y149487D02*
D03*
X190890Y153663D02*
D03*
D52*
X105866Y199602D02*
D03*
X140512D02*
D03*
Y179090D02*
D03*
X105866D02*
D03*
D53*
X229724Y132087D02*
D03*
X225787D02*
D03*
X223819D02*
D03*
X221850D02*
D03*
X219882D02*
D03*
X217913D02*
D03*
X215945D02*
D03*
X213976D02*
D03*
X212008D02*
D03*
X210039D02*
D03*
X208071D02*
D03*
X229724Y165551D02*
D03*
X227756D02*
D03*
X225787D02*
D03*
X223819D02*
D03*
X221850D02*
D03*
X219882D02*
D03*
X217913D02*
D03*
X215945D02*
D03*
X213976D02*
D03*
X212008D02*
D03*
X208071D02*
D03*
X227756Y132087D02*
D03*
X210039Y165551D02*
D03*
D54*
X202165Y137992D02*
D03*
Y139961D02*
D03*
Y141929D02*
D03*
Y143898D02*
D03*
Y147835D02*
D03*
Y149803D02*
D03*
Y151772D02*
D03*
Y153740D02*
D03*
Y155709D02*
D03*
Y157677D02*
D03*
Y159646D02*
D03*
D03*
X235630Y137992D02*
D03*
Y139961D02*
D03*
Y141929D02*
D03*
Y143898D02*
D03*
Y145866D02*
D03*
Y147835D02*
D03*
Y149803D02*
D03*
Y151772D02*
D03*
Y153740D02*
D03*
Y155709D02*
D03*
Y159646D02*
D03*
X202165Y145866D02*
D03*
X235630Y157677D02*
D03*
D55*
X81063Y158244D02*
D03*
X104685D02*
D03*
D56*
X339764Y122835D02*
D03*
X325591D02*
D03*
X339764Y108661D02*
D03*
D57*
X300787Y46850D02*
D03*
Y40945D02*
D03*
Y35039D02*
D03*
Y29134D02*
D03*
Y23228D02*
D03*
Y17323D02*
D03*
X273623Y40945D02*
D03*
Y17323D02*
D03*
Y23228D02*
D03*
Y29134D02*
D03*
Y35039D02*
D03*
Y46850D02*
D03*
D58*
X140424Y101448D02*
D03*
X126505Y87529D02*
D03*
X22658Y107480D02*
D03*
Y127165D02*
D03*
X31369Y239243D02*
D03*
X17450Y225324D02*
D03*
X31369Y286487D02*
D03*
X17450Y272568D02*
D03*
X55118Y342913D02*
D03*
X173228D02*
D03*
X94488Y224803D02*
D03*
X133858D02*
D03*
X74803Y303543D02*
D03*
X153543D02*
D03*
D59*
X161054Y12001D02*
D03*
X11417Y173622D02*
D03*
X242874Y318465D02*
D03*
Y248465D02*
D03*
Y288465D02*
D03*
X272874Y248465D02*
D03*
X272795Y308465D02*
D03*
X191693Y318465D02*
D03*
Y248465D02*
D03*
Y288465D02*
D03*
X221693Y248465D02*
D03*
X221614Y308465D02*
D03*
D60*
X156723Y54520D02*
D03*
D61*
X161054Y29717D02*
D03*
X41732Y154724D02*
D03*
D62*
X179951Y42316D02*
D03*
X29134Y173622D02*
D03*
D63*
X106968Y7874D02*
D03*
X95157D02*
D03*
D64*
X53937Y177953D02*
D03*
D65*
X27559Y323071D02*
D03*
Y343071D02*
D03*
X196693Y338583D02*
D03*
X216693D02*
D03*
X247874D02*
D03*
X267874D02*
D03*
D66*
X307087Y55118D02*
D03*
X140157Y122638D02*
D03*
X67913Y17874D02*
D03*
X232283Y225394D02*
D03*
X43110Y103543D02*
D03*
X47638Y100787D02*
D03*
X60236Y138386D02*
D03*
X222441Y176181D02*
D03*
X221555Y179823D02*
D03*
X264685Y175669D02*
D03*
X248425Y32087D02*
D03*
D67*
X210827Y65908D02*
D03*
Y62940D02*
D03*
X201772Y68701D02*
D03*
D68*
X219783Y43626D02*
D03*
Y26847D02*
D03*
M02*
